<svg xmlns="http://www.w3.org/2000/svg" width="24" height="24" version="1.1" viewBox="0 0 24 24">
 <rect style="fill:none" width="24" height="24" x="-24" y="-24" transform="matrix(0,-1,-1,0,0,0)"/>
 <rect style="fill:#666666" width="1" height="24" x="-4" y="-24" transform="matrix(0,-1,-1,0,0,0)"/>
 <rect style="fill:#666666" width="16" height="5" x="-21" y="-13" transform="matrix(0,-1,-1,0,0,0)"/>
 <rect style="fill:#666666" width="10" height="3" x="-15" y="-18" transform="matrix(0,-1,-1,0,0,0)"/>
 <rect style="fill:#666666" width="14" height="4" x="-19" y="-24" transform="matrix(0,-1,-1,0,0,0)"/>
 <path style="fill:#666666" d="M 3,5 6,8 H 0 Z"/>
 <rect style="fill:#666666" width="9" height="2" x="8" y="-4" transform="rotate(90)"/>
</svg>
