<svg xmlns="http://www.w3.org/2000/svg" width="24" height="24" version="1.1" viewBox="0 0 24 24">
 <rect style="fill:none" width="24" height="24" x="-24" y="-24" transform="matrix(0,-1,-1,0,0,0)"/>
 <rect style="fill:#666666" width="1" height="24" x="-13" y="-24" transform="matrix(0,-1,-1,0,0,0)"/>
 <path style="fill:#666666" d="M 13,4 H 8 v 7 h 5 z m 0,10 H 8 v 7 h 5 z"/>
 <path style="fill:#666666" d="m 18,7 h -3 v 4 h 3 z m 0,7 h -3 v 4 h 3 z"/>
 <path style="fill:#666666" d="m 24,5 h -4 v 6 h 4 z m 0,9 h -4 v 6 h 4 z"/>
 <path style="fill:#666666" d="m 3,14 3,3 H 0 Z"/>
 <rect style="fill:#666666" width="7" height="2" x="17" y="-4" transform="rotate(90)"/>
 <path style="fill:#666666" d="M 3,11 6,8 H 0 Z"/>
 <rect style="fill:#666666" width="7" height="2" x="-8" y="-4" transform="matrix(0,-1,-1,0,0,0)"/>
</svg>
