<svg xmlns="http://www.w3.org/2000/svg" xmlns:xlink="http://www.w3.org/1999/xlink" width="24" height="24" version="1.1" viewBox="0 0 24 24">
 <use width="1250" height="1250" x="0" y="0" transform="matrix(1,0,0,0.99802,34,-174.68)" xlink:href="#path5120"/>
 <rect style="fill:none" width="24" height="24" x="0" y="-24" transform="rotate(90)"/>
 <path style="fill:#666666" d="m 7.2,9.4 c 0.7,-0.67 2.1,-0.43 2.7,0.35 0.9,1.19 1.2,2.7 1.6,4.12 0.2,1.2 0.4,2.43 0.5,3.66 0.8,-1.56 1.7,-3.23 1.7,-4.98 0,-0.89 -0.5,-1.64 -0.9,-2.42 C 12.5,9.47 13.3,8.79 14,9 c 0.9,0.16 1,1.1 1,1.77 -0.1,2.01 -0.9,3.97 -1.7,5.8 -1.2,2.42 -2.9,4.66 -5.1,6.35 C 7.3,23.54 5.1,24.27 4,23.89 2,22.9 2,20.92 4,20.92 4.8,20.59 6.6,22.16 7.3,22.14 8.5,22.13 9.4,21.08 9.7,20.09 10.1,18.78 9.7,17.43 9.5,16.12 9.2,14.42 8.8,12.69 7.9,11.15 7.8,10.55 6.3,10.2 7.2,9.4 Z"/>
 <path style="fill:#666666" d="m 11.4,4.44 c -0.6,0 -1,0.08 -1.3,0.26 -0.3,0.17 -0.4,0.43 -0.4,0.77 0,0.31 0.1,0.55 0.3,0.73 0.2,0.18 0.6,0.26 1,0.26 0.5,0 0.9,-0.16 1.2,-0.49 0.4,-0.34 0.5,-0.75 0.5,-1.25 V 4.44 h -1.3 m 4,-0.93 V 7.9 H 12.7 V 6.76 C 12.4,7.23 12,7.57 11.5,7.79 11.1,8 10.5,8.1 9.9,8.1 9.1,8.1 8.4,7.87 7.8,7.41 7.3,6.94 7,6.33 7,5.59 7,4.69 7.3,4.02 8,3.6 8.7,3.18 9.7,2.97 11.2,2.97 h 1.5 V 2.78 C 12.7,2.39 12.6,2.1 12.2,1.92 11.9,1.74 11.4,1.65 10.7,1.65 10.1,1.65 9.6,1.7 9.1,1.81 8.6,1.91 8.2,2.07 7.7,2.28 V 0.4 C 8.3,0.28 8.9,0.18 9.5,0.11 c 0.5,-0.06 1.1,-0.1 1.7,-0.1 1.5,0 2.5,0.28 3.2,0.83 0.7,0.54 1,1.43 1,2.67"/>
 <rect style="fill:#666666" width="1" height="24" x="5" y="0"/>
</svg>
