<svg xmlns="http://www.w3.org/2000/svg" width="24.005" height="24.006" version="1.1" viewBox="0 0 24 24.01">
 <path style="fill:none;stroke:#666666;stroke-linecap:square" d="m 23.5,12.55 h -23 v 0"/>
 <path style="fill:none;stroke:#666666;stroke-width:0.99966002;stroke-linecap:round;stroke-linejoin:round;stroke-miterlimit:0" d="m 23.5,23.55 c -3.5,-3 -1.6,-19 -7.5,-17.5 -4,1 -1,17 -8.5,17.5 C 2.1,23.95 5,6.55 1,0.55"/>
 <rect style="fill:#666666;fill-rule:evenodd" width="5" height="5" x="-15.05" y="-23" transform="matrix(0,-1,-1,0,0,0)"/>
 <rect style="fill:#666666;fill-rule:evenodd" width="5" height="5" x="-15.05" y="-15" transform="matrix(0,-1,-1,0,0,0)"/>
 <rect style="fill:#666666;fill-rule:evenodd" width="5" height="5" x="-15.05" y="-6" transform="matrix(0,-1,-1,0,0,0)"/>
 <rect style="fill:none" width="24" height="24" x="-24.05" y="-24" transform="matrix(0,-1,-1,0,0,0)"/>
</svg>
