<svg xmlns="http://www.w3.org/2000/svg" width="24" height="24" version="1.1" viewBox="0 0 24 24">
 <rect style="fill:none" width="24" height="24" x="0" y="-24" transform="rotate(90)"/>
 <path style="fill:#666666" d="M 5.2,5.41 C 5.9,4.73 7.3,4.98 7.9,5.76 8.8,6.94 9.1,8.45 9.5,9.87 9.7,11.08 9.9,11.77 10,13 10.8,11.45 11.7,10.31 11.7,8.55 11.7,7.67 11.2,6.92 10.8,6.13 10.5,5.47 11.3,4.79 12,5 c 0.9,0.17 1,1.11 1,1.78 -0.1,2 -0.9,3.97 -1.7,5.79 -1.2,2.42 -2.9,4.66 -5.1,6.36 C 5.3,19.55 3.1,20.27 2,19.9 0,18.91 0,16.92 2,16.92 2.7,16.6 4.6,18.16 5.3,18.14 6.5,18.13 7.4,17.09 7.7,16.1 8,14.79 7.7,13.43 7.5,12.12 7.2,10.43 6.8,8.69 5.9,7.15 5.8,6.56 4.3,6.2 5.2,5.41 Z"/>
 <path style="fill:#666666" d="m 18.3,10.38 c -0.5,0 -0.9,0.09 -1.2,0.26 -0.3,0.17 -0.4,0.43 -0.4,0.76 0,0.31 0.1,0.55 0.3,0.73 0.2,0.17 0.6,0.26 1,0.26 0.5,0 0.9,-0.17 1.2,-0.49 0.4,-0.33 0.5,-0.75 0.5,-1.24 V 10.38 H 18.3 M 22,9.44 V 14 l -2.3,0.03 V 12.68 C 19.4,13.14 19,13.48 18.5,13.69 18.1,13.9 17.5,14 16.9,14 16,14 15.3,13.77 14.8,13.32 14.3,12.85 14,12.26 14,11.52 14,10.63 14.3,9.98 15,9.56 15.7,9.14 16.7,8.94 18.2,8.94 h 1.5 V 8.75 C 19.7,8.36 19.6,8.08 19.2,7.9 18.9,7.72 18.4,7.63 17.7,7.63 17.1,7.63 16.6,7.68 16.1,7.79 15.6,7.89 15.4,7.79 15,8 V 6.15 l 3.2,-0.13 c 1.5,0 2.1,0.24 2.8,0.79 0.7,0.54 1,1.41 1,2.63"/>
 <rect style="fill:#666666" width="1" height="24" x="14" y="-24" transform="rotate(90)"/>
</svg>
