<svg xmlns="http://www.w3.org/2000/svg" width="24" height="24" version="1.1" viewBox="0 0 24 24">
 <rect style="fill:none" width="24" height="24" x="-24" y="0" transform="scale(-1,1)"/>
 <rect style="fill:#666666" width="1" height="24" x="-13" y="0" transform="scale(-1,1)"/>
 <path style="fill:#666666" d="m 4,0 v 5 h 7 V 0 Z m 10,0 v 5 h 7 V 0 Z"/>
 <path style="fill:#666666" d="m 7,7 v 3 h 4 V 7 Z m 7,0 v 3 h 4 V 7 Z"/>
 <path style="fill:#666666" d="m 5,12 v 4 h 6 v -4 z m 9,0 v 4 h 6 v -4 z"/>
 <path style="fill:#666666" d="m 14,21 3,-3 v 6 z"/>
 <rect style="fill:#666666" width="7" height="2" x="17" y="20"/>
 <path style="fill:#666666" d="M 11,21 8,18 v 6 z"/>
 <rect style="fill:#666666" width="7" height="2" x="-8" y="20" transform="scale(-1,1)"/>
</svg>
