<svg xmlns="http://www.w3.org/2000/svg" width="24" height="24" version="1.1" viewBox="0 0 24 24">
 <rect style="fill:none" width="24" height="24" x="-23.98" y="-24" transform="matrix(0,-1,-1,0,0,0)"/>
 <rect style="fill:#666666" width="4" height="4" x="-3.98" y="-24" transform="matrix(0,-1,-1,0,0,0)"/>
 <rect style="fill:#666666" width="1" height="24" x="-5.98" y="-24" transform="matrix(0,-1,-1,0,0,0)"/>
 <rect style="fill:#666666" width="16" height="5" x="-22.98" y="-20" transform="matrix(0,-1,-1,0,0,0)"/>
 <rect style="fill:#666666" width="10" height="3" x="-16.98" y="-13" transform="matrix(0,-1,-1,0,0,0)"/>
 <rect style="fill:#666666" width="14" height="4" x="-20.98" y="-8" transform="matrix(0,-1,-1,0,0,0)"/>
</svg>
