<svg xmlns="http://www.w3.org/2000/svg" width="24" height="24" version="1.1" viewBox="0 0 24 24">
 <rect style="fill:none" width="24" height="24" x="0" y="0"/>
 <path style="fill:#666666" d="M 12,6 8.28,7.47 C 8.3,7.45 8.25,7.43 7.87,7.5 1.87,8.67 1.5,9.99 1.5,12 v 7.5 C 1.5,20.33 2.17,21 3,21 3.83,21 5,20.83 5,20 V 10 c 7,11 0,0.02 7.19,11.63 0.57,0.85 1.59,1.15 2.28,0.65 l 7.47,-5.4 c 0.68,-0.5 0.76,-1.59 0.18,-2.44 L 18,8.35 V 10.5 12 c 0,0.56 -0.45,1 -1,1 h -4 c -0.55,0 -1,-0.44 -1,-1 V 11.5 7 Z"/>
 <rect style="fill:#666666" width="4" height="12" x="13" y="0" rx="1" ry="1"/>
</svg>
