<svg xmlns="http://www.w3.org/2000/svg" width="24" height="24" version="1.1" viewBox="0 0 24 24">
 <rect style="fill:none" width="24" height="23.934" x="0" y="0"/>
 <path style="fill:#666666;fill-rule:evenodd" d="M 15.92,8.08 9.58,16.56 7.05,18.79 6,17.96 7.5,14.89 13.83,6.41 Z"/>
 <path style="fill:#666666;fill-rule:evenodd" d="m 6,18.81 c 0,0 -2.22,1 -2.2,3.11 0.03,2.63 3.98,2.77 4.12,0.43 C 8,21.02 6,18.81 6,18.81 Z"/>
 <path style="fill:#666666;fill-rule:evenodd" d="M 9.98,6.63 16.95,11.91 18,10.52 15.92,8.93 C 20.12,7.75 23,2.7 20.2,0.59 17.42,-1.52 13.14,2.47 13.12,6.83 l -2.1,-1.59 z"/>
</svg>
