<svg xmlns="http://www.w3.org/2000/svg" width="24" height="24" version="1.1" viewBox="0 0 24 24">
 <rect style="fill:none" width="24" height="24" x="0" y="0"/>
 <path style="fill:#666666" d="M 6,2 A 2,2 0 0 1 4,4 2,2 0 0 1 2,2.01 2,2 0 0 1 4,0 2,2 0 0 1 6,1.97 L 4,2 Z"/>
 <path style="fill:#666666" d="M 22,2 A 2,2 0 0 1 20,4 2,2 0 0 1 18,2.01 2,2 0 0 1 20,0 2,2 0 0 1 22,1.97 L 20,2 Z"/>
 <path style="fill:#666666" d="M 14,11 A 2,2 0 0 1 12,13 2,2 0 0 1 10,11.01 2,2 0 0 1 12,9 2,2 0 0 1 14,10.97 L 12,11 Z"/>
 <path style="fill:#666666" d="m 14,22 a 2,2 0 0 1 -2,2 2,2 0 0 1 -2,-1.99 2,2 0 0 1 2,-2.01 2,2 0 0 1 2,1.97 L 12,22 Z"/>
 <path style="fill:#666666" d="M 17.7,3.14 18.9,4.37 16.6,6.55 18.1,8 H 14 V 8 3.88 l 1.5,1.44 z"/>
 <path style="fill:#666666" d="m 13,14 h -2 v 2 H 9 l 3,3 v 0 L 15.1,16.07 13,16 Z"/>
 <path style="fill:#666666" d="M 6.3,3.14 5.1,4.37 7.4,6.55 5.9,8 H 10 V 8 3.88 L 8.5,5.32 Z"/>
</svg>
