<svg xmlns="http://www.w3.org/2000/svg" width="24" height="24" version="1.1" viewBox="0 0 24 24">
 <path style="fill:#666666" d="m 0,17 h 0.5 12 0.5 v 1 H 12.5 0.5 0 Z"/>
 <path style="fill:#666666" d="m 0,5 h 0.5 12 0.5 V 6 H 12.5 0.5 0 Z"/>
 <path style="fill:#666666" d="m 10,14 14,-0.06 v 7 L 10,21 V 18.97 L 14,19 v -2.9 l -4,-0.04 z"/>
 <path style="fill:#666666" d="m 10,3 h 8 V 8 H 10 V 7 h 4 V 4 h -4 z"/>
 <rect style="fill:none" width="24" height="24" x="0" y="0" transform="matrix(0,1,1,0,0,0)"/>
 <path style="fill:#666666;fill-rule:evenodd" d="M 7,9 4,6 1,9 h 2 v 5 H 1 l 3,3 3,-3 H 5 V 9 Z"/>
</svg>
