<svg xmlns="http://www.w3.org/2000/svg" width="24" height="24" version="1.1" viewBox="0 0 24 24">
 <path style="fill:#666666" d="M 0,10 H 0.7 17.3 18 V 9 H 17.3 0.7 0 Z"/>
 <path style="fill:#666666" d="M 0,22 H 0.9 23.1 24 V 21 H 23.1 0.9 0 Z"/>
 <rect style="fill:#666666" width="14.942" height="3" x="9" y="-24.04" transform="scale(1,-1)"/>
 <rect style="fill:#666666" width="4" height="9.018" x="-10" y="9" transform="rotate(-90)"/>
 <rect style="fill:none" width="24" height="24" x="-24" y="0" transform="rotate(-90)"/>
 <path style="fill:#666666;fill-rule:evenodd" d="M 7,18 4,21 1,18 H 3 V 13 H 1 l 3,-3 3,3 H 5 v 5 z"/>
 <path style="fill:#666666" d="M 0,7 H 0.7 17.3 18 V 6 H 17.3 0.7 0 Z"/>
 <path style="fill:#666666;fill-rule:evenodd" d="M 7,3 4,6 1,3 H 3 V 0 h 2 v 3 z"/>
</svg>
