<svg xmlns="http://www.w3.org/2000/svg" width="24" height="24" version="1.1" viewBox="0 0 24 24">
 <rect style="fill:none" width="24" height="24" x="0" y="-24" transform="rotate(90)"/>
 <path style="fill:#666666" d="m 15.2,10.42 c 0.7,-0.63 2.1,-0.41 2.7,0.32 0.9,1.1 1.2,2.51 1.6,3.83 0.2,1.12 0.4,1.77 0.5,2.91 0.8,-1.45 1.7,-2.51 1.7,-4.14 0,-0.82 -0.5,-1.52 -0.9,-2.25 -0.3,-0.61 0.5,-1.25 1.2,-1.05 0.9,0.15 1,1.03 1,1.65 -0.1,1.86 -0.9,3.69 -1.7,5.39 -1.2,2.25 -2.9,4.33 -5.1,5.91 -0.9,0.58 -3.1,1.26 -4.2,0.91 -2,-0.93 -2,-2.77 0,-2.77 0.7,-0.31 2.6,1.15 3.3,1.13 1.2,-0.01 2.1,-0.98 2.4,-1.9 0.3,-1.22 0,-2.48 -0.2,-3.7 -0.3,-1.58 -0.7,-3.19 -1.6,-4.62 -0.1,-0.55 -1.6,-0.88 -0.7,-1.62 z"/>
 <path style="fill:#666666" d="m 19.3,4.44 c -0.5,0 -0.9,0.09 -1.2,0.26 -0.3,0.18 -0.4,0.43 -0.4,0.77 0,0.31 0.1,0.56 0.3,0.74 0.2,0.17 0.6,0.26 1,0.26 0.5,0 0.9,-0.17 1.2,-0.5 0.4,-0.33 0.5,-0.75 0.5,-1.25 V 4.44 H 19.3 M 23,3 V 8 H 21 V 6.86 C 20.6,7.33 20.2,7.67 19.8,7.89 19.4,8.1 18.8,8.2 18.2,8.2 17.3,8.2 16.3,7.87 15.8,7.41 15.3,6.94 15,6.34 15,5.6 15,4.69 15.3,4.03 16,3.61 16.7,3.19 17.7,2.97 19.2,2.97 h 1.5 V 2.78 C 20.7,2.39 20.6,2.11 20.2,1.93 19.9,1.75 19.4,1.65 18.7,1.65 c -0.6,0 -1.1,0.06 -1.6,0.16 -0.5,0.11 -0.9,0.27 -1.4,0.48 V 0.41 c 0.6,-0.13 1.2,-0.23 1.7,-0.29 0.6,-0.07 1.2,-0.1 1.8,-0.1 1.5,0 2,0.08 2.6,0.63 C 22.5,1.19 23,1.77 23,3"/>
 <rect style="fill:#666666" width="1" height="24" x="20" y="-24" transform="rotate(90)"/>
 <rect style="fill:#666666" width="1" height="24" x="8" y="-24" transform="rotate(90)"/>
 <path style="fill:#666666;fill-rule:evenodd" d="M 2,12 5,9 8,12 H 6 v 5 H 8 L 5,20 2,17 h 2 v -5 z"/>
</svg>
