<svg xmlns="http://www.w3.org/2000/svg" width="24" height="24" version="1.1" viewBox="0 0 24 24">
 <rect style="fill:none" width="24" height="24" x="0" y="0" rx="0" ry=".971"/>
 <path style="fill:#666666" d="M 4,8 A 2,2 0 0 1 2,10 2,2 0 0 1 0,8.01 2,2 0 0 1 2,6 2,2 0 0 1 4,7.97 L 2,8 Z"/>
 <path style="fill:#666666" d="M 9,2 A 2,2 0 0 1 7,4 2,2 0 0 1 5,2.01 2,2 0 0 1 7,0 2,2 0 0 1 9,1.97 L 7,2 Z"/>
 <path style="fill:#666666" d="m 18,4.03 a 2,2 0 0 1 -2,2 A 2,2 0 0 1 14,4.04 2,2 0 0 1 16,2.03 2,2 0 0 1 18,4 l -2,0.03 z"/>
 <path style="fill:#666666" d="m 17,12 a 2,2 0 0 1 -2,2 2,2 0 0 1 -2,-1.99 2,2 0 0 1 2,-2.01 2,2 0 0 1 2,1.97 L 15,12 Z"/>
 <path style="fill:#666666" d="M 9,14 A 2,2 0 0 1 7,16 2,2 0 0 1 5,14.01 2,2 0 0 1 7,12 2,2 0 0 1 9,13.97 L 7,14 Z"/>
 <path style="fill:#666666" d="m 22,20 a 2,2 0 0 1 -2,2 2,2 0 0 1 -2,-1.99 2,2 0 0 1 2,-2.01 2,2 0 0 1 2,1.97 L 20,20 Z"/>
 <path style="fill:none;stroke:#666666;stroke-width:1.02271998" d="M 15,12 7,14 2,8 7,2 16,4 Z"/>
 <path style="fill:none;stroke:#666666;stroke-width:1px" d="m 15,12 5,8 -8,2 v 0"/>
 <path style="fill:#666666" d="m 14,21.98 a 1.9772,1.9885 0 0 1 -2,1.99 1.9772,1.9885 0 0 1 -2,-1.98 1.9772,1.9885 0 0 1 2,-2 1.9772,1.9885 0 0 1 2,1.96 l -2,0.03 z"/>
</svg>
