<svg xmlns="http://www.w3.org/2000/svg" width="24.006" height="24.005" version="1.1" viewBox="0 0 24.01 24">
 <path style="fill:none;stroke:#666666;stroke-linecap:square" d="m 11.5,0.5 v 23 0"/>
 <path style="fill:none;stroke:#666666;stroke-width:0.99966002;stroke-linecap:round;stroke-linejoin:round;stroke-miterlimit:0" d="M 0.5,0.5 C 3.5,4 19.5,2.1 18,8 17,12 1,9 0.5,16.5 c -0.4,5.49 17,2.5 23,6.5"/>
 <rect style="fill:#666666;fill-rule:evenodd" width="5" height="5" x="9" y="1"/>
 <rect style="fill:#666666;fill-rule:evenodd" width="5" height="5" x="9" y="9"/>
 <rect style="fill:#666666;fill-rule:evenodd" width="5" height="5" x="9" y="18"/>
 <rect style="fill:none" width="24" height="24" x="0" y="0"/>
 <rect style="fill:#666666" width="10" height="1" x="14" y="3" ry="0"/>
 <rect style="fill:#666666" width="10" height="1" x="14" y="11" ry="0"/>
 <rect style="fill:#666666" width="10" height="1" x="14" y="20" ry="0"/>
 <path style="fill:#666666;fill-rule:evenodd" d="m 20,14 1.5,-2 1.5,2 h -1 v 4 h 1 L 21.5,20 20,18 h 1 v -4 z"/>
 <path style="fill:#666666;fill-rule:evenodd" d="M 20,6 21.5,4 23,6 h -1 v 3 h 1 L 21.5,11 20,9 h 1 V 6 Z"/>
</svg>
