<svg xmlns="http://www.w3.org/2000/svg" width="24.005" height="24" version="1.1" viewBox="0 0 24 24">
 <path style="fill:none;stroke:#666666;stroke-linecap:square" d="m 0.5,12.5 h 23 v 0"/>
 <path style="fill:none;stroke:#666666;stroke-width:0.99966002;stroke-linecap:round;stroke-linejoin:round;stroke-miterlimit:0" d="M 0.5,23.5 C 4,20.5 2.1,4.5 8,6 c 4,1 1,17 8.5,17.5 1.4,0.1 2.2,-0.9 2.8,-2.6 0.5,-1.7 0.8,-4 1,-6.5 0.2,-2.5 0.4,-5.3 0.8,-7.7"/>
 <rect style="fill:#666666;fill-rule:evenodd" width="5" height="5" x="-15" y="1" transform="rotate(-90)"/>
 <rect style="fill:#666666;fill-rule:evenodd" width="5" height="5" x="-15" y="9" transform="rotate(-90)"/>
 <rect style="fill:#666666;fill-rule:evenodd" width="5" height="5" x="-15" y="18" transform="rotate(-90)"/>
 <rect style="fill:none" width="24" height="24" x="-24" y="0" transform="rotate(-90)"/>
 <rect style="fill:#666666" width="10" height="1" x="-10" y="3" ry="0" transform="rotate(-90)"/>
 <rect style="fill:#666666" width="10" height="1" x="-10" y="11" ry="0" transform="rotate(-90)"/>
 <rect style="fill:#666666" width="10" height="1" x="-10" y="20" ry="0" transform="rotate(-90)"/>
 <path style="fill:#666666;fill-rule:evenodd" d="M 14,4 12,2.5 14,1 v 1 h 4 V 1 L 20,2.5 18,4 V 3 h -4 z"/>
 <path style="fill:#666666;fill-rule:evenodd" d="M 6,4 4,2.5 6,1 V 2 H 9 V 1 L 11,2.5 9,4 V 3 H 6 Z"/>
</svg>
