<svg xmlns="http://www.w3.org/2000/svg" width="24" height="24" version="1.1" viewBox="0 0 24 24">
 <rect style="fill:none" width="24" height="24" x="0" y="-24" transform="rotate(90)"/>
 <path style="fill:#666666" d="m 14.2,9.26 c 0.8,-0.68 2.1,-0.44 2.7,0.34 1,1.19 1.3,2.7 1.6,4.12 0.3,1.2 0.5,1.9 0.6,3.13 0.8,-1.56 1.6,-2.7 1.7,-4.45 0,-0.89 -0.6,-1.64 -0.9,-2.42 -0.3,-0.66 0.5,-1.34 1.2,-1.13 0.8,0.16 1,1.1 1,1.78 -0.1,2 -0.9,3.96 -1.8,5.79 -1.2,2.42 -2.8,4.66 -5.1,6.36 -0.8,0.62 -3,1.34 -4.1,0.97 -2,-1 -2,-2.98 0,-2.98 0.7,-0.33 2.5,1.24 3.3,1.21 1.2,-0.01 2.1,-1.05 2.4,-2.04 0.3,-1.31 0,-2.66 -0.2,-3.97 C 16.3,14.27 15.9,12.54 15,11 14.8,10.41 13.4,10.05 14.2,9.26 Z"/>
 <path style="fill:#666666" d="m 6.3,13.44 c -0.5,0 -0.9,0.09 -1.2,0.26 -0.3,0.18 -0.4,0.43 -0.4,0.77 0,0.31 0.1,0.56 0.3,0.74 0.2,0.17 0.6,0.26 1,0.26 0.5,0 0.9,-0.17 1.2,-0.5 0.4,-0.33 0.5,-0.75 0.5,-1.25 V 13.44 H 6.3 M 10,12 v 5 H 8 V 15.86 C 7.6,16.33 7.2,16.67 6.8,16.89 6.4,17.1 5.8,17.2 5.2,17.2 4.3,17.2 3.3,16.87 2.8,16.41 2.3,15.94 2,15.34 2,14.6 2,13.69 2.3,13.03 3,12.61 3.7,12.19 4.7,11.97 6.2,11.97 H 7.7 V 11.78 C 7.7,11.39 7.6,11.11 7.2,10.93 6.9,10.75 6.4,10.65 5.7,10.65 c -0.6,0 -1.1,0.06 -1.6,0.16 -0.5,0.11 -0.9,0.27 -1.4,0.48 V 9.41 C 3.3,9.28 3.9,9.18 4.4,9.12 5,9.05 5.6,9.02 6.2,9.02 c 1.5,0 2,0.08 2.6,0.63 0.7,0.54 1.2,1.12 1.2,2.35"/>
 <rect style="fill:#666666" width="1" height="24" x="1" y="0"/>
 <rect style="fill:#666666" width="1" height="24" x="13" y="0"/>
 <path style="fill:#666666;fill-rule:evenodd" d="M 5,6 2,3 5,0 v 2 h 5 V 0 l 3,3 -3,3 V 4 H 5 Z"/>
</svg>
