<svg xmlns="http://www.w3.org/2000/svg" width="24" height="24" version="1.1" viewBox="0 0 24 24">
 <path style="fill:#666666" d="M 14,0 V 0.7 17.31 18 h 1 V 17.31 0.7 0 Z"/>
 <path style="fill:#666666" d="M 2,0 V 0.93 23.08 24 H 3 V 23.08 0.93 0 Z"/>
 <rect style="fill:#666666" width="14.942" height="3" x="9" y="0" transform="matrix(0,1,1,0,0,0)"/>
 <rect style="fill:#666666" width="4" height="9.018" x="14" y="9"/>
 <rect style="fill:none" width="24" height="24" x="0" y="0"/>
 <path style="fill:#666666;fill-rule:evenodd" d="M 6,7 3,4 6,1 v 2 h 5 V 1 l 3,3 -3,3 V 5 H 6 Z"/>
 <path style="fill:#666666" d="M 17,0 V 0.7 17.31 18 h 1 V 17.31 0.7 0 Z"/>
 <path style="fill:#666666;fill-rule:evenodd" d="M 21,7 18,4 21,1 v 2 h 3 v 2 h -3 z"/>
</svg>
