<svg xmlns="http://www.w3.org/2000/svg" width="24" height="24.001" version="1.1" viewBox="0 0 24 24">
 <path style="fill:#666666;fill-rule:evenodd" d="m 19.74,1.57 -2.82,2.99 c 2,0.04 4,1.81 4.08,3.64 L 24,5.21 C 23.91,3.32 21.8,1.49 19.74,1.57 Z"/>
 <rect style="fill:none" width="24" height="23.926" x="0" y=".08"/>
 <path style="fill:#666666;fill-rule:evenodd" d="M 3.95,18.08 15.23,6.06 c 2.05,-0.08 4.19,1.73 4.27,3.63 L 8.26,21.34 1.5,24 Z"/>
 <path style="fill:none;stroke:#666666;stroke-width:1.53060997;stroke-linecap:round;stroke-linejoin:round" d="M 3.37,12.77 C -2.41,10.05 3.05,11.32 4.39,9.83 5.23,8.88 3.84,7.75 3.07,7.14 2.25,6.49 1.43,5.42 1.33,4.39 1.2,2.98 2.46,1.9 3.26,1.45 4.1,0.99 5.45,0.63 6.66,0.83 7.96,1.05 9.37,1.76 9.81,2.21"/>
</svg>
