<svg xmlns="http://www.w3.org/2000/svg" width="24" height="24" version="1.1" viewBox="0 0 24 24">
 <rect style="fill:none" width="24" height="24" x="0" y="0"/>
 <rect style="display:block;fill:#666666" width="20.928" height="1.5" x="1.5" y="15" rx=".623" ry=".5"/>
 <path style="display:block;fill:#666666" d="m 18.36,9.83 -4.07,-2.33 -1.16,1.16 2.32,2.9 1.16,6.98 L 18,21 v 3 l 1.5,-1.5 0.02,-5.7 z"/>
 <path style="display:block;fill:#666666" d="M 5.65,9.83 9.66,7.5 10.8,8.66 8.51,11.56 7.37,18.54 6,21 v 3 L 4.5,22.5 v -5.7 z"/>
 <rect style="display:block;fill:#666666" width="3" height="2.994" x="10.5" y="0" rx=".75" ry=".6"/>
 <rect style="display:block;fill:#666666" width="3" height="4.5" x="10.5" y="13.5" rx="1.056" ry="1.106"/>
 <path style="fill:#666666" d="M 12,1.5 C 9.51,1.5 7.5,3.51 7.5,6 c 0,2.49 2.01,4.5 4.5,4.5 2.49,0 4.5,-2.01 4.5,-4.5 0,-2.49 -2.01,-4.5 -4.5,-4.5 z m 0,2.2 c 1.27,0 2.3,1.03 2.3,2.3 0,1.27 -1.03,2.3 -2.3,2.3 C 10.73,8.3 9.7,7.27 9.7,6 9.7,4.73 10.73,3.7 12,3.7 Z"/>
</svg>
