<svg xmlns="http://www.w3.org/2000/svg" width="24.037" height="24" version="1.1" viewBox="0 0 24.04 24">
 <rect style="fill:none" width="24" height="24" x="0" y="0"/>
 <path style="fill:#666666" d="m 0,0 v 0.5 c 6.75,2.19 -0.98,11.46 0.89,19 2.11,8.5 6.29,2 6.29,2 C 7.18,21.5 7,19 6.76,20 6.76,20 4,24 3,19 1.32,10.62 15.6,0 0,0 Z"/>
 <path style="fill:#666666" d="m 24,4 0.04,3.45 -5.09,-5.47 1.71,-1.85 m -2.7,2.95 2.04,2.18 1,1.09 2.04,2.19 -1.05,1.09 c -1.01,1.09 -0.98,1.1 -1.99,4.37 -4.05,4.37 -8.12,4.37 -8.12,4.37 l -1,1.09 c 0,0 -1.03,1.1 -2.04,0 l 6.08,-6.55 0.09,-0.14 c 0.8,0.42 1.76,0.29 2.42,-0.43 0.84,-0.9 0.84,-2.37 0,-3.28 -0.83,-0.9 -2.2,-0.9 -3.03,0 -0.67,0.72 -0.78,1.8 -0.38,2.66 l -0.1,0.1 -6.08,6.55 c -1.01,-1.09 0,-2.18 0,-2.18 l 1,-1.1 c 0,0 -0.02,-4.37 4.04,-8.74 3.04,-1.09 3.07,-1.09 4.08,-2.18 z"/>
</svg>
