<svg xmlns="http://www.w3.org/2000/svg" width="24.031" height="24" version="1.1" viewBox="0 0 24.03 24">
 <path style="fill:#666666" d="m 8.52,-0.01 -8.5,6.66 3,10.34 H 4.96 L 6.04,14.95 C 5.48,14.94 5.06,14.99 4.51,15.03 L 1.95,7.34 8.57,2.08 l 4.98,3.91 1.34,-1 z"/>
 <rect style="fill:none" width="24" height="24" x="0" y="0"/>
 <path style="fill:#666666;fill-rule:evenodd" d="M 17.59,4.03 12.47,8.81 5.84,7.09 8.69,13.5 5,19.41 11.91,18.59 16.22,24 17.62,17 24.03,15.3 17.97,11 Z m -1.26,3.46 0.25,4.42 4.07,2.7 -4.16,1 -1.01,5.17 -2.76,-3.55 -4.99,0.37 3.15,-3.99 -2.54,-4.45 4.67,1.3 z"/>
</svg>
