<svg xmlns="http://www.w3.org/2000/svg" width="24" height="24" version="1.1" viewBox="0 0 24 24">
 <rect style="fill:none" width="24" height="24" x="0" y="0"/>
 <path style="fill:none;stroke:#666666;stroke-width:2;stroke-linecap:round;stroke-linejoin:round" d="m 11.19,12.99 c 0.97,-0.23 1.42,1.11 1.25,1.9 -0.35,1.66 -2.2,2.23 -3.56,1.69 -2.11,-0.85 -2.8,-3.61 -1.91,-5.69 1.21,-2.85 4.58,-3.74 7.11,-2.39 3.25,1.73 4.23,6.16 2.58,9.47 -2.03,4.07 -6.98,5.27 -10.67,3.1 C 1.6,18.49 0.32,12.36 2.75,7.81 5.57,2.53 12.13,1 16.97,4.01 c 5.53,3.43 7.11,11.27 3.9,17.04 -0.01,0.02 -0.02,0.04 -0.03,0.06"/>
</svg>
