<svg xmlns="http://www.w3.org/2000/svg" width="24" height="24" version="1.1" viewBox="0 0 24 24">
 <rect style="fill:none" width="24" height="24" x="0" y="0"/>
 <path style="fill:#666666" d="M 16.73,1.5 C 16.62,1.53 16.5,1.61 16.41,1.69 l -6.43,6 6.05,6.55 6.24,-5.85 C 22.62,8.06 22.53,7.37 22.08,6.85 L 17.91,2.02 C 17.56,1.63 17.09,1.43 16.73,1.5 Z"/>
 <path style="fill:#666666" d="m 8.25,9.34 -3.52,3.3 c -0.35,0.3 -0.31,1 0.14,1.5 l 4.22,4.8 c 0.46,0.6 1.1,0.7 1.46,0.4 l 3.7,-3.5 z"/>
 <path style="fill:#666666" d="m 13.05,21.04 c -0.58,0 -1.05,0.4 -1.05,1 0,0.5 0.47,1 1.05,1 h 2.1 6.3 1.05 v -1 -1 h -1.05 -6.3 z"/>
 <path style="fill:#666666" d="m 5.72,21.04 c 0.71,0 1.28,0.4 1.28,1 0,0.5 -0.57,1 -1.28,1 -3.85,0 -3.67,0 -4.22,0 v -1 -1 c 0,0 0.37,0 4.22,0 z"/>
</svg>
