<svg xmlns="http://www.w3.org/2000/svg" width="24" height="24" version="1.1" viewBox="0 0 24 24">
 <path style="fill:#666666" d="M 15.46,3 A 0.49813,0.49971 0 0 0 15.21,3.91 L 20,7.75 v 7.75 a 0.5,0.50159 0 1 0 1,0 v -8 A 0.49813,0.49971 0 0 0 20.81,7.13 l -4.98,-4 A 0.49813,0.49971 0 0 0 15.46,3 Z"/>
 <path style="fill:#666666" d="M 8.48,9 A 0.5014,0.47059 20.55 0 0 8.03,9.28 L 5,15.3 a 0.50575,0.47467 20.55 1 0 0.91,0.44 L 8.93,9.72 A 0.5014,0.47059 20.55 0 0 8.48,9 Z"/>
 <rect style="fill:#666666" width="7.999" height="6.999" x="6" y="1"/>
 <rect style="fill:#666666" width="7.999" height="6.999" x="1" y="17"/>
 <rect style="fill:#666666" width="7.999" height="6.999" x="16" y="17"/>
 <rect style="fill:none" width="24" height="24" x="0" y="0"/>
</svg>
