<svg xmlns="http://www.w3.org/2000/svg" width="24" height="24" version="1.1" viewBox="0 0 24 24">
 <path style="fill:#666666;fill-rule:evenodd" d="m 14.31,14.57 -1.58,4.53 c -0.42,1.23 1.3,1.89 1.73,0.62 l 1.76,-4.51 z"/>
 <path style="fill:#666666;fill-rule:evenodd" d="m 13.31,8.48 0.79,1.18 5.92,2.44 1.56,-0.51 1.99,-5.54 c -2.5,0 -0.5,-6.03 -7,-6.03 z"/>
 <path style="fill:#666666;fill-rule:evenodd" d="m 14,11.09 -0.7,2.01 5,1.91 0.7,-1.91 z"/>
 <rect style="fill:none" width="24" height="23.992" x="0" y=".03"/>
 <path style="fill:none;stroke:#666666;stroke-width:0.96095997" d="M 4.16,19.66 C 15.82,17.71 2.48,1.52 2.48,1.52 h 11.04"/>
 <path style="fill:#666666;fill-rule:evenodd" d="m 1,19.13 h 4 v 4.03 H 1 Z"/>
 <path style="fill:none;stroke:#666666;stroke-width:1.12033999" d="m 2,21.67 h 9"/>
 <rect style="fill:#666666" width="4" height="4.022" x="1" y=".03"/>
</svg>
