<svg xmlns="http://www.w3.org/2000/svg" width="24" height="24" version="1.1" viewBox="0 0 24 24">
 <rect style="fill:none" width="24" height="24" x="0" y="0"/>
 <path style="fill:#666666" d="m 2.5,16 -2,2 H 2 v 6 h 1 v -6 h 1.5 z"/>
 <path style="fill:#666666" d="m 5,16 v 6 H 3.5 l 2,2 2,-2 H 6 v -6 z"/>
 <rect style="fill:#666666" width="9" height="9" x="4" y="0" ry="1"/>
 <rect style="fill:#666666" width="9" height="9" x="14" y="10" ry="1"/>
 <path style="fill:#666666" d="m 14,3 v 1 h 3 a 1,1 0 0 1 1,1 V 6 H 16 L 18.5,9 21,6 H 19 V 5 A 2,2 0 0 0 17,3 Z"/>
 <path style="fill:#666666" d="M 13,16 V 15 H 10 A 1,1 0 0 1 9,14 v -1 h 2 L 8.5,10 6,13 h 2 v 1 a 2,2 0 0 0 2,2 z"/>
</svg>
