<svg xmlns="http://www.w3.org/2000/svg" width="24.031" height="24" version="1.1" viewBox="0 0 24.03 24">
 <rect style="fill:none" width="24" height="24" x="0" y="0"/>
 <path style="fill:#666666" d="m 5.2,23.91 -1.1,0.06 v -1 L 5,22.94 Z M 3.3,22.81 2.9,23.72 2,23.22 2.5,22.38 Z m 3.3,-0.56 0.7,0.78 -1,0.59 -0.4,-0.93 z M 1.9,21.81 1.1,22.47 0.5,21.59 1.3,21.09 Z m 6.8,-0.9 v 2.84 L 5.9,20.91 Z M 1,19.41 1.1,20.31 0.1,20.47 0,19.38 Z M 8.9,20.09 7.9,20 8,19.09 8.9,19 Z M 8.7,17.93 7.7,18.22 7.4,17.5 8.2,16.88 Z M 6.5,15.47 7.4,16.09 6.8,16.84 6,16.38 Z M 0.2,15.25 3.1,18.09 H 0.2 Z m 3.3,0.91 -0.8,0.37 -0.5,-0.87 1,-0.44 z m 2,-1.07 -0.3,1 L 4.4,16 4.3,15.03 Z"/>
 <rect style="fill:#666666" width="9" height="9" x="4" y="0" ry="1"/>
 <rect style="fill:#666666" width="9" height="9" x="14" y="10" ry="1"/>
 <path style="fill:#666666" d="m 14,3 v 1 h 3 a 1,1 0 0 1 1,1 V 6 H 16 L 18.5,9 21,6 H 19 V 5 A 2,2 0 0 0 17,3 Z"/>
 <path style="fill:#666666" d="M 13,16 V 15 H 10 A 1,1 0 0 1 9,14 v -1 h 2 L 8.5,10 6,13 h 2 v 1 a 2,2 0 0 0 2,2 z"/>
</svg>
