<svg xmlns="http://www.w3.org/2000/svg" width="24" height="24" version="1.1" viewBox="0 0 24 24">
 <rect style="fill:none" width="24" height="24" x="0" y="0"/>
 <rect style="fill:#666666" width="5" height="5" x="1" y="1"/>
 <rect style="fill:#666666" width="5" height="5" x="18" y="1"/>
 <rect style="fill:#666666" width="5" height="5" x="1" y="18"/>
 <rect style="fill:#666666" width="5" height="5" x="18" y="18"/>
 <path style="fill:#666666" d="M 8,2.51 V 3 H 9 V 2.58 C 8.68,2.54 8.35,2.51 8,2.51 Z M 8,3 H 7 V 4 H 8 Z M 7,4 H 6 V 5 H 7 Z M 6,5 H 5 V 6 H 6 Z M 5,6 H 4.28 C 4.36,6.35 4.41,6.68 4.44,7 H 5 Z M 5,5 V 4 H 4 V 4.89 C 4.01,4.92 4.03,4.97 4.04,5 Z M 4,4 V 3.32 C 3.83,3.38 3.68,3.43 3.5,3.5 3.57,3.68 3.62,3.83 3.68,4 Z M 5,4 H 6 V 3 H 5 Z M 5,3 V 2.96 C 4.97,2.97 4.92,2.99 4.89,3 Z M 6,3 H 7 V 2.56 C 6.68,2.59 6.35,2.64 6,2.72 Z"/>
 <path style="opacity:0.8;fill:#666666" d="M 10,2.79 V 3 h 0.7 C 10.47,2.92 10.24,2.85 10,2.79 Z M 10,3 H 9 v 1 h 1 z m 0,1 v 1 h 1 V 4 Z m 1,0 h 1 V 3.5 C 11.67,3.36 11.34,3.23 11,3.11 Z m 1,0 v 1 h 1 V 4 Z m 1,0 h 0.3 C 13.2,3.96 13.1,3.93 13,3.89 Z m -1,1 h -1 v 1 h 1 z m -1,1 h -1 v 1 h 1 z M 10,7 H 9 v 1 h 1 z M 9,8 H 8 V 9 H 9 Z M 8,9 H 7 v 1 H 8 Z M 7,10 H 6 v 1 H 7 Z M 6,11 H 5 v 1 H 6 Z M 5,12 H 4 v 1 H 5 Z M 4,13 H 3.11 C 3.07,13.1 3.04,13.2 3,13.3 V 14 H 4 Z M 3,14 H 2.79 C 2.7,14.32 2.63,14.65 2.58,15 H 3 Z M 4,12 V 11 H 3.89 C 3.77,11.34 3.64,11.67 3.5,12 Z M 4,11 H 5 V 10 H 4.21 C 4.15,10.24 4.08,10.47 4,10.7 Z M 5,10 H 6 V 9 H 5 Z M 5,9 V 8 H 4.49 c 0,0.35 -0.03,0.68 -0.07,1 z M 5,8 H 6 V 7 H 5 Z M 6,7 H 7 V 6 H 6 Z M 7,6 H 8 V 5 H 7 Z M 8,5 H 9 V 4 H 8 Z m 1,0 v 1 h 1 V 5 Z M 9,6 H 8 V 7 H 9 Z M 8,7 H 7 V 8 H 8 Z M 7,8 H 6 v 1 h 1 z"/>
 <path style="opacity:0.6;fill:#666666" d="M 20,3.68 C 19.7,3.79 19.39,3.91 19.11,4 H 20 Z M 19,4.04 C 18.65,4.15 18.32,4.21 18,4.28 V 5 h 1 z M 18,5 h -1 v 1 h 1 z m -1,1 h -1 v 1 h 1 z m -1,1 h -1 v 1 h 1 z m -1,1 h -1 v 1 h 1 z m -1,1 h -1 v 1 h 1 z m -1,1 h -1 v 1 h 1 z m -1,1 h -1 v 1 h 1 z m -1,1 h -1 v 1 h 1 z m -1,1 H 9 v 1 h 1 z M 9,14 H 8 v 1 H 9 Z M 8,15 H 7 v 1 H 8 Z M 7,16 H 6 v 1 H 7 Z M 6,17 H 5 v 1 H 6 Z M 5,18 H 4 v 1 H 5 Z M 4,19 H 3 v 0.11 C 3.09,19.39 3.21,19.7 3.32,20 H 4 Z M 3,19 V 18 H 2.72 c 0.07,0.32 0.13,0.65 0.24,1 z M 3,18 H 4 V 17 H 3 Z M 3,17 V 16 H 2.51 c -0.01,0.32 0.01,0.65 0.05,1 z M 3,16 H 4 V 15 H 3 Z M 4,15 H 5 V 14 H 4 Z M 5,14 H 6 V 13 H 5 Z M 6,13 H 7 V 12 H 6 Z M 7,12 H 8 V 11 H 7 Z M 8,11 H 9 V 10 H 8 Z m 1,-1 h 1 V 9 H 9 Z m 1,-1 h 1 V 8 h -1 z m 1,-1 h 1 V 7 h -1 z m 1,-1 h 1 V 6 h -1 z m 1,-1 h 1 V 5 h -1 z m 1,-1 h 1 V 4.42 C 14.65,4.37 14.32,4.3 14,4.21 Z m 1,0 v 1 h 1 V 5 Z m 1,0 h 1 V 4.44 C 16.65,4.48 16.32,4.5 16,4.49 Z m -1,1 h -1 v 1 h 1 z m -1,1 h -1 v 1 h 1 z m -1,1 h -1 v 1 h 1 z m -1,1 h -1 v 1 h 1 z m -1,1 h -1 v 1 h 1 z m -1,1 H 9 v 1 h 1 z M 9,12 H 8 v 1 H 9 Z M 8,13 H 7 v 1 H 8 Z M 7,14 H 6 v 1 H 7 Z M 6,15 H 5 v 1 H 6 Z M 5,16 H 4 v 1 h 1 z"/>
 <path style="opacity:0.4;fill:#666666" d="m 20,4 v 1 h 1 V 4.89 C 20.91,4.61 20.79,4.3 20.68,4 Z m 1,1 v 1 h 0.28 C 21.21,5.68 21.15,5.35 21.04,5 Z m 0,1 h -1 v 1 h 1 z m 0,1 v 1 h 0.49 C 21.5,7.68 21.48,7.35 21.44,7 Z m 0,1 h -1 v 1 h 1 z m -1,1 h -1 v 1 h 1 z m -1,1 h -1 v 1 h 1 z m -1,1 h -1 v 1 h 1 z m -1,1 h -1 v 1 h 1 z m -1,1 h -1 v 1 h 1 z m -1,1 h -1 v 1 h 1 z m -1,1 h -1 v 1 h 1 z m -1,1 h -1 v 1 h 1 z m -1,1 h -1 v 1 h 1 z m -1,1 h -1 v 1 h 1 z m -1,1 H 9 v 0.58 c 0.35,0.05 0.68,0.12 1,0.21 z M 9,19 V 18 H 8 v 1 z M 8,19 H 7 v 0.56 C 7.35,19.52 7.68,19.5 8,19.51 Z M 7,19 V 18 H 6 v 1 z M 6,19 H 5 v 0.96 C 5.35,19.85 5.68,19.78 6,19.72 Z M 7,18 H 8 V 17 H 7 Z M 8,17 H 9 V 16 H 8 Z m 1,-1 h 1 V 15 H 9 Z m 1,-1 h 1 v -1 h -1 z m 1,-1 h 1 v -1 h -1 z m 1,-1 h 1 v -1 h -1 z m 1,-1 h 1 v -1 h -1 z m 1,-1 h 1 v -1 h -1 z m 1,-1 h 1 V 9 h -1 z m 1,-1 h 1 V 8 h -1 z m 1,-1 h 1 V 7 h -1 z m 1,-1 h 1 V 6 h -1 z m 1,-1 h 1 V 5 h -1 z m 0,1 v 1 h 1 V 7 Z m 0,1 h -1 v 1 h 1 z m -1,1 h -1 v 1 h 1 z m -1,1 h -1 v 1 h 1 z m -1,1 h -1 v 1 h 1 z m -1,1 h -1 v 1 h 1 z m -1,1 h -1 v 1 h 1 z m -1,1 h -1 v 1 h 1 z m -1,1 h -1 v 1 h 1 z m -1,1 h -1 v 1 h 1 z m -1,1 H 9 v 1 h 1 z m -6,3 v 0.32 C 4.3,20.21 4.61,20.09 4.89,20 Z"/>
 <path style="opacity:0.2;fill:#666666" d="m 21,9 v 0.91 h -0.72 v 1 h 0.64 c 0.22,-0.59 0.4,-1.22 0.5,-1.91 z m -2,2 v 1 h 1 v -1 z m 0,1 h -1 v 1 h 1 z m 0,1 v 1 h 0.79 C 19.85,13.76 19.92,13.53 20,13.3 V 13 Z m 0,1 h -1 v 1 h 1 z m 0,1 v 1 h 0.51 c 0,-0.35 0.03,-0.68 0.07,-1 z m 0,1 h -1 v 1 h 1 z m -1,1 h -1 v 1 h 1 z m -1,1 h -1 v 1 h 1 z m -1,1 h -1 v 1 h 1 z m -1,1 h -1 v 1 h 1 z m -1,1 h -0.7 c 0.23,0.08 0.46,0.15 0.7,0.21 z m 0,-1 v -1 h -1 v 1 z m -1,0 h -1 v 0.5 c 0.33,0.14 0.66,0.27 1,0.39 z m -1,0 v -1 h -1 v 1 z m -1,0 h -0.3 c 0.1,0.03 0.2,0.07 0.3,0.11 z m 1,-1 h 1 v -1 h -1 z m 1,-1 h 1 v -1 h -1 z m 1,-1 h 1 v -1 h -1 z m 1,-1 h 1 v -1 h -1 z m 1,-1 h 1 v -1 h -1 z m 1,-1 h 1 v -1 h -1 z m 0,1 v 1 h 1 v -1 z m 0,1 h -1 v 1 h 1 z m -1,1 h -1 v 1 h 1 z m -1,1 h -1 v 1 h 1 z m 5.28,-6.09 v 0.63 c 0.09,-0.21 0.17,-0.42 0.26,-0.63 z"/>
 <path style="opacity:0.1;fill:#666666" d="m 19,17 v 1 h 0.72 c -0.08,-0.35 -0.13,-0.68 -0.16,-1 z m 0,1 h -1 v 1 h 1 z m 0,1 v 1 h 1 V 19.11 C 19.99,19.08 19.97,19.03 19.96,19 Z m 1,1 v 0.68 c 0.17,-0.06 0.32,-0.11 0.5,-0.18 -0.07,-0.18 -0.12,-0.33 -0.18,-0.5 z m -1,0 h -1 v 1 h 1 z m 0,1 v 0.04 c 0.04,-0.01 0.08,-0.03 0.11,-0.04 z m -1,0 h -1 v 0.44 c 0.32,-0.03 0.65,-0.08 1,-0.16 z m -1,0 v -1 h -1 v 1 z m -1,0 h -1 v 0.42 c 0.32,0.04 0.65,0.07 1,0.07 z m 1,-1 h 1 v -1 h -1 z"/>
 <path style="fill:none;stroke:#666666;stroke-width:1px" d="M 3.5,3.5 C 12,0 12,7 20.5,3.5 24,12 17,12 20.5,20.5 12,24 12,17 3.5,20.5 0,12 7,12 3.5,3.5 Z"/>
</svg>
