<svg xmlns="http://www.w3.org/2000/svg" width="24" height="24" version="1.1" viewBox="0 0 24 24">
 <rect style="fill:none" width="24" height="24" x="0" y="0"/>
 <path style="fill:none;stroke:#666666;stroke-linejoin:round" d="m 1,5.25 v 12.5 l 11,5.5 11,-5.5 V 5.25 l -11,4.5 z"/>
 <path style="fill:none;stroke:#666666;stroke-width:1px;stroke-linejoin:round" d="M 12,0.75 23,5.25 12,9.75 1,5.25 Z"/>
 <path style="fill:none;stroke:#666666;stroke-width:1px" d="M 12,9.75 V 23.17"/>
 <ellipse style="fill:#666666" cx="5.24" cy="-8.96" rx="1.272" ry="1.98" transform="rotate(90)"/>
 <ellipse style="fill:#666666" cx="5.26" cy="-15.05" rx="1.272" ry="1.98" transform="rotate(90)"/>
 <ellipse style="fill:#666666" cx="19.05" cy="12.081" rx="1.601" ry="1.802" transform="rotate(5.3645)"/>
 <ellipse style="fill:#666666" cx="6.354" cy="13.936" rx="1.327" ry="1.372" transform="matrix(0.99998795,0.00490999,0.00705997,0.99997508,0,0)"/>
 <ellipse style="fill:#666666" cx="9.004" cy="17.952" rx="1.414" ry="1.405" transform="matrix(0.99998886,0.00471999,0.00734002,0.99997306,0,0)"/>
 <ellipse style="fill:#666666" cx="3.919" cy="10.041" rx="1.367" ry="1.379" transform="matrix(0.99998853,0.00478999,0.00723003,0.99997386,0,0)"/>
</svg>
