<svg xmlns="http://www.w3.org/2000/svg" width="24" height="24" version="1.1" viewBox="0 0 24 24">
 <rect style="opacity:0.3;fill:none" width="24" height="24" x="0" y="0"/>
 <path style="fill:#666666" d="m 2,23.04 v -6 -8.4 C 2,5.24 5.5,2 8.8,2 H 23 V 7.04 H 11 c -4,0 -4,0 -4,3 v 8.2 4.8 z"/>
 <path style="fill:#666666" d="m 11,11.04 h 12 v 5 h -2 -5 v 7 h -5 z"/>
 <rect style="fill:#666666" width="2" height="2" x="11" y="8.04"/>
 <rect style="fill:#666666" width="2" height="2" x="17" y="8.04"/>
 <rect style="fill:#666666" width="2" height="2" x="14" y="8.04"/>
 <rect style="fill:#666666" width="2" height="2" x="8" y="8.04"/>
 <rect style="fill:#666666" width="2" height="2" x="20" y="8.04"/>
 <rect style="fill:#666666" width="2" height="2" x="8" y="11.04"/>
 <rect style="fill:#666666" width="2" height="2" x="8" y="14.04"/>
 <rect style="fill:#666666" width="2" height="2" x="8" y="17.04"/>
 <rect style="fill:#666666" width="2" height="2" x="8" y="20.04"/>
</svg>
