<svg xmlns="http://www.w3.org/2000/svg" width="24" height="24" version="1.1" viewBox="0 0 24 24">
 <rect style="opacity:0.3;fill:none" width="24" height="24" x="0" y="0"/>
 <path style="fill:#666666" d="M 8.2,1.12 2,8.84 v 13.2 h 5 v -16 H 9.4 11 23 V 1.12 Z m 2.8,8.92 v 12 h 5 v -7 h 7 v -5 z"/>
 <rect style="fill:#666666" width="2" height="2" x="11" y="7.04"/>
 <rect style="fill:#666666" width="2" height="2" x="17" y="7.04"/>
 <rect style="fill:#666666" width="2" height="2" x="14" y="7.04"/>
 <rect style="fill:#666666" width="2" height="2" x="8" y="7.04"/>
 <rect style="fill:#666666" width="2" height="2" x="20" y="7.04"/>
 <rect style="fill:#666666" width="2" height="2" x="8" y="10.04"/>
 <rect style="fill:#666666" width="2" height="2" x="8" y="13.04"/>
 <rect style="fill:#666666" width="2" height="2" x="8" y="16.04"/>
 <rect style="fill:#666666" width="2" height="2" x="8" y="19.04"/>
</svg>
