<svg xmlns="http://www.w3.org/2000/svg" xmlns:xlink="http://www.w3.org/1999/xlink" width="24" height="24" version="1.1" viewBox="0 0 24 24">
 <path style="fill:none" d="M 0,0 H 24 V 24 H 0 Z"/>
 <path style="fill:#666666;fill-rule:evenodd" d="M 18,7 V 5 C 17.49,3.4 15,4 15,5 v 2 z"/>
 <path style="fill:#666666;fill-rule:evenodd" d="M 21.96,12.8 21,12 H 12 L 11.03,13.4 11,20 c 2.89,1.8 3.73,4.5 11,2 z"/>
 <path style="fill:#666666;fill-rule:evenodd" d="M 21,11 19,8 h -5 l -2,3 z"/>
 <circle style="fill:#666666" cx="11.77" cy="6.4" r=".403"/>
 <use id="use23477" style="fill:#666666" width="744.09" height="1052.4" x="0" y="0" transform="matrix(1.0586,0,0,1.0586,-303.17,-1081.607)" xlink:href="#path23475"/>
 <use id="use23479" style="fill:#666666" width="744.09" height="1052.4" x="0" y="0" transform="translate(0,-2.2082)" xlink:href="#use23477"/>
 <use id="use23483" style="fill:#666666" width="744.09" height="1052.4" x="0" y="0" transform="matrix(1.3763,0,0,1.3763,-5.5145,-1.9309)" xlink:href="#use23477"/>
 <use id="use23485" style="fill:#666666" width="744.09" height="1052.4" x="0" y="0" transform="matrix(1.3763,0,0,1.3763,-5.8545,-2.8609)" xlink:href="#use23479"/>
 <circle id="use23487" style="fill:#666666" cx="8.66" cy="6.4" r=".587"/>
 <use id="use23489" style="fill:#666666" width="744.09" height="1052.4" x="0" y="0" transform="matrix(1.5012,0,0,1.5012,-6.778,-3.2431)" xlink:href="#use23483"/>
 <use id="use23491" style="fill:#666666" width="744.09" height="1052.4" x="0" y="0" transform="matrix(1.5012,0,0,1.5012,-6.908,-3.1731)" xlink:href="#use23485"/>
 <use id="use23493" style="fill:#666666" width="744.09" height="1052.4" x="0" y="0" transform="matrix(1.5012,0,0,1.5012,-6.658,-3.2331)" xlink:href="#use23487"/>
 <use style="fill:#666666" width="744.09" height="1052.4" x="0" y="0" transform="matrix(1.4856,0,0,1.4856,-6.804,-2.9026)" xlink:href="#use23489"/>
 <use style="fill:#666666" width="744.09" height="1052.4" x="0" y="0" transform="matrix(1.4856,0,0,1.4856,-6.604,-2.8426)" xlink:href="#use23491"/>
 <use style="fill:#666666" width="744.09" height="1052.4" x="0" y="0" transform="matrix(1.4856,0,0,1.4856,-6.554,-3.1426)" xlink:href="#use23493"/>
 <use id="use23501" style="fill:#666666" width="744.09" height="1052.4" x="0" y="0" transform="translate(-289.2358,-1023.7033)" xlink:href="#path23475"/>
 <use style="fill:#666666" width="744.09" height="1052.4" x="0" y="0" transform="translate(0.44802,2.6881)" xlink:href="#use23501"/>
 <use id="use23505" style="fill:#666666" width="744.09" height="1052.4" x="0" y="0" transform="translate(-4.7246)" xlink:href="#use23485"/>
 <use style="fill:#666666" width="744.09" height="1052.4" x="0" y="0" transform="translate(0.69239,4.1136)" xlink:href="#use23505"/>
 <use style="fill:#666666" width="744.09" height="1052.4" x="0" y="0" transform="translate(-0.73484,-1.0442)" xlink:href="#use23477"/>
</svg>
