<svg xmlns="http://www.w3.org/2000/svg" width="24" height="24" version="1.1" viewBox="0 0 24 24">
 <rect style="fill:none" width="24" height="24" x="0" y="0"/>
 <path style="fill:#666666" d="m 6.06,2.07 v 21 H 17.98 V 5.95 c 0,-1.88 -1.12,-3.88 -3.69,-3.88 z m 2,2 h 6.12 c 1.31,0 1.81,0.82 1.81,1.94 V 21.04 H 8.06 Z"/>
 <rect style="fill:#666666" width="4.25" height="1" x="7.61" y="5.01" rx=".5" ry=".5"/>
 <rect style="fill:#666666" width="4.25" height="1" x="7.61" y="13.01" rx=".5" ry=".5"/>
 <rect style="fill:#666666" width="2.188" height="1" x="7.67" y="19.01" rx=".5" ry=".5"/>
 <rect style="fill:#666666" width="2.188" height="1" x="7.67" y="17.01" rx=".5" ry=".5"/>
 <rect style="fill:#666666" width="2.188" height="1" x="7.67" y="15.01" rx=".5" ry=".5"/>
 <rect style="fill:#666666" width="2.188" height="1" x="7.67" y="11.01" rx=".5" ry=".5"/>
 <rect style="fill:#666666" width="2.188" height="1" x="7.67" y="9.01" rx=".5" ry=".5"/>
 <rect style="fill:#666666" width="2.188" height="1" x="7.67" y="7.01" rx=".5" ry=".5"/>
</svg>
