<svg xmlns="http://www.w3.org/2000/svg" width="24" height="24" version="1.1" viewBox="0 0 24 24">
 <path style="fill:#666666" d="M 3,0 C 1.338,0 0,1.338 0,3 v 18 c 0,1.662 1.338,3 3,3 h 18 c 1.662,0 3,-1.338 3,-3 V 3 C 24,1.338 22.662,0 21,0 Z m 15,2.0195312 h 1 V 9 c 0,1.4 1,0.96 1,1 L 21,9.970703 V 11 C 19.4,10.94 17.9,11.5 18,9 V 8.0800781 Z M 4.5996094,6 6.4980469,7.8984375 8.4003906,6 9,6.609375 7.1015625,8.5019531 9,10.400391 8.4003906,11 6.5,9.1035156 4.5996094,11 4,10.390625 5.8945312,8.5 4,6.609375 Z M 10,6 h 1 v 0.4003906 c 0.477712,-0.2361165 1.073308,-0.4520268 1.599609,-0.390625 0.3761,0.03761 0.662903,0.1784581 0.945313,0.46875 C 14.041828,6.215087 14.721799,5.941673 15.5,6.0097656 c 0.3,0.04 0.7,0.1895313 1,0.5195313 0.5,0.38 0.5,1.0803906 0.5,1.6503906 V 11 H 16 V 7.9101562 c 0,-0.4099998 -0.09922,-0.5892187 -0.199219,-0.6992187 -0.1,-0.12 -0.20039,-0.2007031 -0.40039,-0.2207031 C 14.943442,6.9536785 14.418439,7.1405477 14.023438,7.3398438 14.033983,7.6207245 14,7.9222253 14,8.1796875 V 11 H 13 V 8.1796875 c 0,-0.41 0.1,-0.85875 0,-0.96875 -0.1,-0.12 -0.3,-0.2007031 -0.5,-0.2207031 -0.4,-0.04 -1.000781,0.1803906 -1.300781,0.4003906 L 11,6.9453125 V 11 l -1,0.01953 z m -3.8007812,8.060547 0.9003906,0.660156 -0.5,0.318359 -3,2.441407 3,2.449219 0.5,0.310546 L 6.1992188,20.900391 5.8007812,20.560547 2.4003906,17.800781 2,17.480469 2.4003906,17.169922 5.8007812,14.410156 Z m 3.5,0 0.4003902,0.349609 L 13.5,17.169922 13.900391,17.480469 13.5,17.800781 l -3.400391,2.759766 -0.4003902,0.339844 -0.8984376,-0.660157 0.5,-0.310546 2.9999998,-2.449219 -2.9999998,-2.441407 -0.5,-0.318359 z M 18,16 h 2 v 2 h 2 v 2 h -2 v 2 h -2 v -2 h -2 v -2 h 2 z"/>
 <rect style="fill:none" width="24" height="24" x="0" y="0"/>
</svg>
