<svg xmlns="http://www.w3.org/2000/svg" width="24" height="24" version="1.1" viewBox="0 0 24 24">
 <path style="fill:#666666" d="M 3,0 C 1.338,0 0,1.338 0,3 v 18 c 0,1.662 1.338,3 3,3 h 18 c 1.662,0 3,-1.338 3,-3 V 3 C 24,1.338 22.662,0 21,0 Z m 7,3 h 1 V 6.2207031 C 11.3,6.0807031 11.6,6 12,6 c 1.1,0 2,0.7401563 2,1.6601562 V 9.3496094 C 14,10.269609 13.1,11 12,11 11.6,11 11.3,10.9193 11,10.779297 V 11 H 10 V 9.3496094 7.6601562 Z M 6,6 C 6.4,6 6.7,6.080703 7,6.2207031 V 6 H 8 V 7.6601562 9.3496094 11 H 7 V 10.779297 C 6.7,10.919297 6.4,11 6,11 4.9,11 4,10.269609 4,9.3496094 V 7.6601562 C 4,6.7401563 4.9,6 6,6 Z m 12,0 c 1.1,0 2,0.7499219 2,1.6699219 h -1 c 0,-0.46 -0.4,-0.8300781 -1,-0.8300781 -0.6,-10e-8 -1,0.3700781 -1,0.8300781 v 1.6699219 c 0,0.4599998 0.4,0.8300782 1,0.8300782 0.6,0 1,-0.3700783 1,-0.8300782 h 1 C 20,10.259844 19.1,11 18,11 16.9,11 16,10.259844 16,9.3398438 V 7.6699219 C 16,6.7499219 16.9,6 18,6 Z M 6,6.8496094 c -0.6,0 -1,0.3505469 -1,0.8105468 v 1.6894532 c 0,0.46 0.4,0.8105466 1,0.8105466 0.6,0 1,-0.3505466 1,-0.8105466 V 7.6601562 c 0,-0.46 -0.4,-0.8105468 -1,-0.8105468 z m 6,0 c -0.6,0 -1,0.3505469 -1,0.8105468 v 1.6894532 c 0,0.46 0.4,0.8105466 1,0.8105466 0.6,0 1,-0.3505466 1,-0.8105466 V 7.6601562 C 13,7.2001564 12.6,6.8496094 12,6.8496094 Z m -5.6992188,7.1699216 0.8984376,0.660157 -0.5,0.320312 -3,2.439453 3,2.451172 0.5,0.308594 L 6.3007812,20.859375 6,20.519531 2.5,17.759766 2.0996094,17.439453 2.5,17.130859 6,14.369141 Z m 3.5,0 0.3984378,0.34961 3.40039,2.761718 L 14,17.439453 13.599609,17.759766 10.199219,20.519531 9.8007812,20.859375 9,20.199219 9.4003906,19.890625 12.400391,17.439453 9.4003906,15 9,14.679688 Z M 18,16 h 2 v 2 h 2 v 2 h -2 v 2 h -2 v -2 h -2 v -2 h 2 z"/>
 <rect style="fill:none" width="24" height="24" x="0" y="0"/>
</svg>
