<svg xmlns="http://www.w3.org/2000/svg" width="24" height="24" version="1.1" viewBox="0 0 24 24">
 <path style="fill:#666666" d="M 3,0 C 1.338,0 0,1.338 0,3 v 18 c 0,1.662 1.338,3 3,3 h 18 c 1.662,0 3,-1.338 3,-3 V 3 C 24,1.338 22.662,0 21,0 Z M 3,2 H 6 V 5 H 5 v 3 h 6 V 6 h 10 v 4 H 11 V 9 H 5 v 4 h 6 v -2 h 10 v 4 H 11 V 14 H 4 V 13 5 H 3 Z M 4,3 V 4 H 5 V 3 Z m 8,4 v 2 h 8 V 7 Z m 0,5 v 2 h 8 v -2 z m 5,5 h 2 l 1,1.25 1,-1.25 h 2 l -2,2.5 2,2.5 H 21 L 20,20.75 19,22 h -2 l 2,-2.5 z"/>
 <rect style="fill:none" width="24" height="24" x="0" y="0"/>
</svg>
