<svg xmlns="http://www.w3.org/2000/svg" width="24" height="24" version="1.1" viewBox="0 0 24 24">
 <path style="fill:#666666" d="M 3.0292969,0 C 1.3512956,0 0,1.3479342 0,3.0214844 V 14.978516 C 0,16.652066 1.3512956,18 3.0292969,18 H 5 V 8.0214844 C 5,6.3479342 6.3512956,5 8.0292969,5 H 18 V 3.0214844 C 18,1.3479342 16.648704,0 14.970703,0 Z m 6,6 C 7.3512956,6 6,7.3479342 6,9.0214844 V 20.978516 C 6,22.652066 7.3512956,24 9.0292969,24 H 20.970703 C 22.648704,24 24,22.652066 24,20.978516 V 9.0214844 C 24,7.3479342 22.648704,6 20.970703,6 Z m 4.2714841,2.0195312 0.898438,0.6601563 -0.5,0.3203125 -3,2.439453 3,2.451172 0.5,0.308594 -0.898438,0.660156 L 13,14.519531 9.5,11.759766 9.0996094,11.439453 9.5,11.130859 13,8.3691406 Z m 3.5,0 0.398438,0.3496094 3.40039,2.7617184 L 21,11.439453 20.599609,11.759766 17.199219,14.519531 16.800781,14.859375 16,14.199219 l 0.400391,-0.308594 3,-2.451172 L 16.400391,9 16,8.6796875 Z M 18,16 h 2 v 2 h 2 v 2 h -2 v 2 h -2 v -2 h -2 v -2 h 2 z"/>
 <rect style="fill:none" width="24" height="24" x="0" y="0"/>
</svg>
