<svg xmlns="http://www.w3.org/2000/svg" width="24" height="24" version="1.1" viewBox="0 0 24 24">
 <rect style="fill:none" width="24" height="24" x="0" y="0"/>
 <path style="fill:#666666" d="m 11.46,2 c -5.27,0 -9.54,4.17 -9.54,9.3 0,5.13 4.27,9.26 9.54,9.26 1.87,0 3.61,-0.54 5.09,-1.44 L 20,23 c 0.66,0.64 1.7,0.61 2.35,-0.04 l 0.31,-0.31 c 0.65,-0.65 0.66,-1.7 0,-2.34 L 19.29,16.54 C 20.36,15.04 21,13.26 21,11.3 21,6.17 16.73,2 11.46,2 Z m 0,2.5 c 3.86,0 7,3.08 7,6.88 0,3.8 -3.14,6.88 -7,6.88 -3.86,0 -6.99,-3.08 -6.99,-6.88 0,-3.8 3.13,-6.88 6.99,-6.88 z"/>
</svg>
