<svg xmlns="http://www.w3.org/2000/svg" width="156" height="56" version="1.1" viewBox="0 0 156 56">
 <rect style="fill:none" width="16" height="16" x="-16" y="-16" transform="matrix(0,-1,-1,0,0,0)"/>
 <path style="fill:#666666" d="M 9.5,2 C 5.91,2 3,4.9 3,8.5 3,8.6 3.02,8.8 3.03,9 H 0 L 4,13 8,9 H 5.06 C 5.04,8.8 5,8.6 5,8.5 5,6 7.01,4 9.5,4 11.99,4 14,6 14,8.5 14,8.6 13.96,8.8 13.94,9 h 2.03 C 15.98,8.8 16,8.6 16,8.5 16,4.9 13.09,2 9.5,2 Z"/>
 <rect style="fill:none" width="16" height="16" x="-16" y="20" transform="rotate(-90)"/>
 <path style="fill:#666666" d="M 26.5,2 C 22.91,2 20,4.9 20,8.5 20,8.6 20.02,8.8 20.03,9 h 2.03 C 22.04,8.8 22,8.6 22,8.5 22,6 24.01,4 26.5,4 28.99,4 31,6 31,8.5 31,8.6 30.96,8.8 30.94,9 H 28 l 4,4 4,-4 H 32.97 C 32.98,8.8 33,8.6 33,8.5 33,4.9 30.09,2 26.5,2 Z"/>
 <rect style="fill:none" width="16" height="16" x="0" y="-76" transform="rotate(90)"/>
 <path style="fill:#666666" d="m 69,2 h -2 c -0.01,3.9 -0.03,8 0.01,12 h 2 C 68.91,10 68.99,5.9 69,2 Z"/>
 <path style="fill:#666666" d="M 68.02,15 64,11 h 8 z"/>
 <path style="fill:#666666" d="M 68.02,1 64,5 h 8 z"/>
 <rect style="fill:none" width="16" height="16" x="-56" y="-16" transform="scale(-1)"/>
 <path style="fill:#666666" d="M 54,9 V 7 C 50.011,6.9 45.99,6.9 42,7 v 2 c 3.988,-0.1 8.01,-0.1 12,0 z"/>
 <path style="fill:#666666" d="m 41,8 4,-4 v 8 z"/>
 <path style="fill:#666666" d="M 55,8 51,4 v 8 z"/>
 <rect style="fill:none" width="16" height="16" x="0" y="20"/>
 <path style="fill:#666666" d="m 1,26 4,4 v -8 z"/>
 <path style="fill:#666666" d="m 5,25 v 2 h 5.5 c 0.84,0 1.5,0.6 1.5,1.5 V 29 29.5 C 12,30.3 11.34,31 10.5,31 H 10 v 2 h 0.5 C 12.42,33 14,31.4 14,29.5 V 29 28.5 C 14,26.5 12.42,25 10.5,25 Z"/>
 <rect style="fill:none" width="16" height="16" x="20" y="20"/>
 <path style="fill:#666666" d="m 35,26 -4,4 v -8 z"/>
 <path style="fill:#666666" d="m 31,25 v 2 H 25.5 C 24.66,27 24,27.6 24,28.5 v 0.5 0.5 c 0,0.8 0.66,1.5 1.5,1.5 H 26 v 2 H 25.5 C 23.58,33 22,31.4 22,29.5 V 29 28.5 c 0,-2 1.58,-3.5 3.5,-3.5 z"/>
 <rect style="fill:none" width="15.982" height="16" x="40" y="20"/>
 <path style="fill:#666666" d="M 43.188,22 C 42.525,22 42,22.5 42,23.2 v 9.5 c 0,0.7 0.525,1.3 1.188,1.3 h 9.625 C 53.475,34 54,33.4 54,32.7 V 23.2 C 54,22.5 53.475,22 52.813,22 Z M 47,25 h 2 v 2 h 2 v 2 h -2 v 2 h -2 v -2 h -2 v -2 h 2 z"/>
 <rect style="fill:none" width="15.982" height="16" x="60" y="20"/>
 <path style="fill:#666666" d="M 63.19,22 C 62.52,22 62,22.5 62,23.2 v 9.5 c 0,0.7 0.52,1.3 1.19,1.3 h 9.62 C 73.48,34 74,33.4 74,32.7 V 23.2 C 74,22.5 73.48,22 72.81,22 Z M 65,27 h 6 v 2 h -6 z"/>
 <rect style="opacity:0.3;fill:none" width="16" height="16" x="80" y="20"/>
 <circle style="fill:#666666" cx="84" cy="33.5" r="2.5"/>
 <path style="fill:#666666" d="M 84.02,30 80,26 h 8 z"/>
 <path style="fill:#666666" d="M 83.91,22 C 83.41,22 83,22.5 83,23 v 4 c -0.01,0.5 0.47,1 1,1 0.53,0 1.01,-0.5 1,-1 v -3 h 8 v 9 h -4 c -0.53,-0.1 -1.01,0.4 -1.01,1 0,0.5 0.48,1 1.01,1 h 5 c 0.52,0 1,-0.5 1,-1 V 23 c 0,-0.6 -0.48,-1 -1,-1 H 84 c -0.03,0 -0.06,0 -0.09,0 z"/>
 <rect style="fill:none" width="16" height="16" x="40" y="40"/>
 <rect style="fill:#666666" width="2" height="5" x="47" y="40"/>
 <path style="fill:#666666" d="m 48,49 -4.02,-4 h 8 z"/>
 <path style="fill:#666666" d="m 44,48 v 1 l -1.58,2.1 c -0.19,0.4 -0.74,0.5 -1.1,0.3 C 40.97,51.2 41,51 41,51 l 1.7,-2.7 C 42.78,48.2 42.86,48 43,48 Z"/>
 <path style="fill:#666666" d="m 52,48 v 1 l 1.58,2.1 c 0.19,0.4 0.75,0.5 1.1,0.3 C 55.03,51.2 55,51 55,51 L 53.3,48.3 C 53.22,48.2 53.14,48 53,48 Z"/>
 <path style="fill:#666666" d="m 41,51 v 5 h 14 v -5 z m 4.41,1.4 c 0.03,0 0.05,0 0.07,0 0.34,-0.1 0.53,0.3 0.52,0.6 v 0 h 4 v 0 c 0,-0.3 0.13,-0.6 0.44,-0.6 0.3,0 0.58,0.2 0.58,0.5 V 53 c 0,0.5 -0.38,1 -1.02,1 h -4 c -0.64,0 -0.99,-0.5 -0.99,-1 v -0.1 c -0.01,-0.2 0.16,-0.4 0.4,-0.5 z"/>
 <rect style="opacity:0.3;fill:none" width="16" height="16" x="80" y="40"/>
 <path style="fill:#666666" d="m 80,40 v 11 h 4 v -6 h 7 v -5 z"/>
 <path style="fill:#666666" d="M 85,46 V 56 H 96 V 46 Z"/>
 <rect style="opacity:0.51464;fill:none" width="16" height="16" x="60" y="40"/>
 <path style="fill:#666666" d="m 62,44 c -0.5,0 -1,0.5 -1,1 v 4 c 0,0.5 0.5,1 1,1 h 1 v -2 h 10 v 2 h 1 c 0.5,0 1,-0.5 1,-1 v -4 c 0,-0.5 -0.5,-1 -1,-1 z"/>
 <path style="fill:#666666" d="m 64,41 v 2 h 8 v -2 z"/>
 <path style="fill:#666666" d="m 64,49 v 5 h 8 v -5 z"/>
 <rect style="fill:none" width="16" height="16" x="20" y="40"/>
 <path style="fill:#666666" d="m 20.57,41 c -0.29,0 -0.53,0.2 -0.53,0.5 v 12.9 c 0,0.3 0.23,0.6 0.53,0.6 h 13.75 c 0.3,0 0.53,-0.3 0.53,-0.6 L 36,48.5 C 36,48.2 35.76,48 35.47,48 H 24.06 l -1.03,4.5 c 0,0.2 -0.22,0.5 -0.5,0.5 -0.27,0 -0.49,-0.3 -0.5,-0.5 L 22,46 c 2.49,0 8.35,0 12,0 0,0 0.24,-2 -0.48,-2 H 26 V 41.5 C 26,41.2 25.76,41 25.47,41 H 23 21.07 Z"/>
 <rect style="fill:none" width="16" height="16" x="0" y="40" rx="0"/>
 <path style="fill:#666666" d="M 14.98,45.9 C 14.63,46.2 13.49,45 13.07,45 c -0.44,0 -1.52,1.2 -1.87,0.9 -0.35,-0.2 0.44,-1.6 0.31,-2 -0.14,-0.5 -1.49,-1.2 -1.36,-1.6 0.13,-0.4 1.59,-0.1 1.93,-0.3 0.36,-0.3 0.55,-1.9 0.99,-1.9 0.42,0 0.58,1.6 0.93,1.9 0.35,0.2 1.9,-0.1 2.04,0.3 0.14,0.5 -1.3,1.1 -1.43,1.5 -0.14,0.5 0.72,1.9 0.37,2.1 z"/>
 <path style="fill:#666666" d="M 0.81,43 C 0.35,43.1 -0.01,43.5 0,44 v 11 c 0,0.5 0.48,1 1,1 h 10 c 0.52,0 1,-0.5 1,-1 V 47.5 C 12.01,47.3 11.9,47 11.72,46.8 L 8.16,43.2 C 7.97,43.1 7.7,43 7.44,43 H 1 c -0.03,0 -0.06,0 -0.09,0 -0.04,0 -0.07,0 -0.1,0 z M 2,45 h 5 v 3 h 3 v 6 H 2 Z"/>
 <rect style="fill:none" width="16" height="16" x="100" y="40"/>
 <path style="fill:#666666" d="m 103.36,40 c -1.04,0.4 -1.38,1.5 -0.78,2.3 l 4.33,6.2 -1.71,2 1.38,1.8 1.58,-2.1 1.55,2.1 1.37,-1.7 -1.67,-2.1 4.33,-6.2 c 0.6,-0.8 0.26,-1.9 -0.78,-2.3 l -4.8,6.8 z"/>
 <path style="fill:#666666" d="m 112.5,49 c -1.93,0 -3.5,1.5 -3.5,3.5 0,1.9 1.57,3.5 3.5,3.5 1.93,0 3.5,-1.6 3.5,-3.5 0,-2 -1.57,-3.5 -3.5,-3.5 z m 0,2 c 0.83,0 1.5,0.6 1.5,1.5 0,0.8 -0.67,1.5 -1.5,1.5 -0.83,0 -1.5,-0.7 -1.5,-1.5 0,-0.9 0.67,-1.5 1.5,-1.5 z"/>
 <path style="fill:#666666" d="m 103.5,49 c -1.93,0 -3.5,1.5 -3.5,3.5 0,1.9 1.57,3.5 3.5,3.5 1.93,0 3.5,-1.6 3.5,-3.5 0,-2 -1.57,-3.5 -3.5,-3.5 z m 0,2 c 0.83,0 1.5,0.6 1.5,1.5 0,0.8 -0.67,1.5 -1.5,1.5 -0.83,0 -1.5,-0.7 -1.5,-1.5 0,-0.9 0.67,-1.5 1.5,-1.5 z"/>
 <rect style="fill:none" width="16" height="16" x="120" y="40" rx="0"/>
 <rect style="fill:#666666" width="6" height="3" x="124" y="41" ry=".53"/>
 <path style="fill:#666666" d="m 123,45 v 9 h 6 l 2,-2 v -7 z"/>
 <path style="fill:#666666" d="m 120.53,42 c -0.29,0 -0.53,0.2 -0.53,0.5 v 4.5 8.4 c 0,0.3 0.24,0.6 0.53,0.6 h 12.94 c 0.29,0 0.52,-0.3 0.53,-0.6 V 47 42.5 C 134,42.2 133.76,42 133.47,42 H 131 v 1 h 1.47 c 0.29,0 0.53,0.2 0.53,0.5 v 3.5 7.4 c 0,0.3 -0.24,0.6 -0.53,0.6 H 121.53 C 121.24,55 121,54.7 121,54.4 V 47 43.5 c 0,-0.3 0.24,-0.5 0.53,-0.5 H 123 v -1 z"/>
 <rect style="fill:none" width="16" height="16" x="120" y="0"/>
 <path style="fill:#666666" d="m 123.55,0.1 c -0.4,0 -0.79,0.1 -1.14,0.2 l 1.88,1.9 c 0.39,0.4 0.39,1 0,1.4 l -0.71,0.7 c -0.39,0.4 -1,0.4 -1.39,0 L 120.3,2.4 c -0.12,0.4 -0.21,0.8 -0.21,1.2 0,1.9 1.55,3.4 3.46,3.4 0.4,0 0.79,-0.1 1.14,-0.2 l 1.18,1.2 a 2.4726,2.4726 0 0 1 0.06,0 L 128,5.9 126.79,4.7 c 0.13,-0.4 0.22,-0.7 0.22,-1.1 0,-2 -1.55,-3.5 -3.46,-3.5 z m 6.55,7.9 -2.07,2.1 a 2.4726,2.4726 0 0 1 0.03,0.1 l 1.15,1.1 c -0.13,0.4 -0.22,0.8 -0.22,1.2 0,1.9 1.55,3.4 3.46,3.4 0.43,0 0.85,-0.1 1.24,-0.2 l -2.01,-2 c -0.39,-0.4 -0.39,-1.1 0,-1.5 l 0.68,-0.6 c 0.19,-0.2 0.45,-0.4 0.71,-0.4 0.25,0 0.52,0.2 0.71,0.4 l 1.95,1.9 c 0.1,-0.3 0.18,-0.7 0.18,-1 0,-2 -1.55,-3.5 -3.46,-3.5 -0.4,0 -0.79,0.1 -1.14,0.2 z"/>
 <path style="fill:#666666" d="m 133.86,0 -1.54,1.4 c -0.45,0.4 -0.53,1.2 -0.27,1.7 l -5.89,6 c -0.01,0 -0.02,0 -0.03,0 -0.26,-0.1 -0.55,-0.2 -0.84,-0.1 -0.33,0 -0.63,0.2 -0.87,0.4 l -3.94,4 c -1.41,1.4 0.73,3.6 2.13,2.1 l 3.94,-4 c 0.47,-0.4 0.59,-1.1 0.3,-1.7 l 5.89,-6 c 0.56,0.2 1.27,0.1 1.71,-0.3 l 1.42,-1.6 z"/>
 <rect style="fill:none" width="16" height="16" x="100" y="20"/>
 <path style="fill:#666666" d="m 102.94,21 c -0.63,0 -1.03,0.7 -0.94,1.3 l 0.03,12.7 c 0.06,0.7 0.69,1.1 1.28,1 h 9.75 c 0.63,-0.1 1.03,-0.7 0.94,-1.3 l -0.03,-9.8 c -0.1,-0.6 -0.67,-0.9 -1.03,-1.4 l -2.38,-2.3 C 110.07,20.8 109.45,21 108.91,21 Z m 4.06,3 h 1 v 1 c 0,0.2 -0.13,0.5 -0.31,0.7 l -1.28,1.3 h 3.12 c 1.92,0 3.5,1.6 3.5,3.5 0,1.1 -0.52,2.1 -1.32,2.7 l -1.15,-1.6 c 0.28,-0.3 0.44,-0.7 0.44,-1.1 0,-0.9 -0.53,-1.5 -1.47,-1.5 h -3.12 l 1.28,1.3 c 0.18,0.2 0.31,0.4 0.31,0.7 v 1 h -1 c -0.31,0 -0.55,-0.1 -0.75,-0.3 l -3.66,-3.7 3.66,-3.8 c 0.2,-0.1 0.44,-0.2 0.75,-0.2 z"/>
 <rect style="fill:none" width="16" height="16" x="120" y="20"/>
 <path style="fill:#666666" d="m 122.94,21 c -0.63,0 -0.94,0.7 -0.94,1.3 l 0.03,12.8 c 0,0.6 0.69,0.9 1.28,0.9 h 9.75 c 0.63,0 0.94,-0.7 0.94,-1.3 l -0.03,-9.8 c -0.1,-0.6 -0.67,-0.9 -1.03,-1.4 l -2.38,-2.3 C 130.07,20.9 129.45,21 128.91,21 Z m 5.06,3 h 1 c 0.31,0 0.55,0.1 0.75,0.3 l 3.66,3.7 -3.66,3.7 c -0.2,0.2 -0.44,0.3 -0.75,0.3 h -1 v -1 c 0,-0.3 0.13,-0.5 0.31,-0.7 l 1.28,-1.3 h -3.12 c -0.94,0 -1.47,0.6 -1.47,1.5 0,0.4 0.17,0.8 0.44,1.1 l -1.16,1.6 c -0.8,-0.6 -1.31,-1.6 -1.31,-2.7 0,-1.9 1.58,-3.5 3.5,-3.5 h 3.12 l -1.28,-1.3 C 128.13,25.5 128,25.2 128,25 Z"/>
 <rect style="fill:none" width="16" height="16" x="140" y="0"/>
 <path style="fill:#666666" d="m 148,4.6 -5.72,5.7 C 142.09,10.5 142,10.7 142,11 v 1 h 1 c 0.26,0 0.52,-0.1 0.72,-0.3 l 4.28,-4.3 4.28,4.3 c 0.2,0.2 0.46,0.3 0.72,0.3 h 1 v -1 c 0,-0.3 -0.09,-0.5 -0.28,-0.7 z"/>
 <rect style="fill:none" width="16" height="16" x="140" y="20"/>
 <path style="fill:#666666" d="m 148,31.4 -5.72,-5.7 C 142.09,25.5 142,25.3 142,25 v -1 h 1 c 0.26,0 0.52,0.1 0.72,0.3 l 4.28,4.3 4.28,-4.3 c 0.2,-0.2 0.46,-0.3 0.72,-0.3 h 1 v 1 c 0,0.3 -0.09,0.5 -0.28,0.7 z"/>
 <rect style="fill:none" width="16" height="16" x="140" y="40"/>
 <path style="fill:#666666" d="m 148,41 c -3.85,0 -6.97,3.1 -6.97,7 0,3.9 3.12,7 6.97,7 3.85,0 6.97,-3.1 6.97,-7 0,-3.9 -3.12,-7 -6.97,-7 z m -3,4 h 1 c 0.01,0 0.02,0 0.03,0 0.26,0 0.51,0.1 0.69,0.3 l 1.28,1.3 1.31,-1.3 C 149.58,45.1 149.76,45 150,45 h 1 v 1 c 0,0.3 -0.03,0.6 -0.25,0.8 l -1.28,1.2 1.25,1.3 c 0.19,0.2 0.28,0.4 0.28,0.7 v 1 h -1 c -0.27,0 -0.53,-0.1 -0.72,-0.3 L 148,49.4 146.72,50.7 C 146.53,50.9 146.27,51 146,51 h -1 v -1 c 0,-0.3 0.09,-0.5 0.28,-0.7 l 1.28,-1.3 -1.28,-1.2 C 145.07,46.6 144.98,46.3 145,46 Z"/>
 <rect style="fill:none" width="16" height="16" x="80" y="0"/>
 <rect style="fill:none" width="16" height="16" x="80" y="0"/>
 <rect style="fill:#666666" width="5" height="2" x="88" y="3"/>
 <rect style="fill:#666666" width="6" height="2" x="88" y="7"/>
 <rect style="fill:#666666" width="7" height="2" x="82" y="11"/>
 <path style="fill:#666666" d="m 82,3 v 1 c 0,0.3 0.13,0.5 0.313,0.7 L 83.594,6 82.312,7.3 C 82.13,7.5 82,7.7 82,8 v 1 h 1 c 0.309,0 0.552,-0.1 0.75,-0.3 L 86.41,6 83.75,3.3 C 83.552,3.1 83.309,3 83,3 Z"/>
 <rect style="fill:none" width="16" height="16" x="100" y="0"/>
 <rect style="fill:none" width="16" height="16" x="100" y="0"/>
 <rect style="fill:#666666" width="5" height="2" x="102" y="3"/>
 <rect style="fill:#666666" width="6" height="2" x="102" y="7"/>
 <rect style="fill:#666666" width="7" height="2" x="107" y="11"/>
 <path style="fill:#666666" d="m 114,3 v 1 c 0,0.3 -0.13,0.5 -0.31,0.7 l -1.28,1.3 1.28,1.3 C 113.87,7.5 114,7.7 114,8 v 1 h -1 c -0.31,0 -0.55,-0.1 -0.75,-0.3 L 109.59,6 112.25,3.3 C 112.45,3.1 112.69,3 113,3 Z"/>
</svg>
