<svg xmlns="http://www.w3.org/2000/svg" xmlns:osb="http://www.openswatchbook.org/uri/2009/osb" width="24" height="24" version="1.1" viewBox="0 0 24 24">
 <defs>
  <linearGradient id="linearGradient19282" gradientTransform="matrix(0,0,0,0,-1.1046e8,-6316300)" osb:paint="solid">
   <stop style="stop-color:#666666" offset="0"/>
  </linearGradient>
 </defs>
 <g transform="translate(-1082,-670.36)">
  <rect style="fill:none" width="24" height="24" x="670.36" y="-1106" transform="rotate(90)"/>
  <path style="fill:url(#linearGradient19282)" d="M 1087.2,675.77 C 1087.9,675.09 1089.3,675.34 1089.9,676.12 1090.8,677.3 1091.1,678.81 1091.5,680.23 1091.7,681.44 1091.9,682.13 1092,683.36 1092.8,681.81 1093.7,680.67 1093.7,678.91 1093.7,678.03 1093.2,677.28 1092.8,676.49 1092.5,675.83 1093.3,675.15 1094,675.36 1094.9,675.53 1095,676.47 1095,677.14 1094.9,679.14 1094.1,681.11 1093.3,682.93 1092.1,685.35 1090.4,687.59 1088.2,689.29 1087.3,689.91 1085.1,690.63 1084,690.26 1082,689.27 1082,687.28 1084,687.28 1084.7,686.96 1086.6,688.52 1087.3,688.5 1088.5,688.49 1089.4,687.45 1089.7,686.46 1090,685.15 1089.7,683.79 1089.5,682.48 1089.2,680.79 1088.8,679.05 1087.9,677.51 1087.8,676.92 1086.3,676.56 1087.2,675.77 Z"/>
  <path style="fill:url(#linearGradient19282)" d="M 1100.3,680.74 C 1099.8,680.74 1099.4,680.83 1099.1,681 1098.8,681.17 1098.7,681.43 1098.7,681.76 1098.7,682.07 1098.8,682.31 1099,682.49 1099.2,682.66 1099.6,682.75 1100,682.75 1100.5,682.75 1100.9,682.58 1101.2,682.26 1101.6,681.93 1101.7,681.51 1101.7,681.02 V 680.74 H 1100.3 M 1104,679.8 V 684.36 L 1101.7,684.39 V 683.04 C 1101.4,683.5 1101,683.84 1100.5,684.05 1100.1,684.26 1099.5,684.36 1098.9,684.36 1098,684.36 1097.3,684.13 1096.8,683.68 1096.3,683.21 1096,682.62 1096,681.88 1096,680.99 1096.3,680.34 1097,679.92 1097.7,679.5 1098.7,679.3 1100.2,679.3 H 1101.7 V 679.11 C 1101.7,678.72 1101.6,678.44 1101.2,678.26 1100.9,678.08 1100.4,677.99 1099.7,677.99 1099.1,677.99 1098.6,678.04 1098.1,678.15 1097.6,678.25 1097.4,678.15 1097,678.36 V 676.51 L 1100.2,676.38 C 1101.7,676.38 1102.3,676.62 1103,677.17 1103.7,677.71 1104,678.58 1104,679.8"/>
  <rect style="fill:url(#linearGradient19282)" width="1" height="24" x="684.36" y="-1106" transform="rotate(90)"/>
 </g>
</svg>
