<svg xmlns="http://www.w3.org/2000/svg" xmlns:osb="http://www.openswatchbook.org/uri/2009/osb" width="24" height="24" version="1.1" viewBox="0 0 24 24">
 <defs>
  <linearGradient id="linearGradient19282" gradientTransform="matrix(0,0,0,0,-1.1046e8,-6316300)" osb:paint="solid">
   <stop style="stop-color:#666666" offset="0"/>
  </linearGradient>
 </defs>
 <g transform="translate(-1082,-632.36)">
  <rect style="fill:none" width="24" height="24" x="-656.36" y="-1106" transform="matrix(0,-1,-1,0,0,0)"/>
  <rect style="fill:url(#linearGradient19282)" width="1" height="24" x="-636.36" y="-1106" transform="matrix(0,-1,-1,0,0,0)"/>
  <rect style="fill:url(#linearGradient19282)" width="16" height="5" x="-653.36" y="-1095" transform="matrix(0,-1,-1,0,0,0)"/>
  <rect style="fill:url(#linearGradient19282)" width="10" height="3" x="-647.36" y="-1100" transform="matrix(0,-1,-1,0,0,0)"/>
  <rect style="fill:url(#linearGradient19282)" width="14" height="4" x="-651.36" y="-1106" transform="matrix(0,-1,-1,0,0,0)"/>
  <path style="fill:url(#linearGradient19282)" d="M 1085,637.36 1088,640.36 H 1082 Z"/>
  <rect style="fill:url(#linearGradient19282)" width="9" height="2" x="640.36" y="-1086" transform="rotate(90)"/>
 </g>
</svg>
