<?xml version="1.0" encoding="UTF-8" standalone="no"?>
<!-- Created with Inkscape (http://www.inkscape.org/) -->

<svg
  xmlns:osb="http://www.openswatchbook.org/uri/2009/osb"
  xmlns:dc="http://purl.org/dc/elements/1.1/"
  xmlns:cc="http://creativecommons.org/ns#"
  xmlns:rdf="http://www.w3.org/1999/02/22-rdf-syntax-ns#"
  xmlns:svg="http://www.w3.org/2000/svg"
  xmlns="http://www.w3.org/2000/svg"
  xmlns:xlink="http://www.w3.org/1999/xlink"
  xmlns:sodipodi="http://sodipodi.sourceforge.net/DTD/sodipodi-0.dtd"
  xmlns:inkscape="http://www.inkscape.org/namespaces/inkscape"
  width="24"
  height="24"
  id="svg15638"
  version="1.1"
  inkscape:version="0.92.2 (unknown)"
  sodipodi:docname="align-horizontal-baseline.svg"
  viewBox="0 0 24 24">
 <title
   id="title9623">Inkscape Icon Theme</title>
 <defs
   id="defs15640">
  <!--<inkscape:path-effect effect="spiro" id="path-effect36695" is_visible="true" />-->
  <linearGradient
    id="linearGradient19282"
    osb:paint="solid"
    gradientTransform="matrix(0,0,0,0,1.1444e8,-6070100)">
   <stop
     style="stop-color:#666666;stop-opacity:1"
     offset="0"
     id="stop19284" />
  </linearGradient>
 </defs>
 <sodipodi:namedview
   id="base"
   pagecolor="#f2f2f2"
   bordercolor="#666666"
   borderopacity="1.0"
   inkscape:pageopacity="0"
   inkscape:pageshadow="2"
   inkscape:zoom="0.76028"
   inkscape:cx="-683.1"
   inkscape:cy="-108.02"
   inkscape:document-units="px"
   inkscape:current-layer="layer1"
   showgrid="false"
   inkscape:window-width="1280"
   inkscape:window-height="960"
   inkscape:window-x="0"
   inkscape:window-y="27"
   inkscape:window-maximized="1"
   inkscape:snap-bbox="true"
   inkscape:bbox-paths="false"
   inkscape:bbox-nodes="true"
   inkscape:snap-global="false"
   showguides="false"
   inkscape:guide-bbox="true"
   inkscape:snap-nodes="false"
   inkscape:snap-object-midpoints="false"
   inkscape:snap-grids="true"
   inkscape:snap-to-guides="true"
   borderlayer="true"
   inkscape:showpageshadow="false"
   showborder="true"
   inkscape:snap-bbox-edge-midpoints="false"
   inkscape:object-nodes="true"
   inkscape:snap-intersection-paths="false"
   inkscape:snap-center="true">
  <inkscape:grid
    type="xygrid"
    id="grid15646"
    empspacing="5"
    visible="true"
    enabled="true"
    snapvisiblegridlinesonly="true"
    originx="-1044"
    originy="-478" />
 </sodipodi:namedview>
 <metadata
   id="metadata15643">
  <rdf:RDF>
   <cc:Work
     rdf:about="">
    <dc:format>image/svg+xml</dc:format>
    <dc:type
      rdf:resource="http://purl.org/dc/dcmitype/StillImage" />
    <dc:title>Inkscape Icon Theme</dc:title>
    <dc:creator>
     <cc:Agent>
      <dc:title>Barbara Muraus</dc:title>
     </cc:Agent>
    </dc:creator>
    <dc:contributor>
     <cc:Agent>
      <dc:title>Jakub Steiner, Josh Andler</dc:title>
     </cc:Agent>
    </dc:contributor>
   </cc:Work>
  </rdf:RDF>
 </metadata>
 <g
   inkscape:label="Layer 1"
   inkscape:groupmode="layer"
   id="layer1"
   transform="translate(-1044,-670.36)">
  <use
    xlink:href="#path5120"
    height="1250"
    width="1250"
    id="use22451"
    y="0"
    x="0"
    transform="matrix(1,0,0,0.99802,1078,495.68)" />
  <rect
    style="fill:none;stroke-width:0.99896"
    id="rect22453"
    width="24"
    height="24"
    x="670.36"
    y="-1068"
    transform="rotate(90)" />
  <path
    id="path22455"
    d="M 1051.2,679.76 C 1051.9,679.09 1053.3,679.33 1053.9,680.11 1054.8,681.3 1055.1,682.81 1055.5,684.23 1055.7,685.43 1055.9,686.66 1056,687.89 1056.8,686.33 1057.7,684.66 1057.7,682.91 1057.7,682.02 1057.2,681.27 1056.8,680.49 1056.5,679.83 1057.3,679.15 1058,679.36 1058.9,679.52 1059,680.46 1059,681.13 1058.9,683.14 1058.1,685.1 1057.3,686.93 1056.1,689.35 1054.4,691.59 1052.2,693.28 1051.3,693.9 1049.1,694.63 1048,694.25 1046,693.26 1046,691.28 1048,691.28 1048.8,690.95 1050.6,692.52 1051.3,692.5 1052.5,692.49 1053.4,691.44 1053.7,690.45 1054.1,689.14 1053.7,687.79 1053.5,686.48 1053.2,684.78 1052.8,683.05 1051.9,681.51 1051.8,680.91 1050.3,680.56 1051.2,679.76 Z"
    style="fill:url(#linearGradient19282);stroke-width:0.99896"
    sodipodi:nodetypes="cccccsccccccccccc"
    inkscape:connector-curvature="0" />
  <path
    style="fill:url(#linearGradient19282);stroke-width:0.99894"
    d="M 1055.4,674.8 C 1054.8,674.8 1054.4,674.88 1054.1,675.06 1053.8,675.23 1053.7,675.49 1053.7,675.83 1053.7,676.14 1053.8,676.38 1054,676.56 1054.2,676.74 1054.6,676.82 1055,676.82 1055.5,676.82 1055.9,676.66 1056.2,676.33 1056.6,675.99 1056.7,675.58 1056.7,675.08 V 674.8 H 1055.4 M 1059.4,673.87 V 678.26 H 1056.7 V 677.12 C 1056.4,677.59 1056,677.93 1055.5,678.15 1055.1,678.36 1054.5,678.46 1053.9,678.46 1053.1,678.46 1052.4,678.23 1051.8,677.77 1051.3,677.3 1051,676.69 1051,675.95 1051,675.05 1051.3,674.38 1052,673.96 1052.7,673.54 1053.7,673.33 1055.2,673.33 H 1056.7 V 673.14 C 1056.7,672.75 1056.6,672.46 1056.2,672.28 1055.9,672.1 1055.4,672.01 1054.7,672.01 1054.1,672.01 1053.6,672.06 1053.1,672.17 1052.6,672.27 1052.2,672.43 1051.7,672.64 V 670.76 C 1052.3,670.64 1052.9,670.54 1053.5,670.47 1054,670.41 1054.6,670.37 1055.2,670.37 1056.7,670.37 1057.7,670.65 1058.4,671.2 1059.1,671.74 1059.4,672.63 1059.4,673.87"
    id="path22457"
    inkscape:connector-curvature="0" />
  <rect
    style="fill:url(#linearGradient19282)"
    id="rect22505"
    width="1"
    height="24"
    x="1049"
    y="670.36" />
 </g>
</svg>
