<svg xmlns="http://www.w3.org/2000/svg" xmlns:osb="http://www.openswatchbook.org/uri/2009/osb" width="24" height="24" version="1.1" viewBox="0 0 24 24">
 <defs>
  <linearGradient id="linearGradient19282" gradientTransform="matrix(0,0,0,0,-1.1046e8,-6317300)" osb:paint="solid">
   <stop style="stop-color:#666666" offset="0"/>
  </linearGradient>
 </defs>
 <g transform="translate(-1196,-632.36)">
  <rect style="fill:none" width="24" height="24" x="-656.34" y="-1220" transform="matrix(0,-1,-1,0,0,0)"/>
  <rect style="fill:url(#linearGradient19282)" width="4" height="4" x="-636.34" y="-1220" transform="matrix(0,-1,-1,0,0,0)"/>
  <rect style="fill:url(#linearGradient19282)" width="1" height="24" x="-638.34" y="-1220" transform="matrix(0,-1,-1,0,0,0)"/>
  <rect style="fill:url(#linearGradient19282)" width="16" height="5" x="-655.34" y="-1216" transform="matrix(0,-1,-1,0,0,0)"/>
  <rect style="fill:url(#linearGradient19282)" width="10" height="3" x="-649.34" y="-1209" transform="matrix(0,-1,-1,0,0,0)"/>
  <rect style="fill:url(#linearGradient19282)" width="14" height="4" x="-653.34" y="-1204" transform="matrix(0,-1,-1,0,0,0)"/>
 </g>
</svg>
