<svg xmlns="http://www.w3.org/2000/svg" width="16" height="16" version="1.1" viewBox="0 0 16 16">
 <g transform="translate(-165.03,-567.36)">
  <rect style="fill:none" width="16" height="16" x="165.03" y="567.36"/>
  <path style="fill:#666666" d="M 170.53,567.36 C 167.49,567.36 165.03,569.82 165.03,572.86 165.03,575.9 167.49,578.36 170.53,578.36 173.57,578.36 176.03,575.9 176.03,572.86 176.03,569.82 173.57,567.36 170.53,567.36 Z M 170.53,569.36 C 172.46,569.36 174.03,570.93 174.03,572.86 174.03,574.8 172.46,576.36 170.53,576.36 168.6,576.36 167.03,574.8 167.03,572.86 167.03,570.93 168.6,569.36 170.53,569.36 Z"/>
  <path style="fill:#666666" d="M 177,572.36 C 177.01,572.53 177.03,572.69 177.03,572.86 177.03,573.38 176.96,573.88 176.84,574.36 H 179.03 V 581.36 H 172.03 V 579.17 C 171.55,579.29 171.05,579.36 170.53,579.36 170.36,579.36 170.2,579.34 170.03,579.33 V 583.36 H 172.03 181.03 V 581.36 574.36 572.36 H 179.03 Z"/>
 </g>
</svg>
