<svg xmlns="http://www.w3.org/2000/svg" width="16" height="16.015" version="1.1" viewBox="0 0 16 16.02">
 <g transform="translate(-678,-743.36)">
  <rect style="fill:none" width="16" height="16" x="743.36" y="-694" rx=".47" ry="0" transform="rotate(90)"/>
  <rect style="fill:#666666" width="2" height="12" x="746.36" y="-692" rx="0" transform="rotate(90)"/>
  <path style="fill:#666666" d="M 680,750.36 V 752.36 H 688.92 L 690.48,750.36 Z"/>
  <path style="fill:#666666" d="M 680,754.36 V 756.36 H 686 L 687.52,754.4 Z"/>
  <path style="fill:#666666" d="M 685,758.51 C 687.72,758.51 687.45,755.54 688.77,754.72 690.3,753.76 691.64,754.95 691.91,755.92 692.25,757.15 691.61,758.16 690.77,758.7 689.16,759.75 685.26,759.51 685,758.51 Z"/>
  <path style="fill:#666666" d="M 694,748.77 C 692.99,749.83 691.91,751.11 690.25,753.39 691.25,753.43 692.12,754.08 692.56,755.02 693.09,754.44 693.57,753.88 694,753.36 Z"/>
 </g>
</svg>
