<svg xmlns="http://www.w3.org/2000/svg" width="16.068" height="16" version="1.1" viewBox="0 0 16.07 16">
 <g transform="translate(-617.93,-743.36)">
  <rect style="fill:none" width="16" height="16" x="743.36" y="-634" rx=".47" ry="0" transform="rotate(90)"/>
  <rect style="fill:#666666" width="2" height="12" x="743.36" y="-630" rx="0" transform="rotate(90)"/>
  <rect style="fill:#666666" width="2" height="12" x="181.78" y="-967.52" rx="0" transform="rotate(129.69)"/>
  <path style="fill:#666666" d="M 627.97,747.15 A 0.9501,0.94932 0 0 1 629.06,746.37 C 631.32,746.37 633,748.43 633,750.8 633,752.34 632.3,753.75 631.19,754.55 L 633,756.36 H 628 V 754.61 754.52 A 0.9501,0.94932 0 0 1 628,754.05 V 753.36 751.37 L 629.81,753.18 C 629.82,753.17 629.84,753.18 629.84,753.18 630.57,752.81 631.12,751.92 631.12,750.8 631.12,749.31 630.12,748.24 629.06,748.24 A 0.9501,0.94932 0 0 1 627.97,747.15 Z"/>
 </g>
</svg>
