<?xml version="1.0" encoding="UTF-8" standalone="no"?>
<!-- Created with Inkscape (http://www.inkscape.org/) -->

<svg
  xmlns:osb="http://www.openswatchbook.org/uri/2009/osb"
  xmlns:dc="http://purl.org/dc/elements/1.1/"
  xmlns:cc="http://creativecommons.org/ns#"
  xmlns:rdf="http://www.w3.org/1999/02/22-rdf-syntax-ns#"
  xmlns:svg="http://www.w3.org/2000/svg"
  xmlns="http://www.w3.org/2000/svg"
  xmlns:sodipodi="http://sodipodi.sourceforge.net/DTD/sodipodi-0.dtd"
  xmlns:inkscape="http://www.inkscape.org/namespaces/inkscape"
  width="16"
  height="16"
  id="svg15638"
  version="1.1"
  inkscape:version="0.92.2 (unknown)"
  sodipodi:docname="color-management.svg"
  viewBox="0 0 16 16">
 <title
   id="title9623">Inkscape Icon Theme</title>
 <defs
   id="defs15640">
  <!--<inkscape:path-effect effect="spiro" id="path-effect36695" is_visible="true" />-->
  <linearGradient
    id="linearGradient19282"
    osb:paint="solid"
    gradientTransform="matrix(0,0,0,0,-1.1046e8,-6311800)">
   <stop
     style="stop-color:#666666;stop-opacity:1"
     offset="0"
     id="stop19284" />
  </linearGradient>
 </defs>
 <sodipodi:namedview
   id="base"
   pagecolor="#f2f2f2"
   bordercolor="#666666"
   borderopacity="1.0"
   inkscape:pageopacity="0"
   inkscape:pageshadow="2"
   inkscape:zoom="0.76028"
   inkscape:cx="225.91"
   inkscape:cy="61.049"
   inkscape:document-units="px"
   inkscape:current-layer="layer1"
   showgrid="false"
   inkscape:window-width="1280"
   inkscape:window-height="960"
   inkscape:window-x="0"
   inkscape:window-y="27"
   inkscape:window-maximized="1"
   inkscape:snap-bbox="true"
   inkscape:bbox-paths="false"
   inkscape:bbox-nodes="true"
   inkscape:snap-global="false"
   showguides="false"
   inkscape:guide-bbox="true"
   inkscape:snap-nodes="false"
   inkscape:snap-object-midpoints="false"
   inkscape:snap-grids="true"
   inkscape:snap-to-guides="true"
   borderlayer="true"
   inkscape:showpageshadow="false"
   showborder="true"
   inkscape:snap-bbox-edge-midpoints="false"
   inkscape:object-nodes="true"
   inkscape:snap-intersection-paths="false"
   inkscape:snap-center="true">
  <inkscape:grid
    type="xygrid"
    id="grid15646"
    empspacing="5"
    visible="true"
    enabled="true"
    snapvisiblegridlinesonly="true"
    originx="-134.99"
    originy="-308.93" />
 </sodipodi:namedview>
 <metadata
   id="metadata15643">
  <rdf:RDF>
   <cc:Work
     rdf:about="">
    <dc:format>image/svg+xml</dc:format>
    <dc:type
      rdf:resource="http://purl.org/dc/dcmitype/StillImage" />
    <dc:title>Inkscape Icon Theme</dc:title>
    <dc:creator>
     <cc:Agent>
      <dc:title>Barbara Muraus</dc:title>
     </cc:Agent>
    </dc:creator>
    <dc:contributor>
     <cc:Agent>
      <dc:title>Jakub Steiner, Josh Andler</dc:title>
     </cc:Agent>
    </dc:contributor>
   </cc:Work>
  </rdf:RDF>
 </metadata>
 <g
   inkscape:label="Layer 1"
   inkscape:groupmode="layer"
   id="layer1"
   transform="translate(-134.99,-847.43)">
  <rect
    style="fill:none;stroke-width:1.781"
    id="rect8585"
    y="847.43"
    x="134.99"
    height="16"
    width="16" />
  <path
    style="color:#000000;-inkscape-font-specification:Sans;fill:url(#linearGradient19282);stroke-width:2.15385"
    d="M 143.01,848.37 C 140.81,848.37 139.01,850.16 139.01,852.36 139.01,854.56 140.81,856.35 143.01,856.35 145.21,856.35 147,854.56 147,852.36 147,850.16 145.21,848.37 143.01,848.37 Z M 143.01,849.42 C 144.63,849.42 145.95,850.73 145.95,852.36 145.95,853.99 144.63,855.3 143.01,855.3 141.38,855.3 140.07,853.99 140.07,852.36 140.07,850.73 141.38,849.42 143.01,849.42 Z"
    id="path8587"
    inkscape:connector-curvature="0" />
  <path
    style="color:#000000;-inkscape-font-specification:Sans;fill:url(#linearGradient19282);stroke-width:2.15385"
    d="M 138.99,855.44 C 136.79,855.44 135,857.23 135,859.43 135,861.63 136.79,863.42 138.99,863.42 141.2,863.42 142.99,861.63 142.99,859.43 142.99,857.23 141.2,855.44 138.99,855.44 Z M 138.99,856.49 C 140.62,856.49 141.93,857.8 141.93,859.43 141.93,861.06 140.62,862.37 138.99,862.37 137.37,862.37 136.05,861.06 136.05,859.43 136.05,857.8 137.37,856.49 138.99,856.49 Z"
    id="path8591"
    inkscape:connector-curvature="0" />
  <path
    style="color:#000000;-inkscape-font-specification:Sans;fill:url(#linearGradient19282);stroke-width:2.15385"
    d="M 146.99,855.44 C 144.79,855.44 143,857.23 143,859.43 143,861.63 144.79,863.42 146.99,863.42 149.19,863.42 150.98,861.63 150.98,859.43 150.98,857.23 149.19,855.44 146.99,855.44 Z M 146.99,856.49 C 148.62,856.49 149.93,857.8 149.93,859.43 149.93,861.06 148.62,862.37 146.99,862.37 145.37,862.37 144.05,861.06 144.05,859.43 144.05,857.8 145.37,856.49 146.99,856.49 Z"
    id="path8593"
    inkscape:connector-curvature="0" />
  <circle
    cy="859.36"
    cx="138.95"
    style="opacity:0.3;fill:url(#linearGradient19282);stroke-width:0.83863"
    id="path14494"
    r="2" />
  <circle
    cy="859.36"
    cx="146.95"
    style="fill:url(#linearGradient19282);stroke-width:0.7599"
    id="path14496"
    r="2" />
 </g>
</svg>
