<svg xmlns="http://www.w3.org/2000/svg" xmlns:osb="http://www.openswatchbook.org/uri/2009/osb" width="16" height="16" version="1.1" viewBox="0 0 16 16">
 <defs>
  <linearGradient id="linearGradient19282" gradientTransform="matrix(0,0,0,0,-1.1046e8,-6262100)" osb:paint="solid">
   <stop style="stop-color:#666666" offset="0"/>
  </linearGradient>
 </defs>
 <g transform="translate(-318,-929.4)">
  <rect style="fill:none" width="16" height="15.956" x="318" y="929.4" rx=".998" ry="0"/>
  <path style="fill:url(#linearGradient19282);fill-rule:evenodd" d="M 328.61,934.79 324.39,940.44 322.7,941.93 322,941.37 323,939.33 327.22,933.67 Z"/>
  <path style="fill:url(#linearGradient19282);fill-rule:evenodd" d="M 322,941.94 C 322,941.94 320.52,942.61 320.53,944.01 320.55,945.77 323.19,945.86 323.28,944.3 323.33,943.41 322,941.94 322,941.94 Z"/>
  <path style="fill:url(#linearGradient19282);fill-rule:evenodd" d="M 324.65,933.82 329.3,937.34 330,936.41 328.61,935.36 C 331.41,934.57 333.33,931.2 331.47,929.79 329.61,928.39 326.76,931.05 326.75,933.95 L 325.35,932.89 Z"/>
 </g>
</svg>
