<svg xmlns="http://www.w3.org/2000/svg" xmlns:osb="http://www.openswatchbook.org/uri/2009/osb" width="16" height="16" version="1.1" viewBox="0 0 16 16">
 <defs>
  <linearGradient id="linearGradient19282" gradientTransform="matrix(0,0,0,0,-1.1046e8,-6314500)" osb:paint="solid">
   <stop style="stop-color:#666666" offset="0"/>
  </linearGradient>
 </defs>
 <g transform="translate(-317,-960.36)">
  <rect style="fill:none" width="16" height="16" x="317" y="960.36"/>
  <path style="fill:url(#linearGradient19282)" d="M 325,963.56 322.53,965.37 C 322.54,965.36 322.5,965.35 322.25,965.4 318.25,966.18 318,967.06 318,968.4 V 973.4 C 318,973.95 318.45,974.4 319,974.4 319.55,974.4 320,973.95 320,973.4 V 967.21 L 321.28,969.09 322.34,970.65 325.12,974.81 C 325.51,975.37 326.2,975.58 326.66,975.24 L 331.62,971.65 C 332.08,971.32 332.13,970.59 331.75,970.02 L 329,965.96 V 967.4 C 329,968.5 328.11,969.4 327,969.4 325.89,969.4 325,968.5 325,967.4 Z"/>
  <rect style="fill:url(#linearGradient19282)" width="1.998" height="8" x="326" y="960.36" rx="1" ry="1"/>
 </g>
</svg>
