<svg xmlns="http://www.w3.org/2000/svg" xmlns:osb="http://www.openswatchbook.org/uri/2009/osb" width="24" height="24" version="1.1" viewBox="0 0 24 24">
 <defs>
  <linearGradient id="linearGradient19282" gradientTransform="matrix(0,0,0,0,-3.7279e8,-21139000)" osb:paint="solid">
   <stop style="stop-color:#666666" offset="0"/>
  </linearGradient>
 </defs>
 <g transform="translate(-285,-929.36)">
  <rect style="fill:none" width="24" height="23.934" x="285" y="929.36"/>
  <path style="fill:url(#linearGradient19282);fill-rule:evenodd" d="M 300.92,937.44 294.58,945.92 292.05,948.15 291,947.32 292.5,944.25 298.83,935.77 Z"/>
  <path style="fill:url(#linearGradient19282);fill-rule:evenodd" d="M 291,948.17 C 291,948.17 288.78,949.17 288.8,951.28 288.83,953.91 292.78,954.05 292.92,951.71 293,950.38 291,948.17 291,948.17 Z"/>
  <path style="fill:url(#linearGradient19282);fill-rule:evenodd" d="M 294.98,935.99 301.95,941.27 303,939.88 300.92,938.29 C 305.12,937.11 308,932.06 305.2,929.95 302.42,927.84 298.14,931.83 298.12,936.19 L 296.02,934.6 Z"/>
 </g>
</svg>
