<svg xmlns="http://www.w3.org/2000/svg" xmlns:osb="http://www.openswatchbook.org/uri/2009/osb" width="16" height="16" version="1.1" viewBox="0 0 16 16">
 <defs>
  <linearGradient id="linearGradient19282" gradientTransform="matrix(0,0,0,0,-1.1046e8,-6316300)" osb:paint="solid">
   <stop style="stop-color:#666666" offset="0"/>
  </linearGradient>
 </defs>
 <g transform="translate(-499,-867.36)">
  <rect style="fill:none" width="16" height="16" x="499" y="867.36"/>
  <rect style="fill:url(#linearGradient19282)" width="4" height="4" x="500" y="868.36"/>
  <path style="fill:url(#linearGradient19282)" d="M 506,873.36 C 505.45,873.36 505,873.81 505,874.36 V 881.36 C 505,881.92 505.45,882.36 506,882.36 H 513 C 513.55,882.36 514,881.92 514,881.36 V 874.36 C 514,873.81 513.55,873.36 513,873.36 Z M 507.91,874.08 509.69,876.24 511.47,874.08 513,875.36 510.97,877.8 513,880.27 511.47,881.55 509.69,879.39 507.91,881.55 506.37,880.27 508.41,877.8 506.37,875.36 Z"/>
 </g>
</svg>
