<svg xmlns="http://www.w3.org/2000/svg" width="16" height="16" version="1.1" viewBox="0 0 16 16">
 <g transform="translate(-15,-627.36)">
  <rect style="opacity:0" width="16" height="16" x="15" y="627.36" ry="0"/>
  <path style="fill:#666666" d="M 27.026,627.36 C 27.026,627.36 25.203,631.15 24.076,633.36 L 23.599,634.36 V 635.36 L 23,636.36 H 24 L 24.767,635.36 25.566,634.94 25.689,634.36 29.016,627.36 Z"/>
  <path style="fill:#666666" d="M 16.227,635.39 C 15.561,635.39 15.003,635.67 15,636.36 15.013,636.9 15.006,637.81 15,638.36 L 17.016,638.35 V 635.39 H 16.225 Z M 18.011,635.39 V 638.35 L 20,638.36 C 20.01,637.81 19.995,636.9 20,636.36 20.001,635.67 19.517,635.41 18.851,635.4 H 18.011 Z M 15.026,639.34 C 15.017,639.94 15,640.17 15,640.72 14.994,642.18 16.109,643.36 17.501,643.36 18.894,643.37 20.02,642.2 20.027,640.75 20.002,640.14 19.994,639.91 20,639.34 Z"/>
  <path style="fill:#666666" d="M 18,630.36 17,634.36 H 18.406 C 18.542,634.36 18.39,634.36 19.469,634.36 L 20,632.36 H 23 L 24,630.36 Z M 29,630.36 28,632.36 28.609,638.36 H 21 V 640.36 H 31 L 30,630.36 Z"/>
 </g>
</svg>
