<svg xmlns="http://www.w3.org/2000/svg" xmlns:osb="http://www.openswatchbook.org/uri/2009/osb" width="16" height="16" version="1.1" viewBox="0 0 16 16">
 <defs>
  <linearGradient id="linearGradient19282" gradientTransform="matrix(0,0,0,0,-1.1046e8,-6304400)" osb:paint="solid">
   <stop style="stop-color:#666666" offset="0"/>
  </linearGradient>
 </defs>
 <g transform="translate(-15.026,-667.36)">
  <rect style="fill:none" width="16" height="16" x="15.03" y="667.36"/>
  <rect style="fill:url(#linearGradient19282)" width="1" height="1" x="18.03" y="676.36"/>
  <rect style="fill:url(#linearGradient19282)" width="1" height="1" x="17.03" y="677.36"/>
  <rect style="fill:url(#linearGradient19282)" width="1" height="1" x="18.03" y="678.36"/>
  <rect style="fill:url(#linearGradient19282)" width="1" height="1" x="17.03" y="679.36"/>
  <rect style="fill:url(#linearGradient19282)" width="1" height="1" x="18.03" y="680.36"/>
  <rect style="fill:url(#linearGradient19282)" width="1" height="1" x="17.03" y="681.36"/>
  <rect style="fill:url(#linearGradient19282)" width="1" height="1" x="19.03" y="681.36"/>
  <rect style="fill:url(#linearGradient19282)" width="1" height="1" x="21.03" y="681.36"/>
  <rect style="fill:url(#linearGradient19282)" width="1" height="1" x="23.03" y="681.36"/>
  <rect style="fill:url(#linearGradient19282)" width="1" height="1" x="25.03" y="681.36"/>
  <rect style="fill:url(#linearGradient19282)" width="1" height="1" x="18.03" y="682.36"/>
  <rect style="fill:url(#linearGradient19282)" width="1" height="1" x="20.03" y="682.36"/>
  <rect style="fill:url(#linearGradient19282)" width="1" height="1" x="22.03" y="682.36"/>
  <rect style="fill:url(#linearGradient19282)" width="1" height="1" x="24.03" y="682.36"/>
  <rect style="fill:url(#linearGradient19282)" width="1" height="1" x="26.03" y="682.36"/>
  <rect style="fill:url(#linearGradient19282)" width="1" height="1" x="27.03" y="681.36"/>
  <path style="fill:url(#linearGradient19282)" d="M 17.839,668.36 C 17.38,668.45 17.018,668.89 17.026,669.36 L 17.026,677.36 H 19.026 V 670.36 H 24.026 V 673.36 H 27.026 V 681.36 H 29.026 V 672.92 C 29.032,672.66 28.929,672.39 28.745,672.2 L 25.182,668.64 C 24.993,668.46 24.728,668.35 24.464,668.36 H 18.026 C 17.995,668.36 17.964,668.36 17.932,668.36 17.901,668.36 17.87,668.36 17.839,668.36 Z"/>
 </g>
</svg>
