<?xml version="1.0" encoding="UTF-8" standalone="no"?>
<!-- Created with Inkscape (http://www.inkscape.org/) -->

<svg
  xmlns:osb="http://www.openswatchbook.org/uri/2009/osb"
  xmlns:dc="http://purl.org/dc/elements/1.1/"
  xmlns:cc="http://creativecommons.org/ns#"
  xmlns:rdf="http://www.w3.org/1999/02/22-rdf-syntax-ns#"
  xmlns:svg="http://www.w3.org/2000/svg"
  xmlns="http://www.w3.org/2000/svg"
  xmlns:sodipodi="http://sodipodi.sourceforge.net/DTD/sodipodi-0.dtd"
  xmlns:inkscape="http://www.inkscape.org/namespaces/inkscape"
  width="16"
  height="16"
  id="svg15638"
  version="1.1"
  inkscape:version="0.92.2 (unknown)"
  sodipodi:docname="dialog-transform.svg"
  viewBox="0 0 16 16">
 <title
   id="title9623">Inkscape Icon Theme</title>
 <defs
   id="defs15640">
  <!--<inkscape:path-effect effect="spiro" id="path-effect36695" is_visible="true" />-->
  <linearGradient
    id="linearGradient19282"
    osb:paint="solid"
    gradientTransform="matrix(0,0,0,0,-1.4728e8,-8419900)">
   <stop
     style="stop-color:#666666;stop-opacity:1"
     offset="0"
     id="stop19284" />
  </linearGradient>
 </defs>
 <sodipodi:namedview
   id="base"
   pagecolor="#f2f2f2"
   bordercolor="#666666"
   borderopacity="1.0"
   inkscape:pageopacity="0"
   inkscape:pageshadow="2"
   inkscape:zoom="0.76028"
   inkscape:cx="225.9"
   inkscape:cy="0.98"
   inkscape:document-units="px"
   inkscape:current-layer="layer1"
   showgrid="false"
   inkscape:window-width="1280"
   inkscape:window-height="960"
   inkscape:window-x="0"
   inkscape:window-y="27"
   inkscape:window-maximized="1"
   inkscape:snap-bbox="true"
   inkscape:bbox-paths="false"
   inkscape:bbox-nodes="true"
   inkscape:snap-global="false"
   showguides="false"
   inkscape:guide-bbox="true"
   inkscape:snap-nodes="false"
   inkscape:snap-object-midpoints="false"
   inkscape:snap-grids="true"
   inkscape:snap-to-guides="true"
   borderlayer="true"
   inkscape:showpageshadow="false"
   showborder="true"
   inkscape:snap-bbox-edge-midpoints="false"
   inkscape:object-nodes="true"
   inkscape:snap-intersection-paths="false"
   inkscape:snap-center="true">
  <inkscape:grid
    type="xygrid"
    id="grid15646"
    empspacing="5"
    visible="true"
    enabled="true"
    snapvisiblegridlinesonly="true"
    originx="-135"
    originy="-369" />
 </sodipodi:namedview>
 <metadata
   id="metadata15643">
  <rdf:RDF>
   <cc:Work
     rdf:about="">
    <dc:format>image/svg+xml</dc:format>
    <dc:type
      rdf:resource="http://purl.org/dc/dcmitype/StillImage" />
    <dc:title>Inkscape Icon Theme</dc:title>
    <dc:creator>
     <cc:Agent>
      <dc:title>Barbara Muraus</dc:title>
     </cc:Agent>
    </dc:creator>
    <dc:contributor>
     <cc:Agent>
      <dc:title>Jakub Steiner, Josh Andler</dc:title>
     </cc:Agent>
    </dc:contributor>
   </cc:Work>
  </rdf:RDF>
 </metadata>
 <g
   inkscape:label="Layer 1"
   inkscape:groupmode="layer"
   id="layer1"
   transform="translate(-135,-787.36)">
  <rect
    style="fill:none"
    id="rect18662"
    width="16"
    height="16"
    x="135"
    y="787.36" />
  <path
    inkscape:connector-curvature="0"
    id="path18678"
    d="M 143.5,787.36 C 139.91,787.36 137,790.27 137,793.86 137,794.03 137.02,794.19 137.03,794.36 H 135 L 138,797.36 141,794.36 H 139.06 C 139.04,794.19 139,794.03 139,793.86 139,791.37 141.01,789.36 143.5,789.36 143.67,789.36 143.83,789.4 144,789.42 144.17,789.4 144.33,789.36 144.5,789.36 146.99,789.36 149,791.37 149,793.86 149,794.03 148.96,794.19 148.94,794.36 148.96,794.53 149,794.69 149,794.86 149,797.35 146.99,799.36 144.5,799.36 144.33,799.36 144.17,799.32 144,799.3 V 801.33 C 144.17,801.34 144.33,801.36 144.5,801.36 148.09,801.36 151,798.45 151,794.86 151,794.69 150.98,794.53 150.97,794.36 150.98,794.19 151,794.03 151,793.86 151,790.27 148.09,787.36 144.5,787.36 144.33,787.36 144.17,787.38 144,787.39 143.83,787.38 143.67,787.36 143.5,787.36 Z"
    style="fill:url(#linearGradient19282)" />
  <circle
    r="2"
    cy="794.36"
    cx="143.99"
    style="fill:url(#linearGradient19282);stroke-width:1.3333"
    id="path18701" />
  <rect
    style="fill:url(#linearGradient19282)"
    id="rect18705"
    width="6"
    height="5"
    x="135"
    y="798.36" />
 </g>
</svg>
