<?xml version="1.0" encoding="UTF-8" standalone="no"?>
<!-- Created with Inkscape (http://www.inkscape.org/) -->

<svg
  xmlns:osb="http://www.openswatchbook.org/uri/2009/osb"
  xmlns:dc="http://purl.org/dc/elements/1.1/"
  xmlns:cc="http://creativecommons.org/ns#"
  xmlns:rdf="http://www.w3.org/1999/02/22-rdf-syntax-ns#"
  xmlns:svg="http://www.w3.org/2000/svg"
  xmlns="http://www.w3.org/2000/svg"
  xmlns:sodipodi="http://sodipodi.sourceforge.net/DTD/sodipodi-0.dtd"
  xmlns:inkscape="http://www.inkscape.org/namespaces/inkscape"
  width="16"
  height="16"
  id="svg15638"
  version="1.1"
  inkscape:version="0.92.2 (unknown)"
  sodipodi:docname="dialog-geometry.svg"
  viewBox="0 0 16 16">
 <title
   id="title9623">Inkscape Icon Theme</title>
 <defs
   id="defs15640">
  <!--<inkscape:path-effect effect="spiro" id="path-effect36695" is_visible="true" />-->
  <linearGradient
    id="linearGradient19282"
    osb:paint="solid"
    gradientTransform="matrix(0,0,0,0,-1.1046e8,-6315300)">
   <stop
     style="stop-color:#666666;stop-opacity:1"
     offset="0"
     id="stop19284" />
  </linearGradient>
 </defs>
 <sodipodi:namedview
   id="base"
   pagecolor="#f2f2f2"
   bordercolor="#666666"
   borderopacity="1.0"
   inkscape:pageopacity="0"
   inkscape:pageshadow="2"
   inkscape:zoom="0.76028"
   inkscape:cx="-408.1"
   inkscape:cy="-197.02"
   inkscape:document-units="px"
   inkscape:current-layer="layer1"
   showgrid="false"
   inkscape:window-width="1280"
   inkscape:window-height="960"
   inkscape:window-x="0"
   inkscape:window-y="27"
   inkscape:window-maximized="1"
   inkscape:snap-bbox="true"
   inkscape:bbox-paths="false"
   inkscape:bbox-nodes="true"
   inkscape:snap-global="false"
   showguides="false"
   inkscape:guide-bbox="true"
   inkscape:snap-nodes="false"
   inkscape:snap-object-midpoints="false"
   inkscape:snap-grids="true"
   inkscape:snap-to-guides="true"
   borderlayer="true"
   inkscape:showpageshadow="false"
   showborder="true"
   inkscape:snap-bbox-edge-midpoints="false"
   inkscape:object-nodes="true"
   inkscape:snap-intersection-paths="false"
   inkscape:snap-center="true">
  <inkscape:grid
    type="xygrid"
    id="grid15646"
    empspacing="5"
    visible="true"
    enabled="true"
    snapvisiblegridlinesonly="true"
    originx="-769"
    originy="-567" />
 </sodipodi:namedview>
 <metadata
   id="metadata15643">
  <rdf:RDF>
   <cc:Work
     rdf:about="">
    <dc:format>image/svg+xml</dc:format>
    <dc:type
      rdf:resource="http://purl.org/dc/dcmitype/StillImage" />
    <dc:title>Inkscape Icon Theme</dc:title>
    <dc:creator>
     <cc:Agent>
      <dc:title>Barbara Muraus</dc:title>
     </cc:Agent>
    </dc:creator>
    <dc:contributor>
     <cc:Agent>
      <dc:title>Jakub Steiner, Josh Andler</dc:title>
     </cc:Agent>
    </dc:contributor>
   </cc:Work>
  </rdf:RDF>
 </metadata>
 <g
   inkscape:label="Layer 1"
   inkscape:groupmode="layer"
   id="layer1"
   transform="translate(-769,-589.36)">
  <rect
    y="589.36"
    x="769"
    height="16"
    width="16"
    id="rect14874"
    style="fill:none" />
  <rect
    style="fill:url(#linearGradient19282)"
    id="rect14903"
    width="1"
    height="16"
    x="769"
    y="589.36"
    rx="0.75"
    ry="0" />
  <rect
    ry="0"
    rx="0.75"
    y="589.36"
    x="784"
    height="16"
    width="1"
    id="rect14905"
    style="fill:url(#linearGradient19282)" />
  <rect
    style="fill:url(#linearGradient19282)"
    id="rect14907"
    width="16"
    height="1"
    x="769"
    y="589.36"
    rx="0"
    ry="1" />
  <rect
    style="fill:url(#linearGradient19282)"
    id="rect14909"
    width="16"
    height="1"
    x="769"
    y="604.36"
    rx="0" />
  <rect
    style="fill:url(#linearGradient19282)"
    id="rect14911"
    width="12"
    height="1"
    x="771"
    y="591.36"
    rx="0"
    ry="0.6" />
  <rect
    ry="0.5"
    rx="0.62308"
    y="600.42"
    x="772"
    height="1.0439"
    width="10"
    id="rect14919"
    style="color:#000000;display:block;fill:url(#linearGradient19282);stroke-width:1" />
  <path
    sodipodi:nodetypes="ccccccccccc"
    id="path14921"
    d="M 781,597.36 779,596.36 778,597.36 H 779 L 780,598.36 V 601.36 602.36 L 779.93,604.47 781,602.36 781.06,600.87 Z"
    style="color:#000000;display:block;fill:url(#linearGradient19282);stroke-width:1"
    inkscape:connector-curvature="0" />
  <path
    inkscape:connector-curvature="0"
    style="color:#000000;display:block;fill:url(#linearGradient19282);stroke-width:1"
    d="M 773.06,597.36 775.01,596.31 776,597.36 H 775.06 L 774.06,598.36 774,601.36 V 603.36 604.36 L 773,602.36 V 600.87 Z"
    id="path14959"
    sodipodi:nodetypes="ccccccccccc" />
  <rect
    style="fill:url(#linearGradient19282)"
    id="rect14964"
    width="2"
    height="3"
    x="776"
    y="599.36"
    rx="1"
    ry="1" />
  <path
    style="fill:url(#linearGradient19282)"
    d="M 777.06,594.11 C 775.78,594.11 774.75,595.12 774.75,596.36 774.75,597.61 775.78,598.61 777.06,598.61 778.34,598.61 779.37,597.61 779.37,596.36 779.37,595.12 778.34,594.11 777.06,594.11 Z M 777,595.36 C 777.55,595.36 778,595.81 778,596.36 778,596.91 777.55,597.36 777,597.36 776.45,597.36 776,596.91 776,596.36 776,595.81 776.45,595.36 777,595.36 Z"
    id="path14966"
    inkscape:connector-curvature="0" />
  <rect
    style="fill:url(#linearGradient19282)"
    id="rect14971"
    width="2"
    height="2"
    x="776"
    y="593.36"
    ry="1"
    rx="1" />
 </g>
</svg>
