<svg xmlns="http://www.w3.org/2000/svg" xmlns:osb="http://www.openswatchbook.org/uri/2009/osb" width="16" height="16" version="1.1" viewBox="0 0 16 16">
 <defs>
  <linearGradient id="linearGradient19282" gradientTransform="matrix(0,0,0,0,-1.4728e8,-8419900)" osb:paint="solid">
   <stop style="stop-color:#666666" offset="0"/>
  </linearGradient>
 </defs>
 <g transform="translate(-135,-787.36)">
  <rect style="fill:none" width="16" height="16" x="135" y="787.36"/>
  <path style="fill:url(#linearGradient19282)" d="M 143.5,787.36 C 139.91,787.36 137,790.27 137,793.86 137,794.03 137.02,794.19 137.03,794.36 H 135 L 138,797.36 141,794.36 H 139.06 C 139.04,794.19 139,794.03 139,793.86 139,791.37 141.01,789.36 143.5,789.36 143.67,789.36 143.83,789.4 144,789.42 144.17,789.4 144.33,789.36 144.5,789.36 146.99,789.36 149,791.37 149,793.86 149,794.03 148.96,794.19 148.94,794.36 148.96,794.53 149,794.69 149,794.86 149,797.35 146.99,799.36 144.5,799.36 144.33,799.36 144.17,799.32 144,799.3 V 801.33 C 144.17,801.34 144.33,801.36 144.5,801.36 148.09,801.36 151,798.45 151,794.86 151,794.69 150.98,794.53 150.97,794.36 150.98,794.19 151,794.03 151,793.86 151,790.27 148.09,787.36 144.5,787.36 144.33,787.36 144.17,787.38 144,787.39 143.83,787.38 143.67,787.36 143.5,787.36 Z"/>
  <circle style="fill:url(#linearGradient19282)" cx="143.99" cy="794.36" r="2"/>
  <rect style="fill:url(#linearGradient19282)" width="6" height="5" x="135" y="798.36"/>
 </g>
</svg>
