<svg xmlns="http://www.w3.org/2000/svg" width="24.005" height="24" version="1.1" viewBox="0 0 24 24">
 <g transform="translate(-1156,-861.36)">
  <path style="fill:none;stroke:#666666;stroke-linecap:square" d="M 1156.5,873.86 H 1179.5 V 873.86"/>
  <path style="fill:none;stroke:#666666;stroke-width:0.99966;stroke-linecap:round;stroke-linejoin:round;stroke-miterlimit:0" d="M 1156.5,884.86 C 1160,881.86 1158.1,865.86 1164,867.36 1168,868.36 1165,884.36 1172.5,884.86 1173.9,884.96 1174.7,883.96 1175.3,882.26 1175.8,880.56 1176.1,878.26 1176.3,875.76 1176.5,873.26 1176.7,870.46 1177.1,868.06"/>
  <rect style="fill:#666666;fill-rule:evenodd" width="5" height="5" x="-876.36" y="1157" transform="rotate(-90)"/>
  <rect style="fill:#666666;fill-rule:evenodd" width="5" height="5" x="-876.36" y="1165" transform="rotate(-90)"/>
  <rect style="fill:#666666;fill-rule:evenodd" width="5" height="5" x="-876.36" y="1174" transform="rotate(-90)"/>
  <rect style="fill:none" width="24" height="24" x="-885.36" y="1156" transform="rotate(-90)"/>
  <rect style="fill:#666666" width="10" height="1" x="-871.36" y="1159" ry="0" transform="rotate(-90)"/>
  <rect style="fill:#666666" width="10" height="1" x="-871.36" y="1167" ry="0" transform="rotate(-90)"/>
  <rect style="fill:#666666" width="10" height="1" x="-871.36" y="1176" ry="0" transform="rotate(-90)"/>
  <path style="fill:#666666;fill-rule:evenodd" d="M 1170,865.36 1168,863.86 1170,862.36 V 863.36 H 1174 V 862.36 L 1176,863.86 1174,865.36 V 864.36 H 1170 Z"/>
  <path style="fill:#666666;fill-rule:evenodd" d="M 1162,865.36 1160,863.86 1162,862.36 V 863.36 H 1165 V 862.36 L 1167,863.86 1165,865.36 V 864.36 H 1162 Z"/>
 </g>
</svg>
