<?xml version="1.0" encoding="UTF-8" standalone="no"?>
<!-- Created with Inkscape (http://www.inkscape.org/) -->

<svg
  xmlns:osb="http://www.openswatchbook.org/uri/2009/osb"
  xmlns:dc="http://purl.org/dc/elements/1.1/"
  xmlns:cc="http://creativecommons.org/ns#"
  xmlns:rdf="http://www.w3.org/1999/02/22-rdf-syntax-ns#"
  xmlns:svg="http://www.w3.org/2000/svg"
  xmlns="http://www.w3.org/2000/svg"
  xmlns:sodipodi="http://sodipodi.sourceforge.net/DTD/sodipodi-0.dtd"
  xmlns:inkscape="http://www.inkscape.org/namespaces/inkscape"
  width="24"
  height="24"
  id="svg15638"
  version="1.1"
  inkscape:version="0.92.2 (unknown)"
  sodipodi:docname="distribute-graph.svg"
  viewBox="0 0 24 24">
 <title
   id="title9623">Inkscape Icon Theme</title>
 <defs
   id="defs15640">
  <!--<inkscape:path-effect effect="spiro" id="path-effect36695" is_visible="true" />-->
  <linearGradient
    id="linearGradient19282"
    osb:paint="solid"
    gradientTransform="matrix(0,0,0,0,-1.092e8,-8370100)">
   <stop
     style="stop-color:#666666;stop-opacity:1"
     offset="0"
     id="stop19284" />
  </linearGradient>
 </defs>
 <sodipodi:namedview
   id="base"
   pagecolor="#f2f2f2"
   bordercolor="#666666"
   borderopacity="1.0"
   inkscape:pageopacity="0"
   inkscape:pageshadow="2"
   inkscape:zoom="0.76028"
   inkscape:cx="-759.1"
   inkscape:cy="44.98"
   inkscape:document-units="px"
   inkscape:current-layer="layer1"
   showgrid="false"
   inkscape:window-width="1280"
   inkscape:window-height="960"
   inkscape:window-x="0"
   inkscape:window-y="27"
   inkscape:window-maximized="1"
   inkscape:snap-bbox="true"
   inkscape:bbox-paths="false"
   inkscape:bbox-nodes="true"
   inkscape:snap-global="false"
   showguides="false"
   inkscape:guide-bbox="true"
   inkscape:snap-nodes="false"
   inkscape:snap-object-midpoints="false"
   inkscape:snap-grids="true"
   inkscape:snap-to-guides="true"
   borderlayer="true"
   inkscape:showpageshadow="false"
   showborder="true"
   inkscape:snap-bbox-edge-midpoints="false"
   inkscape:object-nodes="true"
   inkscape:snap-intersection-paths="false"
   inkscape:snap-center="true">
  <inkscape:grid
    type="xygrid"
    id="grid15646"
    empspacing="5"
    visible="true"
    enabled="true"
    snapvisiblegridlinesonly="true"
    originx="-1120"
    originy="-325" />
 </sodipodi:namedview>
 <metadata
   id="metadata15643">
  <rdf:RDF>
   <cc:Work
     rdf:about="">
    <dc:format>image/svg+xml</dc:format>
    <dc:type
      rdf:resource="http://purl.org/dc/dcmitype/StillImage" />
    <dc:title>Inkscape Icon Theme</dc:title>
    <dc:creator>
     <cc:Agent>
      <dc:title>Barbara Muraus</dc:title>
     </cc:Agent>
    </dc:creator>
    <dc:contributor>
     <cc:Agent>
      <dc:title>Jakub Steiner, Josh Andler</dc:title>
     </cc:Agent>
    </dc:contributor>
   </cc:Work>
  </rdf:RDF>
 </metadata>
 <g
   inkscape:label="Layer 1"
   inkscape:groupmode="layer"
   id="layer1"
   transform="translate(-1120,-823.36)">
  <rect
    style="fill:none"
    id="rect19372"
    width="24"
    height="24"
    x="1120"
    y="823.36"
    rx="0"
    ry="0.97141" />
  <path
    sodipodi:type="arc"
    style="fill:url(#linearGradient19282)"
    id="path19374"
    sodipodi:cx="1122"
    sodipodi:cy="831.36"
    sodipodi:rx="2"
    sodipodi:ry="2"
    d="M 1124,831.36 A 2,2 0 0 1 1122,833.36 2,2 0 0 1 1120,831.37 2,2 0 0 1 1122,829.36 2,2 0 0 1 1124,831.33 L 1122,831.36 Z"
    sodipodi:start="0"
    sodipodi:end="6.2689" />
  <path
    sodipodi:end="6.2689"
    sodipodi:start="0"
    d="M 1129,825.36 A 2,2 0 0 1 1127,827.36 2,2 0 0 1 1125,825.37 2,2 0 0 1 1127,823.36 2,2 0 0 1 1129,825.33 L 1127,825.36 Z"
    sodipodi:ry="2"
    sodipodi:rx="2"
    sodipodi:cy="825.36"
    sodipodi:cx="1127"
    id="path19376"
    style="fill:url(#linearGradient19282)"
    sodipodi:type="arc" />
  <path
    sodipodi:type="arc"
    style="fill:url(#linearGradient19282)"
    id="path19378"
    sodipodi:cx="1136"
    sodipodi:cy="827.39"
    sodipodi:rx="2"
    sodipodi:ry="2"
    d="M 1138,827.39 A 2,2 0 0 1 1136,829.39 2,2 0 0 1 1134,827.4 2,2 0 0 1 1136,825.39 2,2 0 0 1 1138,827.36 L 1136,827.39 Z"
    sodipodi:start="0"
    sodipodi:end="6.2689" />
  <path
    sodipodi:end="6.2689"
    sodipodi:start="0"
    d="M 1137,835.36 A 2,2 0 0 1 1135,837.36 2,2 0 0 1 1133,835.37 2,2 0 0 1 1135,833.36 2,2 0 0 1 1137,835.33 L 1135,835.36 Z"
    sodipodi:ry="2"
    sodipodi:rx="2"
    sodipodi:cy="835.36"
    sodipodi:cx="1135"
    id="path19380"
    style="fill:url(#linearGradient19282)"
    sodipodi:type="arc" />
  <path
    sodipodi:type="arc"
    style="fill:url(#linearGradient19282)"
    id="path19384"
    sodipodi:cx="1127"
    sodipodi:cy="837.36"
    sodipodi:rx="2"
    sodipodi:ry="2"
    d="M 1129,837.36 A 2,2 0 0 1 1127,839.36 2,2 0 0 1 1125,837.37 2,2 0 0 1 1127,835.36 2,2 0 0 1 1129,837.33 L 1127,837.36 Z"
    sodipodi:start="0"
    sodipodi:end="6.2689" />
  <path
    sodipodi:end="6.2689"
    sodipodi:start="0"
    d="M 1142,843.36 A 2,2 0 0 1 1140,845.36 2,2 0 0 1 1138,843.37 2,2 0 0 1 1140,841.36 2,2 0 0 1 1142,843.33 L 1140,843.36 Z"
    sodipodi:ry="2"
    sodipodi:rx="2"
    sodipodi:cy="843.36"
    sodipodi:cx="1140"
    id="path19387"
    style="fill:url(#linearGradient19282)"
    sodipodi:type="arc" />
  <path
    style="fill:none;stroke:url(#linearGradient19282);stroke-width:1.02272"
    inkscape:transform-center-x="0.46013"
    inkscape:transform-center-y="-0.17773"
    d="M 1135,835.36 1127,837.36 1122,831.36 1127,825.36 1136,827.36 Z"
    id="path19391"
    inkscape:connector-curvature="0"
    sodipodi:nodetypes="cccccc" />
  <path
    style="fill:none;stroke:url(#linearGradient19282);stroke-width:1px"
    d="M 1135,835.36 1140,843.36 1132,845.36 V 845.36"
    id="path19394"
    inkscape:connector-curvature="0"
    sodipodi:nodetypes="cccc" />
  <path
    sodipodi:type="arc"
    style="fill:url(#linearGradient19282);stroke-width:1.14481"
    id="path19396"
    sodipodi:cx="1132"
    sodipodi:cy="845.34"
    sodipodi:rx="1.9772"
    sodipodi:ry="1.9885"
    d="M 1134,845.34 A 1.9772,1.9885 0 0 1 1132,847.33 1.9772,1.9885 0 0 1 1130,845.35 1.9772,1.9885 0 0 1 1132,843.35 1.9772,1.9885 0 0 1 1134,845.31 L 1132,845.34 Z"
    sodipodi:start="0"
    sodipodi:end="6.2689" />
 </g>
</svg>
