<svg xmlns="http://www.w3.org/2000/svg" xmlns:osb="http://www.openswatchbook.org/uri/2009/osb" width="24" height="24" version="1.1" viewBox="0 0 24 24">
 <defs>
  <linearGradient id="linearGradient19282" gradientTransform="matrix(0,0,0,0,-6314400,1.1046e8)" osb:paint="solid">
   <stop style="stop-color:#666666" offset="0"/>
  </linearGradient>
 </defs>
 <g transform="translate(-1159,-746.36)">
  <path style="fill:url(#linearGradient19282)" d="M 1159,756.36 H 1159.7 1176.3 1177 V 755.36 H 1176.3 1159.7 1159 Z"/>
  <path style="fill:url(#linearGradient19282)" d="M 1159,768.36 H 1159.9 1182.1 1183 V 767.36 H 1182.1 1159.9 1159 Z"/>
  <rect style="fill:url(#linearGradient19282)" width="14.942" height="3" x="1168" y="-770.4" transform="scale(1,-1)"/>
  <rect style="fill:url(#linearGradient19282)" width="4" height="9.018" x="-756.36" y="1168" transform="rotate(-90)"/>
  <rect style="fill:none" width="24" height="24" x="-770.36" y="1159" transform="rotate(-90)"/>
  <path style="fill:url(#linearGradient19282);fill-rule:evenodd" d="M 1166,764.36 1163,767.36 1160,764.36 H 1162 V 759.36 H 1160 L 1163,756.36 1166,759.36 H 1164 V 764.36 Z"/>
  <path style="fill:url(#linearGradient19282)" d="M 1159,753.36 H 1159.7 1176.3 1177 V 752.36 H 1176.3 1159.7 1159 Z"/>
  <path style="fill:url(#linearGradient19282);fill-rule:evenodd" d="M 1166,749.36 1163,752.36 1160,749.36 H 1162 V 746.36 H 1164 V 749.36 Z"/>
 </g>
</svg>
