<svg xmlns="http://www.w3.org/2000/svg" width="24" height="24" version="1.1" viewBox="0 0 24 24">
 <g transform="translate(-1120,-823.36)">
  <rect style="fill:none" width="24" height="24" x="1120" y="823.36" rx="0" ry=".971"/>
  <path style="fill:#666666" d="M 1124,831.36 A 2,2 0 0 1 1122,833.36 2,2 0 0 1 1120,831.37 2,2 0 0 1 1122,829.36 2,2 0 0 1 1124,831.33 L 1122,831.36 Z"/>
  <path style="fill:#666666" d="M 1129,825.36 A 2,2 0 0 1 1127,827.36 2,2 0 0 1 1125,825.37 2,2 0 0 1 1127,823.36 2,2 0 0 1 1129,825.33 L 1127,825.36 Z"/>
  <path style="fill:#666666" d="M 1138,827.39 A 2,2 0 0 1 1136,829.39 2,2 0 0 1 1134,827.4 2,2 0 0 1 1136,825.39 2,2 0 0 1 1138,827.36 L 1136,827.39 Z"/>
  <path style="fill:#666666" d="M 1137,835.36 A 2,2 0 0 1 1135,837.36 2,2 0 0 1 1133,835.37 2,2 0 0 1 1135,833.36 2,2 0 0 1 1137,835.33 L 1135,835.36 Z"/>
  <path style="fill:#666666" d="M 1129,837.36 A 2,2 0 0 1 1127,839.36 2,2 0 0 1 1125,837.37 2,2 0 0 1 1127,835.36 2,2 0 0 1 1129,837.33 L 1127,837.36 Z"/>
  <path style="fill:#666666" d="M 1142,843.36 A 2,2 0 0 1 1140,845.36 2,2 0 0 1 1138,843.37 2,2 0 0 1 1140,841.36 2,2 0 0 1 1142,843.33 L 1140,843.36 Z"/>
  <path style="fill:none;stroke:#666666;stroke-width:1.02272" d="M 1135,835.36 1127,837.36 1122,831.36 1127,825.36 1136,827.36 Z"/>
  <path style="fill:none;stroke:#666666;stroke-width:1px" d="M 1135,835.36 1140,843.36 1132,845.36 V 845.36"/>
  <path style="fill:#666666" d="M 1134,845.34 A 1.9772,1.9885 0 0 1 1132,847.33 1.9772,1.9885 0 0 1 1130,845.35 1.9772,1.9885 0 0 1 1132,843.35 1.9772,1.9885 0 0 1 1134,845.31 L 1132,845.34 Z"/>
 </g>
</svg>
