<?xml version="1.0" encoding="UTF-8" standalone="no"?>
<!-- Created with Inkscape (http://www.inkscape.org/) -->

<svg
  xmlns:osb="http://www.openswatchbook.org/uri/2009/osb"
  xmlns:dc="http://purl.org/dc/elements/1.1/"
  xmlns:cc="http://creativecommons.org/ns#"
  xmlns:rdf="http://www.w3.org/1999/02/22-rdf-syntax-ns#"
  xmlns:svg="http://www.w3.org/2000/svg"
  xmlns="http://www.w3.org/2000/svg"
  xmlns:sodipodi="http://sodipodi.sourceforge.net/DTD/sodipodi-0.dtd"
  xmlns:inkscape="http://www.inkscape.org/namespaces/inkscape"
  width="24"
  height="24"
  id="svg15638"
  version="1.1"
  inkscape:version="0.92.2 (unknown)"
  sodipodi:docname="distribute-graph-directed.svg"
  viewBox="0 0 24 24">
 <title
   id="title9623">Inkscape Icon Theme</title>
 <defs
   id="defs15640">
  <!--<inkscape:path-effect effect="spiro" id="path-effect36695" is_visible="true" />-->
  <linearGradient
    id="linearGradient19282"
    osb:paint="solid"
    gradientTransform="matrix(0,0,0,0,-1.1046e8,-6314300)">
   <stop
     style="stop-color:#666666;stop-opacity:1"
     offset="0"
     id="stop19284" />
  </linearGradient>
 </defs>
 <sodipodi:namedview
   id="base"
   pagecolor="#f2f2f2"
   bordercolor="#666666"
   borderopacity="1.0"
   inkscape:pageopacity="0"
   inkscape:pageshadow="2"
   inkscape:zoom="0.76028"
   inkscape:cx="-831.1"
   inkscape:cy="44.98"
   inkscape:document-units="px"
   inkscape:current-layer="layer1"
   showgrid="false"
   inkscape:window-width="1280"
   inkscape:window-height="960"
   inkscape:window-x="0"
   inkscape:window-y="27"
   inkscape:window-maximized="1"
   inkscape:snap-bbox="true"
   inkscape:bbox-paths="false"
   inkscape:bbox-nodes="true"
   inkscape:snap-global="false"
   showguides="false"
   inkscape:guide-bbox="true"
   inkscape:snap-nodes="false"
   inkscape:snap-object-midpoints="false"
   inkscape:snap-grids="true"
   inkscape:snap-to-guides="true"
   borderlayer="true"
   inkscape:showpageshadow="false"
   showborder="true"
   inkscape:snap-bbox-edge-midpoints="false"
   inkscape:object-nodes="true"
   inkscape:snap-intersection-paths="false"
   inkscape:snap-center="true">
  <inkscape:grid
    type="xygrid"
    id="grid15646"
    empspacing="5"
    visible="true"
    enabled="true"
    snapvisiblegridlinesonly="true"
    originx="-1192"
    originy="-325" />
 </sodipodi:namedview>
 <metadata
   id="metadata15643">
  <rdf:RDF>
   <cc:Work
     rdf:about="">
    <dc:format>image/svg+xml</dc:format>
    <dc:type
      rdf:resource="http://purl.org/dc/dcmitype/StillImage" />
    <dc:title>Inkscape Icon Theme</dc:title>
    <dc:creator>
     <cc:Agent>
      <dc:title>Barbara Muraus</dc:title>
     </cc:Agent>
    </dc:creator>
    <dc:contributor>
     <cc:Agent>
      <dc:title>Jakub Steiner, Josh Andler</dc:title>
     </cc:Agent>
    </dc:contributor>
   </cc:Work>
  </rdf:RDF>
 </metadata>
 <g
   inkscape:label="Layer 1"
   inkscape:groupmode="layer"
   id="layer1"
   transform="translate(-1192,-823.36)">
  <rect
    style="fill:none"
    id="rect19472"
    width="24"
    height="24"
    x="1192"
    y="823.36" />
  <path
    sodipodi:type="arc"
    style="fill:url(#linearGradient19282)"
    id="path19474"
    sodipodi:cx="1196"
    sodipodi:cy="825.36"
    sodipodi:rx="2"
    sodipodi:ry="2"
    d="M 1198,825.36 A 2,2 0 0 1 1196,827.36 2,2 0 0 1 1194,825.37 2,2 0 0 1 1196,823.36 2,2 0 0 1 1198,825.33 L 1196,825.36 Z"
    sodipodi:start="0"
    sodipodi:end="6.2689" />
  <path
    sodipodi:type="arc"
    style="fill:url(#linearGradient19282)"
    id="path19476"
    sodipodi:cx="1212"
    sodipodi:cy="825.36"
    sodipodi:rx="2"
    sodipodi:ry="2"
    d="M 1214,825.36 A 2,2 0 0 1 1212,827.36 2,2 0 0 1 1210,825.37 2,2 0 0 1 1212,823.36 2,2 0 0 1 1214,825.33 L 1212,825.36 Z"
    sodipodi:start="0"
    sodipodi:end="6.2689" />
  <path
    sodipodi:end="6.2689"
    sodipodi:start="0"
    d="M 1206,834.36 A 2,2 0 0 1 1204,836.36 2,2 0 0 1 1202,834.37 2,2 0 0 1 1204,832.36 2,2 0 0 1 1206,834.33 L 1204,834.36 Z"
    sodipodi:ry="2"
    sodipodi:rx="2"
    sodipodi:cy="834.36"
    sodipodi:cx="1204"
    id="path19478"
    style="fill:url(#linearGradient19282)"
    sodipodi:type="arc" />
  <path
    sodipodi:type="arc"
    style="fill:url(#linearGradient19282)"
    id="path19480"
    sodipodi:cx="1204"
    sodipodi:cy="845.36"
    sodipodi:rx="2"
    sodipodi:ry="2"
    d="M 1206,845.36 A 2,2 0 0 1 1204,847.36 2,2 0 0 1 1202,845.37 2,2 0 0 1 1204,843.36 2,2 0 0 1 1206,845.33 L 1204,845.36 Z"
    sodipodi:start="0"
    sodipodi:end="6.2689" />
  <path
    sodipodi:nodetypes="ccccccccc"
    inkscape:connector-curvature="0"
    id="path19568"
    d="M 1209.7,826.5 1210.9,827.73 1208.6,829.91 1210.1,831.36 H 1206 V 831.36 827.24 L 1207.5,828.68 Z"
    style="color:#000000;-inkscape-font-specification:Sans;fill:url(#linearGradient19282);stroke-width:1.70517" />
  <path
    sodipodi:nodetypes="ccccccccc"
    inkscape:connector-curvature="0"
    id="path19570"
    d="M 1205,837.36 H 1203 V 839.36 H 1201 L 1204,842.36 V 842.36 L 1207.1,839.43 1205,839.36 Z"
    style="color:#000000;-inkscape-font-specification:Sans;fill:url(#linearGradient19282);stroke-width:1.70517" />
  <path
    style="color:#000000;-inkscape-font-specification:Sans;fill:url(#linearGradient19282);stroke-width:1.70517"
    d="M 1198.3,826.5 1197.1,827.73 1199.4,829.91 1197.9,831.36 H 1202 V 831.36 827.24 L 1200.5,828.68 Z"
    id="path19572"
    inkscape:connector-curvature="0"
    sodipodi:nodetypes="ccccccccc" />
 </g>
</svg>
