<svg xmlns="http://www.w3.org/2000/svg" xmlns:osb="http://www.openswatchbook.org/uri/2009/osb" width="24.006" height="24.005" version="1.1" viewBox="0 0 24.01 24">
 <defs>
  <linearGradient id="linearGradient19282" gradientTransform="matrix(0,0,0,0,-1.1046e8,-6316300)" osb:paint="solid">
   <stop style="stop-color:#666666" offset="0"/>
  </linearGradient>
 </defs>
 <g transform="translate(-1120,-861.36)">
  <path style="fill:none;stroke:url(#linearGradient19282);stroke-linecap:square" d="M 1131.5,861.86 V 884.86 884.86"/>
  <path style="fill:none;stroke:url(#linearGradient19282);stroke-width:0.99966;stroke-linecap:round;stroke-linejoin:round;stroke-miterlimit:0" d="M 1120.5,861.86 C 1123.5,865.36 1139.5,863.46 1138,869.36 1137,873.36 1121,870.36 1120.5,877.86 1120.1,883.35 1137.5,880.36 1143.5,884.36"/>
  <rect style="fill:url(#linearGradient19282);fill-rule:evenodd" width="5" height="5" x="1129" y="862.36"/>
  <rect style="fill:url(#linearGradient19282);fill-rule:evenodd" width="5" height="5" x="1129" y="870.36"/>
  <rect style="fill:url(#linearGradient19282);fill-rule:evenodd" width="5" height="5" x="1129" y="879.36"/>
  <rect style="fill:none" width="24" height="24" x="1120" y="861.36"/>
  <rect style="fill:url(#linearGradient19282)" width="10" height="1" x="1134" y="864.36" ry="0"/>
  <rect style="fill:url(#linearGradient19282)" width="10" height="1" x="1134" y="872.36" ry="0"/>
  <rect style="fill:url(#linearGradient19282)" width="10" height="1" x="1134" y="881.36" ry="0"/>
  <path style="fill:url(#linearGradient19282);fill-rule:evenodd" d="M 1140,875.36 1141.5,873.36 1143,875.36 H 1142 V 879.36 H 1143 L 1141.5,881.36 1140,879.36 H 1141 V 875.36 Z"/>
  <path style="fill:url(#linearGradient19282);fill-rule:evenodd" d="M 1140,867.36 1141.5,865.36 1143,867.36 H 1142 V 870.36 H 1143 L 1141.5,872.36 1140,870.36 H 1141 V 867.36 Z"/>
 </g>
</svg>
