<svg xmlns="http://www.w3.org/2000/svg" xmlns:osb="http://www.openswatchbook.org/uri/2009/osb" width="24" height="24" version="1.1" viewBox="0 0 24 24">
 <defs>
  <linearGradient id="linearGradient19282" gradientTransform="matrix(0,0,0,0,-1.1046e8,-6314300)" osb:paint="solid">
   <stop style="stop-color:#666666" offset="0"/>
  </linearGradient>
 </defs>
 <g transform="translate(-1192,-823.36)">
  <rect style="fill:none" width="24" height="24" x="1192" y="823.36"/>
  <path style="fill:url(#linearGradient19282)" d="M 1198,825.36 A 2,2 0 0 1 1196,827.36 2,2 0 0 1 1194,825.37 2,2 0 0 1 1196,823.36 2,2 0 0 1 1198,825.33 L 1196,825.36 Z"/>
  <path style="fill:url(#linearGradient19282)" d="M 1214,825.36 A 2,2 0 0 1 1212,827.36 2,2 0 0 1 1210,825.37 2,2 0 0 1 1212,823.36 2,2 0 0 1 1214,825.33 L 1212,825.36 Z"/>
  <path style="fill:url(#linearGradient19282)" d="M 1206,834.36 A 2,2 0 0 1 1204,836.36 2,2 0 0 1 1202,834.37 2,2 0 0 1 1204,832.36 2,2 0 0 1 1206,834.33 L 1204,834.36 Z"/>
  <path style="fill:url(#linearGradient19282)" d="M 1206,845.36 A 2,2 0 0 1 1204,847.36 2,2 0 0 1 1202,845.37 2,2 0 0 1 1204,843.36 2,2 0 0 1 1206,845.33 L 1204,845.36 Z"/>
  <path style="fill:url(#linearGradient19282)" d="M 1209.7,826.5 1210.9,827.73 1208.6,829.91 1210.1,831.36 H 1206 V 831.36 827.24 L 1207.5,828.68 Z"/>
  <path style="fill:url(#linearGradient19282)" d="M 1205,837.36 H 1203 V 839.36 H 1201 L 1204,842.36 V 842.36 L 1207.1,839.43 1205,839.36 Z"/>
  <path style="fill:url(#linearGradient19282)" d="M 1198.3,826.5 1197.1,827.73 1199.4,829.91 1197.9,831.36 H 1202 V 831.36 827.24 L 1200.5,828.68 Z"/>
 </g>
</svg>
