<?xml version="1.0" encoding="UTF-8" standalone="no"?>
<!-- Created with Inkscape (http://www.inkscape.org/) -->

<svg
  xmlns:osb="http://www.openswatchbook.org/uri/2009/osb"
  xmlns:dc="http://purl.org/dc/elements/1.1/"
  xmlns:cc="http://creativecommons.org/ns#"
  xmlns:rdf="http://www.w3.org/1999/02/22-rdf-syntax-ns#"
  xmlns:svg="http://www.w3.org/2000/svg"
  xmlns="http://www.w3.org/2000/svg"
  xmlns:sodipodi="http://sodipodi.sourceforge.net/DTD/sodipodi-0.dtd"
  xmlns:inkscape="http://www.inkscape.org/namespaces/inkscape"
  width="16"
  height="16"
  id="svg15638"
  version="1.1"
  inkscape:version="0.92.2 (unknown)"
  sodipodi:docname="document-import-ocal.svg"
  viewBox="0 0 16 16">
 <title
   id="title9623">Inkscape Icon Theme</title>
 <defs
   id="defs15640">
  <!--<inkscape:path-effect effect="spiro" id="path-effect36695" is_visible="true" />-->
  <linearGradient
    id="linearGradient19282"
    osb:paint="solid"
    gradientTransform="matrix(0,0,0,0,12.963,679.73)">
   <stop
     style="stop-color:#666666;stop-opacity:1"
     offset="0"
     id="stop19284" />
  </linearGradient>
 </defs>
 <sodipodi:namedview
   id="base"
   pagecolor="#f2f2f2"
   bordercolor="#666666"
   borderopacity="1.0"
   inkscape:pageopacity="0"
   inkscape:pageshadow="2"
   inkscape:zoom="0.76028"
   inkscape:cx="345.87"
   inkscape:cy="-139.02"
   inkscape:document-units="px"
   inkscape:current-layer="layer1"
   showgrid="false"
   inkscape:window-width="1280"
   inkscape:window-height="960"
   inkscape:window-x="0"
   inkscape:window-y="27"
   inkscape:window-maximized="1"
   inkscape:snap-bbox="true"
   inkscape:bbox-paths="false"
   inkscape:bbox-nodes="true"
   inkscape:snap-global="false"
   showguides="false"
   inkscape:guide-bbox="true"
   inkscape:snap-nodes="false"
   inkscape:snap-object-midpoints="false"
   inkscape:snap-grids="true"
   inkscape:snap-to-guides="true"
   borderlayer="true"
   inkscape:showpageshadow="false"
   showborder="true"
   inkscape:snap-bbox-edge-midpoints="false"
   inkscape:object-nodes="true"
   inkscape:snap-intersection-paths="false"
   inkscape:snap-center="true">
  <inkscape:grid
    type="xygrid"
    id="grid15646"
    empspacing="5"
    visible="true"
    enabled="true"
    snapvisiblegridlinesonly="true"
    originx="-15.026"
    originy="-509" />
 </sodipodi:namedview>
 <metadata
   id="metadata15643">
  <rdf:RDF>
   <cc:Work
     rdf:about="">
    <dc:format>image/svg+xml</dc:format>
    <dc:type
      rdf:resource="http://purl.org/dc/dcmitype/StillImage" />
    <dc:title>Inkscape Icon Theme</dc:title>
    <dc:creator>
     <cc:Agent>
      <dc:title>Barbara Muraus</dc:title>
     </cc:Agent>
    </dc:creator>
    <dc:contributor>
     <cc:Agent>
      <dc:title>Jakub Steiner, Josh Andler</dc:title>
     </cc:Agent>
    </dc:contributor>
   </cc:Work>
  </rdf:RDF>
 </metadata>
 <g
   inkscape:label="Layer 1"
   inkscape:groupmode="layer"
   id="layer1"
   transform="translate(-15.026,-647.36)">
  <rect
    style="fill:none"
    id="rect36698"
    width="16"
    height="16"
    x="15.026"
    y="647.36" />
  <rect
    y="648.39"
    x="15.026"
    height="14.967"
    width="15.999"
    id="rect36702"
    style="fill:none;stroke-width:0.05161" />
  <path
    style="fill:url(#linearGradient19282);stroke-width:0.05161"
    inkscape:connector-curvature="0"
    d="M 15.982,661.12 C 16.094,661.12 16.195,661.14 16.285,661.17 16.375,661.21 16.452,661.26 16.514,661.33 16.578,661.4 16.626,661.48 16.659,661.58 16.693,661.68 16.711,661.79 16.711,661.91 16.711,662.03 16.693,662.13 16.659,662.23 16.626,662.33 16.578,662.41 16.514,662.48 16.452,662.55 16.375,662.6 16.285,662.64 16.195,662.67 16.094,662.69 15.982,662.69 15.871,662.69 15.769,662.67 15.679,662.64 15.589,662.6 15.513,662.55 15.449,662.48 15.386,662.41 15.337,662.33 15.303,662.23 15.268,662.13 15.251,662.03 15.251,661.91 15.251,661.79 15.268,661.68 15.303,661.58 15.337,661.48 15.386,661.4 15.449,661.33 15.513,661.26 15.589,661.21 15.679,661.17 15.769,661.14 15.871,661.12 15.982,661.12 M 15.982,662.48 C 16.134,662.48 16.246,662.43 16.321,662.33 16.395,662.23 16.433,662.09 16.433,661.91 16.433,661.72 16.395,661.58 16.321,661.48 16.246,661.38 16.134,661.33 15.982,661.33 15.906,661.33 15.839,661.34 15.783,661.37 15.727,661.39 15.679,661.43 15.641,661.48 15.604,661.53 15.576,661.59 15.556,661.66 15.538,661.73 15.529,661.82 15.529,661.91 15.529,662 15.538,662.08 15.556,662.15 15.576,662.22 15.604,662.28 15.641,662.33 15.679,662.38 15.727,662.42 15.783,662.44 15.839,662.47 15.906,662.48 15.982,662.48"
    id="path36706" />
  <path
    style="fill:url(#linearGradient19282);stroke-width:0.05161"
    inkscape:connector-curvature="0"
    d="M 17.101,663.19 V 661.14 H 17.261 C 17.299,661.14 17.323,661.16 17.333,661.2 L 17.356,661.38 C 17.421,661.3 17.496,661.23 17.579,661.19 17.664,661.14 17.762,661.11 17.871,661.11 17.959,661.11 18.038,661.13 18.11,661.16 18.181,661.2 18.242,661.25 18.293,661.31 18.343,661.38 18.382,661.46 18.409,661.56 18.436,661.66 18.45,661.77 18.45,661.9 18.45,662.01 18.435,662.11 18.405,662.21 18.374,662.31 18.331,662.39 18.275,662.46 18.218,662.53 18.149,662.59 18.066,662.63 17.985,662.67 17.892,662.69 17.789,662.69 17.695,662.69 17.614,662.68 17.546,662.65 17.48,662.61 17.421,662.57 17.37,662.51 V 663.19 H 17.101 M 17.782,661.33 C 17.694,661.33 17.618,661.35 17.551,661.39 17.485,661.43 17.425,661.49 17.37,661.56 V 662.3 C 17.419,662.37 17.473,662.42 17.531,662.44 17.591,662.47 17.657,662.48 17.729,662.48 17.871,662.48 17.98,662.43 18.057,662.33 18.134,662.23 18.172,662.08 18.172,661.9 18.172,661.8 18.163,661.71 18.145,661.64 18.127,661.57 18.102,661.51 18.069,661.46 18.036,661.42 17.995,661.38 17.947,661.36 17.898,661.34 17.844,661.33 17.782,661.33"
    id="path36708" />
  <path
    style="fill:url(#linearGradient19282);stroke-width:0.05161"
    inkscape:connector-curvature="0"
    d="M 19.438,661.12 C 19.53,661.12 19.614,661.13 19.692,661.16 19.77,661.19 19.836,661.24 19.893,661.3 19.949,661.35 19.993,661.43 20.024,661.51 20.057,661.6 20.073,661.69 20.073,661.8 20.073,661.84 20.068,661.87 20.059,661.89 20.05,661.9 20.033,661.91 20.008,661.91 H 18.989 C 18.991,662 19.005,662.09 19.029,662.16 19.053,662.23 19.086,662.29 19.129,662.34 19.171,662.39 19.221,662.42 19.279,662.45 19.338,662.47 19.403,662.48 19.476,662.48 19.544,662.48 19.601,662.47 19.649,662.46 19.699,662.44 19.741,662.43 19.776,662.41 19.812,662.39 19.841,662.37 19.864,662.36 19.888,662.34 19.909,662.33 19.926,662.33 19.948,662.33 19.965,662.34 19.978,662.36 L 20.053,662.46 C 20.02,662.5 19.98,662.53 19.934,662.56 19.887,662.59 19.837,662.62 19.784,662.64 19.732,662.65 19.677,662.67 19.621,662.68 19.565,662.69 19.509,662.69 19.453,662.69 19.348,662.69 19.25,662.67 19.16,662.64 19.071,662.6 18.995,662.55 18.929,662.48 18.864,662.41 18.814,662.33 18.778,662.23 18.742,662.12 18.724,662.01 18.724,661.87 18.724,661.77 18.74,661.67 18.772,661.58 18.805,661.48 18.853,661.4 18.914,661.34 18.975,661.27 19.05,661.21 19.139,661.18 19.228,661.14 19.327,661.12 19.438,661.12 M 19.444,661.31 C 19.315,661.31 19.212,661.35 19.137,661.43 19.063,661.5 19.017,661.61 18.999,661.74 H 19.831 C 19.831,661.68 19.822,661.62 19.805,661.57 19.788,661.52 19.763,661.47 19.73,661.43 19.696,661.4 19.656,661.37 19.608,661.35 19.56,661.33 19.505,661.31 19.444,661.31"
    id="path36710" />
  <path
    style="fill:url(#linearGradient19282);stroke-width:0.05161"
    inkscape:connector-curvature="0"
    d="M 20.481,662.67 V 661.14 H 20.642 C 20.68,661.14 20.704,661.16 20.714,661.2 L 20.735,661.36 C 20.802,661.29 20.876,661.23 20.957,661.18 21.04,661.14 21.135,661.12 21.243,661.12 21.326,661.12 21.4,661.13 21.464,661.16 21.528,661.19 21.581,661.23 21.624,661.28 21.667,661.33 21.699,661.39 21.722,661.46 21.744,661.53 21.755,661.61 21.755,661.7 V 662.67 H 21.486 V 661.7 C 21.486,661.58 21.459,661.49 21.406,661.43 21.354,661.36 21.273,661.33 21.164,661.33 21.085,661.33 21.01,661.35 20.941,661.39 20.872,661.43 20.809,661.48 20.75,661.54 V 662.67 H 20.481"
    id="path36712" />
  <path
    style="fill:url(#linearGradient19282);stroke-width:0.05161"
    inkscape:connector-curvature="0"
    d="M 23.263,661.41 C 23.255,661.42 23.247,661.43 23.239,661.44 23.231,661.44 23.219,661.45 23.204,661.45 23.189,661.45 23.172,661.44 23.154,661.43 23.137,661.42 23.115,661.4 23.088,661.39 23.06,661.37 23.027,661.36 22.988,661.35 22.95,661.33 22.902,661.33 22.846,661.33 22.771,661.33 22.706,661.34 22.648,661.37 22.591,661.39 22.542,661.43 22.503,661.48 22.465,661.53 22.436,661.59 22.416,661.66 22.397,661.74 22.387,661.82 22.387,661.91 22.387,662 22.397,662.08 22.418,662.15 22.439,662.22 22.469,662.28 22.508,662.33 22.546,662.38 22.592,662.42 22.646,662.45 22.702,662.47 22.764,662.48 22.833,662.48 22.898,662.48 22.952,662.48 22.994,662.46 23.037,662.45 23.072,662.43 23.1,662.41 23.128,662.39 23.151,662.37 23.169,662.36 23.187,662.34 23.206,662.33 23.224,662.33 23.247,662.33 23.264,662.34 23.275,662.36 L 23.351,662.46 C 23.284,662.54 23.201,662.6 23.102,662.64 23.002,662.67 22.896,662.69 22.786,662.69 22.69,662.69 22.601,662.67 22.518,662.64 22.437,662.6 22.366,662.55 22.305,662.49 22.245,662.42 22.197,662.34 22.162,662.24 22.127,662.14 22.11,662.03 22.11,661.91 22.11,661.79 22.126,661.69 22.157,661.59 22.19,661.49 22.236,661.41 22.296,661.34 22.357,661.27 22.433,661.21 22.523,661.18 22.612,661.14 22.715,661.12 22.831,661.12 22.938,661.12 23.032,661.13 23.115,661.17 23.198,661.2 23.27,661.25 23.334,661.32 L 23.263,661.41"
    id="path36714" />
  <path
    style="fill:url(#linearGradient19282);stroke-width:0.05161"
    inkscape:connector-curvature="0"
    d="M 23.99,660.45 V 662.67 H 23.721 V 660.45 H 23.99"
    id="path36716" />
  <path
    style="fill:url(#linearGradient19282);stroke-width:0.05161"
    inkscape:connector-curvature="0"
    d="M 24.825,661.14 V 662.67 H 24.556 V 661.14 H 24.825 M 24.885,660.66 C 24.885,660.69 24.88,660.71 24.869,660.73 24.859,660.76 24.845,660.78 24.826,660.79 24.809,660.81 24.789,660.83 24.766,660.84 24.743,660.85 24.719,660.85 24.692,660.85 24.666,660.85 24.641,660.85 24.618,660.84 24.596,660.83 24.576,660.81 24.558,660.79 24.541,660.78 24.527,660.76 24.517,660.73 24.507,660.71 24.502,660.69 24.502,660.66 24.502,660.63 24.507,660.61 24.517,660.59 24.527,660.56 24.541,660.54 24.558,660.52 24.576,660.51 24.596,660.49 24.618,660.48 24.641,660.47 24.666,660.47 24.692,660.47 24.719,660.47 24.743,660.47 24.766,660.48 24.789,660.49 24.809,660.51 24.826,660.52 24.845,660.54 24.859,660.56 24.869,660.59 24.88,660.61 24.885,660.63 24.885,660.66"
    id="path36718" />
  <path
    style="fill:url(#linearGradient19282);stroke-width:0.05161"
    inkscape:connector-curvature="0"
    d="M 25.361,663.19 V 661.14 H 25.521 C 25.559,661.14 25.583,661.16 25.593,661.2 L 25.616,661.38 C 25.682,661.3 25.756,661.23 25.84,661.19 25.924,661.14 26.021,661.11 26.131,661.11 26.219,661.11 26.298,661.13 26.37,661.16 26.441,661.2 26.502,661.25 26.553,661.31 26.603,661.38 26.642,661.46 26.669,661.56 26.696,661.66 26.71,661.77 26.71,661.9 26.71,662.01 26.695,662.11 26.664,662.21 26.634,662.31 26.591,662.39 26.535,662.46 26.478,662.53 26.409,662.59 26.326,662.63 26.245,662.67 26.152,662.69 26.05,662.69 25.955,662.69 25.874,662.68 25.807,662.65 25.74,662.61 25.681,662.57 25.63,662.51 V 663.19 H 25.361 M 26.042,661.33 C 25.955,661.33 25.877,661.35 25.811,661.39 25.746,661.43 25.685,661.49 25.63,661.56 V 662.3 C 25.679,662.37 25.733,662.42 25.791,662.44 25.851,662.47 25.916,662.48 25.989,662.48 26.131,662.48 26.241,662.43 26.317,662.33 26.393,662.23 26.432,662.08 26.432,661.9 26.432,661.8 26.423,661.71 26.405,661.64 26.388,661.57 26.362,661.51 26.329,661.46 26.296,661.42 26.255,661.38 26.207,661.36 26.159,661.34 26.103,661.33 26.042,661.33"
    id="path36720" />
  <path
    style="fill:url(#linearGradient19282);stroke-width:0.05161"
    inkscape:connector-curvature="0"
    d="M 28.216,662.67 H 28.097 C 28.071,662.67 28.05,662.67 28.034,662.66 28.018,662.65 28.007,662.63 28.002,662.61 L 27.972,662.47 C 27.931,662.5 27.892,662.53 27.854,662.56 27.816,662.59 27.775,662.62 27.733,662.64 27.691,662.66 27.645,662.67 27.597,662.68 27.55,662.69 27.497,662.7 27.438,662.7 27.379,662.7 27.323,662.69 27.271,662.67 27.22,662.65 27.175,662.63 27.137,662.6 27.098,662.56 27.067,662.52 27.044,662.47 27.022,662.42 27.011,662.36 27.011,662.29 27.011,662.23 27.028,662.17 27.061,662.12 27.094,662.06 27.147,662.01 27.221,661.97 27.295,661.92 27.393,661.89 27.512,661.86 27.632,661.83 27.779,661.82 27.952,661.81 V 661.69 C 27.952,661.57 27.926,661.48 27.875,661.42 27.824,661.36 27.75,661.33 27.65,661.33 27.584,661.33 27.529,661.34 27.484,661.36 27.439,661.37 27.401,661.39 27.367,661.41 27.335,661.43 27.307,661.45 27.283,661.47 27.26,661.48 27.237,661.49 27.213,661.49 27.195,661.49 27.179,661.49 27.165,661.48 27.152,661.47 27.141,661.46 27.133,661.44 L 27.085,661.36 C 27.17,661.28 27.261,661.21 27.358,661.17 27.456,661.13 27.564,661.11 27.683,661.11 27.769,661.11 27.845,661.13 27.911,661.16 27.978,661.18 28.034,661.22 28.079,661.27 28.124,661.32 28.158,661.39 28.182,661.46 28.205,661.53 28.216,661.61 28.216,661.69 V 662.67 M 27.518,662.51 C 27.566,662.51 27.609,662.5 27.648,662.49 27.688,662.48 27.724,662.47 27.759,662.45 27.794,662.43 27.827,662.41 27.859,662.39 27.891,662.36 27.922,662.33 27.952,662.3 V 661.98 C 27.828,661.99 27.723,662 27.636,662.01 27.55,662.03 27.479,662.05 27.425,662.07 27.37,662.1 27.331,662.13 27.305,662.16 27.282,662.2 27.269,662.23 27.269,662.28 27.269,662.32 27.276,662.35 27.289,662.38 27.302,662.41 27.32,662.43 27.342,662.45 27.364,662.47 27.39,662.49 27.42,662.49 27.45,662.5 27.483,662.51 27.518,662.51"
    id="path36722" />
  <path
    style="fill:url(#linearGradient19282);stroke-width:0.05161"
    inkscape:connector-curvature="0"
    d="M 28.688,662.67 V 661.14 H 28.843 C 28.872,661.14 28.892,661.15 28.903,661.16 28.914,661.17 28.922,661.19 28.926,661.21 L 28.944,661.45 C 28.996,661.35 29.061,661.26 29.137,661.2 29.215,661.14 29.305,661.11 29.409,661.11 29.451,661.11 29.489,661.12 29.524,661.13 29.558,661.14 29.59,661.15 29.619,661.17 L 29.584,661.37 C 29.577,661.39 29.562,661.41 29.537,661.41 29.523,661.41 29.502,661.4 29.472,661.39 29.443,661.38 29.403,661.38 29.35,661.38 29.257,661.38 29.178,661.41 29.115,661.46 29.052,661.51 29,661.59 28.957,661.7 V 662.67 H 28.688"
    id="path36724" />
  <path
    style="fill:url(#linearGradient19282);stroke-width:0.05161"
    inkscape:connector-curvature="0"
    d="M 30.43,662.7 C 30.309,662.7 30.216,662.66 30.15,662.59 30.086,662.53 30.054,662.43 30.054,662.3 V 661.37 H 29.869 C 29.853,661.37 29.839,661.36 29.828,661.35 29.817,661.34 29.811,661.33 29.811,661.31 V 661.2 L 30.062,661.17 30.124,660.7 C 30.126,660.68 30.133,660.67 30.144,660.66 30.155,660.65 30.169,660.64 30.186,660.64 H 30.322 V 661.17 H 30.761 V 661.37 H 30.322 V 662.28 C 30.322,662.35 30.338,662.4 30.369,662.43 30.4,662.46 30.441,662.47 30.49,662.47 30.518,662.47 30.542,662.47 30.562,662.46 30.584,662.46 30.602,662.45 30.617,662.44 30.632,662.43 30.644,662.42 30.655,662.41 30.666,662.41 30.675,662.4 30.683,662.4 30.698,662.4 30.71,662.41 30.721,662.43 L 30.8,662.56 C 30.753,662.6 30.698,662.63 30.632,662.66 30.567,662.68 30.499,662.7 30.43,662.7"
    id="path36726" />
  <path
    sodipodi:nodetypes="cccccccccccccsssccsczcccccccczsccccssccsccccccsssccscc"
    inkscape:connector-curvature="0"
    id="path36728"
    d="M 17.399,648.56 C 16.55,648.55 15.678,648.92 15.423,649.62 15.044,650.46 15.653,651.44 16.692,651.74 16.695,651.74 16.7,651.74 16.703,651.74 17.836,652.15 19.247,652.35 20.475,653.62 L 20.935,654.1 20.52,654.52 C 19.288,655.79 17.882,655.99 16.748,656.39 16.745,656.39 16.74,656.39 16.737,656.39 15.7,656.69 15.099,657.67 15.468,658.51 15.469,658.51 15.467,658.51 15.468,658.52 15.783,659.37 17.022,659.74 18.017,659.52 18.02,659.51 18.024,659.52 18.028,659.52 19.047,659.34 19.881,658.51 19.644,657.67 19.528,657.26 19.379,657.07 19.24,656.95 19.171,656.89 19.111,656.86 19.072,656.82 19.033,656.79 18.869,656.7 18.869,656.7 18.97,656.63 19.03,656.59 19.116,656.54 19.247,656.45 19.474,656.35 19.768,656.22 20.35,655.97 21.207,655.62 22.192,655.05 23.974,656.07 26.29,657.38 27.57,658.1 28.849,658.83 30.159,658.46 30.702,658.13 L 23.839,654.1 30.741,650.03 C 29.672,649.37 28.451,649.65 27.637,650.05 25.829,651.08 24.015,652.1 22.204,653.12 21.378,652.67 20.491,652.25 19.723,651.92 19.429,651.79 19.202,651.69 19.072,651.61 19.006,651.56 18.842,651.47 18.842,651.47 18.992,651.38 19.152,651.22 19.268,651.1 19.384,650.97 19.521,650.79 19.599,650.47 19.807,649.63 19.001,648.8 17.983,648.62 17.786,648.58 17.573,648.57 17.399,648.56 Z M 17.287,649.27 C 17.666,649.25 18.057,649.35 18.308,649.55 18.685,649.86 18.757,650.27 18.612,650.62 18.466,650.96 18.117,651.21 17.624,651.21 H 17.612 C 17.16,651.23 16.719,651.02 16.456,650.72 16.193,650.41 16.119,650.03 16.377,649.7 V 649.69 C 16.556,649.42 16.908,649.28 17.287,649.27 Z M 17.579,656.92 C 17.612,656.92 17.647,656.92 17.669,656.92 18.162,656.92 18.511,657.18 18.656,657.52 18.801,657.86 18.731,658.28 18.353,658.58 18.102,658.78 17.7,658.89 17.32,658.88 16.941,658.86 16.6,658.72 16.422,658.44 H 16.411 C 16.161,658.12 16.234,657.76 16.478,657.45 16.723,657.15 17.143,656.93 17.579,656.92 Z"
    style="fill:url(#linearGradient19282);stroke-width:0.05161" />
 </g>
</svg>
