<svg xmlns="http://www.w3.org/2000/svg" xmlns:osb="http://www.openswatchbook.org/uri/2009/osb" width="16" height="16" version="1.1" viewBox="0 0 16 16">
 <defs>
  <linearGradient id="linearGradient19282" gradientTransform="matrix(0,0,0,0,-1.1046e8,-6316300)" osb:paint="solid">
   <stop style="stop-color:#666666" offset="0"/>
  </linearGradient>
 </defs>
 <g transform="translate(-15,-527.36)">
  <rect style="opacity:0.3;fill:none" width="16" height="16" x="15" y="527.36"/>
  <path style="fill:url(#linearGradient19282)" d="M 19.812,528.36 C 19.354,528.45 18.992,528.9 19,529.36 V 530.36 C 19.126,530.36 19.251,530.38 19.375,530.39 19.426,530.4 19.481,530.39 19.531,530.39 19.684,530.38 19.845,530.36 20,530.36 20.338,530.36 20.677,530.31 21,530.36 V 530.36 H 26 V 533.36 H 29 V 541.36 H 23.312 C 22.362,541.99 21.227,542.36 20,542.36 19.662,542.36 19.323,542.32 19,542.27 V 542.36 C 19,542.89 19.476,543.36 20,543.36 H 30 C 30.524,543.36 31,542.89 31,542.36 V 532.92 C 31.006,532.66 30.902,532.4 30.719,532.21 L 27.156,528.64 C 26.966,528.46 26.702,528.36 26.437,528.36 H 20 C 19.969,528.36 19.937,528.36 19.906,528.36 19.875,528.36 19.844,528.36 19.812,528.36 Z"/>
  <path style="fill:url(#linearGradient19282)" d="M 20,531.36 C 17.239,531.36 15,533.6 15,536.36 15,539.12 17.239,541.36 20,541.36 22.761,541.36 25,539.12 25,536.36 25,533.6 22.761,531.36 20,531.36 Z M 21,533.33 V 536.36 537.36 H 20 17 V 536.36 H 20 V 533.36 Z"/>
 </g>
</svg>
