<svg xmlns="http://www.w3.org/2000/svg" xmlns:osb="http://www.openswatchbook.org/uri/2009/osb" width="16" height="16" version="1.1" viewBox="0 0 16 16">
 <defs>
  <linearGradient id="linearGradient19282" gradientTransform="matrix(0,0,0,0,-1.1046e8,-6315200)" osb:paint="solid">
   <stop style="stop-color:#666666" offset="0"/>
  </linearGradient>
 </defs>
 <g transform="translate(-15,-567.36)">
  <rect style="fill:none" width="16" height="15.999" x="15" y="567.36"/>
  <path style="fill:url(#linearGradient19282)" d="M 15.813,567.36 C 15.354,567.45 14.992,567.89 15,568.36 V 569.36 580.36 581.36 C 15,581.88 15.476,582.36 16,582.36 H 26 C 26.524,582.36 27,581.88 27,581.36 V 578.36 H 25 V 580.36 H 17 V 569.36 H 22 V 572.36 H 25 V 574.36 H 27 V 571.92 C 27.006,571.66 26.902,571.39 26.719,571.2 L 23.156,567.64 C 22.966,567.46 22.702,567.35 22.437,567.36 H 16 C 15.969,567.36 15.937,567.36 15.906,567.36 15.875,567.36 15.844,567.36 15.813,567.36 Z"/>
  <path style="fill:url(#linearGradient19282);fill-rule:evenodd" d="M 22,575.36 H 28 V 573.36 L 31,576.36 28,579.36 V 577.36 H 22 Z"/>
 </g>
</svg>
