<svg xmlns="http://www.w3.org/2000/svg" xmlns:osb="http://www.openswatchbook.org/uri/2009/osb" width="16" height="16" version="1.1" viewBox="0 0 16 16">
 <defs>
  <linearGradient id="linearGradient19282" gradientTransform="matrix(0,0,0,0,-6777900,-369850)" osb:paint="solid">
   <stop style="stop-color:#666666" offset="0"/>
  </linearGradient>
 </defs>
 <g transform="translate(-15,-587.36)">
  <rect style="fill:none" width="15.95" height="16" x="15" y="587.36"/>
  <path style="fill:url(#linearGradient19282)" d="M 24.704,590.18 C 24.704,590.18 24.691,590.73 24.401,591.27 24.112,591.82 23.601,592.36 22.285,592.36 21.172,592.36 18.988,592.36 18.415,592.5 17.779,592.65 17.18,592.94 16.723,593.45 16.264,593.97 15.997,594.71 15.997,595.63 15.997,596.34 16.126,596.91 16.39,597.34 16.653,597.77 17.043,598.05 17.417,598.19 18.167,598.48 18.949,598.36 19.382,598.36 V 597.27 C 18.85,597.27 18.18,597.34 17.721,597.17 17.49,597.08 17.336,596.94 17.206,596.73 17.077,596.51 16.964,596.18 16.964,595.63 16.964,594.93 17.146,594.51 17.417,594.2 17.69,593.9 18.099,593.71 18.627,593.59 18.988,593.36 21.104,593.45 22.285,593.45 23.87,593.45 24.811,592.64 25.247,591.82 25.684,591 25.671,590.18 25.671,590.18 Z"/>
  <ellipse style="fill:url(#linearGradient19282);fill-rule:evenodd" cx="19.983" cy="602.36" rx=".997" ry="1"/>
  <path style="fill:url(#linearGradient19282);fill-rule:evenodd" d="M 18.988,597.36 C 22.975,595.36 28.957,596.36 28.957,596.36 V 602.36 C 28.957,602.36 28.976,602.34 17.991,602.36 15.997,602.36 16.994,598.36 18.988,597.36 Z"/>
  <ellipse style="fill:url(#linearGradient19282);fill-rule:evenodd" cx="28.571" cy="600.89" rx="2.427" ry="2.478"/>
  <rect style="fill:url(#linearGradient19282);fill-rule:evenodd" width="7.826" height="2.034" x="21.27" y="588.4"/>
 </g>
</svg>
