<?xml version="1.0" encoding="UTF-8" standalone="no"?>
<!-- Created with Inkscape (http://www.inkscape.org/) -->

<svg
  xmlns:osb="http://www.openswatchbook.org/uri/2009/osb"
  xmlns:dc="http://purl.org/dc/elements/1.1/"
  xmlns:cc="http://creativecommons.org/ns#"
  xmlns:rdf="http://www.w3.org/1999/02/22-rdf-syntax-ns#"
  xmlns:svg="http://www.w3.org/2000/svg"
  xmlns="http://www.w3.org/2000/svg"
  xmlns:sodipodi="http://sodipodi.sourceforge.net/DTD/sodipodi-0.dtd"
  xmlns:inkscape="http://www.inkscape.org/namespaces/inkscape"
  width="16"
  height="16"
  id="svg15638"
  version="1.1"
  inkscape:version="0.92.2 (unknown)"
  sodipodi:docname="document-open-recent.svg"
  viewBox="0 0 16 16">
 <title
   id="title9623">Inkscape Icon Theme</title>
 <defs
   id="defs15640">
  <!--<inkscape:path-effect effect="spiro" id="path-effect36695" is_visible="true" />-->
  <linearGradient
    id="linearGradient19282"
    osb:paint="solid"
    gradientTransform="matrix(0,0,0,0,-1.1046e8,-6316300)">
   <stop
     style="stop-color:#666666;stop-opacity:1"
     offset="0"
     id="stop19284" />
  </linearGradient>
 </defs>
 <sodipodi:namedview
   id="base"
   pagecolor="#f2f2f2"
   bordercolor="#666666"
   borderopacity="1.0"
   inkscape:pageopacity="0"
   inkscape:pageshadow="2"
   inkscape:zoom="0.76028"
   inkscape:cx="345.9"
   inkscape:cy="-259.02"
   inkscape:document-units="px"
   inkscape:current-layer="layer1"
   showgrid="false"
   inkscape:window-width="1280"
   inkscape:window-height="960"
   inkscape:window-x="0"
   inkscape:window-y="27"
   inkscape:window-maximized="1"
   inkscape:snap-bbox="true"
   inkscape:bbox-paths="false"
   inkscape:bbox-nodes="true"
   inkscape:snap-global="false"
   showguides="false"
   inkscape:guide-bbox="true"
   inkscape:snap-nodes="false"
   inkscape:snap-object-midpoints="false"
   inkscape:snap-grids="true"
   inkscape:snap-to-guides="true"
   borderlayer="true"
   inkscape:showpageshadow="false"
   showborder="true"
   inkscape:snap-bbox-edge-midpoints="false"
   inkscape:object-nodes="true"
   inkscape:snap-intersection-paths="false"
   inkscape:snap-center="true">
  <inkscape:grid
    type="xygrid"
    id="grid15646"
    empspacing="5"
    visible="true"
    enabled="true"
    snapvisiblegridlinesonly="true"
    originx="-15"
    originy="-629" />
 </sodipodi:namedview>
 <metadata
   id="metadata15643">
  <rdf:RDF>
   <cc:Work
     rdf:about="">
    <dc:format>image/svg+xml</dc:format>
    <dc:type
      rdf:resource="http://purl.org/dc/dcmitype/StillImage" />
    <dc:title>Inkscape Icon Theme</dc:title>
    <dc:creator>
     <cc:Agent>
      <dc:title>Barbara Muraus</dc:title>
     </cc:Agent>
    </dc:creator>
    <dc:contributor>
     <cc:Agent>
      <dc:title>Jakub Steiner, Josh Andler</dc:title>
     </cc:Agent>
    </dc:contributor>
   </cc:Work>
  </rdf:RDF>
 </metadata>
 <g
   inkscape:label="Layer 1"
   inkscape:groupmode="layer"
   id="layer1"
   transform="translate(-15,-527.36)">
  <rect
    style="opacity:0.3;fill:none"
    id="rect16726"
    width="16"
    height="16"
    x="15"
    y="527.36" />
  <path
    sodipodi:nodetypes="cccccscccccccscccccccccccc"
    inkscape:connector-curvature="0"
    style="color:#000000;-inkscape-font-specification:Sans;fill:url(#linearGradient19282);stroke-width:2"
    d="M 19.812,528.36 C 19.354,528.45 18.992,528.9 19,529.36 V 530.36 C 19.126,530.36 19.251,530.38 19.375,530.39 19.426,530.4 19.481,530.39 19.531,530.39 19.684,530.38 19.845,530.36 20,530.36 20.338,530.36 20.677,530.31 21,530.36 V 530.36 H 26 V 533.36 H 29 V 541.36 H 23.312 C 22.362,541.99 21.227,542.36 20,542.36 19.662,542.36 19.323,542.32 19,542.27 V 542.36 C 19,542.89 19.476,543.36 20,543.36 H 30 C 30.524,543.36 31,542.89 31,542.36 V 532.92 C 31.006,532.66 30.902,532.4 30.719,532.21 L 27.156,528.64 C 26.966,528.46 26.702,528.36 26.437,528.36 H 20 C 19.969,528.36 19.937,528.36 19.906,528.36 19.875,528.36 19.844,528.36 19.812,528.36 Z"
    id="path1234" />
  <path
    style="fill:url(#linearGradient19282)"
    d="M 20,531.36 C 17.239,531.36 15,533.6 15,536.36 15,539.12 17.239,541.36 20,541.36 22.761,541.36 25,539.12 25,536.36 25,533.6 22.761,531.36 20,531.36 Z M 21,533.33 V 536.36 537.36 H 20 17 V 536.36 H 20 V 533.36 Z"
    id="path28902"
    inkscape:connector-curvature="0"
    sodipodi:nodetypes="sssssccccccccc" />
 </g>
</svg>
