<?xml version="1.0" encoding="UTF-8" standalone="no"?>
<!-- Created with Inkscape (http://www.inkscape.org/) -->

<svg
  xmlns:osb="http://www.openswatchbook.org/uri/2009/osb"
  xmlns:dc="http://purl.org/dc/elements/1.1/"
  xmlns:cc="http://creativecommons.org/ns#"
  xmlns:rdf="http://www.w3.org/1999/02/22-rdf-syntax-ns#"
  xmlns:svg="http://www.w3.org/2000/svg"
  xmlns="http://www.w3.org/2000/svg"
  xmlns:sodipodi="http://sodipodi.sourceforge.net/DTD/sodipodi-0.dtd"
  xmlns:inkscape="http://www.inkscape.org/namespaces/inkscape"
  width="16"
  height="16"
  id="svg15638"
  version="1.1"
  inkscape:version="0.92.2 (unknown)"
  sodipodi:docname="draw-ellipse-whole.svg"
  viewBox="0 0 16 16">
 <title
   id="title9623">Inkscape Icon Theme</title>
 <defs
   id="defs15640">
  <!--<inkscape:path-effect effect="spiro" id="path-effect36695" is_visible="true" />-->
  <linearGradient
    id="linearGradient19282"
    osb:paint="solid"
    gradientTransform="matrix(0,0,0,0,-1.1046e8,-6314800)">
   <stop
     style="stop-color:#666666;stop-opacity:1"
     offset="0"
     id="stop19284" />
  </linearGradient>
 </defs>
 <sodipodi:namedview
   id="base"
   pagecolor="#f2f2f2"
   bordercolor="#666666"
   borderopacity="1.0"
   inkscape:pageopacity="0"
   inkscape:pageshadow="2"
   inkscape:zoom="0.76028"
   inkscape:cx="11.9"
   inkscape:cy="-135.02"
   inkscape:document-units="px"
   inkscape:current-layer="layer1"
   showgrid="false"
   inkscape:window-width="1280"
   inkscape:window-height="960"
   inkscape:window-x="0"
   inkscape:window-y="27"
   inkscape:window-maximized="1"
   inkscape:snap-bbox="true"
   inkscape:bbox-paths="false"
   inkscape:bbox-nodes="true"
   inkscape:snap-global="false"
   showguides="false"
   inkscape:guide-bbox="true"
   inkscape:snap-nodes="false"
   inkscape:snap-object-midpoints="false"
   inkscape:snap-grids="true"
   inkscape:snap-to-guides="true"
   borderlayer="true"
   inkscape:showpageshadow="false"
   showborder="true"
   inkscape:snap-bbox-edge-midpoints="false"
   inkscape:object-nodes="true"
   inkscape:snap-intersection-paths="false"
   inkscape:snap-center="true">
  <inkscape:grid
    type="xygrid"
    id="grid15646"
    empspacing="5"
    visible="true"
    enabled="true"
    snapvisiblegridlinesonly="true"
    originx="-349"
    originy="-505" />
 </sodipodi:namedview>
 <metadata
   id="metadata15643">
  <rdf:RDF>
   <cc:Work
     rdf:about="">
    <dc:format>image/svg+xml</dc:format>
    <dc:type
      rdf:resource="http://purl.org/dc/dcmitype/StillImage" />
    <dc:title>Inkscape Icon Theme</dc:title>
    <dc:creator>
     <cc:Agent>
      <dc:title>Barbara Muraus</dc:title>
     </cc:Agent>
    </dc:creator>
    <dc:contributor>
     <cc:Agent>
      <dc:title>Jakub Steiner, Josh Andler</dc:title>
     </cc:Agent>
    </dc:contributor>
   </cc:Work>
  </rdf:RDF>
 </metadata>
 <g
   inkscape:label="Layer 1"
   inkscape:groupmode="layer"
   id="layer1"
   transform="translate(-349,-651.36)">
  <rect
    y="651.36"
    x="349"
    height="16"
    width="16"
    id="rect19849"
    style="fill:none" />
  <path
    inkscape:connector-curvature="0"
    style="fill:url(#linearGradient19282)"
    d="M 357,653.36 C 353.69,653.36 351,656.05 351,659.36 351,662.67 353.69,665.36 357,665.36 359.62,665.36 361.84,663.67 362.66,661.33 362.07,661.22 361.52,660.87 361.22,660.3 360.71,659.32 361.08,658.09 362.06,657.58 362.26,657.47 362.48,657.42 362.69,657.39 362.34,656.39 361.72,655.51 360.94,654.83 360.81,655.37 360.47,655.86 359.94,656.14 358.96,656.65 357.73,656.28 357.22,655.3 356.89,654.67 356.95,653.93 357.28,653.36 357.19,653.36 357.09,653.36 357,653.36 Z"
    id="path19864" />
  <path
    sodipodi:type="arc"
    style="fill:url(#linearGradient19282)"
    id="path19915"
    sodipodi:cx="359"
    sodipodi:cy="654.36"
    sodipodi:rx="1"
    sodipodi:ry="1"
    d="M 359.89,653.9 A 1,1 0 0 1 359.47,655.24 1,1 0 0 1 358.12,654.83 1,1 0 0 1 358.52,653.48 1,1 0 0 1 359.87,653.88 L 359,654.36 Z"
    sodipodi:start="5.8006"
    sodipodi:end="5.7777" />
  <path
    sodipodi:type="arc"
    style="fill:url(#linearGradient19282)"
    id="path19917"
    sodipodi:cx="363"
    sodipodi:cy="659.36"
    sodipodi:rx="1"
    sodipodi:ry="1"
    d="M 363.89,658.9 A 1,1 0 0 1 363.47,660.24 1,1 0 0 1 362.12,659.83 1,1 0 0 1 362.52,658.48 1,1 0 0 1 363.87,658.88 L 363,659.36 Z"
    sodipodi:start="5.8006"
    sodipodi:end="5.7777" />
 </g>
</svg>
