<svg xmlns="http://www.w3.org/2000/svg" width="24.037" height="24" version="1.1" viewBox="0 0 24.04 24">
 <g transform="translate(-285,-805.36)">
  <rect style="fill:none" width="24" height="24" x="285" y="805.36"/>
  <path style="fill:#666666" d="M 285,805.36 V 805.86 C 291.75,808.05 284.02,817.32 285.89,824.86 288,833.36 292.18,826.86 292.18,826.86 292.18,826.86 292,824.36 291.76,825.36 291.76,825.36 289,829.36 288,824.36 286.32,815.98 300.6,805.36 285,805.36 Z"/>
  <path style="fill:#666666" d="M 309,809.36 309.04,812.81 303.95,807.34 305.66,805.49 M 302.96,808.44 305,810.62 306,811.71 308.04,813.9 306.99,814.99 C 305.98,816.08 306.01,816.09 305,819.36 300.95,823.73 296.88,823.73 296.88,823.73 L 295.88,824.82 C 295.88,824.82 294.85,825.92 293.84,824.82 L 299.92,818.27 300.01,818.13 C 300.81,818.55 301.77,818.42 302.43,817.7 303.27,816.8 303.27,815.33 302.43,814.42 301.6,813.52 300.23,813.52 299.4,814.42 298.73,815.14 298.62,816.22 299.02,817.08 L 298.92,817.18 292.84,823.73 C 291.83,822.64 292.84,821.55 292.84,821.55 L 293.84,820.45 C 293.84,820.45 293.82,816.08 297.88,811.71 300.92,810.62 300.95,810.62 301.96,809.53 Z"/>
 </g>
</svg>
