<svg xmlns="http://www.w3.org/2000/svg" xmlns:osb="http://www.openswatchbook.org/uri/2009/osb" width="16" height="16.002" version="1.1" viewBox="0 0 16 16">
 <defs>
  <linearGradient id="linearGradient19282" gradientTransform="matrix(0,0,0,0,-1.1046e8,-6258100)" osb:paint="solid">
   <stop style="stop-color:#666666" offset="0"/>
  </linearGradient>
 </defs>
 <g transform="translate(-318,-743.36)">
  <path style="fill:url(#linearGradient19282);fill-rule:evenodd" d="M 331.16,744.41 329.28,746.4 C 330.61,746.43 331.95,747.61 332,748.83 L 334,746.84 C 333.94,745.57 332.53,744.36 331.16,744.41 Z"/>
  <rect style="fill:none" width="16" height="15.951" x="318" y="743.41"/>
  <path style="fill:url(#linearGradient19282);fill-rule:evenodd" d="M 320.63,755.41 328.15,747.4 C 329.52,747.35 330.94,748.56 331,749.82 L 323.51,757.6 319,759.36 Z"/>
  <path style="fill:none;stroke:url(#linearGradient19282);stroke-width:1.0204;stroke-linecap:round;stroke-linejoin:round" d="M 320.25,751.87 C 316.39,750.06 320.04,750.91 320.92,749.91 321.49,749.28 320.56,748.52 320.04,748.12 319.5,747.69 318.95,746.98 318.89,746.29 318.8,745.35 319.64,744.63 320.17,744.33 320.73,744.02 321.63,743.78 322.44,743.91 323.31,744.06 324.24,744.54 324.54,744.83"/>
 </g>
</svg>
