<svg xmlns="http://www.w3.org/2000/svg" xmlns:osb="http://www.openswatchbook.org/uri/2009/osb" width="16.006" height="16" version="1.1" viewBox="0 0 16.01 16">
 <defs>
  <linearGradient id="linearGradient19282" gradientTransform="matrix(0,0,0,0,-1.1046e8,-6316300)" osb:paint="solid">
   <stop style="stop-color:#666666" offset="0"/>
  </linearGradient>
 </defs>
 <g transform="translate(-318,-712.36)">
  <rect style="fill:none" width="16" height="16" x="318" y="712.36"/>
  <path style="fill:none;stroke:url(#linearGradient19282);stroke-width:1.29971;stroke-linecap:round;stroke-linejoin:round" d="M 325.95,720.8 C 326.59,720.65 326.88,721.51 326.77,722.03 326.54,723.1 325.33,723.47 324.45,723.12 323.06,722.57 322.62,720.78 323.2,719.44 323.99,717.59 326.19,717.02 327.84,717.89 329.96,719.01 330.6,721.88 329.52,724.02 328.2,726.65 324.97,727.43 322.56,726.02 319.69,724.35 318.86,720.39 320.44,717.45 322.28,714.03 326.57,713.04 329.73,714.98 333.34,717.2 334.37,722.28 332.28,726.01 332.27,726.02 332.26,726.03 332.26,726.05"/>
 </g>
</svg>
