<svg xmlns="http://www.w3.org/2000/svg" width="24" height="24" version="1.1" viewBox="0 0 24 24">
 <g transform="translate(-408,-589.36)">
  <rect style="fill:none" width="24" height="24" x="408" y="589.36"/>
  <rect style="display:block;fill:#666666" width="20.928" height="1.5" x="409.5" y="604.36" rx=".623" ry=".5"/>
  <path style="display:block;fill:#666666" d="M 426.36,599.19 422.29,596.86 421.13,598.02 423.45,600.92 424.61,607.9 426,610.36 V 613.36 L 427.5,611.86 427.52,606.16 Z"/>
  <path style="display:block;fill:#666666" d="M 413.65,599.19 417.66,596.86 418.8,598.02 416.51,600.92 415.37,607.9 414,610.36 V 613.36 L 412.5,611.86 V 606.16 Z"/>
  <rect style="display:block;fill:#666666" width="3" height="2.994" x="418.5" y="589.36" rx=".75" ry=".6"/>
  <rect style="display:block;fill:#666666" width="3" height="4.5" x="418.5" y="602.86" rx="1.056" ry="1.106"/>
  <path style="fill:#666666" d="M 420,590.86 C 417.51,590.86 415.5,592.87 415.5,595.36 415.5,597.85 417.51,599.86 420,599.86 422.49,599.86 424.5,597.85 424.5,595.36 424.5,592.87 422.49,590.86 420,590.86 Z M 420,593.06 C 421.27,593.06 422.3,594.09 422.3,595.36 422.3,596.63 421.27,597.66 420,597.66 418.73,597.66 417.7,596.63 417.7,595.36 417.7,594.09 418.73,593.06 420,593.06 Z"/>
 </g>
</svg>
