<?xml version="1.0" encoding="UTF-8" standalone="no"?>
<!-- Created with Inkscape (http://www.inkscape.org/) -->

<svg
  xmlns:osb="http://www.openswatchbook.org/uri/2009/osb"
  xmlns:dc="http://purl.org/dc/elements/1.1/"
  xmlns:cc="http://creativecommons.org/ns#"
  xmlns:rdf="http://www.w3.org/1999/02/22-rdf-syntax-ns#"
  xmlns:svg="http://www.w3.org/2000/svg"
  xmlns="http://www.w3.org/2000/svg"
  xmlns:sodipodi="http://sodipodi.sourceforge.net/DTD/sodipodi-0.dtd"
  xmlns:inkscape="http://www.inkscape.org/namespaces/inkscape"
  width="16"
  height="16"
  id="svg15638"
  version="1.1"
  inkscape:version="0.92.2 (unknown)"
  sodipodi:docname="draw-calligraphic-16px.svg"
  viewBox="0 0 16 16">
 <title
   id="title9623">Inkscape Icon Theme</title>
 <defs
   id="defs15640">
  <!--<inkscape:path-effect effect="spiro" id="path-effect36695" is_visible="true" />-->
  <linearGradient
    id="linearGradient19282"
    osb:paint="solid"
    gradientTransform="matrix(0,0,0,0,-1.1328e8,-6315500)">
   <stop
     style="stop-color:#666666;stop-opacity:1"
     offset="0"
     id="stop19284" />
  </linearGradient>
 </defs>
 <sodipodi:namedview
   id="base"
   pagecolor="#f2f2f2"
   bordercolor="#666666"
   borderopacity="1.0"
   inkscape:pageopacity="0"
   inkscape:pageshadow="2"
   inkscape:zoom="0.76028"
   inkscape:cx="42.9"
   inkscape:cy="18.981"
   inkscape:document-units="px"
   inkscape:current-layer="layer1"
   showgrid="false"
   inkscape:window-width="1280"
   inkscape:window-height="960"
   inkscape:window-x="0"
   inkscape:window-y="27"
   inkscape:window-maximized="1"
   inkscape:snap-bbox="true"
   inkscape:bbox-paths="false"
   inkscape:bbox-nodes="true"
   inkscape:snap-global="false"
   showguides="false"
   inkscape:guide-bbox="true"
   inkscape:snap-nodes="false"
   inkscape:snap-object-midpoints="false"
   inkscape:snap-grids="true"
   inkscape:snap-to-guides="true"
   borderlayer="true"
   inkscape:showpageshadow="false"
   showborder="true"
   inkscape:snap-bbox-edge-midpoints="false"
   inkscape:object-nodes="true"
   inkscape:snap-intersection-paths="false"
   inkscape:snap-center="true">
  <inkscape:grid
    type="xygrid"
    id="grid15646"
    empspacing="5"
    visible="true"
    enabled="true"
    snapvisiblegridlinesonly="true"
    originx="-318"
    originy="-351" />
 </sodipodi:namedview>
 <metadata
   id="metadata15643">
  <rdf:RDF>
   <cc:Work
     rdf:about="">
    <dc:format>image/svg+xml</dc:format>
    <dc:type
      rdf:resource="http://purl.org/dc/dcmitype/StillImage" />
    <dc:title>Inkscape Icon Theme</dc:title>
    <dc:creator>
     <cc:Agent>
      <dc:title>Barbara Muraus</dc:title>
     </cc:Agent>
    </dc:creator>
    <dc:contributor>
     <cc:Agent>
      <dc:title>Jakub Steiner, Josh Andler</dc:title>
     </cc:Agent>
    </dc:contributor>
   </cc:Work>
  </rdf:RDF>
 </metadata>
 <g
   inkscape:label="Layer 1"
   inkscape:groupmode="layer"
   id="layer1"
   transform="translate(-318,-805.36)">
  <rect
    style="fill:none;stroke-width:1.00629"
    id="rect10047"
    width="16"
    height="15.937"
    x="318"
    y="805.42" />
  <path
    sodipodi:nodetypes="ccccccccccccccccsccccccccc"
    style="fill:url(#linearGradient19282);stroke-width:1.00629"
    d="M 333.75,809.24 333,810.16 329.66,806.58 330.78,805.36 M 329,807.29 330.35,808.72 331.01,809.44 332.34,810.87 331.65,811.59 C 331,812.3 331.02,812.31 330.35,814.45 327.68,817.31 325,817.32 325,817.32 L 324.34,818.03 C 324.34,818.03 323.67,818.75 323.01,818.03 L 327.01,813.74 327.07,813.64 C 327.59,813.92 328.22,813.83 328.66,813.36 329.21,812.77 329.21,811.81 328.66,811.21 328.11,810.62 327.21,810.62 326.66,811.21 326.23,811.68 326.15,812.39 326.41,812.96 L 326.35,813.02 322.35,817.32 C 321.68,816.6 322.35,815.88 322.35,815.88 L 323.01,815.17 C 323.01,815.17 323,812.3 325.66,809.44 327.66,808.72 327.68,808.72 328.34,808.01 Z"
    id="path10153"
    inkscape:connector-curvature="0" />
  <path
    inkscape:connector-curvature="0"
    style="fill:url(#linearGradient19282);stroke-width:1.00629"
    d="M 318,806.03 V 806.36 C 321.67,807.82 318,815.36 318,818.36 318,824.47 322.05,819.36 322.05,819.36 V 818.36 C 322.05,818.36 320.22,821.44 319.68,818.1 318.77,812.51 326.47,806.03 318,806.03 Z"
    id="path23141"
    sodipodi:nodetypes="ccsccscc" />
 </g>
</svg>
