<svg xmlns="http://www.w3.org/2000/svg" width="16" height="16" version="1.1" viewBox="0 0 16 16">
 <g transform="translate(-318,-651.36)">
  <rect style="fill:none" width="16" height="16" x="318" y="651.36"/>
  <path style="fill:#666666" d="M 326,651.36 C 321.58,651.36 318,654.94 318,659.36 318,663.78 321.58,667.36 326,667.36 330.42,667.36 334,663.78 334,659.36 334,654.94 330.42,651.36 326,651.36 Z M 326,653.36 C 329.31,653.36 332,656.05 332,659.36 332,662.67 329.31,665.36 326,665.36 322.69,665.36 320,662.67 320,659.36 320,656.05 322.69,653.36 326,653.36 Z"/>
 </g>
</svg>
