<svg xmlns="http://www.w3.org/2000/svg" xmlns:osb="http://www.openswatchbook.org/uri/2009/osb" width="15.987" height="16" version="1.1" viewBox="0 0 15.99 16">
 <defs>
  <linearGradient id="linearGradient19282" gradientTransform="matrix(0,0,0,0,-73544000,-4210000)" osb:paint="solid">
   <stop style="stop-color:#666666" offset="0"/>
  </linearGradient>
 </defs>
 <g transform="translate(-317.98,-682.36)">
  <path style="fill:url(#linearGradient19282)" d="M 323.66,682.36 318,686.8 320,693.36 321.41,693.39 321.97,692.37 321.2,692.39 319.6,687.29 323.6,684.31 326.69,686.77 327.9,685.69 Z"/>
  <rect style="fill:none" width="15.979" height="16" x="317.98" y="682.36"/>
  <path style="fill:url(#linearGradient19282);fill-rule:evenodd" d="M 329.69,685.05 326.28,688.23 321.87,687.08 323.78,691.36 321.31,695.3 325.91,694.77 328.78,698.36 329.72,693.7 333.97,692.55 329.94,689.7 Z M 328.59,688.2 328.72,690.58 330.91,692.05 328.66,692.58 328.12,695.36 326.62,693.45 323.97,693.64 325.66,691.52 324.28,689.11 326.78,689.8 Z"/>
 </g>
</svg>
