<svg xmlns="http://www.w3.org/2000/svg" xmlns:osb="http://www.openswatchbook.org/uri/2009/osb" width="16" height="16" version="1.1" viewBox="0 0 16 16">
 <defs>
  <linearGradient id="linearGradient19282" gradientTransform="matrix(0,0,0,0,-1.1046e8,-6316300)" osb:paint="solid">
   <stop style="stop-color:#666666" offset="0"/>
  </linearGradient>
 </defs>
 <g transform="translate(-559,-589.36)">
  <rect style="fill:none" width="16" height="16" x="559" y="589.36"/>
  <path style="fill:none;stroke:url(#linearGradient19282);stroke-width:1.05744;stroke-linecap:square;stroke-linejoin:bevel;stroke-miterlimit:4.27;stroke-dashoffset:23.2" d="M 573.48,597.36 C 573.48,598.21 573.31,599.06 572.99,599.84 572.66,600.62 572.18,601.34 571.57,601.94 570.97,602.54 570.25,603.02 569.46,603.34 568.67,603.67 567.82,603.83 566.97,603.83 566.12,603.83 565.26,603.66 564.48,603.34 563.69,603.02 562.97,602.54 562.37,601.94 561.76,601.34 561.28,600.62 560.96,599.84 560.63,599.06 560.46,598.21 560.46,597.36 560.46,596.52 560.63,595.67 560.96,594.89 561.28,594.1 561.76,593.39 562.37,592.79 562.97,592.19 563.69,591.71 564.48,591.38 565.26,591.06 566.12,590.89 566.97,590.89 567.82,590.89 568.67,591.06 569.46,591.38 570.25,591.71 570.97,592.19 571.57,592.79 572.18,593.39 572.66,594.1 572.99,594.89 573.31,595.67 573.48,596.51 573.48,597.36"/>
  <rect style="fill:url(#linearGradient19282)" width="4" height="4" x="565" y="595.36"/>
  <rect style="fill:url(#linearGradient19282)" width="4" height="4" x="570" y="590.36"/>
  <rect style="fill:url(#linearGradient19282)" width="1.035" height="7.243" x="823.45" y="-14.47" transform="matrix(0.68252,0.73087,-0.68989,0.72391,0,0)"/>
 </g>
</svg>
