<svg xmlns="http://www.w3.org/2000/svg" xmlns:osb="http://www.openswatchbook.org/uri/2009/osb" width="16" height="16" version="1.1" viewBox="0 0 16 16">
 <defs>
  <linearGradient id="linearGradient19282" gradientTransform="matrix(0,0,0,0,-1.1046e8,-6314800)" osb:paint="solid">
   <stop style="stop-color:#666666" offset="0"/>
  </linearGradient>
 </defs>
 <g transform="translate(-349,-651.36)">
  <rect style="fill:none" width="16" height="16" x="349" y="651.36"/>
  <path style="fill:url(#linearGradient19282)" d="M 357,653.36 C 353.69,653.36 351,656.05 351,659.36 351,662.67 353.69,665.36 357,665.36 359.62,665.36 361.84,663.67 362.66,661.33 362.07,661.22 361.52,660.87 361.22,660.3 360.71,659.32 361.08,658.09 362.06,657.58 362.26,657.47 362.48,657.42 362.69,657.39 362.34,656.39 361.72,655.51 360.94,654.83 360.81,655.37 360.47,655.86 359.94,656.14 358.96,656.65 357.73,656.28 357.22,655.3 356.89,654.67 356.95,653.93 357.28,653.36 357.19,653.36 357.09,653.36 357,653.36 Z"/>
  <path style="fill:url(#linearGradient19282)" d="M 359.89,653.9 A 1,1 0 0 1 359.47,655.24 1,1 0 0 1 358.12,654.83 1,1 0 0 1 358.52,653.48 1,1 0 0 1 359.87,653.88 L 359,654.36 Z"/>
  <path style="fill:url(#linearGradient19282)" d="M 363.89,658.9 A 1,1 0 0 1 363.47,660.24 1,1 0 0 1 362.12,659.83 1,1 0 0 1 362.52,658.48 1,1 0 0 1 363.87,658.88 L 363,659.36 Z"/>
 </g>
</svg>
