<svg xmlns="http://www.w3.org/2000/svg" xmlns:osb="http://www.openswatchbook.org/uri/2009/osb" width="24" height="24" version="1.1" viewBox="0 0 24 24">
 <defs>
  <linearGradient id="linearGradient19282" gradientTransform="matrix(0,0,0,0,-1.1046e8,-6316300)" osb:paint="solid">
   <stop style="stop-color:#666666" offset="0"/>
  </linearGradient>
 </defs>
 <g transform="translate(-285,-991.36)">
  <rect style="fill:none" width="24" height="24" x="285" y="991.36"/>
  <path style="fill:url(#linearGradient19282)" d="M 301.73,992.86 C 301.62,992.89 301.5,992.97 301.41,993.05 L 294.98,999.05 301.03,1005.6 307.27,999.75 C 307.62,999.42 307.53,998.73 307.08,998.21 L 302.91,993.38 C 302.56,992.99 302.09,992.79 301.73,992.86 Z"/>
  <path style="fill:url(#linearGradient19282)" d="M 293.25,1000.7 289.73,1004 C 289.38,1004.3 289.42,1005 289.87,1005.5 L 294.09,1010.3 C 294.55,1010.9 295.19,1011 295.55,1010.7 L 299.25,1007.2 Z"/>
  <path style="fill:url(#linearGradient19282)" d="M 298.05,1012.4 C 297.47,1012.4 297,1012.8 297,1013.4 297,1013.9 297.47,1014.4 298.05,1014.4 H 300.15 306.45 307.5 V 1013.4 1012.4 H 306.45 300.15 Z"/>
  <path style="fill:url(#linearGradient19282)" d="M 290.72,1012.4 C 291.43,1012.4 292,1012.8 292,1013.4 292,1013.9 291.43,1014.4 290.72,1014.4 286.87,1014.4 287.05,1014.4 286.5,1014.4 V 1013.4 1012.4 C 286.5,1012.4 286.87,1012.4 290.72,1012.4 Z"/>
 </g>
</svg>
