<svg xmlns="http://www.w3.org/2000/svg" width="24" height="24" version="1.1" viewBox="0 0 24 24">
 <g transform="translate(-285,-651.36)">
  <rect style="fill:none" width="24" height="24" x="285" y="651.36"/>
  <path style="fill:#666666" d="M 297,652.36 C 290.92,652.36 286,657.29 286,663.36 286,669.44 290.92,674.36 297,674.36 303.08,674.36 308,669.44 308,663.36 308,657.29 303.08,652.36 297,652.36 Z M 297,654.2 C 302.06,654.2 306.17,658.3 306.17,663.36 306.17,668.42 302.06,672.53 297,672.53 291.94,672.53 287.83,668.42 287.83,663.36 287.83,658.3 291.94,654.2 297,654.2 Z"/>
 </g>
</svg>
