<svg xmlns="http://www.w3.org/2000/svg" xmlns:osb="http://www.openswatchbook.org/uri/2009/osb" width="24" height="24.001" version="1.1" viewBox="0 0 24 24">
 <defs>
  <linearGradient id="linearGradient19282" gradientTransform="matrix(0,0,0,0,-2.4853e8,-14012000)" osb:paint="solid">
   <stop style="stop-color:#666666" offset="0"/>
  </linearGradient>
 </defs>
 <g transform="translate(-285,-743.36)">
  <path style="fill:url(#linearGradient19282);fill-rule:evenodd" d="M 304.74,744.93 301.92,747.92 C 303.92,747.96 305.92,749.73 306,751.56 L 309,748.57 C 308.91,746.68 306.8,744.85 304.74,744.93 Z"/>
  <rect style="fill:none" width="24" height="23.926" x="285" y="743.44"/>
  <path style="fill:url(#linearGradient19282);fill-rule:evenodd" d="M 288.95,761.44 300.23,749.42 C 302.28,749.34 304.42,751.15 304.5,753.05 L 293.26,764.7 286.5,767.36 Z"/>
  <path style="fill:none;stroke:url(#linearGradient19282);stroke-width:1.53061;stroke-linecap:round;stroke-linejoin:round" d="M 288.37,756.13 C 282.59,753.41 288.05,754.68 289.39,753.19 290.23,752.24 288.84,751.11 288.07,750.5 287.25,749.85 286.43,748.78 286.33,747.75 286.2,746.34 287.46,745.26 288.26,744.81 289.1,744.35 290.45,743.99 291.66,744.19 292.96,744.41 294.37,745.12 294.81,745.57"/>
 </g>
</svg>
