<svg xmlns="http://www.w3.org/2000/svg" width="24.031" height="24" version="1.1" viewBox="0 0 24.03 24">
 <g transform="translate(-285,-682.36)">
  <path style="fill:#666666" d="M 293.52,682.35 285.02,689.01 288.02,699.35 H 289.96 L 291.04,697.31 C 290.48,697.3 290.06,697.35 289.51,697.39 L 286.95,689.7 293.57,684.44 298.55,688.35 299.89,687.35 Z"/>
  <rect style="fill:none" width="24" height="24" x="285" y="682.36"/>
  <path style="fill:#666666;fill-rule:evenodd" d="M 302.59,686.39 297.47,691.17 290.84,689.45 293.69,695.86 290,701.77 296.91,700.95 301.22,706.36 302.62,699.36 309.03,697.66 302.97,693.36 Z M 301.33,689.85 301.58,694.27 305.65,696.97 301.49,697.97 300.48,703.14 297.72,699.59 292.73,699.96 295.88,695.97 293.34,691.52 298.01,692.82 Z"/>
 </g>
</svg>
