<svg xmlns="http://www.w3.org/2000/svg" xmlns:osb="http://www.openswatchbook.org/uri/2009/osb" width="16" height="16" version="1.1" viewBox="0 0 16 16">
 <defs>
  <linearGradient id="linearGradient19282" gradientTransform="matrix(0,0,0,0,-1.1046e8,-6313100)" osb:paint="solid">
   <stop style="stop-color:#666666" offset="0"/>
  </linearGradient>
 </defs>
 <g transform="translate(-317,-991.36)">
  <rect style="fill:none" width="16" height="16" x="317" y="991.36"/>
  <path style="fill:url(#linearGradient19282)" d="M 328.16,992.36 C 328.08,992.38 328,992.43 327.94,992.48 L 323.66,996.48 327.69,1000.8 331.84,996.95 C 332.08,996.73 332.02,996.27 331.72,995.92 L 328.94,992.7 C 328.71,992.44 328.39,992.31 328.16,992.36 Z"/>
  <path style="fill:url(#linearGradient19282)" d="M 322.5,997.58 320.16,999.77 C 319.92,999.99 319.95,1000.5 320.25,1000.8 L 323.06,1004 C 323.37,1004.4 323.79,1004.5 324.03,1004.2 L 326.5,1001.9 Z"/>
  <path style="fill:url(#linearGradient19282)" d="M 325.7,1005.4 C 325.31,1005.4 325,1005.6 325,1005.9 325,1006.1 325.31,1006.4 325.7,1006.4 H 327.1 331.3 332 V 1005.9 1005.4 H 331.3 327.1 Z"/>
  <path style="fill:url(#linearGradient19282)" d="M 320.3,1005.4 C 320.69,1005.4 321,1005.6 321,1005.9 321,1006.1 320.69,1006.4 320.3,1006.4 318.2,1006.4 318.3,1006.4 318,1006.4 V 1005.9 1005.4 C 318,1005.4 318.2,1005.4 320.3,1005.4 Z"/>
 </g>
</svg>
