<?xml version="1.0" encoding="UTF-8" standalone="no"?>
<!-- Created with Inkscape (http://www.inkscape.org/) -->

<svg
  xmlns:osb="http://www.openswatchbook.org/uri/2009/osb"
  xmlns:dc="http://purl.org/dc/elements/1.1/"
  xmlns:cc="http://creativecommons.org/ns#"
  xmlns:rdf="http://www.w3.org/1999/02/22-rdf-syntax-ns#"
  xmlns:svg="http://www.w3.org/2000/svg"
  xmlns="http://www.w3.org/2000/svg"
  xmlns:sodipodi="http://sodipodi.sourceforge.net/DTD/sodipodi-0.dtd"
  xmlns:inkscape="http://www.inkscape.org/namespaces/inkscape"
  width="24.037"
  height="24"
  id="svg15638"
  version="1.1"
  inkscape:version="0.92.2 (unknown)"
  sodipodi:docname="draw-calligraphic.svg"
  viewBox="0 0 24.037 24">
 <title
   id="title9623">Inkscape Icon Theme</title>
 <defs
   id="defs15640">
  <!--<inkscape:path-effect effect="spiro" id="path-effect36695" is_visible="true" />-->
  <linearGradient
    id="linearGradient19282"
    osb:paint="solid"
    gradientTransform="matrix(0,0,0,0,-1.1046e8,-6316300)">
   <stop
     style="stop-color:#666666;stop-opacity:1"
     offset="0"
     id="stop19284" />
  </linearGradient>
 </defs>
 <sodipodi:namedview
   id="base"
   pagecolor="#f2f2f2"
   bordercolor="#666666"
   borderopacity="1.0"
   inkscape:pageopacity="0"
   inkscape:pageshadow="2"
   inkscape:zoom="0.76028"
   inkscape:cx="75.9"
   inkscape:cy="26.98"
   inkscape:document-units="px"
   inkscape:current-layer="layer1"
   showgrid="false"
   inkscape:window-width="1280"
   inkscape:window-height="960"
   inkscape:window-x="0"
   inkscape:window-y="27"
   inkscape:window-maximized="1"
   inkscape:snap-bbox="true"
   inkscape:bbox-paths="false"
   inkscape:bbox-nodes="true"
   inkscape:snap-global="false"
   showguides="false"
   inkscape:guide-bbox="true"
   inkscape:snap-nodes="false"
   inkscape:snap-object-midpoints="false"
   inkscape:snap-grids="true"
   inkscape:snap-to-guides="true"
   borderlayer="true"
   inkscape:showpageshadow="false"
   showborder="true"
   inkscape:snap-bbox-edge-midpoints="false"
   inkscape:object-nodes="true"
   inkscape:snap-intersection-paths="false"
   inkscape:snap-center="true">
  <inkscape:grid
    type="xygrid"
    id="grid15646"
    empspacing="5"
    visible="true"
    enabled="true"
    snapvisiblegridlinesonly="true"
    originx="-285"
    originy="-343" />
 </sodipodi:namedview>
 <metadata
   id="metadata15643">
  <rdf:RDF>
   <cc:Work
     rdf:about="">
    <dc:format>image/svg+xml</dc:format>
    <dc:type
      rdf:resource="http://purl.org/dc/dcmitype/StillImage" />
    <dc:title>Inkscape Icon Theme</dc:title>
    <dc:creator>
     <cc:Agent>
      <dc:title>Barbara Muraus</dc:title>
     </cc:Agent>
    </dc:creator>
    <dc:contributor>
     <cc:Agent>
      <dc:title>Jakub Steiner, Josh Andler</dc:title>
     </cc:Agent>
    </dc:contributor>
   </cc:Work>
  </rdf:RDF>
 </metadata>
 <g
   inkscape:label="Layer 1"
   inkscape:groupmode="layer"
   id="layer1"
   transform="translate(-285,-805.36)">
  <rect
    style="color:#000000;fill:none"
    id="rect12294"
    width="24"
    height="24"
    x="285"
    y="805.36" />
  <path
    inkscape:connector-curvature="0"
    style="fill:url(#linearGradient19282)"
    d="M 285,805.36 V 805.86 C 291.75,808.05 284.02,817.32 285.89,824.86 288,833.36 292.18,826.86 292.18,826.86 292.18,826.86 292,824.36 291.76,825.36 291.76,825.36 289,829.36 288,824.36 286.32,815.98 300.6,805.36 285,805.36 Z"
    id="path12296"
    sodipodi:nodetypes="ccsccsc" />
  <path
    sodipodi:nodetypes="ccccccccccccccccsccccccccc"
    style="fill:url(#linearGradient19282)"
    d="M 309,809.36 309.04,812.81 303.95,807.34 305.66,805.49 M 302.96,808.44 305,810.62 306,811.71 308.04,813.9 306.99,814.99 C 305.98,816.08 306.01,816.09 305,819.36 300.95,823.73 296.88,823.73 296.88,823.73 L 295.88,824.82 C 295.88,824.82 294.85,825.92 293.84,824.82 L 299.92,818.27 300.01,818.13 C 300.81,818.55 301.77,818.42 302.43,817.7 303.27,816.8 303.27,815.33 302.43,814.42 301.6,813.52 300.23,813.52 299.4,814.42 298.73,815.14 298.62,816.22 299.02,817.08 L 298.92,817.18 292.84,823.73 C 291.83,822.64 292.84,821.55 292.84,821.55 L 293.84,820.45 C 293.84,820.45 293.82,816.08 297.88,811.71 300.92,810.62 300.95,810.62 301.96,809.53 Z"
    id="path23137"
    inkscape:connector-curvature="0" />
 </g>
</svg>
