<svg xmlns="http://www.w3.org/2000/svg" width="24" height="24" version="1.1" viewBox="0 0 24 24">
 <g transform="translate(-285,-867.36)">
  <path style="fill:#666666" d="M 300.46,870.36 A 0.49813,0.49971 0 0 0 300.21,871.27 L 305,875.11 V 882.86 A 0.5,0.50159 0 1 0 306,882.86 V 874.86 A 0.49813,0.49971 0 0 0 305.81,874.49 L 300.83,870.49 A 0.49813,0.49971 0 0 0 300.46,870.36 Z"/>
  <path style="fill:#666666" d="M 293.48,876.36 A 0.5014,0.47059 20.55 0 0 293.03,876.64 L 290,882.66 A 0.50575,0.47467 20.55 1 0 290.91,883.1 L 293.93,877.08 A 0.5014,0.47059 20.55 0 0 293.48,876.36 Z"/>
  <rect style="fill:#666666" width="7.999" height="6.999" x="291" y="868.36"/>
  <rect style="fill:#666666" width="7.999" height="6.999" x="286" y="884.36"/>
  <rect style="fill:#666666" width="7.999" height="6.999" x="301" y="884.36"/>
  <rect style="fill:none" width="24" height="24" x="285" y="867.36"/>
 </g>
</svg>
