<svg xmlns="http://www.w3.org/2000/svg" xmlns:osb="http://www.openswatchbook.org/uri/2009/osb" width="16" height="16" version="1.1" viewBox="0 0 16 16">
 <defs>
  <linearGradient id="linearGradient19282" gradientTransform="matrix(0,0,0,0,-1.1328e8,-6315500)" osb:paint="solid">
   <stop style="stop-color:#666666" offset="0"/>
  </linearGradient>
 </defs>
 <g transform="translate(-318,-805.36)">
  <rect style="fill:none" width="16" height="15.937" x="318" y="805.42"/>
  <path style="fill:url(#linearGradient19282)" d="M 333.75,809.24 333,810.16 329.66,806.58 330.78,805.36 M 329,807.29 330.35,808.72 331.01,809.44 332.34,810.87 331.65,811.59 C 331,812.3 331.02,812.31 330.35,814.45 327.68,817.31 325,817.32 325,817.32 L 324.34,818.03 C 324.34,818.03 323.67,818.75 323.01,818.03 L 327.01,813.74 327.07,813.64 C 327.59,813.92 328.22,813.83 328.66,813.36 329.21,812.77 329.21,811.81 328.66,811.21 328.11,810.62 327.21,810.62 326.66,811.21 326.23,811.68 326.15,812.39 326.41,812.96 L 326.35,813.02 322.35,817.32 C 321.68,816.6 322.35,815.88 322.35,815.88 L 323.01,815.17 C 323.01,815.17 323,812.3 325.66,809.44 327.66,808.72 327.68,808.72 328.34,808.01 Z"/>
  <path style="fill:url(#linearGradient19282)" d="M 318,806.03 V 806.36 C 321.67,807.82 318,815.36 318,818.36 318,824.47 322.05,819.36 322.05,819.36 V 818.36 C 322.05,818.36 320.22,821.44 319.68,818.1 318.77,812.51 326.47,806.03 318,806.03 Z"/>
 </g>
</svg>
