<svg xmlns="http://www.w3.org/2000/svg" xmlns:osb="http://www.openswatchbook.org/uri/2009/osb" width="16" height="16" version="1.1" viewBox="0 0 16 16">
 <defs>
  <linearGradient id="linearGradient19282" gradientTransform="matrix(0,0,0,0,-1.1046e8,-6315300)" osb:paint="solid">
   <stop style="stop-color:#666666" offset="0"/>
  </linearGradient>
 </defs>
 <g transform="translate(-347,-991.36)">
  <rect style="fill:none" width="16" height="16" x="347" y="991.36"/>
  <path style="fill:url(#linearGradient19282)" d="M 354,998.36 C 353.45,998.36 353,998.81 353,999.36 V 1006.4 C 353,1006.9 353.45,1007.4 354,1007.4 H 361 C 361.55,1007.4 362,1006.9 362,1006.4 V 999.36 C 362,998.81 361.55,998.36 361,998.36 Z M 355.91,999.08 357.69,1001.2 359.47,999.08 361,1000.4 358.97,1002.8 361,1005.3 359.47,1006.5 357.69,1004.4 355.91,1006.5 354.37,1005.3 356.41,1002.8 354.37,1000.4 Z"/>
  <path style="fill:url(#linearGradient19282)" d="M 347,994.36 V 995.36 1004.4 1005.4 H 348 352 V 1004.4 H 348 V 995.36 H 359 V 997.36 H 360 V 994.36 Z"/>
  <path style="opacity:0.3;fill:url(#linearGradient19282)" d="M 349,996.36 V 997.36 1003.4 H 352 V 997.36 H 358 V 996.36 H 352 Z"/>
 </g>
</svg>
