<?xml version="1.0" encoding="UTF-8" standalone="no"?>
<!-- Created with Inkscape (http://www.inkscape.org/) -->

<svg
  xmlns:osb="http://www.openswatchbook.org/uri/2009/osb"
  xmlns:dc="http://purl.org/dc/elements/1.1/"
  xmlns:cc="http://creativecommons.org/ns#"
  xmlns:rdf="http://www.w3.org/1999/02/22-rdf-syntax-ns#"
  xmlns:svg="http://www.w3.org/2000/svg"
  xmlns="http://www.w3.org/2000/svg"
  xmlns:sodipodi="http://sodipodi.sourceforge.net/DTD/sodipodi-0.dtd"
  xmlns:inkscape="http://www.inkscape.org/namespaces/inkscape"
  width="16"
  height="16"
  id="svg15638"
  version="1.1"
  inkscape:version="0.92.2 (unknown)"
  sodipodi:docname="edit-paste-style.svg"
  viewBox="0 0 16 16">
 <title
   id="title9623">Inkscape Icon Theme</title>
 <defs
   id="defs15640">
  <!--<inkscape:path-effect effect="spiro" id="path-effect36695" is_visible="true" />-->
  <linearGradient
    id="linearGradient19282"
    osb:paint="solid"
    gradientTransform="matrix(0,0,0,0,-1.1046e8,-6316300)">
   <stop
     style="stop-color:#666666;stop-opacity:1"
     offset="0"
     id="stop19284" />
  </linearGradient>
 </defs>
 <sodipodi:namedview
   id="base"
   pagecolor="#f2f2f2"
   bordercolor="#666666"
   borderopacity="1.0"
   inkscape:pageopacity="0"
   inkscape:pageshadow="2"
   inkscape:zoom="0.76028"
   inkscape:cx="315.83"
   inkscape:cy="-219.02"
   inkscape:document-units="px"
   inkscape:current-layer="layer1"
   showgrid="false"
   inkscape:window-width="1280"
   inkscape:window-height="960"
   inkscape:window-x="0"
   inkscape:window-y="27"
   inkscape:window-maximized="1"
   inkscape:snap-bbox="true"
   inkscape:bbox-paths="false"
   inkscape:bbox-nodes="true"
   inkscape:snap-global="false"
   showguides="false"
   inkscape:guide-bbox="true"
   inkscape:snap-nodes="false"
   inkscape:snap-object-midpoints="false"
   inkscape:snap-grids="true"
   inkscape:snap-to-guides="true"
   borderlayer="true"
   inkscape:showpageshadow="false"
   showborder="true"
   inkscape:snap-bbox-edge-midpoints="false"
   inkscape:object-nodes="true"
   inkscape:snap-intersection-paths="false"
   inkscape:snap-center="true">
  <inkscape:grid
    type="xygrid"
    id="grid15646"
    empspacing="5"
    visible="true"
    enabled="true"
    snapvisiblegridlinesonly="true"
    originx="-45.07"
    originy="-589" />
 </sodipodi:namedview>
 <metadata
   id="metadata15643">
  <rdf:RDF>
   <cc:Work
     rdf:about="">
    <dc:format>image/svg+xml</dc:format>
    <dc:type
      rdf:resource="http://purl.org/dc/dcmitype/StillImage" />
    <dc:title>Inkscape Icon Theme</dc:title>
    <dc:creator>
     <cc:Agent>
      <dc:title>Barbara Muraus</dc:title>
     </cc:Agent>
    </dc:creator>
    <dc:contributor>
     <cc:Agent>
      <dc:title>Jakub Steiner, Josh Andler</dc:title>
     </cc:Agent>
    </dc:contributor>
   </cc:Work>
  </rdf:RDF>
 </metadata>
 <g
   inkscape:label="Layer 1"
   inkscape:groupmode="layer"
   id="layer1"
   transform="translate(-45.07,-567.36)">
  <rect
    y="567.42"
    x="45.07"
    height="15.938"
    width="16"
    id="rect27708"
    style="fill:none" />
  <rect
    ry="0.53033"
    rx="0.53033"
    y="567.36"
    x="50"
    height="2.9883"
    width="6"
    id="rect27710"
    style="fill:url(#linearGradient19282)" />
  <path
    sodipodi:nodetypes="cccccc"
    inkscape:connector-curvature="0"
    id="path27712"
    d="M 49,572.34 V 580.31 H 55 L 57,578.32 V 572.34 Z"
    style="fill:url(#linearGradient19282)" />
  <path
    inkscape:connector-curvature="0"
    id="path27714"
    d="M 46.531,568.36 C 46.489,568.36 46.446,568.38 46.406,568.39 46.172,568.44 45.999,568.64 46,568.89 L 46.031,575.86 46,582.83 C 45.999,583.08 46.172,583.28 46.406,583.33 46.47,583.36 46.52,583.36 46.594,583.36 H 49 L 59.469,583.3 C 59.763,583.3 60,583.06 60,582.77 V 577.39 574.33 568.95 C 60,568.66 59.763,568.42 59.469,568.42 H 57 V 569.42 H 58.469 C 58.763,569.42 59,569.65 59,569.95 V 574.33 577.39 581.77 C 59,582.07 58.763,582.3 58.469,582.3 L 49,582.37 H 47.594 C 47.57,582.37 47.554,582.37 47.531,582.37 47.489,582.37 47.446,582.34 47.406,582.34 47.216,582.26 47.064,582.06 47.063,581.84 L 47.031,575.86 47.063,569.88 C 47.064,569.66 47.216,569.47 47.406,569.39 47.446,569.38 47.489,569.35 47.531,569.35 H 49 V 568.36 Z"
    style="fill:url(#linearGradient19282)" />
 </g>
</svg>
