<svg xmlns="http://www.w3.org/2000/svg" xmlns:osb="http://www.openswatchbook.org/uri/2009/osb" width="16" height="16" version="1.1" viewBox="0 0 16 16">
 <defs>
  <linearGradient id="linearGradient19282" gradientTransform="matrix(0,0,0,0,-1.1046e8,-6316300)" osb:paint="solid">
   <stop style="stop-color:#666666" offset="0"/>
  </linearGradient>
 </defs>
 <g transform="translate(-45,-607.36)">
  <path style="fill:none" d="M 45,607.36 V 623.36 H 61 V 607.36 Z"/>
  <path style="fill:url(#linearGradient19282)" d="M 50,612.36 V 623.36 H 60 V 612.36 Z M 54.469,614.36 H 55.469 C 56.32,614.36 57,615.07 57,615.92 V 617.36 H 57.469 C 57.744,617.36 57.969,617.61 57.969,617.92 V 618.24 621.33 H 52 V 618.24 617.92 C 52,617.61 52.225,617.36 52.5,617.36 H 52.969 V 615.92 C 52.969,615.07 53.617,614.36 54.469,614.36 Z M 54.469,615.39 C 54.211,615.39 54,615.59 54,615.92 V 617.36 H 55.969 V 615.92 C 55.969,615.59 55.726,615.39 55.469,615.39 Z"/>
  <path style="fill:url(#linearGradient19282)" d="M 49,616.36 V 615.36 611.36 H 55 V 611.36 607.36 H 45 V 616.36 Z"/>
 </g>
</svg>
