<svg xmlns="http://www.w3.org/2000/svg" xmlns:osb="http://www.openswatchbook.org/uri/2009/osb" width="16" height="16" version="1.1" viewBox="0 0 16 16">
 <defs>
  <linearGradient id="linearGradient19282" gradientTransform="matrix(0,0,0,0,-1.1046e8,-6316300)" osb:paint="solid">
   <stop style="stop-color:#666666" offset="0"/>
  </linearGradient>
 </defs>
 <g transform="translate(-45,-727.36)">
  <rect style="fill:none" width="16" height="16" x="45" y="727.36"/>
  <rect style="opacity:0.3;fill:url(#linearGradient19282)" width="1" height="1" x="45" y="727.36"/>
  <rect style="opacity:0.3;fill:url(#linearGradient19282)" width="1" height="1" x="47" y="727.36"/>
  <rect style="opacity:0.3;fill:url(#linearGradient19282)" width="1" height="1" x="49" y="727.36"/>
  <rect style="opacity:0.3;fill:url(#linearGradient19282)" width="1" height="1" x="51" y="727.36"/>
  <rect style="opacity:0.3;fill:url(#linearGradient19282)" width="1" height="1" x="53" y="727.36"/>
  <rect style="opacity:0.3;fill:url(#linearGradient19282)" width="1" height="1" x="55" y="727.36"/>
  <rect style="opacity:0.3;fill:url(#linearGradient19282)" width="1" height="1" x="57" y="727.36"/>
  <rect style="opacity:0.3;fill:url(#linearGradient19282)" width="1" height="1" x="59" y="727.36"/>
  <rect style="opacity:0.3;fill:url(#linearGradient19282)" width="1" height="1" x="45" y="729.36"/>
  <rect style="opacity:0.3;fill:url(#linearGradient19282)" width="1" height="1" x="45" y="731.36"/>
  <rect style="opacity:0.3;fill:url(#linearGradient19282)" width="1" height="1" x="45" y="733.36"/>
  <rect style="opacity:0.3;fill:url(#linearGradient19282)" width="1" height="1" x="45" y="735.36"/>
  <rect style="opacity:0.3;fill:url(#linearGradient19282)" width="1" height="1" x="45" y="737.36"/>
  <rect style="opacity:0.3;fill:url(#linearGradient19282)" width="1" height="1" x="45" y="739.36"/>
  <rect style="opacity:0.3;fill:url(#linearGradient19282)" width="1" height="1" x="45" y="741.36"/>
  <rect style="opacity:0.3;fill:url(#linearGradient19282)" width="1" height="1" x="59" y="729.36"/>
  <rect style="opacity:0.3;fill:url(#linearGradient19282)" width="1" height="1" x="59" y="731.36"/>
  <rect style="opacity:0.3;fill:url(#linearGradient19282)" width="1" height="1" x="59" y="733.36"/>
  <rect style="opacity:0.3;fill:url(#linearGradient19282)" width="1" height="1" x="59" y="735.36"/>
  <rect style="opacity:0.3;fill:url(#linearGradient19282)" width="1" height="1" x="59" y="737.36"/>
  <rect style="opacity:0.3;fill:url(#linearGradient19282)" width="1" height="1" x="59" y="739.36"/>
  <rect style="opacity:0.3;fill:url(#linearGradient19282)" width="1" height="1" x="59" y="741.36"/>
  <rect style="opacity:0.3;fill:url(#linearGradient19282)" width="1" height="1" x="47" y="741.36"/>
  <rect style="opacity:0.3;fill:url(#linearGradient19282)" width="1" height="1" x="49" y="741.36"/>
  <rect style="opacity:0.3;fill:url(#linearGradient19282)" width="1" height="1" x="51" y="741.36"/>
  <rect style="opacity:0.3;fill:url(#linearGradient19282)" width="1" height="1" x="53" y="741.36"/>
  <rect style="opacity:0.3;fill:url(#linearGradient19282)" width="1" height="1" x="55" y="741.36"/>
  <rect style="opacity:0.3;fill:url(#linearGradient19282)" width="1" height="1" x="57" y="741.36"/>
  <path style="opacity:0.3;fill:url(#linearGradient19282)" d="M 47,735.36 V 740.36 H 55 V 737.86 C 54.833,737.88 54.672,737.92 54.5,737.92 52.723,737.92 51.2,736.88 50.469,735.36 Z"/>
  <circle style="opacity:0.3;fill:url(#linearGradient19282)" cx="54.5" cy="733.36" r="3.5"/>
 </g>
</svg>
