<svg xmlns="http://www.w3.org/2000/svg" xmlns:osb="http://www.openswatchbook.org/uri/2009/osb" width="16" height="16" version="1.1" viewBox="0 0 16 16">
 <defs>
  <linearGradient id="linearGradient19282" gradientTransform="matrix(0,0,0,0,-1.1046e8,-6316300)" osb:paint="solid">
   <stop style="stop-color:#666666" offset="0"/>
  </linearGradient>
 </defs>
 <g transform="translate(-45.07,-567.36)">
  <rect style="fill:none" width="16" height="15.938" x="45.07" y="567.42"/>
  <rect style="fill:url(#linearGradient19282)" width="6" height="2.988" x="50" y="567.36" rx=".53" ry=".53"/>
  <path style="fill:url(#linearGradient19282)" d="M 49,572.34 V 580.31 H 55 L 57,578.32 V 572.34 Z"/>
  <path style="fill:url(#linearGradient19282)" d="M 46.531,568.36 C 46.489,568.36 46.446,568.38 46.406,568.39 46.172,568.44 45.999,568.64 46,568.89 L 46.031,575.86 46,582.83 C 45.999,583.08 46.172,583.28 46.406,583.33 46.47,583.36 46.52,583.36 46.594,583.36 H 49 L 59.469,583.3 C 59.763,583.3 60,583.06 60,582.77 V 577.39 574.33 568.95 C 60,568.66 59.763,568.42 59.469,568.42 H 57 V 569.42 H 58.469 C 58.763,569.42 59,569.65 59,569.95 V 574.33 577.39 581.77 C 59,582.07 58.763,582.3 58.469,582.3 L 49,582.37 H 47.594 C 47.57,582.37 47.554,582.37 47.531,582.37 47.489,582.37 47.446,582.34 47.406,582.34 47.216,582.26 47.064,582.06 47.063,581.84 L 47.031,575.86 47.063,569.88 C 47.064,569.66 47.216,569.47 47.406,569.39 47.446,569.38 47.489,569.35 47.531,569.35 H 49 V 568.36 Z"/>
 </g>
</svg>
