<svg xmlns="http://www.w3.org/2000/svg" width="16" height="16" version="1.1" viewBox="0 0 16 16">
 <g transform="translate(-45,-707.36)">
  <rect style="fill:none" width="16" height="16" x="45" y="707.36"/>
  <rect style="fill:#666666" width="1" height="1" x="45" y="707.36"/>
  <rect style="fill:#666666" width="1" height="1" x="47" y="707.36"/>
  <rect style="fill:#666666" width="1" height="1" x="49" y="707.36"/>
  <rect style="fill:#666666" width="1" height="1" x="51" y="707.36"/>
  <rect style="fill:#666666" width="1" height="1" x="53" y="707.36"/>
  <rect style="fill:#666666" width="1" height="1" x="55" y="707.36"/>
  <rect style="fill:#666666" width="1" height="1" x="57" y="707.36"/>
  <rect style="fill:#666666" width="1" height="1" x="59" y="707.36"/>
  <rect style="fill:#666666" width="1" height="1" x="45" y="709.36"/>
  <rect style="fill:#666666" width="1" height="1" x="45" y="711.36"/>
  <rect style="fill:#666666" width="1" height="1" x="45" y="713.36"/>
  <rect style="fill:#666666" width="1" height="1" x="45" y="715.36"/>
  <rect style="fill:#666666" width="1" height="1" x="45" y="717.36"/>
  <rect style="fill:#666666" width="1" height="1" x="45" y="719.36"/>
  <rect style="fill:#666666" width="1" height="1" x="45" y="721.36"/>
  <rect style="fill:#666666" width="1" height="1" x="59" y="709.36"/>
  <rect style="fill:#666666" width="1" height="1" x="59" y="711.36"/>
  <rect style="fill:#666666" width="1" height="1" x="59" y="713.36"/>
  <rect style="fill:#666666" width="1" height="1" x="59" y="715.36"/>
  <rect style="fill:#666666" width="1" height="1" x="59" y="717.36"/>
  <rect style="fill:#666666" width="1" height="1" x="59" y="719.36"/>
  <rect style="fill:#666666" width="1" height="1" x="59" y="721.36"/>
  <rect style="fill:#666666" width="1" height="1" x="47" y="721.36"/>
  <rect style="fill:#666666" width="1" height="1" x="49" y="721.36"/>
  <rect style="fill:#666666" width="1" height="1" x="51" y="721.36"/>
  <rect style="fill:#666666" width="1" height="1" x="53" y="721.36"/>
  <rect style="fill:#666666" width="1" height="1" x="55" y="721.36"/>
  <rect style="fill:#666666" width="1" height="1" x="57" y="721.36"/>
  <path style="fill:#666666" d="M 47,715.36 V 720.36 H 55 V 717.86 C 54.833,717.88 54.672,717.92 54.5,717.92 52.723,717.92 51.2,716.88 50.469,715.36 Z"/>
  <ellipse style="fill:#666666" cx="54.5" cy="713.37" rx="3.5" ry="3.5"/>
 </g>
</svg>
