<svg xmlns="http://www.w3.org/2000/svg" xmlns:osb="http://www.openswatchbook.org/uri/2009/osb" width="16.062" height="16.125" version="1.1" viewBox="0 0 16.06 16.13">
 <defs>
  <linearGradient id="linearGradient19282" gradientTransform="matrix(0,0,0,0,-1.1046e8,-6308800)" osb:paint="solid">
   <stop style="stop-color:#666666" offset="0"/>
  </linearGradient>
 </defs>
 <g transform="translate(-45,-747.36)">
  <rect style="fill:none" width="16" height="16" x="45.06" y="747.49"/>
  <rect style="fill:url(#linearGradient19282)" width="1" height="1" x="45" y="747.36"/>
  <rect style="fill:url(#linearGradient19282)" width="1" height="1" x="47.06" y="747.49"/>
  <rect style="fill:url(#linearGradient19282)" width="1" height="1" x="49.06" y="747.49"/>
  <rect style="fill:url(#linearGradient19282)" width="1" height="1" x="51.06" y="747.49"/>
  <rect style="fill:url(#linearGradient19282)" width="1" height="1" x="53.06" y="747.49"/>
  <rect style="fill:url(#linearGradient19282)" width="1" height="1" x="55.06" y="747.49"/>
  <rect style="fill:url(#linearGradient19282)" width="1" height="1" x="57.06" y="747.49"/>
  <rect style="fill:url(#linearGradient19282)" width="1" height="1" x="59.06" y="747.49"/>
  <rect style="fill:url(#linearGradient19282)" width="1" height="1" x="45.06" y="749.49"/>
  <rect style="fill:url(#linearGradient19282)" width="1" height="1" x="45.06" y="751.49"/>
  <rect style="fill:url(#linearGradient19282)" width="1" height="1" x="45.06" y="753.49"/>
  <rect style="fill:url(#linearGradient19282)" width="1" height="1" x="45.06" y="755.49"/>
  <rect style="fill:url(#linearGradient19282)" width="1" height="1" x="45.06" y="757.49"/>
  <rect style="fill:url(#linearGradient19282)" width="1" height="1" x="45.06" y="759.49"/>
  <rect style="fill:url(#linearGradient19282)" width="1" height="1" x="45.06" y="761.49"/>
  <rect style="fill:url(#linearGradient19282)" width="1" height="1" x="59.06" y="749.49"/>
  <rect style="fill:url(#linearGradient19282)" width="1" height="1" x="59.06" y="751.49"/>
  <rect style="fill:url(#linearGradient19282)" width="1" height="1" x="59.06" y="753.49"/>
  <rect style="fill:url(#linearGradient19282)" width="1" height="1" x="59.06" y="755.49"/>
  <rect style="fill:url(#linearGradient19282)" width="1" height="1" x="59.06" y="757.49"/>
  <rect style="fill:url(#linearGradient19282)" width="1" height="1" x="59.06" y="759.49"/>
  <rect style="fill:url(#linearGradient19282)" width="1" height="1" x="59.06" y="761.49"/>
  <rect style="fill:url(#linearGradient19282)" width="1" height="1" x="47.06" y="761.49"/>
  <rect style="fill:url(#linearGradient19282)" width="1" height="1" x="49.06" y="761.49"/>
  <rect style="fill:url(#linearGradient19282)" width="1" height="1" x="51.06" y="761.49"/>
  <rect style="fill:url(#linearGradient19282)" width="1" height="1" x="53.06" y="761.49"/>
  <rect style="fill:url(#linearGradient19282)" width="1" height="1" x="55.06" y="761.49"/>
  <rect style="fill:url(#linearGradient19282)" width="1" height="1" x="57.06" y="761.49"/>
  <rect style="fill:url(#linearGradient19282)" width="1" height="1" x="48" y="750.36"/>
  <rect style="fill:url(#linearGradient19282)" width="1" height="1" x="48" y="752.36"/>
  <rect style="fill:url(#linearGradient19282)" width="1" height="1" x="48" y="754.36"/>
  <rect style="fill:url(#linearGradient19282)" width="1" height="1" x="48" y="756.36"/>
  <rect style="fill:url(#linearGradient19282)" width="1" height="1" x="48" y="758.36"/>
  <rect style="fill:url(#linearGradient19282)" width="1" height="1" x="50" y="750.36"/>
  <rect style="fill:url(#linearGradient19282)" width="1" height="1" x="52" y="750.36"/>
  <rect style="fill:url(#linearGradient19282)" width="1" height="1" x="54" y="750.36"/>
  <rect style="fill:url(#linearGradient19282)" width="1" height="1" x="56" y="750.36"/>
  <rect style="fill:url(#linearGradient19282)" width="1" height="1" x="56" y="752.36"/>
  <rect style="fill:url(#linearGradient19282)" width="1" height="1" x="56" y="754.36"/>
  <rect style="fill:url(#linearGradient19282)" width="1" height="1" x="56" y="756.36"/>
  <rect style="fill:url(#linearGradient19282)" width="1" height="1" x="56" y="758.36"/>
  <rect style="fill:url(#linearGradient19282)" width="1" height="1" x="50" y="758.36"/>
  <rect style="fill:url(#linearGradient19282)" width="1" height="1" x="52" y="758.36"/>
  <rect style="fill:url(#linearGradient19282)" width="1" height="1" x="54" y="758.36"/>
 </g>
</svg>
