<?xml version="1.0" encoding="UTF-8" standalone="no"?>
<!-- Created with Inkscape (http://www.inkscape.org/) -->

<svg
  xmlns:osb="http://www.openswatchbook.org/uri/2009/osb"
  xmlns:dc="http://purl.org/dc/elements/1.1/"
  xmlns:cc="http://creativecommons.org/ns#"
  xmlns:rdf="http://www.w3.org/1999/02/22-rdf-syntax-ns#"
  xmlns:svg="http://www.w3.org/2000/svg"
  xmlns="http://www.w3.org/2000/svg"
  xmlns:sodipodi="http://sodipodi.sourceforge.net/DTD/sodipodi-0.dtd"
  xmlns:inkscape="http://www.inkscape.org/namespaces/inkscape"
  width="16"
  height="16"
  id="svg15638"
  version="1.1"
  inkscape:version="0.92.2 (unknown)"
  sodipodi:docname="edit-paste-in-place.svg"
  viewBox="0 0 16 16">
 <title
   id="title9623">Inkscape Icon Theme</title>
 <defs
   id="defs15640">
  <!--<inkscape:path-effect effect="spiro" id="path-effect36695" is_visible="true" />-->
  <linearGradient
    id="linearGradient19282"
    osb:paint="solid"
    gradientTransform="matrix(0,0,0,0,-1.1046e8,-6316300)">
   <stop
     style="stop-color:#666666;stop-opacity:1"
     offset="0"
     id="stop19284" />
  </linearGradient>
 </defs>
 <sodipodi:namedview
   id="base"
   pagecolor="#f2f2f2"
   bordercolor="#666666"
   borderopacity="1.0"
   inkscape:pageopacity="0"
   inkscape:pageshadow="2"
   inkscape:zoom="0.76028"
   inkscape:cx="315.83"
   inkscape:cy="-238.96"
   inkscape:document-units="px"
   inkscape:current-layer="layer1"
   showgrid="false"
   inkscape:window-width="1280"
   inkscape:window-height="960"
   inkscape:window-x="0"
   inkscape:window-y="27"
   inkscape:window-maximized="1"
   inkscape:snap-bbox="true"
   inkscape:bbox-paths="false"
   inkscape:bbox-nodes="true"
   inkscape:snap-global="false"
   showguides="false"
   inkscape:guide-bbox="true"
   inkscape:snap-nodes="false"
   inkscape:snap-object-midpoints="false"
   inkscape:snap-grids="true"
   inkscape:snap-to-guides="true"
   borderlayer="true"
   inkscape:showpageshadow="false"
   showborder="true"
   inkscape:snap-bbox-edge-midpoints="false"
   inkscape:object-nodes="true"
   inkscape:snap-intersection-paths="false"
   inkscape:snap-center="true">
  <inkscape:grid
    type="xygrid"
    id="grid15646"
    empspacing="5"
    visible="true"
    enabled="true"
    snapvisiblegridlinesonly="true"
    originx="-45.07"
    originy="-608.94" />
 </sodipodi:namedview>
 <metadata
   id="metadata15643">
  <rdf:RDF>
   <cc:Work
     rdf:about="">
    <dc:format>image/svg+xml</dc:format>
    <dc:type
      rdf:resource="http://purl.org/dc/dcmitype/StillImage" />
    <dc:title>Inkscape Icon Theme</dc:title>
    <dc:creator>
     <cc:Agent>
      <dc:title>Barbara Muraus</dc:title>
     </cc:Agent>
    </dc:creator>
    <dc:contributor>
     <cc:Agent>
      <dc:title>Jakub Steiner, Josh Andler</dc:title>
     </cc:Agent>
    </dc:contributor>
   </cc:Work>
  </rdf:RDF>
 </metadata>
 <g
   inkscape:label="Layer 1"
   inkscape:groupmode="layer"
   id="layer1"
   transform="translate(-45.07,-547.42)">
  <rect
    style="fill:none"
    id="rect14038"
    width="16"
    height="15.938"
    x="45.07"
    y="547.48"
    rx="0" />
  <rect
    style="fill:url(#linearGradient19282)"
    id="rect6874"
    width="6"
    height="2.9883"
    x="50"
    y="547.42"
    rx="0.53033"
    ry="0.53033" />
  <path
    style="fill:url(#linearGradient19282)"
    d="M 49,552.41 V 560.37 H 55 L 57,558.38 V 552.41 Z M 52,553.4 H 54 V 556.39 H 56 L 53,559.38 50,556.39 H 52 Z"
    id="path6973"
    inkscape:connector-curvature="0" />
  <path
    style="fill:url(#linearGradient19282)"
    d="M 46.531,548.42 C 46.489,548.42 46.446,548.44 46.406,548.45 46.172,548.51 45.999,548.7 46,548.95 L 46.031,555.92 46,562.9 C 45.999,563.15 46.172,563.34 46.406,563.39 46.47,563.42 46.52,563.43 46.594,563.42 H 49 L 59.469,563.36 C 59.763,563.36 60,563.13 60,562.83 V 557.45 554.4 549.01 C 60,548.72 59.763,548.48 59.469,548.48 H 57 V 549.48 H 58.469 C 58.763,549.48 59,549.72 59,550.01 V 554.4 557.45 561.84 C 59,562.13 58.763,562.36 58.469,562.37 L 49,562.43 H 47.594 C 47.57,562.43 47.554,562.43 47.531,562.43 47.489,562.43 47.446,562.41 47.406,562.4 47.216,562.32 47.064,562.12 47.063,561.9 L 47.031,555.92 47.063,549.95 C 47.064,549.73 47.216,549.53 47.406,549.45 47.446,549.44 47.489,549.42 47.531,549.42 H 49 V 548.42 Z"
    id="path6977"
    inkscape:connector-curvature="0" />
 </g>
</svg>
