<svg xmlns="http://www.w3.org/2000/svg" xmlns:osb="http://www.openswatchbook.org/uri/2009/osb" width="24.031" height="24" version="1.1" viewBox="0 0 24.03 24">
 <defs>
  <linearGradient id="linearGradient19282" gradientTransform="matrix(0,0,0,0,-1.1046e8,-6312300)" osb:paint="solid">
   <stop style="stop-color:#666666" offset="0"/>
  </linearGradient>
 </defs>
 <g transform="translate(-1294,-823.36)">
  <rect style="fill:none" width="24" height="24" x="1294" y="823.36"/>
  <path style="fill:url(#linearGradient19282)" d="M 1299.2,847.27 1298.1,847.33 1298.1,846.33 1299,846.3 Z M 1297.3,846.17 1296.9,847.08 1296,846.58 1296.5,845.74 Z M 1300.6,845.61 1301.3,846.39 1300.3,846.98 1299.9,846.05 Z M 1295.9,845.17 1295.1,845.83 1294.5,844.95 1295.3,844.45 Z M 1302.7,844.27 V 847.11 L 1299.9,844.27 Z M 1295,842.77 1295.1,843.67 1294.1,843.83 1294,842.74 Z M 1302.9,843.45 1301.9,843.36 1302,842.45 1302.9,842.36 Z M 1302.7,841.29 1301.7,841.58 1301.4,840.86 1302.2,840.24 Z M 1300.5,838.83 1301.4,839.45 1300.8,840.2 1300,839.74 Z M 1294.2,838.61 1297.1,841.45 H 1294.2 Z M 1297.5,839.52 1296.7,839.89 1296.2,839.02 1297.2,838.58 Z M 1299.5,838.45 1299.2,839.45 1298.4,839.36 1298.3,838.39 Z"/>
  <rect style="fill:url(#linearGradient19282)" width="9" height="9" x="1298" y="823.36" ry="1"/>
  <rect style="fill:url(#linearGradient19282)" width="9" height="9" x="1308" y="833.36" ry="1"/>
  <path style="fill:url(#linearGradient19282)" d="M 1308,826.36 V 827.36 H 1311 A 1,1 0 0 1 1312,828.36 V 829.36 H 1310 L 1312.5,832.36 1315,829.36 H 1313 V 828.36 A 2,2 0 0 0 1311,826.36 Z"/>
  <path style="fill:url(#linearGradient19282)" d="M 1307,839.36 V 838.36 H 1304 A 1,1 0 0 1 1303,837.36 V 836.36 H 1305 L 1302.5,833.36 1300,836.36 H 1302 V 837.36 A 2,2 0 0 0 1304,839.36 Z"/>
 </g>
</svg>
