<svg xmlns="http://www.w3.org/2000/svg" xmlns:osb="http://www.openswatchbook.org/uri/2009/osb" width="24" height="24" version="1.1" viewBox="0 0 24 24">
 <defs>
  <linearGradient id="linearGradient19282" gradientTransform="matrix(0,0,0,0,-1.1046e8,-6312600)" osb:paint="solid">
   <stop style="stop-color:#666666" offset="0"/>
  </linearGradient>
 </defs>
 <g transform="translate(-1230,-823.36)">
  <rect style="fill:none" width="24" height="24" x="1230" y="823.36"/>
  <path style="fill:url(#linearGradient19282)" d="M 1233.3,839.36 1233.3,846.49 1234.8,844.86 1235.6,847.36 1237.3,846.55 1236,844.33 1238,844.36 1233.3,839.36 Z"/>
  <path style="fill:url(#linearGradient19282)" d="M 1244,826.36 V 827.36 H 1247 A 1,1 0 0 1 1248,828.36 V 829.36 H 1246 L 1248.5,832.36 1251,829.36 H 1249 V 828.36 A 2,2 0 0 0 1247,826.36 Z"/>
  <rect style="fill:url(#linearGradient19282)" width="9" height="9" x="1234" y="823.36" ry="1"/>
  <rect style="fill:url(#linearGradient19282)" width="9" height="9" x="1244" y="833.36" ry="1"/>
  <path style="fill:url(#linearGradient19282)" d="M 1243,839.36 V 838.36 H 1240 A 1,1 0 0 1 1239,837.36 V 836.36 H 1241 L 1238.5,833.36 1236,836.36 H 1238 V 837.36 A 2,2 0 0 0 1240,839.36 Z"/>
 </g>
</svg>
