<?xml version="1.0" encoding="UTF-8" standalone="no"?>
<!-- Created with Inkscape (http://www.inkscape.org/) -->

<svg
  xmlns:dc="http://purl.org/dc/elements/1.1/"
  xmlns:cc="http://creativecommons.org/ns#"
  xmlns:rdf="http://www.w3.org/1999/02/22-rdf-syntax-ns#"
  xmlns:svg="http://www.w3.org/2000/svg"
  xmlns="http://www.w3.org/2000/svg"
  xmlns:sodipodi="http://sodipodi.sourceforge.net/DTD/sodipodi-0.dtd"
  xmlns:inkscape="http://www.inkscape.org/namespaces/inkscape"
  width="15.721"
  height="15.721"
  id="svg15638"
  version="1.1"
  inkscape:version="0.92.2 (unknown)"
  sodipodi:docname="flatten.svg"
  viewBox="0 0 15.721 15.721">
 <title
   id="title9623">Inkscape Icon Theme</title>
 <defs
   id="defs15640">
  <!--<inkscape:path-effect effect="spiro" id="path-effect36695" is_visible="true" />-->
 </defs>
 <sodipodi:namedview
   id="base"
   pagecolor="#f2f2f2"
   bordercolor="#666666"
   borderopacity="1.0"
   inkscape:pageopacity="0"
   inkscape:pageshadow="2"
   inkscape:zoom="0.76028"
   inkscape:cx="-17.611"
   inkscape:cy="-73.968"
   inkscape:document-units="px"
   inkscape:current-layer="layer1"
   showgrid="false"
   inkscape:window-width="1280"
   inkscape:window-height="960"
   inkscape:window-x="0"
   inkscape:window-y="27"
   inkscape:window-maximized="1"
   inkscape:snap-bbox="true"
   inkscape:bbox-paths="false"
   inkscape:bbox-nodes="true"
   inkscape:snap-global="false"
   showguides="false"
   inkscape:guide-bbox="true"
   inkscape:snap-nodes="false"
   inkscape:snap-object-midpoints="false"
   inkscape:snap-grids="true"
   inkscape:snap-to-guides="true"
   borderlayer="true"
   inkscape:showpageshadow="false"
   showborder="true"
   inkscape:snap-bbox-edge-midpoints="false"
   inkscape:object-nodes="true"
   inkscape:snap-intersection-paths="false"
   inkscape:snap-center="true">
  <inkscape:grid
    type="xygrid"
    id="grid15646"
    empspacing="5"
    visible="true"
    enabled="true"
    snapvisiblegridlinesonly="true"
    originx="-378.51"
    originy="-443.95" />
 </sodipodi:namedview>
 <metadata
   id="metadata15643">
  <rdf:RDF>
   <cc:Work
     rdf:about="">
    <dc:format>image/svg+xml</dc:format>
    <dc:type
      rdf:resource="http://purl.org/dc/dcmitype/StillImage" />
    <dc:title>Inkscape Icon Theme</dc:title>
    <dc:creator>
     <cc:Agent>
      <dc:title>Barbara Muraus</dc:title>
     </cc:Agent>
    </dc:creator>
    <dc:contributor>
     <cc:Agent>
      <dc:title>Jakub Steiner, Josh Andler</dc:title>
     </cc:Agent>
    </dc:contributor>
   </cc:Work>
  </rdf:RDF>
 </metadata>
 <g
   inkscape:label="Layer 1"
   inkscape:groupmode="layer"
   id="layer1"
   transform="translate(-378.51,-712.69)">
  <rect
    style="color:#000000;display:inline;fill:none;stroke:none;stroke-width:1;marker:none"
    id="rect13989"
    width="15.721"
    height="15.721"
    x="378.51"
    y="712.69" />
  <path
    id="path14280"
    d="M 390.1,717.41 A 1.9925,2.0804 0 0 0 388.18,718.94 C 387.24,719.21 386.28,719.64 385.37,720.33 385.14,720.51 384.93,720.64 384.72,720.78 A 1.9925,2.0804 0 0 0 383.42,720.28 1.9925,2.0804 0 0 0 381.44,722.2 C 380.52,722.37 379.72,722.35 379.03,722.35 L 379.02,723.85 C 379.71,723.85 380.68,723.86 381.84,723.62 A 1.9925,2.0804 0 0 0 383.42,724.44 1.9925,2.0804 0 0 0 385.41,722.36 1.9925,2.0804 0 0 0 385.4,722.13 C 385.69,721.94 385.98,721.75 386.28,721.52 386.95,721.01 387.64,720.67 388.33,720.45 A 1.9925,2.0804 0 0 0 390.1,721.57 1.9925,2.0804 0 0 0 392.01,720.07 C 392.74,720.1 393.41,720.16 393.97,720.16 V 718.66 C 393.5,718.66 392.76,718.57 391.87,718.54 A 1.9925,2.0804 0 0 0 390.1,717.41 Z M 390.1,718.52 A 0.92609,0.96695 0 0 1 391.03,719.49 0.92609,0.96695 0 0 1 390.1,720.46 0.92609,0.96695 0 0 1 389.18,719.49 0.92609,0.96695 0 0 1 390.1,718.52 Z M 383.42,721.4 A 0.92609,0.96695 0 0 1 384.35,722.36 0.92609,0.96695 0 0 1 383.42,723.33 0.92609,0.96695 0 0 1 382.5,722.36 0.92609,0.96695 0 0 1 383.42,721.4 Z"
    style="color:#000000;font-style:normal;font-variant:normal;font-weight:normal;font-stretch:normal;font-size:medium;line-height:normal;font-family:sans-serif;text-indent:0;text-align:start;text-decoration:none;text-decoration-line:none;text-decoration-style:solid;text-decoration-color:#000000;letter-spacing:normal;word-spacing:normal;text-transform:none;writing-mode:lr-tb;direction:ltr;baseline-shift:baseline;text-anchor:start;white-space:normal;clip-rule:nonzero;display:inline;overflow:visible;visibility:visible;opacity:1;isolation:auto;mix-blend-mode:normal;color-interpolation:sRGB;color-interpolation-filters:linearRGB;solid-color:#000000;solid-opacity:1;fill:#666666;fill-opacity:1;fill-rule:evenodd;stroke:none;stroke-width:1.5;stroke-linecap:butt;stroke-linejoin:miter;stroke-miterlimit:4;stroke-dasharray:none;stroke-dashoffset:0;stroke-opacity:1;color-rendering:auto;image-rendering:auto;shape-rendering:auto;text-rendering:auto;enable-background:accumulate"
    inkscape:connector-curvature="0" />
 </g>
</svg>
