<svg xmlns="http://www.w3.org/2000/svg" width="15.721" height="15.721" version="1.1" viewBox="0 0 15.72 15.72">
 <g transform="translate(-378.51,-712.69)">
  <rect style="fill:none" width="15.721" height="15.721" x="378.51" y="712.69"/>
  <path style="fill:#666666;fill-rule:evenodd" d="M 390.1,717.41 A 1.9925,2.0804 0 0 0 388.18,718.94 C 387.24,719.21 386.28,719.64 385.37,720.33 385.14,720.51 384.93,720.64 384.72,720.78 A 1.9925,2.0804 0 0 0 383.42,720.28 1.9925,2.0804 0 0 0 381.44,722.2 C 380.52,722.37 379.72,722.35 379.03,722.35 L 379.02,723.85 C 379.71,723.85 380.68,723.86 381.84,723.62 A 1.9925,2.0804 0 0 0 383.42,724.44 1.9925,2.0804 0 0 0 385.41,722.36 1.9925,2.0804 0 0 0 385.4,722.13 C 385.69,721.94 385.98,721.75 386.28,721.52 386.95,721.01 387.64,720.67 388.33,720.45 A 1.9925,2.0804 0 0 0 390.1,721.57 1.9925,2.0804 0 0 0 392.01,720.07 C 392.74,720.1 393.41,720.16 393.97,720.16 V 718.66 C 393.5,718.66 392.76,718.57 391.87,718.54 A 1.9925,2.0804 0 0 0 390.1,717.41 Z M 390.1,718.52 A 0.92609,0.96695 0 0 1 391.03,719.49 0.92609,0.96695 0 0 1 390.1,720.46 0.92609,0.96695 0 0 1 389.18,719.49 0.92609,0.96695 0 0 1 390.1,718.52 Z M 383.42,721.4 A 0.92609,0.96695 0 0 1 384.35,722.36 0.92609,0.96695 0 0 1 383.42,723.33 0.92609,0.96695 0 0 1 382.5,722.36 0.92609,0.96695 0 0 1 383.42,721.4 Z"/>
 </g>
</svg>
