<?xml version="1.0" encoding="UTF-8" standalone="no"?>
<!-- Created with Inkscape (http://www.inkscape.org/) -->

<svg
  xmlns:osb="http://www.openswatchbook.org/uri/2009/osb"
  xmlns:dc="http://purl.org/dc/elements/1.1/"
  xmlns:cc="http://creativecommons.org/ns#"
  xmlns:rdf="http://www.w3.org/1999/02/22-rdf-syntax-ns#"
  xmlns:svg="http://www.w3.org/2000/svg"
  xmlns="http://www.w3.org/2000/svg"
  xmlns:sodipodi="http://sodipodi.sourceforge.net/DTD/sodipodi-0.dtd"
  xmlns:inkscape="http://www.inkscape.org/namespaces/inkscape"
  width="16.088"
  height="16"
  id="svg15638"
  version="1.1"
  inkscape:version="0.92.2 (unknown)"
  sodipodi:docname="help-keyboard-shortcuts.svg"
  viewBox="0 0 16.088 16">
 <title
   id="title9623">Inkscape Icon Theme</title>
 <defs
   id="defs15640">
  <!--<inkscape:path-effect effect="spiro" id="path-effect36695" is_visible="true" />-->
  <linearGradient
    id="linearGradient19282"
    osb:paint="solid"
    gradientTransform="matrix(0,0,0,0,3879900,-1.1009e8)">
   <stop
     style="stop-color:#666666;stop-opacity:1"
     offset="0"
     id="stop19284" />
  </linearGradient>
 </defs>
 <sodipodi:namedview
   id="base"
   pagecolor="#f2f2f2"
   bordercolor="#666666"
   borderopacity="1.0"
   inkscape:pageopacity="0"
   inkscape:pageshadow="2"
   inkscape:zoom="0.76028"
   inkscape:cx="135.99"
   inkscape:cy="-259.02"
   inkscape:document-units="px"
   inkscape:current-layer="layer1"
   showgrid="false"
   inkscape:window-width="1280"
   inkscape:window-height="960"
   inkscape:window-x="0"
   inkscape:window-y="27"
   inkscape:window-maximized="1"
   inkscape:snap-bbox="true"
   inkscape:bbox-paths="false"
   inkscape:bbox-nodes="true"
   inkscape:snap-global="false"
   showguides="false"
   inkscape:guide-bbox="true"
   inkscape:snap-nodes="false"
   inkscape:snap-object-midpoints="false"
   inkscape:snap-grids="true"
   inkscape:snap-to-guides="true"
   borderlayer="true"
   inkscape:showpageshadow="false"
   showborder="true"
   inkscape:snap-bbox-edge-midpoints="false"
   inkscape:object-nodes="true"
   inkscape:snap-intersection-paths="false"
   inkscape:snap-center="true">
  <inkscape:grid
    type="xygrid"
    id="grid15646"
    empspacing="5"
    visible="true"
    enabled="true"
    snapvisiblegridlinesonly="true"
    originx="-224.91"
    originy="-629" />
 </sodipodi:namedview>
 <metadata
   id="metadata15643">
  <rdf:RDF>
   <cc:Work
     rdf:about="">
    <dc:format>image/svg+xml</dc:format>
    <dc:type
      rdf:resource="http://purl.org/dc/dcmitype/StillImage" />
    <dc:title>Inkscape Icon Theme</dc:title>
    <dc:creator>
     <cc:Agent>
      <dc:title>Barbara Muraus</dc:title>
     </cc:Agent>
    </dc:creator>
    <dc:contributor>
     <cc:Agent>
      <dc:title>Jakub Steiner, Josh Andler</dc:title>
     </cc:Agent>
    </dc:contributor>
   </cc:Work>
  </rdf:RDF>
 </metadata>
 <g
   inkscape:label="Layer 1"
   inkscape:groupmode="layer"
   id="layer1"
   transform="translate(-224.91,-527.36)">
  <rect
    style="fill:none"
    id="rect18842"
    width="16"
    height="16"
    x="225"
    y="527.36" />
  <path
    inkscape:connector-curvature="0"
    id="path3940-4"
    d="M 229.98,535.82 C 229.99,537.18 228.87,538.31 227.49,538.32 226.11,538.33 224.97,537.21 224.96,535.86 224.95,534.5 226.07,533.36 227.45,533.35 228.83,533.34 229.97,534.46 229.98,535.82 Z M 228.53,535.83 C 228.52,535.22 228.05,534.76 227.46,534.76 226.87,534.76 226.4,535.24 226.41,535.84 226.41,536.45 226.89,536.92 227.48,536.91 228.07,536.91 228.53,536.44 228.53,535.83 Z"
    style="color:#000000;-inkscape-font-specification:Sans;fill:url(#linearGradient19282);stroke-width:4.79444" />
  <path
    inkscape:connector-curvature="0"
    id="path3942-0"
    d="M 229.93,529.84 C 229.94,531.19 228.83,532.32 227.44,532.34 226.05,532.35 224.92,531.23 224.91,529.88 224.9,528.52 226.02,527.39 227.41,527.38 228.8,527.37 229.92,528.49 229.93,529.84 Z M 228.48,529.85 C 228.48,529.24 228.01,528.78 227.42,528.78 226.83,528.79 226.36,529.26 226.36,529.87 226.37,530.48 226.84,530.93 227.43,530.93 228.02,530.92 228.49,530.46 228.48,529.85 Z"
    style="color:#000000;-inkscape-font-specification:Sans;fill:url(#linearGradient19282);stroke-width:4.79444" />
  <path
    sodipodi:nodetypes="ccccccccccccc"
    inkscape:connector-curvature="0"
    style="fill:url(#linearGradient19282);stroke-width:0.9989"
    d="M 235.97,536.14 C 235.6,536.88 234.77,537.12 234.1,536.71 L 229.07,533.71 227.46,534.92 226.01,533.96 227.72,532.85 226,531.78 227.37,530.81 229.06,531.96 234.05,528.9 C 234.7,528.48 235.54,528.7 235.92,529.43 L 230.45,532.83 Z"
    id="rect4875-9" />
  <rect
    style="fill:url(#linearGradient19282)"
    id="rect24427"
    width="2"
    height="1"
    x="235"
    y="532.36" />
  <rect
    style="fill:url(#linearGradient19282)"
    id="rect24429"
    width="2"
    height="1"
    x="238"
    y="532.36" />
  <rect
    style="fill:url(#linearGradient19282)"
    id="rect24431"
    width="1"
    height="2"
    x="239"
    y="534.36" />
  <rect
    style="fill:url(#linearGradient19282)"
    id="rect24433"
    width="1"
    height="2"
    x="239"
    y="537.36" />
  <rect
    style="fill:url(#linearGradient19282)"
    id="rect24437"
    width="2"
    height="1"
    x="238"
    y="540.36" />
  <rect
    y="540.36"
    x="235"
    height="1"
    width="2"
    id="rect24439"
    style="fill:url(#linearGradient19282)" />
  <rect
    style="fill:url(#linearGradient19282)"
    id="rect24441"
    width="2"
    height="1"
    x="232"
    y="540.36" />
  <rect
    y="540.36"
    x="229"
    height="1"
    width="2"
    id="rect24443"
    style="fill:url(#linearGradient19282)" />
  <rect
    style="fill:url(#linearGradient19282)"
    id="rect24445"
    width="2"
    height="1"
    x="226"
    y="540.36" />
 </g>
</svg>
