<svg xmlns="http://www.w3.org/2000/svg" xmlns:osb="http://www.openswatchbook.org/uri/2009/osb" width="16" height="16" version="1.1" viewBox="0 0 16 16">
 <defs>
  <linearGradient id="linearGradient19282" gradientTransform="matrix(0,0,0,0,-1.1046e8,-6315800)" osb:paint="solid">
   <stop style="stop-color:#666666" offset="0"/>
  </linearGradient>
 </defs>
 <g transform="translate(-105,-547.36)">
  <rect style="fill:none" width="16" height="16" x="105" y="547.36" rx="0" ry="1"/>
  <path style="fill:url(#linearGradient19282)" d="M 106,561.36 109,558.36 H 120 L 117,561.36 Z"/>
  <path style="fill:url(#linearGradient19282)" d="M 107,548.36 H 108 L 108.5,548.99 109,548.36 H 110 V 549.36 H 107 Z"/>
  <rect style="fill:url(#linearGradient19282)" width="1" height="6" x="108" y="549.36"/>
  <path style="fill:url(#linearGradient19282)" d="M 107,556.36 H 108 L 108.5,555.74 109,556.36 H 110 V 555.36 H 107 Z"/>
  <path style="fill:url(#linearGradient19282)" d="M 116,549.36 C 116,554.48 116,551.97 116.03,554.92 V 555.36 H 116.5 118.78 C 120.46,555.43 120.39,551.24 118.75,551.36 118.74,551.36 118.73,551.36 118.72,551.36 H 117 V 549.36 Z M 117,552.36 H 118.81 118.84 118.87 C 119.24,552.32 119.31,554.38 118.87,554.36 H 118.84 117 C 116.99,553.88 117,552.51 117,552.36 Z"/>
  <path style="fill:url(#linearGradient19282)" d="M 111.99,550.39 V 551.42 C 112.51,551.42 112.95,551.42 113.4,551.42 114.21,551.43 114.02,552.3 114,552.36 H 112 V 552.36 C 110.48,552.43 110.37,555.36 112,555.36 L 114.53,555.39 H 114.97 V 554.96 L 115,551.8 C 115,551.43 114.9,551.08 114.69,550.83 114.48,550.58 114.16,550.43 113.84,550.39 H 113.81 Z M 112.18,553.36 H 112.21 112.24 114 V 554.36 H 112.15 112.12 C 111.75,554.35 111.78,553.32 112.18,553.36 Z"/>
 </g>
</svg>
