<?xml version="1.0" encoding="UTF-8" standalone="no"?>
<!-- Created with Inkscape (http://www.inkscape.org/) -->

<svg
  xmlns:osb="http://www.openswatchbook.org/uri/2009/osb"
  xmlns:dc="http://purl.org/dc/elements/1.1/"
  xmlns:cc="http://creativecommons.org/ns#"
  xmlns:rdf="http://www.w3.org/1999/02/22-rdf-syntax-ns#"
  xmlns:svg="http://www.w3.org/2000/svg"
  xmlns="http://www.w3.org/2000/svg"
  xmlns:sodipodi="http://sodipodi.sourceforge.net/DTD/sodipodi-0.dtd"
  xmlns:inkscape="http://www.inkscape.org/namespaces/inkscape"
  width="16"
  height="16"
  id="svg15638"
  version="1.1"
  inkscape:version="0.92.2 (unknown)"
  sodipodi:docname="layer-rename.svg"
  viewBox="0 0 16 16">
 <title
   id="title9623">Inkscape Icon Theme</title>
 <defs
   id="defs15640">
  <!--<inkscape:path-effect effect="spiro" id="path-effect36695" is_visible="true" />-->
  <linearGradient
    id="linearGradient19282"
    osb:paint="solid"
    gradientTransform="matrix(0,0,0,0,-1.1046e8,-6315800)">
   <stop
     style="stop-color:#666666;stop-opacity:1"
     offset="0"
     id="stop19284" />
  </linearGradient>
 </defs>
 <sodipodi:namedview
   id="base"
   pagecolor="#f2f2f2"
   bordercolor="#666666"
   borderopacity="1.0"
   inkscape:pageopacity="0"
   inkscape:pageshadow="2"
   inkscape:zoom="0.76028"
   inkscape:cx="255.9"
   inkscape:cy="-239.02"
   inkscape:document-units="px"
   inkscape:current-layer="layer1"
   showgrid="false"
   inkscape:window-width="1280"
   inkscape:window-height="960"
   inkscape:window-x="0"
   inkscape:window-y="27"
   inkscape:window-maximized="1"
   inkscape:snap-bbox="true"
   inkscape:bbox-paths="false"
   inkscape:bbox-nodes="true"
   inkscape:snap-global="false"
   showguides="false"
   inkscape:guide-bbox="true"
   inkscape:snap-nodes="false"
   inkscape:snap-object-midpoints="false"
   inkscape:snap-grids="true"
   inkscape:snap-to-guides="true"
   borderlayer="true"
   inkscape:showpageshadow="false"
   showborder="true"
   inkscape:snap-bbox-edge-midpoints="false"
   inkscape:object-nodes="true"
   inkscape:snap-intersection-paths="false"
   inkscape:snap-center="true">
  <inkscape:grid
    type="xygrid"
    id="grid15646"
    empspacing="5"
    visible="true"
    enabled="true"
    snapvisiblegridlinesonly="true"
    originx="-105"
    originy="-609" />
 </sodipodi:namedview>
 <metadata
   id="metadata15643">
  <rdf:RDF>
   <cc:Work
     rdf:about="">
    <dc:format>image/svg+xml</dc:format>
    <dc:type
      rdf:resource="http://purl.org/dc/dcmitype/StillImage" />
    <dc:title>Inkscape Icon Theme</dc:title>
    <dc:creator>
     <cc:Agent>
      <dc:title>Barbara Muraus</dc:title>
     </cc:Agent>
    </dc:creator>
    <dc:contributor>
     <cc:Agent>
      <dc:title>Jakub Steiner, Josh Andler</dc:title>
     </cc:Agent>
    </dc:contributor>
   </cc:Work>
  </rdf:RDF>
 </metadata>
 <g
   inkscape:label="Layer 1"
   inkscape:groupmode="layer"
   id="layer1"
   transform="translate(-105,-547.36)">
  <rect
    ry="1"
    rx="0"
    y="547.36"
    x="105"
    height="16"
    width="16"
    id="rect11721"
    style="fill:none" />
  <path
    style="fill:url(#linearGradient19282)"
    d="M 106,561.36 109,558.36 H 120 L 117,561.36 Z"
    id="path11723"
    inkscape:connector-curvature="0"
    sodipodi:nodetypes="ccccc" />
  <path
    style="fill:url(#linearGradient19282)"
    d="M 107,548.36 H 108 L 108.5,548.99 109,548.36 H 110 V 549.36 H 107 Z"
    id="rect11733"
    inkscape:connector-curvature="0"
    sodipodi:nodetypes="cccccccc" />
  <rect
    style="fill:url(#linearGradient19282)"
    id="rect11735"
    width="1"
    height="6"
    x="108"
    y="549.36" />
  <path
    sodipodi:nodetypes="cccccccc"
    inkscape:connector-curvature="0"
    id="path11759"
    d="M 107,556.36 H 108 L 108.5,555.74 109,556.36 H 110 V 555.36 H 107 Z"
    style="fill:url(#linearGradient19282)" />
  <path
    inkscape:connector-curvature="0"
    style="fill:url(#linearGradient19282)"
    d="M 116,549.36 C 116,554.48 116,551.97 116.03,554.92 V 555.36 H 116.5 118.78 C 120.46,555.43 120.39,551.24 118.75,551.36 118.74,551.36 118.73,551.36 118.72,551.36 H 117 V 549.36 Z M 117,552.36 H 118.81 118.84 118.87 C 119.24,552.32 119.31,554.38 118.87,554.36 H 118.84 117 C 116.99,553.88 117,552.51 117,552.36 Z"
    id="path19245" />
  <path
    style="fill:url(#linearGradient19282)"
    d="M 111.99,550.39 V 551.42 C 112.51,551.42 112.95,551.42 113.4,551.42 114.21,551.43 114.02,552.3 114,552.36 H 112 V 552.36 C 110.48,552.43 110.37,555.36 112,555.36 L 114.53,555.39 H 114.97 V 554.96 L 115,551.8 C 115,551.43 114.9,551.08 114.69,550.83 114.48,550.58 114.16,550.43 113.84,550.39 H 113.81 Z M 112.18,553.36 H 112.21 112.24 114 V 554.36 H 112.15 112.12 C 111.75,554.35 111.78,553.32 112.18,553.36 Z"
    id="path19243"
    inkscape:connector-curvature="0"
    sodipodi:nodetypes="ccccccccccccccccccccccccc" />
 </g>
</svg>
