<svg xmlns="http://www.w3.org/2000/svg" xmlns:osb="http://www.openswatchbook.org/uri/2009/osb" width="16" height="16" version="1.1" viewBox="0 0 16 16">
 <defs>
  <linearGradient id="linearGradient19282" gradientTransform="matrix(0,0,0,0,-1.1046e8,-6316300)" osb:paint="solid">
   <stop style="stop-color:#666666" offset="0"/>
  </linearGradient>
 </defs>
 <g transform="translate(-105,-727.36)">
  <rect style="fill:none" width="16" height="16" x="105" y="727.36"/>
  <path style="fill:url(#linearGradient19282)" d="M 109,739.36 106,742.36 H 117 L 120,739.36 Z"/>
  <path style="fill:url(#linearGradient19282)" d="M 111,728.36 C 110.45,728.36 110,728.81 110,729.36 V 736.36 C 110,736.92 110.45,737.36 111,737.36 H 118 C 118.55,737.36 119,736.92 119,736.36 V 729.36 C 119,728.81 118.55,728.36 118,728.36 Z M 112.91,729.08 114.69,731.24 116.47,729.08 118,730.36 115.97,732.8 118,735.27 116.47,736.55 114.69,734.39 112.91,736.55 111.37,735.27 113.41,732.8 111.37,730.36 Z"/>
 </g>
</svg>
