<?xml version="1.0" encoding="UTF-8" standalone="no"?>
<!-- Created with Inkscape (http://www.inkscape.org/) -->

<svg
  xmlns:osb="http://www.openswatchbook.org/uri/2009/osb"
  xmlns:dc="http://purl.org/dc/elements/1.1/"
  xmlns:cc="http://creativecommons.org/ns#"
  xmlns:rdf="http://www.w3.org/1999/02/22-rdf-syntax-ns#"
  xmlns:svg="http://www.w3.org/2000/svg"
  xmlns="http://www.w3.org/2000/svg"
  xmlns:sodipodi="http://sodipodi.sourceforge.net/DTD/sodipodi-0.dtd"
  xmlns:inkscape="http://www.inkscape.org/namespaces/inkscape"
  width="24"
  height="24"
  id="svg15638"
  version="1.1"
  inkscape:version="0.92.2 (unknown)"
  sodipodi:docname="mesh-gradient.svg"
  viewBox="0 0 24 24">
 <title
   id="title9623">Inkscape Icon Theme</title>
 <defs
   id="defs15640">
  <!--<inkscape:path-effect effect="spiro" id="path-effect36695" is_visible="true" />-->
  <linearGradient
    id="linearGradient19282"
    osb:paint="solid"
    gradientTransform="matrix(0,0,0,0,-1.1046e8,-6306400)">
   <stop
     style="stop-color:#666666;stop-opacity:1"
     offset="0"
     id="stop19284" />
  </linearGradient>
 </defs>
 <sodipodi:namedview
   id="base"
   pagecolor="#f2f2f2"
   bordercolor="#666666"
   borderopacity="1.0"
   inkscape:pageopacity="0"
   inkscape:pageshadow="2"
   inkscape:zoom="0.76028"
   inkscape:cx="14.9"
   inkscape:cy="119.98"
   inkscape:document-units="px"
   inkscape:current-layer="layer1"
   showgrid="false"
   inkscape:window-width="1280"
   inkscape:window-height="960"
   inkscape:window-x="0"
   inkscape:window-y="27"
   inkscape:window-maximized="1"
   inkscape:snap-bbox="true"
   inkscape:bbox-paths="false"
   inkscape:bbox-nodes="true"
   inkscape:snap-global="false"
   showguides="false"
   inkscape:guide-bbox="true"
   inkscape:snap-nodes="false"
   inkscape:snap-object-midpoints="false"
   inkscape:snap-grids="true"
   inkscape:snap-to-guides="true"
   borderlayer="true"
   inkscape:showpageshadow="false"
   showborder="true"
   inkscape:snap-bbox-edge-midpoints="false"
   inkscape:object-nodes="true"
   inkscape:snap-intersection-paths="false"
   inkscape:snap-center="true">
  <inkscape:grid
    type="xygrid"
    id="grid15646"
    empspacing="5"
    visible="true"
    enabled="true"
    snapvisiblegridlinesonly="true"
    originx="-346"
    originy="-250" />
 </sodipodi:namedview>
 <metadata
   id="metadata15643">
  <rdf:RDF>
   <cc:Work
     rdf:about="">
    <dc:format>image/svg+xml</dc:format>
    <dc:type
      rdf:resource="http://purl.org/dc/dcmitype/StillImage" />
    <dc:title>Inkscape Icon Theme</dc:title>
    <dc:creator>
     <cc:Agent>
      <dc:title>Barbara Muraus</dc:title>
     </cc:Agent>
    </dc:creator>
    <dc:contributor>
     <cc:Agent>
      <dc:title>Jakub Steiner, Josh Andler</dc:title>
     </cc:Agent>
    </dc:contributor>
   </cc:Work>
  </rdf:RDF>
 </metadata>
 <g
   inkscape:label="Layer 1"
   inkscape:groupmode="layer"
   id="layer1"
   transform="translate(-346,-898.36)">
  <rect
    y="898.36"
    x="346"
    height="24"
    width="24"
    id="rect37038"
    style="fill:none" />
  <rect
    y="899.36"
    x="347"
    height="4.9999"
    width="5"
    id="rect37040"
    style="fill:url(#linearGradient19282)" />
  <rect
    y="899.36"
    x="364"
    height="5"
    width="5"
    id="rect37042"
    style="fill:url(#linearGradient19282)" />
  <rect
    y="916.36"
    x="347"
    height="5"
    width="5"
    id="rect37044"
    style="fill:url(#linearGradient19282)" />
  <rect
    y="916.36"
    x="364"
    height="5"
    width="5"
    id="rect37046"
    style="fill:url(#linearGradient19282)" />
  <path
    style="fill:url(#linearGradient19282)"
    inkscape:connector-curvature="0"
    d="M 354,900.87 V 901.36 H 355 V 900.94 C 354.68,900.9 354.35,900.87 354,900.87 Z M 354,901.36 H 353 V 902.36 H 354 Z M 353,902.36 H 352 V 903.36 H 353 Z M 352,903.36 H 351 V 904.36 H 352 Z M 351,904.36 H 350.28 C 350.36,904.71 350.41,905.04 350.44,905.36 H 351 Z M 351,903.36 V 902.36 H 350 V 903.25 C 350.01,903.28 350.03,903.33 350.04,903.36 Z M 350,902.36 V 901.68 C 349.83,901.74 349.68,901.79 349.5,901.86 349.57,902.04 349.62,902.19 349.68,902.36 Z M 351,902.36 H 352 V 901.36 H 351 Z M 351,901.36 V 901.32 C 350.97,901.33 350.92,901.35 350.89,901.36 Z M 352,901.36 H 353 V 900.92 C 352.68,900.95 352.35,901 352,901.08 Z"
    id="path37050" />
  <path
    inkscape:connector-curvature="0"
    style="opacity:0.8;fill:url(#linearGradient19282)"
    d="M 356,901.15 V 901.36 H 356.7 C 356.47,901.28 356.24,901.21 356,901.15 Z M 356,901.36 H 355 V 902.36 H 356 Z M 356,902.36 V 903.36 H 357 V 902.36 Z M 357,902.36 H 358 V 901.86 C 357.67,901.72 357.34,901.59 357,901.47 Z M 358,902.36 V 903.36 H 359 V 902.36 Z M 359,902.36 H 359.3 C 359.2,902.32 359.1,902.29 359,902.25 Z M 358,903.36 H 357 V 904.36 H 358 Z M 357,904.36 H 356 V 905.36 H 357 Z M 356,905.36 H 355 V 906.36 H 356 Z M 355,906.36 H 354 V 907.36 H 355 Z M 354,907.36 H 353 V 908.36 H 354 Z M 353,908.36 H 352 V 909.36 H 353 Z M 352,909.36 H 351 V 910.36 H 352 Z M 351,910.36 H 350 V 911.36 H 351 Z M 350,911.36 H 349.11 C 349.07,911.46 349.04,911.56 349,911.66 V 912.36 H 350 Z M 349,912.36 H 348.79 C 348.7,912.68 348.63,913.01 348.58,913.36 H 349 Z M 350,910.36 V 909.36 H 349.89 C 349.77,909.7 349.64,910.03 349.5,910.36 Z M 350,909.36 H 351 V 908.36 H 350.21 C 350.15,908.6 350.08,908.83 350,909.06 Z M 351,908.36 H 352 V 907.36 H 351 Z M 351,907.36 V 906.36 H 350.49 C 350.49,906.71 350.46,907.04 350.42,907.36 Z M 351,906.36 H 352 V 905.36 H 351 Z M 352,905.36 H 353 V 904.36 H 352 Z M 353,904.36 H 354 V 903.36 H 353 Z M 354,903.36 H 355 V 902.36 H 354 Z M 355,903.36 V 904.36 H 356 V 903.36 Z M 355,904.36 H 354 V 905.36 H 355 Z M 354,905.36 H 353 V 906.36 H 354 Z M 353,906.36 H 352 V 907.36 H 353 Z"
    id="path37052" />
  <path
    inkscape:connector-curvature="0"
    style="opacity:0.6;fill:url(#linearGradient19282)"
    d="M 366,902.04 C 365.7,902.15 365.39,902.27 365.11,902.36 H 366 Z M 365,902.4 C 364.65,902.51 364.32,902.57 364,902.64 V 903.36 H 365 Z M 364,903.36 H 363 V 904.36 H 364 Z M 363,904.36 H 362 V 905.36 H 363 Z M 362,905.36 H 361 V 906.36 H 362 Z M 361,906.36 H 360 V 907.36 H 361 Z M 360,907.36 H 359 V 908.36 H 360 Z M 359,908.36 H 358 V 909.36 H 359 Z M 358,909.36 H 357 V 910.36 H 358 Z M 357,910.36 H 356 V 911.36 H 357 Z M 356,911.36 H 355 V 912.36 H 356 Z M 355,912.36 H 354 V 913.36 H 355 Z M 354,913.36 H 353 V 914.36 H 354 Z M 353,914.36 H 352 V 915.36 H 353 Z M 352,915.36 H 351 V 916.36 H 352 Z M 351,916.36 H 350 V 917.36 H 351 Z M 350,917.36 H 349 V 917.47 C 349.09,917.75 349.21,918.06 349.32,918.36 H 350 Z M 349,917.36 V 916.36 H 348.72 C 348.79,916.68 348.85,917.01 348.96,917.36 Z M 349,916.36 H 350 V 915.36 H 349 Z M 349,915.36 V 914.36 H 348.51 C 348.5,914.68 348.52,915.01 348.56,915.36 Z M 349,914.36 H 350 V 913.36 H 349 Z M 350,913.36 H 351 V 912.36 H 350 Z M 351,912.36 H 352 V 911.36 H 351 Z M 352,911.36 H 353 V 910.36 H 352 Z M 353,910.36 H 354 V 909.36 H 353 Z M 354,909.36 H 355 V 908.36 H 354 Z M 355,908.36 H 356 V 907.36 H 355 Z M 356,907.36 H 357 V 906.36 H 356 Z M 357,906.36 H 358 V 905.36 H 357 Z M 358,905.36 H 359 V 904.36 H 358 Z M 359,904.36 H 360 V 903.36 H 359 Z M 360,903.36 H 361 V 902.78 C 360.65,902.73 360.32,902.66 360,902.57 Z M 361,903.36 V 904.36 H 362 V 903.36 Z M 362,903.36 H 363 V 902.8 C 362.65,902.84 362.32,902.86 362,902.85 Z M 361,904.36 H 360 V 905.36 H 361 Z M 360,905.36 H 359 V 906.36 H 360 Z M 359,906.36 H 358 V 907.36 H 359 Z M 358,907.36 H 357 V 908.36 H 358 Z M 357,908.36 H 356 V 909.36 H 357 Z M 356,909.36 H 355 V 910.36 H 356 Z M 355,910.36 H 354 V 911.36 H 355 Z M 354,911.36 H 353 V 912.36 H 354 Z M 353,912.36 H 352 V 913.36 H 353 Z M 352,913.36 H 351 V 914.36 H 352 Z M 351,914.36 H 350 V 915.36 H 351 Z"
    id="path37054" />
  <path
    inkscape:connector-curvature="0"
    style="opacity:0.4;fill:url(#linearGradient19282)"
    d="M 366,902.36 V 903.36 H 367 V 903.25 C 366.91,902.97 366.79,902.66 366.68,902.36 Z M 367,903.36 V 904.36 H 367.28 C 367.21,904.04 367.15,903.71 367.04,903.36 Z M 367,904.36 H 366 V 905.36 H 367 Z M 367,905.36 V 906.36 H 367.49 C 367.5,906.04 367.48,905.71 367.44,905.36 Z M 367,906.36 H 366 V 907.36 H 367 Z M 366,907.36 H 365 V 908.36 H 366 Z M 365,908.36 H 364 V 909.36 H 365 Z M 364,909.36 H 363 V 910.36 H 364 Z M 363,910.36 H 362 V 911.36 H 363 Z M 362,911.36 H 361 V 912.36 H 362 Z M 361,912.36 H 360 V 913.36 H 361 Z M 360,913.36 H 359 V 914.36 H 360 Z M 359,914.36 H 358 V 915.36 H 359 Z M 358,915.36 H 357 V 916.36 H 358 Z M 357,916.36 H 356 V 917.36 H 357 Z M 356,917.36 H 355 V 917.94 C 355.35,917.99 355.68,918.06 356,918.15 Z M 355,917.36 V 916.36 H 354 V 917.36 Z M 354,917.36 H 353 V 917.92 C 353.35,917.88 353.68,917.86 354,917.87 Z M 353,917.36 V 916.36 H 352 V 917.36 Z M 352,917.36 H 351 V 918.32 C 351.35,918.21 351.68,918.14 352,918.08 Z M 353,916.36 H 354 V 915.36 H 353 Z M 354,915.36 H 355 V 914.36 H 354 Z M 355,914.36 H 356 V 913.36 H 355 Z M 356,913.36 H 357 V 912.36 H 356 Z M 357,912.36 H 358 V 911.36 H 357 Z M 358,911.36 H 359 V 910.36 H 358 Z M 359,910.36 H 360 V 909.36 H 359 Z M 360,909.36 H 361 V 908.36 H 360 Z M 361,908.36 H 362 V 907.36 H 361 Z M 362,907.36 H 363 V 906.36 H 362 Z M 363,906.36 H 364 V 905.36 H 363 Z M 364,905.36 H 365 V 904.36 H 364 Z M 365,904.36 H 366 V 903.36 H 365 Z M 365,905.36 V 906.36 H 366 V 905.36 Z M 365,906.36 H 364 V 907.36 H 365 Z M 364,907.36 H 363 V 908.36 H 364 Z M 363,908.36 H 362 V 909.36 H 363 Z M 362,909.36 H 361 V 910.36 H 362 Z M 361,910.36 H 360 V 911.36 H 361 Z M 360,911.36 H 359 V 912.36 H 360 Z M 359,912.36 H 358 V 913.36 H 359 Z M 358,913.36 H 357 V 914.36 H 358 Z M 357,914.36 H 356 V 915.36 H 357 Z M 356,915.36 H 355 V 916.36 H 356 Z M 350,918.36 V 918.68 C 350.3,918.57 350.61,918.45 350.89,918.36 Z"
    id="path37056" />
  <path
    inkscape:connector-curvature="0"
    style="opacity:0.2;fill:url(#linearGradient19282)"
    d="M 367,907.36 V 908.27 H 366.28 V 909.27 H 366.92 C 367.14,908.68 367.32,908.05 367.42,907.36 Z M 365,909.36 V 910.36 H 366 V 909.36 Z M 365,910.36 H 364 V 911.36 H 365 Z M 365,911.36 V 912.36 H 365.79 C 365.85,912.12 365.92,911.89 366,911.66 V 911.36 Z M 365,912.36 H 364 V 913.36 H 365 Z M 365,913.36 V 914.36 H 365.51 C 365.51,914.01 365.54,913.68 365.58,913.36 Z M 365,914.36 H 364 V 915.36 H 365 Z M 364,915.36 H 363 V 916.36 H 364 Z M 363,916.36 H 362 V 917.36 H 363 Z M 362,917.36 H 361 V 918.36 H 362 Z M 361,918.36 H 360 V 919.36 H 361 Z M 360,919.36 H 359.3 C 359.53,919.44 359.76,919.51 360,919.57 Z M 360,918.36 V 917.36 H 359 V 918.36 Z M 359,918.36 H 358 V 918.86 C 358.33,919 358.66,919.13 359,919.25 Z M 358,918.36 V 917.36 H 357 V 918.36 Z M 357,918.36 H 356.7 C 356.8,918.39 356.9,918.43 357,918.47 Z M 358,917.36 H 359 V 916.36 H 358 Z M 359,916.36 H 360 V 915.36 H 359 Z M 360,915.36 H 361 V 914.36 H 360 Z M 361,914.36 H 362 V 913.36 H 361 Z M 362,913.36 H 363 V 912.36 H 362 Z M 363,912.36 H 364 V 911.36 H 363 Z M 363,913.36 V 914.36 H 364 V 913.36 Z M 363,914.36 H 362 V 915.36 H 363 Z M 362,915.36 H 361 V 916.36 H 362 Z M 361,916.36 H 360 V 917.36 H 361 Z M 366.28,910.27 V 910.9 C 366.37,910.69 366.45,910.48 366.54,910.27 Z"
    id="path37058" />
  <path
    inkscape:connector-curvature="0"
    style="opacity:0.1;fill:url(#linearGradient19282)"
    d="M 365,915.36 V 916.36 H 365.72 C 365.64,916.01 365.59,915.68 365.56,915.36 Z M 365,916.36 H 364 V 917.36 H 365 Z M 365,917.36 V 918.36 H 366 V 917.47 C 365.99,917.44 365.97,917.39 365.96,917.36 Z M 366,918.36 V 919.04 C 366.17,918.98 366.32,918.93 366.5,918.86 366.43,918.68 366.38,918.53 366.32,918.36 Z M 365,918.36 H 364 V 919.36 H 365 Z M 365,919.36 V 919.4 C 365.04,919.39 365.08,919.37 365.11,919.36 Z M 364,919.36 H 363 V 919.8 C 363.32,919.77 363.65,919.72 364,919.64 Z M 363,919.36 V 918.36 H 362 V 919.36 Z M 362,919.36 H 361 V 919.78 C 361.32,919.82 361.65,919.85 362,919.85 Z M 363,918.36 H 364 V 917.36 H 363 Z"
    id="path37060" />
  <path
    sodipodi:nodetypes="ccccc"
    inkscape:connector-curvature="0"
    id="path37062"
    d="M 349.5,901.86 C 358,898.36 358,905.36 366.5,901.86 370,910.36 363,910.36 366.5,918.86 358,922.36 358,915.36 349.5,918.86 346,910.36 353,910.36 349.5,901.86 Z"
    style="fill:none;stroke:url(#linearGradient19282);stroke-width:1px" />
 </g>
</svg>
