<svg xmlns="http://www.w3.org/2000/svg" xmlns:osb="http://www.openswatchbook.org/uri/2009/osb" width="16.022" height="16.006" version="1.1" viewBox="0 0 16.02 16.01">
 <defs>
  <linearGradient id="linearGradient19282" gradientTransform="matrix(0,0,0,0,-1.1046e8,-6446900)" osb:paint="solid">
   <stop style="stop-color:#666666" offset="0"/>
  </linearGradient>
 </defs>
 <g transform="translate(-618.98,-558.35)">
  <rect style="fill:none" width="16" height="16" x="619" y="558.36"/>
  <path style="fill:url(#linearGradient19282)" d="M 634.31,558.36 A 0.51404,0.51211 0 0 0 633.91,558.95 C 634.14,560.55 633.85,562.68 632.78,564.36 632.15,565.36 631.25,566.21 630,566.74 V 567.86 C 631.66,567.27 632.86,566.18 633.66,564.92 634.88,562.98 635.17,560.66 634.91,558.83 A 0.51404,0.51211 0 0 0 634.31,558.36 Z M 619.59,558.49 A 0.52408,0.52211 0 0 0 619.09,558.92 C 618.8,560.75 619.04,563.07 620.22,564.99 621.01,566.27 622.26,567.36 624,567.92 V 566.86 C 622.65,566.36 621.73,565.48 621.09,564.45 620.08,562.81 619.86,560.71 620.12,559.11 A 0.52408,0.52211 0 0 0 619.59,558.49 Z"/>
  <rect style="fill:url(#linearGradient19282)" width="4" height="5" x="625" y="566.36"/>
  <rect style="fill:url(#linearGradient19282)" width="2" height="1" x="630" y="569.36"/>
  <rect style="fill:url(#linearGradient19282)" width="2" height="1" x="622" y="569.36"/>
  <ellipse style="fill:url(#linearGradient19282)" cx="633" cy="569.91" rx="1.5" ry="1.516"/>
  <ellipse style="fill:url(#linearGradient19282)" cx="621" cy="569.88" rx="1.5" ry="1.516"/>
 </g>
</svg>
