<svg xmlns="http://www.w3.org/2000/svg" xmlns:osb="http://www.openswatchbook.org/uri/2009/osb" width="16.022" height="16" version="1.1" viewBox="0 0 16.02 16">
 <defs>
  <linearGradient id="linearGradient19282" gradientTransform="matrix(0,0,0,0,-1.1046e8,-6316300)" osb:paint="solid">
   <stop style="stop-color:#666666" offset="0"/>
  </linearGradient>
 </defs>
 <g transform="translate(-588.98,-558.36)">
  <rect style="fill:none" width="16" height="16" x="589" y="558.36"/>
  <path style="fill:url(#linearGradient19282)" d="M 604.31,559.28 A 0.51404,0.51404 0 0 0 603.91,559.87 C 604.14,561.48 603.85,563.62 602.78,565.31 601.72,567 599.94,568.28 596.91,568.28 593.87,568.28 592.11,567.06 591.09,565.41 590.08,563.75 589.86,561.64 590.12,560.03 A 0.5241,0.5241 0 1 0 589.09,559.84 C 588.8,561.68 589.04,564.02 590.22,565.94 591.4,567.86 593.58,569.31 596.91,569.31 600.24,569.31 602.43,567.82 603.66,565.87 604.88,563.93 605.17,561.59 604.91,559.75 A 0.51404,0.51404 0 0 0 604.31,559.28 Z"/>
  <rect style="fill:url(#linearGradient19282)" width="4" height="5" x="595" y="566.36"/>
 </g>
</svg>
