<svg xmlns="http://www.w3.org/2000/svg" width="16.051" height="16.002" version="1.1" viewBox="0 0 16.05 16">
 <g transform="translate(-558.95,-558.36)">
  <rect style="fill:none" width="16" height="16" x="559" y="558.36"/>
  <path style="fill:#666666" d="M 559.41,558.36 A 0.50219,0.50219 0 1 0 559.5,559.36 C 561.14,559.36 562.29,559.9 563.19,560.71 564.08,561.52 564.71,562.62 565.12,563.83 565.96,566.26 565.97,568.99 565.97,569.99 A 0.50005,0.50005 0 0 0 566.72,570.42 C 571.3,567.87 574.47,564.58 575,558.92 A 0.50219,0.50219 0 1 0 574,558.83 C 573.53,563.85 570.94,566.69 566.94,569.08 566.92,567.78 566.81,565.7 566.06,563.52 565.61,562.2 564.94,560.92 563.87,559.96 562.81,558.99 561.36,558.36 559.5,558.36 A 0.50005,0.50005 0 0 0 559.41,558.36 Z"/>
  <rect style="fill:#666666;fill-rule:evenodd" width="3.599" height="3.636" x="-11.62" y="801.87" transform="matrix(0.7137,-0.70046,0.7137,0.70046,0,0)"/>
 </g>
</svg>
