<svg xmlns="http://www.w3.org/2000/svg" xmlns:osb="http://www.openswatchbook.org/uri/2009/osb" width="16.022" height="16" version="1.1" viewBox="0 0 16.02 16">
 <defs>
  <linearGradient id="linearGradient19282" gradientTransform="matrix(0,0,0,0,-1.6569e8,-9474000)" osb:paint="solid">
   <stop style="stop-color:#666666" offset="0"/>
  </linearGradient>
 </defs>
 <g transform="translate(-648.98,-558.36)">
  <rect style="fill:none" width="16" height="16" x="649" y="558.36"/>
  <path style="fill:url(#linearGradient19282)" d="M 664.31,559.28 A 0.51404,0.51404 0 0 0 663.91,559.87 C 664.14,561.48 663.85,563.62 662.78,565.31 661.72,567 659.94,568.28 656.91,568.28 653.87,568.28 652.11,567.06 651.09,565.41 650.08,563.75 649.86,561.64 650.12,560.03 A 0.5241,0.5241 0 1 0 649.09,559.84 C 648.8,561.68 649.04,564.02 650.22,565.94 651.4,567.86 653.58,569.31 656.91,569.31 660.24,569.31 662.43,567.82 663.66,565.87 664.88,563.93 665.17,561.59 664.91,559.75 A 0.51404,0.51404 0 0 0 664.31,559.28 Z"/>
  <circle style="fill:url(#linearGradient19282)" cx="657" cy="568.36" r="3"/>
 </g>
</svg>
