<?xml version="1.0" encoding="UTF-8" standalone="no"?>
<!-- Created with Inkscape (http://www.inkscape.org/) -->

<svg
  xmlns:osb="http://www.openswatchbook.org/uri/2009/osb"
  xmlns:dc="http://purl.org/dc/elements/1.1/"
  xmlns:cc="http://creativecommons.org/ns#"
  xmlns:rdf="http://www.w3.org/1999/02/22-rdf-syntax-ns#"
  xmlns:svg="http://www.w3.org/2000/svg"
  xmlns="http://www.w3.org/2000/svg"
  xmlns:xlink="http://www.w3.org/1999/xlink"
  xmlns:sodipodi="http://sodipodi.sourceforge.net/DTD/sodipodi-0.dtd"
  xmlns:inkscape="http://www.inkscape.org/namespaces/inkscape"
  width="16"
  height="16"
  id="svg15638"
  version="1.1"
  inkscape:version="0.92.2 (unknown)"
  sodipodi:docname="object-tweak-shrink.svg"
  viewBox="0 0 16 16">
 <title
   id="title9623">Inkscape Icon Theme</title>
 <defs
   id="defs15640">
  <!--<inkscape:path-effect effect="spiro" id="path-effect36695" is_visible="true" />-->
  <linearGradient
    id="linearGradient19282"
    osb:paint="solid"
    gradientTransform="matrix(0,0,0,0,-3.2151e8,-11121000)">
   <stop
     style="stop-color:#666666;stop-opacity:1"
     offset="0"
     id="stop19284" />
  </linearGradient>
 </defs>
 <sodipodi:namedview
   id="base"
   pagecolor="#f2f2f2"
   bordercolor="#666666"
   borderopacity="1.0"
   inkscape:pageopacity="0"
   inkscape:pageshadow="2"
   inkscape:zoom="0.76028"
   inkscape:cx="105.9"
   inkscape:cy="-39.02"
   inkscape:document-units="px"
   inkscape:current-layer="layer1"
   showgrid="false"
   inkscape:window-width="1280"
   inkscape:window-height="960"
   inkscape:window-x="0"
   inkscape:window-y="27"
   inkscape:window-maximized="1"
   inkscape:snap-bbox="true"
   inkscape:bbox-paths="false"
   inkscape:bbox-nodes="true"
   inkscape:snap-global="false"
   showguides="false"
   inkscape:guide-bbox="true"
   inkscape:snap-nodes="false"
   inkscape:snap-object-midpoints="false"
   inkscape:snap-grids="true"
   inkscape:snap-to-guides="true"
   borderlayer="true"
   inkscape:showpageshadow="false"
   showborder="true"
   inkscape:snap-bbox-edge-midpoints="false"
   inkscape:object-nodes="true"
   inkscape:snap-intersection-paths="false"
   inkscape:snap-center="true">
  <inkscape:grid
    type="xygrid"
    id="grid15646"
    empspacing="5"
    visible="true"
    enabled="true"
    snapvisiblegridlinesonly="true"
    originx="-255"
    originy="-409" />
 </sodipodi:namedview>
 <metadata
   id="metadata15643">
  <rdf:RDF>
   <cc:Work
     rdf:about="">
    <dc:format>image/svg+xml</dc:format>
    <dc:type
      rdf:resource="http://purl.org/dc/dcmitype/StillImage" />
    <dc:title>Inkscape Icon Theme</dc:title>
    <dc:creator>
     <cc:Agent>
      <dc:title>Barbara Muraus</dc:title>
     </cc:Agent>
    </dc:creator>
    <dc:contributor>
     <cc:Agent>
      <dc:title>Jakub Steiner, Josh Andler</dc:title>
     </cc:Agent>
    </dc:contributor>
   </cc:Work>
  </rdf:RDF>
 </metadata>
 <g
   inkscape:label="Layer 1"
   inkscape:groupmode="layer"
   id="layer1"
   transform="translate(-255,-747.36)">
  <rect
    style="opacity:0.3;fill:none"
    id="rect16409"
    width="16"
    height="16"
    x="255"
    y="747.36" />
  <ellipse
    cy="748.81"
    cx="256.48"
    style="color:#000000;fill:url(#linearGradient19282);stroke-width:0.36542"
    id="path5084-2"
    inkscape:tile-cx="375.0941"
    inkscape:tile-cy="137.9821"
    inkscape:tile-w="2.223736"
    inkscape:tile-h="2.223736"
    inkscape:tile-x0="373.9822"
    inkscape:tile-y0="136.8702"
    rx="1.4797"
    ry="1.4503" />
  <use
    height="1250"
    width="1250"
    style="fill:url(#linearGradient19282)"
    id="use5086-8"
    inkscape:tiled-clone-of="#path5011"
    y="0"
    x="0"
    transform="matrix(0.98608,0,0,0.98608,13.352,10.427)"
    xlink:href="#path5084-2" />
  <use
    height="1250"
    width="1250"
    style="fill:url(#linearGradient19282)"
    id="use5088-8"
    transform="matrix(0.97913,0,0,0.97913,18.394,18.905)"
    inkscape:tiled-clone-of="#path5011"
    y="0"
    x="0"
    xlink:href="#path5084-2" />
  <use
    height="1250"
    width="1250"
    style="fill:url(#linearGradient19282)"
    id="use5090-1"
    transform="matrix(0.90253,0,0,0.90253,38.041,79.54)"
    inkscape:tiled-clone-of="#path5011"
    y="0"
    x="0"
    xlink:href="#path5084-2" />
  <use
    height="1250"
    width="1250"
    style="fill:url(#linearGradient19282)"
    id="use5092-4"
    transform="matrix(0.98607,0,0,0.98607,6.8328,10.43)"
    inkscape:tiled-clone-of="#path5011"
    y="0"
    x="0"
    xlink:href="#path5084-2" />
  <use
    height="1250"
    width="1250"
    style="fill:url(#linearGradient19282)"
    id="use5094-42"
    transform="translate(13.041)"
    inkscape:tiled-clone-of="#path5011"
    y="0"
    x="0"
    xlink:href="#path5084-2" />
  <use
    height="1250"
    width="1250"
    style="fill:url(#linearGradient19282)"
    id="use5096-0"
    transform="matrix(0.90686,0,0,0.90686,23.888,76.293)"
    inkscape:tiled-clone-of="#path5011"
    y="0"
    x="0"
    xlink:href="#path5084-2" />
  <use
    height="1250"
    width="1250"
    style="fill:url(#linearGradient19282)"
    id="use5098-8"
    transform="matrix(0.9828,0,0,0.9828,4.4109,22.703)"
    inkscape:tiled-clone-of="#path5011"
    y="0"
    x="0"
    xlink:href="#path5084-2" />
  <use
    height="1250"
    width="1250"
    style="fill:url(#linearGradient19282)"
    id="use5100-6"
    transform="matrix(0.92205,0,0,0.92205,26.514,58.372)"
    inkscape:tiled-clone-of="#path5011"
    y="0"
    x="0"
    xlink:href="#path5084-2" />
  <use
    height="1250"
    width="1250"
    style="fill:url(#linearGradient19282)"
    id="use5103-0"
    transform="matrix(0.98019,0,0,0.98019,5.0801,18.106)"
    inkscape:tiled-clone-of="#path5011"
    y="0"
    x="0"
    xlink:href="#path5084-2" />
  <use
    height="1250"
    width="1250"
    style="fill:url(#linearGradient19282)"
    id="use5106-9"
    transform="matrix(0.61468,0,0,0.61468,102.09,291.81)"
    inkscape:tiled-clone-of="#path5011"
    y="0"
    x="0"
    xlink:href="#path5084-2" />
  <use
    height="1250"
    width="1250"
    style="fill:url(#linearGradient19282)"
    id="use5108-2"
    transform="matrix(0.62326,0,0,0.62326,99.886,291.93)"
    inkscape:tiled-clone-of="#path5011"
    y="0"
    x="0"
    xlink:href="#path5084-2" />
  <use
    height="1250"
    width="1250"
    style="fill:url(#linearGradient19282)"
    id="use5110-1"
    transform="matrix(0.42965,0,0,0.42965,152.8,430.36)"
    inkscape:tiled-clone-of="#path5011"
    y="0"
    x="0"
    xlink:href="#path5084-2" />
  <use
    height="1250"
    width="1250"
    style="fill:url(#linearGradient19282)"
    id="use5112-7"
    transform="matrix(0.61129,0,0,0.61129,109.48,294.34)"
    inkscape:tiled-clone-of="#path5011"
    y="0"
    x="0"
    xlink:href="#path5084-2" />
  <use
    height="1250"
    width="1250"
    style="fill:url(#linearGradient19282)"
    id="use5114-3"
    transform="matrix(0.4261,0,0,0.4261,150.45,436.29)"
    inkscape:tiled-clone-of="#path5011"
    y="0"
    x="0"
    xlink:href="#path5084-2" />
  <use
    height="1250"
    width="1250"
    style="fill:url(#linearGradient19282)"
    id="use5116-0"
    transform="matrix(0.43781,0,0,0.43781,150.71,430.8)"
    inkscape:tiled-clone-of="#path5011"
    y="0"
    x="0"
    xlink:href="#path5084-2" />
  <use
    height="1250"
    width="1250"
    style="fill:url(#linearGradient19282)"
    id="use5118-6"
    transform="matrix(0.25681,0,0,0.25681,197.13,563.06)"
    inkscape:tiled-clone-of="#path5011"
    y="0"
    x="0"
    xlink:href="#path5084-2" />
  <use
    height="1250"
    width="1250"
    style="fill:url(#linearGradient19282)"
    id="use5120-92"
    transform="matrix(0.42228,0,0,0.42228,157.95,439.15)"
    inkscape:tiled-clone-of="#path5011"
    y="0"
    x="0"
    xlink:href="#path5084-2" />
  <use
    height="1250"
    width="1250"
    style="fill:url(#linearGradient19282)"
    id="use5122-6"
    transform="matrix(0.619,0,0,0.619,107.5,295.12)"
    inkscape:tiled-clone-of="#path5011"
    y="0"
    x="0"
    xlink:href="#path5084-2" />
  <use
    height="1250"
    width="1250"
    style="fill:url(#linearGradient19282)"
    id="use5124-2"
    transform="matrix(0.98841,0,0,0.98841,12.752,21.776)"
    inkscape:tiled-clone-of="#path5011"
    y="0"
    x="0"
    xlink:href="#path5084-2" />
  <use
    x="0"
    y="0"
    inkscape:tiled-clone-of="#path5011"
    transform="matrix(0.98031,0,0,0.98031,18.09,24.567)"
    id="use5126-4"
    style="fill:url(#linearGradient19282)"
    width="1250"
    height="1250"
    xlink:href="#path5084-2" />
  <use
    x="0"
    y="0"
    inkscape:tiled-clone-of="#path5011"
    transform="translate(0,13.1)"
    id="use5128-4"
    style="fill:url(#linearGradient19282)"
    width="1250"
    height="1250"
    xlink:href="#path5084-2" />
  <use
    x="0"
    y="0"
    inkscape:tiled-clone-of="#path5011"
    transform="matrix(0.98978,0,0,0.98978,5.8817,20.753)"
    id="use5130-0"
    style="fill:url(#linearGradient19282)"
    width="1250"
    height="1250"
    xlink:href="#path5084-2" />
  <use
    x="0"
    y="0"
    inkscape:tiled-clone-of="#path5011"
    transform="matrix(0.93022,0,0,0.93022,24.418,65.352)"
    id="use5132-1"
    style="fill:url(#linearGradient19282)"
    width="1250"
    height="1250"
    xlink:href="#path5084-2" />
  <use
    x="0"
    y="0"
    inkscape:tiled-clone-of="#path5011"
    transform="translate(13.041,13.1)"
    id="use5134-8"
    style="fill:url(#linearGradient19282)"
    width="1250"
    height="1250"
    xlink:href="#path5084-2" />
 </g>
</svg>
