<?xml version="1.0" encoding="UTF-8" standalone="no"?>
<!-- Created with Inkscape (http://www.inkscape.org/) -->

<svg
  xmlns:osb="http://www.openswatchbook.org/uri/2009/osb"
  xmlns:dc="http://purl.org/dc/elements/1.1/"
  xmlns:cc="http://creativecommons.org/ns#"
  xmlns:rdf="http://www.w3.org/1999/02/22-rdf-syntax-ns#"
  xmlns:svg="http://www.w3.org/2000/svg"
  xmlns="http://www.w3.org/2000/svg"
  xmlns:xlink="http://www.w3.org/1999/xlink"
  xmlns:sodipodi="http://sodipodi.sourceforge.net/DTD/sodipodi-0.dtd"
  xmlns:inkscape="http://www.inkscape.org/namespaces/inkscape"
  width="16"
  height="16"
  id="svg15638"
  version="1.1"
  inkscape:version="0.92.2 (unknown)"
  sodipodi:docname="object-tweak-rotate.svg"
  viewBox="0 0 16 16">
 <title
   id="title9623">Inkscape Icon Theme</title>
 <defs
   id="defs15640">
  <!--<inkscape:path-effect effect="spiro" id="path-effect36695" is_visible="true" />-->
  <linearGradient
    id="linearGradient19282"
    osb:paint="solid"
    gradientTransform="matrix(0,0,0,0,-1.1046e8,-6315500)">
   <stop
     style="stop-color:#666666;stop-opacity:1"
     offset="0"
     id="stop19284" />
  </linearGradient>
 </defs>
 <sodipodi:namedview
   id="base"
   pagecolor="#f2f2f2"
   bordercolor="#666666"
   borderopacity="1.0"
   inkscape:pageopacity="0"
   inkscape:pageshadow="2"
   inkscape:zoom="0.76028"
   inkscape:cx="105.9"
   inkscape:cy="-19.02"
   inkscape:document-units="px"
   inkscape:current-layer="layer1"
   showgrid="false"
   inkscape:window-width="1280"
   inkscape:window-height="960"
   inkscape:window-x="0"
   inkscape:window-y="27"
   inkscape:window-maximized="1"
   inkscape:snap-bbox="true"
   inkscape:bbox-paths="false"
   inkscape:bbox-nodes="true"
   inkscape:snap-global="false"
   showguides="false"
   inkscape:guide-bbox="true"
   inkscape:snap-nodes="false"
   inkscape:snap-object-midpoints="false"
   inkscape:snap-grids="true"
   inkscape:snap-to-guides="true"
   borderlayer="true"
   inkscape:showpageshadow="false"
   showborder="true"
   inkscape:snap-bbox-edge-midpoints="false"
   inkscape:object-nodes="true"
   inkscape:snap-intersection-paths="false"
   inkscape:snap-center="true">
  <inkscape:grid
    type="xygrid"
    id="grid15646"
    empspacing="5"
    visible="true"
    enabled="true"
    snapvisiblegridlinesonly="true"
    originx="-255"
    originy="-389" />
 </sodipodi:namedview>
 <metadata
   id="metadata15643">
  <rdf:RDF>
   <cc:Work
     rdf:about="">
    <dc:format>image/svg+xml</dc:format>
    <dc:type
      rdf:resource="http://purl.org/dc/dcmitype/StillImage" />
    <dc:title>Inkscape Icon Theme</dc:title>
    <dc:creator>
     <cc:Agent>
      <dc:title>Barbara Muraus</dc:title>
     </cc:Agent>
    </dc:creator>
    <dc:contributor>
     <cc:Agent>
      <dc:title>Jakub Steiner, Josh Andler</dc:title>
     </cc:Agent>
    </dc:contributor>
   </cc:Work>
  </rdf:RDF>
 </metadata>
 <g
   inkscape:label="Layer 1"
   inkscape:groupmode="layer"
   id="layer1"
   transform="translate(-255,-767.36)">
  <rect
    id="rect4073"
    y="767.36"
    x="255.02"
    height="16"
    width="16"
    style="fill:none;stroke-width:1.1217" />
  <use
    style="fill:url(#linearGradient19282)"
    xlink:href="#rect5405-3"
    transform="matrix(0.99278,0.11999,-0.11999,0.99277,103.04,-25.32)"
    x="0"
    y="0"
    inkscape:tiled-clone-of="#path5011"
    id="use5086-1-3"
    width="1250"
    height="1250" />
  <use
    style="fill:url(#linearGradient19282)"
    xlink:href="#rect5405-3"
    x="0"
    y="0"
    inkscape:tiled-clone-of="#path5011"
    transform="matrix(0.99308,0.1174,-0.11741,0.99308,103.93,-21.87)"
    id="use5088-9-5"
    width="1250"
    height="1250" />
  <use
    style="fill:url(#linearGradient19282)"
    xlink:href="#rect5405-3"
    x="0"
    y="0"
    inkscape:tiled-clone-of="#path5011"
    transform="matrix(0.97079,0.23993,-0.23995,0.97079,203.95,-33.23)"
    id="use5090-9-7"
    width="1250"
    height="1250" />
  <use
    style="fill:url(#linearGradient19282)"
    xlink:href="#rect5405-3"
    x="0"
    y="0"
    inkscape:tiled-clone-of="#path5011"
    transform="matrix(0.98986,0.14205,-0.14206,0.98986,114.86,-28.76)"
    id="use5092-7-7"
    width="1250"
    height="1250" />
  <use
    style="fill:url(#linearGradient19282)"
    xlink:href="#rect5405-3"
    x="0"
    y="0"
    inkscape:tiled-clone-of="#path5011"
    transform="matrix(1,0,0,0.99997,11.81,-0.00107)"
    id="use5094-1-2"
    width="1250"
    height="1250" />
  <use
    style="fill:url(#linearGradient19282)"
    xlink:href="#rect5405-3"
    x="0"
    y="0"
    inkscape:tiled-clone-of="#path5011"
    transform="matrix(0.95201,0.30605,-0.30607,0.95201,247.84,-35.8)"
    id="use5096-08-7"
    width="1250"
    height="1250" />
  <use
    style="fill:url(#linearGradient19282)"
    xlink:href="#rect5405-3"
    x="0"
    y="0"
    inkscape:tiled-clone-of="#path5011"
    transform="matrix(0.98933,0.14572,-0.14572,0.98933,114.86,-20.21)"
    id="use5098-0-4"
    width="1250"
    height="1250" />
  <use
    style="fill:url(#linearGradient19282)"
    xlink:href="#rect5405-3"
    x="0"
    y="0"
    inkscape:tiled-clone-of="#path5011"
    transform="matrix(0.9647,0.26332,-0.26334,0.9647,217.61,-40.62)"
    id="use5100-2-4"
    width="1250"
    height="1250" />
  <use
    style="fill:url(#linearGradient19282)"
    xlink:href="#rect5405-3"
    x="0"
    y="0"
    inkscape:tiled-clone-of="#path5011"
    transform="matrix(0.98661,0.16311,-0.16312,0.98661,128.95,-28.65)"
    id="use5103-7-0"
    width="1250"
    height="1250" />
  <use
    style="fill:url(#linearGradient19282)"
    xlink:href="#rect5405-3"
    x="0"
    y="0"
    inkscape:tiled-clone-of="#path5011"
    transform="matrix(0.7087,0.70549,-0.70553,0.7087,620.77,45.568)"
    id="use5106-2-2"
    width="1250"
    height="1250" />
  <use
    style="fill:url(#linearGradient19282)"
    xlink:href="#rect5405-3"
    x="0"
    y="0"
    inkscape:tiled-clone-of="#path5011"
    transform="matrix(0.74048,0.67206,-0.6721,0.74048,586.87,35.778)"
    id="use5108-6-5"
    width="1250"
    height="1250" />
  <use
    style="fill:url(#linearGradient19282)"
    xlink:href="#rect5405-3"
    x="0"
    y="0"
    inkscape:tiled-clone-of="#path5011"
    transform="matrix(0.45063,0.89268,-0.89274,0.45063,834.18,195.95)"
    id="use5110-65-0"
    width="1250"
    height="1250" />
  <use
    style="fill:url(#linearGradient19282)"
    xlink:href="#rect5405-3"
    x="0"
    y="0"
    inkscape:tiled-clone-of="#path5011"
    transform="matrix(0.75216,0.65896,-0.659,0.75216,579.68,24.108)"
    id="use5112-8-3"
    width="1250"
    height="1250" />
  <use
    style="fill:url(#linearGradient19282)"
    xlink:href="#rect5405-3"
    x="0"
    y="0"
    inkscape:tiled-clone-of="#path5011"
    transform="matrix(0.42202,0.90656,-0.90662,0.42202,849.27,217.41)"
    id="use5114-5-8"
    width="1250"
    height="1250" />
  <use
    style="fill:url(#linearGradient19282)"
    xlink:href="#rect5405-3"
    x="0"
    y="0"
    inkscape:tiled-clone-of="#path5011"
    transform="matrix(0.50134,0.86522,-0.86527,0.50134,800,170.05)"
    id="use5116-6-2"
    width="1250"
    height="1250" />
  <use
    style="fill:url(#linearGradient19282)"
    xlink:href="#rect5405-3"
    x="0"
    y="0"
    inkscape:tiled-clone-of="#path5011"
    transform="matrix(0.03141,0.99948,-0.99954,0.03141,1024.2,494.03)"
    id="use5118-0-4"
    width="1250"
    height="1250" />
  <use
    style="fill:url(#linearGradient19282)"
    xlink:href="#rect5405-3"
    x="0"
    y="0"
    inkscape:tiled-clone-of="#path5011"
    transform="matrix(0.49417,0.86934,-0.86939,0.49417,807.97,171.48)"
    id="use5120-1-8"
    width="1250"
    height="1250" />
  <use
    style="fill:url(#linearGradient19282)"
    xlink:href="#rect5405-3"
    x="0"
    y="0"
    inkscape:tiled-clone-of="#path5011"
    transform="matrix(0.78023,0.62547,-0.62551,0.78024,546.69,17.178)"
    id="use5122-0-2"
    width="1250"
    height="1250" />
  <use
    style="fill:url(#linearGradient19282)"
    xlink:href="#rect5405-3"
    x="0"
    y="0"
    inkscape:tiled-clone-of="#path5011"
    transform="matrix(0.99577,0.09183,-0.09184,0.99577,80.61,-8.2708)"
    id="use5124-4-5"
    width="1250"
    height="1250" />
  <use
    style="fill:url(#linearGradient19282)"
    xlink:href="#rect5405-3"
    height="1250"
    width="1250"
    id="use5126-7-1"
    transform="matrix(0.99468,0.10298,-0.10298,0.99468,92.42,-13.331)"
    inkscape:tiled-clone-of="#path5011"
    y="0"
    x="0" />
  <use
    style="fill:url(#linearGradient19282)"
    xlink:href="#rect5405-3"
    height="1250"
    width="1250"
    id="use5128-0-6"
    transform="matrix(1,0,0,0.99997,0,12.109)"
    inkscape:tiled-clone-of="#path5011"
    y="0"
    x="0" />
  <use
    style="fill:url(#linearGradient19282)"
    xlink:href="#rect5405-3"
    height="1250"
    width="1250"
    id="use5130-7-6"
    transform="matrix(0.99382,0.11098,-0.11098,0.99382,89.93,-11.701)"
    inkscape:tiled-clone-of="#path5011"
    y="0"
    x="0" />
  <use
    style="fill:url(#linearGradient19282)"
    xlink:href="#rect5405-3"
    height="1250"
    width="1250"
    id="use5132-5-6"
    transform="matrix(0.97576,0.21881,-0.21883,0.97576,180.51,-25.57)"
    inkscape:tiled-clone-of="#path5011"
    y="0"
    x="0" />
  <use
    style="fill:url(#linearGradient19282)"
    xlink:href="#rect5405-3"
    height="1250"
    width="1250"
    id="use5134-1-1"
    transform="matrix(1,0,0,0.99997,11.81,12.109)"
    inkscape:tiled-clone-of="#path5011"
    y="0"
    x="0" />
  <rect
    y="767.88"
    x="256.88"
    height="3.0359"
    width="1.2579"
    id="rect5405-3"
    style="color:#000000;fill:url(#linearGradient19282);stroke-width:0.33441" />
 </g>
</svg>
