<svg xmlns="http://www.w3.org/2000/svg" xmlns:xlink="http://www.w3.org/1999/xlink" width="16" height="16" version="1.1" viewBox="0 0 16 16">
 <g transform="translate(-255,-707.36)">
  <rect style="opacity:0.3;fill:none" width="16" height="16" x="255" y="707.36"/>
  <use style="fill:#666666" width="1250" height="1250" x="0" y="0" transform="translate(8.86,11.02)" xlink:href="#path5084"/>
  <use style="fill:#666666" width="1250" height="1250" x="0" y="0" transform="translate(2.95,11.1)" xlink:href="#path5084"/>
  <use style="fill:#666666" width="1250" height="1250" x="0" y="0" transform="translate(11.12,3.03)" xlink:href="#path5084"/>
  <use style="fill:#666666" width="1250" height="1250" x="0" y="0" transform="translate(11.04,9.08)" xlink:href="#path5084"/>
  <use style="fill:#666666" width="1250" height="1250" x="0" y="0" transform="translate(10.38,6.05)" xlink:href="#path5084"/>
  <use style="fill:#666666" width="1250" height="1250" x="0" y="0" transform="translate(5.91,10.4)" xlink:href="#path5084"/>
  <circle style="fill:#666666" cx="257.17" cy="709.32" r="1.341"/>
  <use style="fill:#666666" width="1250" height="1250" x="0" y="0" transform="translate(8.71,0.93)" xlink:href="#path5084"/>
  <use style="fill:#666666" width="1250" height="1250" x="0" y="0" transform="translate(2.95,0.85)" xlink:href="#path5084"/>
  <use style="fill:#666666" width="1250" height="1250" x="0" y="0" transform="translate(11.81)" xlink:href="#path5084"/>
  <use style="fill:#666666" width="1250" height="1250" x="0" y="0" transform="translate(1.32,6.05)" xlink:href="#path5084"/>
  <use style="fill:#666666" width="1250" height="1250" x="0" y="0" transform="translate(0.78,9.08)" xlink:href="#path5084"/>
  <use style="fill:#666666" width="1250" height="1250" x="0" y="0" transform="translate(5.91,1.59)" xlink:href="#path5084"/>
  <use style="fill:#666666" width="1250" height="1250" x="0" y="0" transform="translate(0.66,3.03)" xlink:href="#path5084"/>
  <use style="fill:#666666" width="1250" height="1250" x="0" y="0" transform="translate(3.23,3.3)" xlink:href="#path5084"/>
  <use style="fill:#666666" width="1250" height="1250" x="0" y="0" transform="translate(3.15,8.73)" xlink:href="#path5084"/>
  <use style="fill:#666666" width="1250" height="1250" x="0" y="0" transform="translate(5.91,4.19)" xlink:href="#path5084"/>
  <use style="fill:#666666" width="1250" height="1250" x="0" y="0" transform="translate(8.71,3.38)" xlink:href="#path5084"/>
  <use style="fill:#666666" width="1250" height="1250" x="0" y="0" transform="translate(3.96,6.05)" xlink:href="#path5084"/>
  <use style="fill:#666666" width="1250" height="1250" x="0" y="0" transform="translate(5.91,7.76)" xlink:href="#path5084"/>
  <use style="fill:#666666" width="1250" height="1250" x="0" y="0" transform="translate(7.7,6.05)" xlink:href="#path5084"/>
  <use style="fill:#666666" width="1250" height="1250" x="0" y="0" transform="translate(8.63,8.77)" xlink:href="#path5084"/>
  <use style="fill:#666666" width="1250" height="1250" x="0" y="0" transform="translate(0,12.11)" xlink:href="#path5084"/>
  <use style="fill:#666666" width="1250" height="1250" x="0" y="0" transform="translate(11.81,12.11)" xlink:href="#path5084"/>
 </g>
</svg>
