<svg xmlns="http://www.w3.org/2000/svg" xmlns:osb="http://www.openswatchbook.org/uri/2009/osb" xmlns:xlink="http://www.w3.org/1999/xlink" width="16" height="16" version="1.1" viewBox="0 0 16 16">
 <defs>
  <linearGradient id="linearGradient19282" gradientTransform="matrix(0,0,0,0,-3.2151e8,-11121000)" osb:paint="solid">
   <stop style="stop-color:#666666" offset="0"/>
  </linearGradient>
 </defs>
 <g transform="translate(-255,-747.36)">
  <rect style="opacity:0.3;fill:none" width="16" height="16" x="255" y="747.36"/>
  <ellipse style="fill:url(#linearGradient19282)" cx="256.48" cy="748.81" rx="1.48" ry="1.45"/>
  <use style="fill:url(#linearGradient19282)" width="1250" height="1250" x="0" y="0" transform="matrix(0.98608,0,0,0.98608,13.352,10.427)" xlink:href="#path5084-2"/>
  <use style="fill:url(#linearGradient19282)" width="1250" height="1250" x="0" y="0" transform="matrix(0.97913,0,0,0.97913,18.394,18.905)" xlink:href="#path5084-2"/>
  <use style="fill:url(#linearGradient19282)" width="1250" height="1250" x="0" y="0" transform="matrix(0.90253,0,0,0.90253,38.041,79.54)" xlink:href="#path5084-2"/>
  <use style="fill:url(#linearGradient19282)" width="1250" height="1250" x="0" y="0" transform="matrix(0.98607,0,0,0.98607,6.8328,10.43)" xlink:href="#path5084-2"/>
  <use style="fill:url(#linearGradient19282)" width="1250" height="1250" x="0" y="0" transform="translate(13.041)" xlink:href="#path5084-2"/>
  <use style="fill:url(#linearGradient19282)" width="1250" height="1250" x="0" y="0" transform="matrix(0.90686,0,0,0.90686,23.888,76.293)" xlink:href="#path5084-2"/>
  <use style="fill:url(#linearGradient19282)" width="1250" height="1250" x="0" y="0" transform="matrix(0.9828,0,0,0.9828,4.4109,22.703)" xlink:href="#path5084-2"/>
  <use style="fill:url(#linearGradient19282)" width="1250" height="1250" x="0" y="0" transform="matrix(0.92205,0,0,0.92205,26.514,58.372)" xlink:href="#path5084-2"/>
  <use style="fill:url(#linearGradient19282)" width="1250" height="1250" x="0" y="0" transform="matrix(0.98019,0,0,0.98019,5.0801,18.106)" xlink:href="#path5084-2"/>
  <use style="fill:url(#linearGradient19282)" width="1250" height="1250" x="0" y="0" transform="matrix(0.61468,0,0,0.61468,102.09,291.81)" xlink:href="#path5084-2"/>
  <use style="fill:url(#linearGradient19282)" width="1250" height="1250" x="0" y="0" transform="matrix(0.62326,0,0,0.62326,99.886,291.93)" xlink:href="#path5084-2"/>
  <use style="fill:url(#linearGradient19282)" width="1250" height="1250" x="0" y="0" transform="matrix(0.42965,0,0,0.42965,152.8,430.36)" xlink:href="#path5084-2"/>
  <use style="fill:url(#linearGradient19282)" width="1250" height="1250" x="0" y="0" transform="matrix(0.61129,0,0,0.61129,109.48,294.34)" xlink:href="#path5084-2"/>
  <use style="fill:url(#linearGradient19282)" width="1250" height="1250" x="0" y="0" transform="matrix(0.4261,0,0,0.4261,150.45,436.29)" xlink:href="#path5084-2"/>
  <use style="fill:url(#linearGradient19282)" width="1250" height="1250" x="0" y="0" transform="matrix(0.43781,0,0,0.43781,150.71,430.8)" xlink:href="#path5084-2"/>
  <use style="fill:url(#linearGradient19282)" width="1250" height="1250" x="0" y="0" transform="matrix(0.25681,0,0,0.25681,197.13,563.06)" xlink:href="#path5084-2"/>
  <use style="fill:url(#linearGradient19282)" width="1250" height="1250" x="0" y="0" transform="matrix(0.42228,0,0,0.42228,157.95,439.15)" xlink:href="#path5084-2"/>
  <use style="fill:url(#linearGradient19282)" width="1250" height="1250" x="0" y="0" transform="matrix(0.619,0,0,0.619,107.5,295.12)" xlink:href="#path5084-2"/>
  <use style="fill:url(#linearGradient19282)" width="1250" height="1250" x="0" y="0" transform="matrix(0.98841,0,0,0.98841,12.752,21.776)" xlink:href="#path5084-2"/>
  <use style="fill:url(#linearGradient19282)" width="1250" height="1250" x="0" y="0" transform="matrix(0.98031,0,0,0.98031,18.09,24.567)" xlink:href="#path5084-2"/>
  <use style="fill:url(#linearGradient19282)" width="1250" height="1250" x="0" y="0" transform="translate(0,13.1)" xlink:href="#path5084-2"/>
  <use style="fill:url(#linearGradient19282)" width="1250" height="1250" x="0" y="0" transform="matrix(0.98978,0,0,0.98978,5.8817,20.753)" xlink:href="#path5084-2"/>
  <use style="fill:url(#linearGradient19282)" width="1250" height="1250" x="0" y="0" transform="matrix(0.93022,0,0,0.93022,24.418,65.352)" xlink:href="#path5084-2"/>
  <use style="fill:url(#linearGradient19282)" width="1250" height="1250" x="0" y="0" transform="translate(13.041,13.1)" xlink:href="#path5084-2"/>
 </g>
</svg>
