<svg xmlns="http://www.w3.org/2000/svg" xmlns:osb="http://www.openswatchbook.org/uri/2009/osb" width="16" height="16" version="1.1" viewBox="0 0 16 16">
 <defs>
  <linearGradient id="linearGradient19282" gradientTransform="matrix(0,0,0,0,-1.1046e8,-6315000)" osb:paint="solid">
   <stop style="stop-color:#666666" offset="0"/>
  </linearGradient>
 </defs>
 <g transform="translate(-135,-727.36)">
  <rect style="fill:none" width="16" height="16" x="-151" y="727.36" transform="scale(-1,1)"/>
  <path style="fill:url(#linearGradient19282)" d="M 139,737.36 136,734.36 H 142 Z"/>
  <path style="fill:url(#linearGradient19282)" d="M 144.5,727.36 C 144.67,727.36 144.83,727.38 145,727.39 V 729.42 C 144.83,729.4 144.67,729.36 144.5,729.36 142.01,729.36 140,731.38 140,733.86 140,734.03 140.04,734.19 140.06,734.36 H 138.03 C 138.02,734.19 138,734.03 138,733.86 138,730.27 140.91,727.36 144.5,727.36 Z"/>
  <rect style="fill:url(#linearGradient19282)" width="5" height="10" x="-151" y="727.36" transform="scale(-1,1)"/>
  <rect style="fill:url(#linearGradient19282)" width="5" height="10" x="738.36" y="135" transform="matrix(0,1,1,0,0,0)"/>
 </g>
</svg>
