<svg xmlns="http://www.w3.org/2000/svg" xmlns:osb="http://www.openswatchbook.org/uri/2009/osb" width="16" height="16" version="1.1" viewBox="0 0 16 16">
 <defs>
  <linearGradient id="linearGradient19282" gradientTransform="matrix(0,0,0,0,-5.0763e8,-28501000)" osb:paint="solid">
   <stop style="stop-color:#666666" offset="0"/>
  </linearGradient>
 </defs>
 <g transform="translate(-255,-787.36)">
  <rect style="fill:none" width="16" height="16" x="255" y="787.36"/>
  <path style="fill:url(#linearGradient19282)" d="M 260.41,788.36 C 260.53,789.69 261.64,790.74 263,790.74 264.36,790.74 265.47,789.69 265.59,788.36 Z"/>
  <ellipse style="opacity:0.3;fill:url(#linearGradient19282)" cx="262" cy="794.75" rx="2.449" ry="2.404"/>
  <path style="fill:url(#linearGradient19282)" d="M 263,799.58 C 261.55,799.58 260.37,800.79 260.37,802.24 260.37,802.28 260.37,802.32 260.37,802.36 H 265.62 C 265.62,802.32 265.62,802.28 265.62,802.24 265.62,800.79 264.45,799.58 263,799.58 Z"/>
  <path style="fill:url(#linearGradient19282)" d="M 270,792.55 C 268.58,792.58 267.44,793.75 267.44,795.17 267.44,796.6 268.58,797.77 270,797.8 Z"/>
  <path style="fill:url(#linearGradient19282)" d="M 256,792.55 V 797.8 C 257.42,797.77 258.56,796.61 258.56,795.17 258.56,793.74 257.42,792.58 256,792.55 Z"/>
  <path style="fill:url(#linearGradient19282)" d="M 267.47,788.36 C 267.59,789.67 268.66,790.71 270,790.74 V 788.36 Z"/>
  <path style="fill:url(#linearGradient19282)" d="M 256,788.36 V 790.74 C 257.34,790.71 258.41,789.68 258.53,788.36 Z"/>
  <path style="fill:url(#linearGradient19282)" d="M 270,799.61 C 268.58,799.65 267.44,800.81 267.44,802.24 267.44,802.28 267.44,802.32 267.44,802.36 H 270 Z"/>
  <path style="fill:url(#linearGradient19282)" d="M 256,799.58 V 802.36 H 258.56 C 258.56,802.32 258.56,802.28 258.56,802.24 258.56,800.81 257.42,799.62 256,799.58 Z"/>
  <circle style="fill:url(#linearGradient19282)" cx="263.66" cy="795.87" r="2.32"/>
 </g>
</svg>
