<svg xmlns="http://www.w3.org/2000/svg" xmlns:osb="http://www.openswatchbook.org/uri/2009/osb" xmlns:xlink="http://www.w3.org/1999/xlink" width="16" height="16" version="1.1" viewBox="0 0 16 16">
 <defs>
  <linearGradient id="linearGradient19282" gradientTransform="matrix(0,0,0,0,-1.1046e8,-6315500)" osb:paint="solid">
   <stop style="stop-color:#666666" offset="0"/>
  </linearGradient>
 </defs>
 <g transform="translate(-255,-767.36)">
  <rect style="fill:none" width="16" height="16" x="255.02" y="767.36"/>
  <use style="fill:url(#linearGradient19282)" width="1250" height="1250" x="0" y="0" transform="matrix(0.99278,0.11999,-0.11999,0.99277,103.04,-25.32)" xlink:href="#rect5405-3"/>
  <use style="fill:url(#linearGradient19282)" width="1250" height="1250" x="0" y="0" transform="matrix(0.99308,0.1174,-0.11741,0.99308,103.93,-21.87)" xlink:href="#rect5405-3"/>
  <use style="fill:url(#linearGradient19282)" width="1250" height="1250" x="0" y="0" transform="matrix(0.97079,0.23993,-0.23995,0.97079,203.95,-33.23)" xlink:href="#rect5405-3"/>
  <use style="fill:url(#linearGradient19282)" width="1250" height="1250" x="0" y="0" transform="matrix(0.98986,0.14205,-0.14206,0.98986,114.86,-28.76)" xlink:href="#rect5405-3"/>
  <use style="fill:url(#linearGradient19282)" width="1250" height="1250" x="0" y="0" transform="matrix(1,0,0,0.99997,11.81,-0.00107)" xlink:href="#rect5405-3"/>
  <use style="fill:url(#linearGradient19282)" width="1250" height="1250" x="0" y="0" transform="matrix(0.95201,0.30605,-0.30607,0.95201,247.84,-35.8)" xlink:href="#rect5405-3"/>
  <use style="fill:url(#linearGradient19282)" width="1250" height="1250" x="0" y="0" transform="matrix(0.98933,0.14572,-0.14572,0.98933,114.86,-20.21)" xlink:href="#rect5405-3"/>
  <use style="fill:url(#linearGradient19282)" width="1250" height="1250" x="0" y="0" transform="matrix(0.9647,0.26332,-0.26334,0.9647,217.61,-40.62)" xlink:href="#rect5405-3"/>
  <use style="fill:url(#linearGradient19282)" width="1250" height="1250" x="0" y="0" transform="matrix(0.98661,0.16311,-0.16312,0.98661,128.95,-28.65)" xlink:href="#rect5405-3"/>
  <use style="fill:url(#linearGradient19282)" width="1250" height="1250" x="0" y="0" transform="matrix(0.7087,0.70549,-0.70553,0.7087,620.77,45.568)" xlink:href="#rect5405-3"/>
  <use style="fill:url(#linearGradient19282)" width="1250" height="1250" x="0" y="0" transform="matrix(0.74048,0.67206,-0.6721,0.74048,586.87,35.778)" xlink:href="#rect5405-3"/>
  <use style="fill:url(#linearGradient19282)" width="1250" height="1250" x="0" y="0" transform="matrix(0.45063,0.89268,-0.89274,0.45063,834.18,195.95)" xlink:href="#rect5405-3"/>
  <use style="fill:url(#linearGradient19282)" width="1250" height="1250" x="0" y="0" transform="matrix(0.75216,0.65896,-0.659,0.75216,579.68,24.108)" xlink:href="#rect5405-3"/>
  <use style="fill:url(#linearGradient19282)" width="1250" height="1250" x="0" y="0" transform="matrix(0.42202,0.90656,-0.90662,0.42202,849.27,217.41)" xlink:href="#rect5405-3"/>
  <use style="fill:url(#linearGradient19282)" width="1250" height="1250" x="0" y="0" transform="matrix(0.50134,0.86522,-0.86527,0.50134,800,170.05)" xlink:href="#rect5405-3"/>
  <use style="fill:url(#linearGradient19282)" width="1250" height="1250" x="0" y="0" transform="matrix(0.03141,0.99948,-0.99954,0.03141,1024.2,494.03)" xlink:href="#rect5405-3"/>
  <use style="fill:url(#linearGradient19282)" width="1250" height="1250" x="0" y="0" transform="matrix(0.49417,0.86934,-0.86939,0.49417,807.97,171.48)" xlink:href="#rect5405-3"/>
  <use style="fill:url(#linearGradient19282)" width="1250" height="1250" x="0" y="0" transform="matrix(0.78023,0.62547,-0.62551,0.78024,546.69,17.178)" xlink:href="#rect5405-3"/>
  <use style="fill:url(#linearGradient19282)" width="1250" height="1250" x="0" y="0" transform="matrix(0.99577,0.09183,-0.09184,0.99577,80.61,-8.2708)" xlink:href="#rect5405-3"/>
  <use style="fill:url(#linearGradient19282)" width="1250" height="1250" x="0" y="0" transform="matrix(0.99468,0.10298,-0.10298,0.99468,92.42,-13.331)" xlink:href="#rect5405-3"/>
  <use style="fill:url(#linearGradient19282)" width="1250" height="1250" x="0" y="0" transform="matrix(1,0,0,0.99997,0,12.109)" xlink:href="#rect5405-3"/>
  <use style="fill:url(#linearGradient19282)" width="1250" height="1250" x="0" y="0" transform="matrix(0.99382,0.11098,-0.11098,0.99382,89.93,-11.701)" xlink:href="#rect5405-3"/>
  <use style="fill:url(#linearGradient19282)" width="1250" height="1250" x="0" y="0" transform="matrix(0.97576,0.21881,-0.21883,0.97576,180.51,-25.57)" xlink:href="#rect5405-3"/>
  <use style="fill:url(#linearGradient19282)" width="1250" height="1250" x="0" y="0" transform="matrix(1,0,0,0.99997,11.81,12.109)" xlink:href="#rect5405-3"/>
  <rect style="fill:url(#linearGradient19282)" width="1.258" height="3.036" x="256.88" y="767.88"/>
 </g>
</svg>
