<svg xmlns="http://www.w3.org/2000/svg" xmlns:osb="http://www.openswatchbook.org/uri/2009/osb" width="16" height="16" version="1.1" viewBox="0 0 16 16">
 <defs>
  <linearGradient id="linearGradient19282" gradientTransform="matrix(0,0,0,0,-1.1046e8,-6301900)" osb:paint="solid">
   <stop style="stop-color:#666666" offset="0"/>
  </linearGradient>
 </defs>
 <g transform="translate(-588,-805.36)">
  <rect style="fill:none" width="16" height="16" x="588" y="805.36"/>
  <rect style="opacity:0.3;fill:url(#linearGradient19282)" width="3" height="3" x="589.5" y="806.86"/>
  <rect style="opacity:0.3;fill:url(#linearGradient19282)" width="3" height="3" x="594.5" y="806.86"/>
  <rect style="opacity:0.3;fill:url(#linearGradient19282)" width="3" height="3" x="599.5" y="806.86"/>
  <rect style="opacity:0.3;fill:url(#linearGradient19282)" width="3" height="3" x="589.5" y="811.86"/>
  <rect style="opacity:0.3;fill:url(#linearGradient19282)" width="3" height="3" x="594.5" y="811.86"/>
  <rect style="opacity:0.3;fill:url(#linearGradient19282)" width="3" height="3" x="599.5" y="811.86"/>
  <rect style="opacity:0.3;fill:url(#linearGradient19282)" width="3" height="3" x="589.5" y="816.86"/>
  <rect style="opacity:0.3;fill:url(#linearGradient19282)" width="3" height="3" x="594.5" y="816.86"/>
  <rect style="opacity:0.3;fill:url(#linearGradient19282)" width="3" height="3" x="599.5" y="816.86"/>
  <rect style="fill:none;stroke:url(#linearGradient19282)" width="3" height="3" x="589.5" y="806.86"/>
  <rect style="fill:none;stroke:url(#linearGradient19282)" width="3" height="3" x="594.5" y="806.86"/>
  <rect style="fill:none;stroke:url(#linearGradient19282)" width="3" height="3" x="599.5" y="806.86"/>
  <rect style="fill:none;stroke:url(#linearGradient19282)" width="3" height="3" x="589.5" y="811.86"/>
  <rect style="fill:none;stroke:url(#linearGradient19282)" width="3" height="3" x="594.5" y="811.86"/>
  <rect style="fill:none;stroke:url(#linearGradient19282)" width="3" height="3" x="599.5" y="811.86"/>
  <rect style="fill:none;stroke:url(#linearGradient19282)" width="3" height="3" x="589.5" y="816.86"/>
  <rect style="fill:none;stroke:url(#linearGradient19282)" width="3" height="3" x="594.5" y="816.86"/>
  <rect style="fill:none;stroke:url(#linearGradient19282)" width="3" height="3" x="599.5" y="816.86"/>
 </g>
</svg>
