<svg xmlns="http://www.w3.org/2000/svg" width="20" height="20" version="1.1" viewBox="0 0 20 20">
 <g transform="translate(-1113,-963.36)">
  <rect style="fill:none" width="20" height="20" x="1113" y="963.36"/>
  <path style="fill:#666666" d="M 1123.3,965.27 C 1124.7,965.27 1126,965.65 1127.1,966.4 1128.4,967.26 1129,968.42 1129,969.88 1129,971.11 1128.6,972.07 1127.8,972.78 L 1125.7,974.47 C 1125,974.96 1125,975.48 1125,976.36 H 1120 C 1119.7,974.21 1120.6,973.61 1121.2,972.94 1121.4,972.75 1122.5,972.3 1123.4,971.49 1124,970.98 1124.4,970.7 1124.4,970.12 1124.4,969.71 1124.2,969.38 1123.9,969.13 1123.6,968.88 1123.3,968.75 1122.9,968.75 1122.4,968.75 1121,969.01 1121,970.59 V 971.36 L 1117,971.3 C 1117,970.36 1117.2,969.11 1117.5,968.42 1117.9,967.72 1118.4,967.12 1119.1,966.63 1120.2,965.82 1121.4,965.27 1123.3,965.27"/>
  <path style="fill:#666666" d="M 1120,978.36 H 1125 L 1124.9,983.27 H 1120 V 978.36"/>
 </g>
</svg>
