<svg xmlns="http://www.w3.org/2000/svg" xmlns:osb="http://www.openswatchbook.org/uri/2009/osb" width="20" height="20" version="1.1" viewBox="0 0 20 20">
 <defs>
  <linearGradient id="linearGradient19282" gradientTransform="matrix(0,0,0,0,-1.1046e8,-6316300)" osb:paint="solid">
   <stop style="stop-color:#666666" offset="0"/>
  </linearGradient>
 </defs>
 <g transform="translate(-1146,-929.36)">
  <rect style="opacity:0.3;fill:none" width="20" height="20" x="1146" y="929.36"/>
  <rect style="fill:url(#linearGradient19282)" width="6" height="6" x="1153" y="936.36"/>
  <rect style="fill:url(#linearGradient19282)" width="1" height="1" x="1153" y="935.36"/>
  <rect style="fill:url(#linearGradient19282)" width="1" height="1" x="1155" y="935.36"/>
  <rect style="fill:url(#linearGradient19282)" width="1" height="1" x="1157" y="935.36"/>
  <rect style="fill:url(#linearGradient19282)" width="1" height="1" x="1159" y="935.36"/>
  <rect style="fill:url(#linearGradient19282)" width="1" height="1" x="1159" y="937.36"/>
  <rect style="fill:url(#linearGradient19282)" width="1" height="1" x="1159" y="939.36"/>
  <rect style="fill:url(#linearGradient19282)" width="1" height="1" x="1159" y="941.36"/>
  <rect style="fill:url(#linearGradient19282)" width="1" height="1" x="1158" y="942.36"/>
  <rect style="fill:url(#linearGradient19282)" width="1" height="1" x="1156" y="942.36"/>
  <rect style="fill:url(#linearGradient19282)" width="1" height="1" x="1154" y="942.36"/>
  <rect style="fill:url(#linearGradient19282)" width="1" height="1" x="1152" y="938.36"/>
  <rect style="fill:url(#linearGradient19282)" width="1" height="1" x="1160" y="938.36"/>
  <rect style="fill:url(#linearGradient19282)" width="1" height="1" x="1160" y="940.36"/>
  <rect style="fill:url(#linearGradient19282)" width="1" height="1" x="1160" y="942.36"/>
  <rect style="fill:url(#linearGradient19282)" width="1" height="1" x="1159" y="943.36"/>
  <rect style="fill:url(#linearGradient19282)" width="1" height="1" x="1157" y="943.36"/>
  <rect style="fill:url(#linearGradient19282)" width="1" height="1" x="1155" y="943.36"/>
  <rect style="fill:url(#linearGradient19282)" width="1" height="1" x="1153" y="943.36"/>
  <rect style="fill:url(#linearGradient19282)" width="1" height="1" x="1152" y="942.36"/>
  <rect style="fill:url(#linearGradient19282)" width="1" height="1" x="1152" y="936.36"/>
  <rect style="opacity:0.3;fill:url(#linearGradient19282)" width="10" height="1" x="1151" y="944.36"/>
  <rect style="opacity:0.3;fill:url(#linearGradient19282)" width="1" height="12" x="1161" y="933.36"/>
  <rect style="opacity:0.3;fill:url(#linearGradient19282)" width="1" height="1" x="1150" y="931.36"/>
  <rect style="opacity:0.3;fill:url(#linearGradient19282)" width="1" height="1" x="1151" y="932.36"/>
  <rect style="opacity:0.3;fill:url(#linearGradient19282)" width="1" height="1" x="1153" y="932.36"/>
  <rect style="opacity:0.3;fill:url(#linearGradient19282)" width="1" height="1" x="1155" y="932.36"/>
  <rect style="opacity:0.3;fill:url(#linearGradient19282)" width="1" height="1" x="1157" y="932.36"/>
  <rect style="opacity:0.3;fill:url(#linearGradient19282)" width="1" height="1" x="1159" y="932.36"/>
  <rect style="opacity:0.3;fill:url(#linearGradient19282)" width="1" height="1" x="1149" y="942.36"/>
  <rect style="opacity:0.3;fill:url(#linearGradient19282)" width="1" height="1" x="1149" y="940.36"/>
  <rect style="opacity:0.3;fill:url(#linearGradient19282)" width="1" height="1" x="1149" y="938.36"/>
  <rect style="opacity:0.3;fill:url(#linearGradient19282)" width="1" height="1" x="1149" y="936.36"/>
  <rect style="opacity:0.3;fill:url(#linearGradient19282)" width="1" height="1" x="1149" y="934.36"/>
  <rect style="opacity:0.3;fill:url(#linearGradient19282)" width="1" height="1" x="1149" y="932.36"/>
  <rect style="opacity:0.3;fill:url(#linearGradient19282)" width="1" height="1" x="1151" y="930.36"/>
  <rect style="opacity:0.3;fill:url(#linearGradient19282)" width="1" height="1" x="1153" y="930.36"/>
  <rect style="opacity:0.3;fill:url(#linearGradient19282)" width="1" height="1" x="1155" y="930.36"/>
  <rect style="opacity:0.3;fill:url(#linearGradient19282)" width="1" height="1" x="1157" y="930.36"/>
  <rect style="opacity:0.3;fill:url(#linearGradient19282)" width="1" height="1" x="1159" y="930.36"/>
  <rect style="opacity:0.3;fill:url(#linearGradient19282)" width="1" height="1" x="1161" y="930.36"/>
  <rect style="opacity:0.3;fill:url(#linearGradient19282)" width="1" height="1" x="1163" y="930.36"/>
  <rect style="opacity:0.3;fill:url(#linearGradient19282)" width="1" height="1" x="1162" y="933.36"/>
  <rect style="opacity:0.3;fill:url(#linearGradient19282)" width="1" height="1" x="1162" y="937.36"/>
  <rect style="opacity:0.3;fill:url(#linearGradient19282)" width="1" height="1" x="1162" y="939.36"/>
  <rect style="opacity:0.3;fill:url(#linearGradient19282)" width="1" height="1" x="1163" y="940.36"/>
  <rect style="opacity:0.3;fill:url(#linearGradient19282)" width="1" height="1" x="1163" y="942.36"/>
  <rect style="opacity:0.3;fill:url(#linearGradient19282)" width="1" height="1" x="1162" y="941.36"/>
  <rect style="opacity:0.3;fill:url(#linearGradient19282)" width="1" height="1" x="1160" y="947.36"/>
  <rect style="opacity:0.3;fill:url(#linearGradient19282)" width="1" height="1" x="1158" y="947.36"/>
  <rect style="opacity:0.3;fill:url(#linearGradient19282)" width="1" height="1" x="1156" y="947.36"/>
  <rect style="opacity:0.3;fill:url(#linearGradient19282)" width="1" height="1" x="1154" y="947.36"/>
  <rect style="opacity:0.3;fill:url(#linearGradient19282)" width="1" height="1" x="1152" y="947.36"/>
  <rect style="opacity:0.3;fill:url(#linearGradient19282)" width="1" height="1" x="1150" y="947.36"/>
  <rect style="opacity:0.3;fill:url(#linearGradient19282)" width="1" height="1" x="1148" y="947.36"/>
  <rect style="opacity:0.3;fill:url(#linearGradient19282)" width="1" height="1" x="1148" y="943.36"/>
  <rect style="opacity:0.3;fill:url(#linearGradient19282)" width="1" height="1" x="1148" y="941.36"/>
  <rect style="opacity:0.3;fill:url(#linearGradient19282)" width="1" height="1" x="1148" y="939.36"/>
  <rect style="opacity:0.3;fill:url(#linearGradient19282)" width="1" height="1" x="1148" y="937.36"/>
  <rect style="opacity:0.3;fill:url(#linearGradient19282)" width="1" height="1" x="1148" y="935.36"/>
  <rect style="opacity:0.3;fill:url(#linearGradient19282)" width="1" height="1" x="1148" y="933.36"/>
  <rect style="opacity:0.3;fill:url(#linearGradient19282)" width="1" height="1" x="1148" y="931.36"/>
  <rect style="opacity:0.3;fill:url(#linearGradient19282)" width="1" height="1" x="1164" y="941.36"/>
  <rect style="opacity:0.3;fill:url(#linearGradient19282)" width="1" height="1" x="1164" y="939.36"/>
  <rect style="opacity:0.3;fill:url(#linearGradient19282)" width="1" height="1" x="1164" y="937.36"/>
  <rect style="opacity:0.3;fill:url(#linearGradient19282)" width="1" height="1" x="1164" y="935.36"/>
  <rect style="opacity:0.3;fill:url(#linearGradient19282)" width="1" height="1" x="1164" y="933.36"/>
  <rect style="opacity:0.3;fill:url(#linearGradient19282)" width="1" height="1" x="1164" y="931.36"/>
  <rect style="opacity:0.3;fill:url(#linearGradient19282)" width="1" height="1" x="-1150" y="930.36" transform="scale(-1,1)"/>
  <rect style="opacity:0.3;fill:url(#linearGradient19282)" width="1" height="1" x="1161" y="932.36"/>
  <rect style="opacity:0.3;fill:url(#linearGradient19282)" width="1" height="1" x="1162" y="935.36"/>
  <rect style="opacity:0.3;fill:url(#linearGradient19282)" width="1" height="1" x="1148" y="945.36"/>
  <rect style="opacity:0.3;fill:url(#linearGradient19282)" width="1" height="1" x="1162" y="947.36"/>
  <rect style="opacity:0.3;fill:url(#linearGradient19282)" width="1" height="1" x="1164" y="947.36"/>
  <rect style="opacity:0.3;fill:url(#linearGradient19282)" width="1" height="1" x="1164" y="945.36"/>
  <rect style="opacity:0.3;fill:url(#linearGradient19282)" width="1" height="1" x="1164" y="943.36"/>
  <rect style="opacity:0.3;fill:url(#linearGradient19282)" width="1" height="1" x="1162" y="943.36"/>
  <rect style="opacity:0.3;fill:url(#linearGradient19282)" width="1" height="1" x="1162" y="945.36"/>
  <rect style="opacity:0.3;fill:url(#linearGradient19282)" width="1" height="1" x="1160" y="945.36"/>
  <rect style="opacity:0.3;fill:url(#linearGradient19282)" width="1" height="1" x="1158" y="945.36"/>
  <rect style="opacity:0.3;fill:url(#linearGradient19282)" width="1" height="1" x="1156" y="945.36"/>
  <rect style="opacity:0.3;fill:url(#linearGradient19282)" width="1" height="1" x="1154" y="945.36"/>
  <rect style="opacity:0.3;fill:url(#linearGradient19282)" width="1" height="1" x="1152" y="945.36"/>
  <rect style="opacity:0.3;fill:url(#linearGradient19282)" width="1" height="1" x="1151" y="946.36"/>
  <rect style="opacity:0.3;fill:url(#linearGradient19282)" width="1" height="1" x="1149" y="946.36"/>
  <rect style="opacity:0.3;fill:url(#linearGradient19282)" width="1" height="1" x="1149" y="944.36"/>
  <rect style="opacity:0.3;fill:url(#linearGradient19282)" width="1" height="1" x="1150" y="945.36"/>
  <rect style="fill:url(#linearGradient19282)" width="1" height="1" x="1151" y="943.36"/>
  <rect style="fill:url(#linearGradient19282)" width="1" height="1" x="1151" y="941.36"/>
  <rect style="fill:url(#linearGradient19282)" width="1" height="1" x="1151" y="939.36"/>
  <rect style="fill:url(#linearGradient19282)" width="1" height="1" x="1151" y="937.36"/>
  <rect style="fill:url(#linearGradient19282)" width="1" height="1" x="1151" y="935.36"/>
  <rect style="fill:url(#linearGradient19282)" width="1" height="1" x="1152" y="934.36"/>
  <rect style="fill:url(#linearGradient19282)" width="1" height="1" x="1154" y="934.36"/>
  <rect style="fill:url(#linearGradient19282)" width="1" height="1" x="1156" y="934.36"/>
  <rect style="fill:url(#linearGradient19282)" width="1" height="1" x="1158" y="934.36"/>
  <rect style="fill:url(#linearGradient19282)" width="1" height="1" x="1160" y="934.36"/>
  <rect style="fill:url(#linearGradient19282)" width="1" height="1" x="1160" y="936.36"/>
  <rect style="fill:url(#linearGradient19282)" width="1" height="1" x="1160" y="936.36"/>
  <rect style="fill:url(#linearGradient19282)" width="1" height="1" x="1152" y="940.36"/>
  <rect style="opacity:0.3;fill:url(#linearGradient19282)" width="1" height="1" x="1163" y="932.36"/>
  <rect style="opacity:0.3;fill:url(#linearGradient19282)" width="1" height="1" x="1152" y="931.36"/>
  <rect style="opacity:0.3;fill:url(#linearGradient19282)" width="1" height="1" x="1154" y="931.36"/>
  <rect style="opacity:0.3;fill:url(#linearGradient19282)" width="1" height="1" x="1156" y="931.36"/>
  <rect style="opacity:0.3;fill:url(#linearGradient19282)" width="1" height="1" x="1158" y="931.36"/>
  <rect style="opacity:0.3;fill:url(#linearGradient19282)" width="1" height="1" x="1163" y="944.36"/>
  <rect style="opacity:0.3;fill:url(#linearGradient19282)" width="1" height="1" x="1160" y="931.36"/>
  <rect style="opacity:0.3;fill:url(#linearGradient19282)" width="1" height="1" x="1163" y="946.36"/>
  <rect style="opacity:0.3;fill:url(#linearGradient19282)" width="1" height="1" x="1162" y="931.36"/>
  <rect style="opacity:0.3;fill:url(#linearGradient19282)" width="1" height="1" x="1161" y="946.36"/>
  <rect style="opacity:0.3;fill:url(#linearGradient19282)" width="1" height="1" x="1159" y="946.36"/>
  <rect style="opacity:0.3;fill:url(#linearGradient19282)" width="1" height="1" x="1157" y="946.36"/>
  <rect style="opacity:0.3;fill:url(#linearGradient19282)" width="1" height="1" x="1155" y="946.36"/>
  <rect style="opacity:0.3;fill:url(#linearGradient19282)" width="1" height="1" x="1153" y="946.36"/>
  <rect style="opacity:0.3;fill:url(#linearGradient19282)" width="1" height="1" x="1163" y="938.36"/>
  <rect style="opacity:0.3;fill:url(#linearGradient19282)" width="1" height="1" x="1163" y="936.36"/>
  <rect style="opacity:0.3;fill:url(#linearGradient19282)" width="1" height="1" x="1163" y="934.36"/>
  <rect style="opacity:0.3;fill:url(#linearGradient19282)" width="1" height="1" x="1147" y="946.36"/>
  <rect style="opacity:0.3;fill:url(#linearGradient19282)" width="1" height="1" x="1147" y="944.36"/>
  <rect style="opacity:0.3;fill:url(#linearGradient19282)" width="1" height="1" x="1147" y="942.36"/>
  <rect style="opacity:0.3;fill:url(#linearGradient19282)" width="1" height="1" x="1147" y="940.36"/>
  <rect style="opacity:0.3;fill:url(#linearGradient19282)" width="1" height="1" x="1147" y="938.36"/>
  <rect style="opacity:0.3;fill:url(#linearGradient19282)" width="1" height="1" x="1147" y="936.36"/>
  <rect style="opacity:0.3;fill:url(#linearGradient19282)" width="1" height="1" x="1147" y="934.36"/>
  <rect style="opacity:0.3;fill:url(#linearGradient19282)" width="1" height="1" x="1147" y="932.36"/>
  <rect style="opacity:0.3;fill:url(#linearGradient19282)" width="1" height="1" x="1147" y="930.36"/>
  <rect style="opacity:0.3;fill:url(#linearGradient19282)" width="10" height="1" x="1151" y="933.36"/>
  <rect style="opacity:0.3;fill:url(#linearGradient19282)" width="1" height="12" x="1150" y="933.36"/>
 </g>
</svg>
