<svg xmlns="http://www.w3.org/2000/svg" xmlns:osb="http://www.openswatchbook.org/uri/2009/osb" width="20" height="20" version="1.1" viewBox="0 0 20 20">
 <defs>
  <linearGradient id="linearGradient19282" gradientTransform="matrix(0,0,0,0,-1.1046e8,-6315800)" osb:paint="solid">
   <stop style="stop-color:#666666" offset="0"/>
  </linearGradient>
 </defs>
 <g transform="translate(-1180,-929.36)">
  <path style="fill:url(#linearGradient19282);fill-rule:evenodd" d="M 1180,929.36 V 930.39 L 1182.7,933.55 1186.4,929.36 Z M 1182.7,933.55 1180,936.67 V 940.89 L 1182.7,944.05 1187.3,938.77 Z M 1187.3,938.77 1191.8,944.05 1196.4,938.77 1191.8,933.55 Z M 1191.8,933.55 1195.5,929.36 H 1188.2 Z M 1196.4,938.77 1200,942.98 V 934.58 Z M 1191.8,944.05 1187.3,949.27 1187.4,949.36 H 1196.3 L 1196.4,949.27 Z M 1196.4,949.27 1196.5,949.36 H 1200 V 945.08 Z M 1187.3,949.27 1182.7,944.05 1180,947.17 V 949.36 H 1187.2 Z M 1197.3,929.36 1200,932.48 V 929.36 Z"/>
  <path style="fill:none" d="M 1180,929.36 V 949.36 H 1200 V 929.36 Z"/>
 </g>
</svg>
