<svg xmlns="http://www.w3.org/2000/svg" xmlns:osb="http://www.openswatchbook.org/uri/2009/osb" width="20" height="20" version="1.1" viewBox="0 0 20 20">
 <defs>
  <linearGradient id="linearGradient19282" gradientTransform="matrix(0,0,0,0,-1.1046e8,-6315300)" osb:paint="solid">
   <stop style="stop-color:#666666" offset="0"/>
  </linearGradient>
 </defs>
 <g transform="translate(-1113,-929.36)">
  <rect style="fill:none" width="20" height="20" x="1113" y="929.36"/>
  <rect style="fill:url(#linearGradient19282)" width="5" height="20" x="1113" y="929.36"/>
  <path style="fill:url(#linearGradient19282)" d="M 1118,929.36 V 930.36 H 1119 V 929.36 Z M 1120,929.36 V 930.36 H 1121 V 929.36 Z M 1118,931.36 V 932.36 H 1119 V 931.36 Z M 1119,932.36 V 933.36 H 1120 V 932.36 Z M 1120,932.36 H 1121 V 931.36 H 1120 Z M 1122,933.36 V 934.36 H 1123 V 933.36 Z"/>
  <rect style="fill:url(#linearGradient19282)" width="1" height="1" x="1119" y="930.36"/>
  <rect style="fill:url(#linearGradient19282)" width="1" height="1" x="1118" y="933.36"/>
  <rect style="fill:url(#linearGradient19282)" width="1" height="1" x="1120" y="933.36"/>
  <rect style="fill:url(#linearGradient19282)" width="1" height="1" x="1119" y="934.36"/>
  <rect style="fill:url(#linearGradient19282)" width="1" height="1" x="1118" y="935.36"/>
  <rect style="fill:url(#linearGradient19282)" width="1" height="1" x="1120" y="935.36"/>
  <rect style="fill:url(#linearGradient19282)" width="1" height="1" x="1119" y="936.36"/>
  <rect style="fill:url(#linearGradient19282)" width="1" height="1" x="1118" y="937.36"/>
  <rect style="fill:url(#linearGradient19282)" width="1" height="1" x="1120" y="937.36"/>
  <rect style="fill:url(#linearGradient19282)" width="1" height="1" x="1119" y="938.36"/>
  <rect style="fill:url(#linearGradient19282)" width="1" height="1" x="1118" y="939.36"/>
  <rect style="fill:url(#linearGradient19282)" width="1" height="1" x="1120" y="939.36"/>
  <rect style="fill:url(#linearGradient19282)" width="1" height="1" x="1119" y="940.36"/>
  <rect style="fill:url(#linearGradient19282)" width="1" height="1" x="1118" y="941.36"/>
  <rect style="fill:url(#linearGradient19282)" width="1" height="1" x="1120" y="941.36"/>
  <rect style="fill:url(#linearGradient19282)" width="1" height="1" x="1119" y="942.36"/>
  <rect style="fill:url(#linearGradient19282)" width="1" height="1" x="1118" y="943.36"/>
  <rect style="fill:url(#linearGradient19282)" width="1" height="1" x="1120" y="943.36"/>
  <rect style="fill:url(#linearGradient19282)" width="1" height="1" x="1119" y="944.36"/>
  <rect style="fill:url(#linearGradient19282)" width="1" height="1" x="1118" y="945.36"/>
  <rect style="fill:url(#linearGradient19282)" width="1" height="1" x="1120" y="945.36"/>
  <rect style="fill:url(#linearGradient19282)" width="1" height="1" x="1119" y="946.36"/>
  <rect style="fill:url(#linearGradient19282)" width="1" height="1" x="1118" y="947.36"/>
  <rect style="fill:url(#linearGradient19282)" width="1" height="1" x="1120" y="947.36"/>
  <rect style="fill:url(#linearGradient19282)" width="1" height="1" x="1121" y="946.36"/>
  <rect style="fill:url(#linearGradient19282)" width="1" height="1" x="1121" y="944.36"/>
  <rect style="fill:url(#linearGradient19282)" width="1" height="1" x="1121" y="942.36"/>
  <rect style="fill:url(#linearGradient19282)" width="1" height="1" x="1121" y="940.36"/>
  <rect style="fill:url(#linearGradient19282)" width="1" height="1" x="1121" y="938.36"/>
  <rect style="fill:url(#linearGradient19282)" width="1" height="1" x="1121" y="936.36"/>
  <rect style="fill:url(#linearGradient19282)" width="1" height="1" x="1121" y="934.36"/>
  <rect style="fill:url(#linearGradient19282)" width="1" height="1" x="1121" y="932.36"/>
  <rect style="fill:url(#linearGradient19282)" width="1" height="1" x="1121" y="930.36"/>
  <rect style="fill:url(#linearGradient19282)" width="1" height="1" x="1122" y="929.36"/>
  <rect style="fill:url(#linearGradient19282)" width="1" height="1" x="1122" y="931.36"/>
  <rect style="fill:url(#linearGradient19282)" width="1" height="1" x="1122" y="935.36"/>
  <rect style="fill:url(#linearGradient19282)" width="1" height="1" x="1122" y="937.36"/>
  <rect style="fill:url(#linearGradient19282)" width="1" height="1" x="1122" y="939.36"/>
  <rect style="fill:url(#linearGradient19282)" width="1" height="1" x="1122" y="941.36"/>
  <rect style="fill:url(#linearGradient19282)" width="1" height="1" x="1122" y="943.36"/>
  <rect style="fill:url(#linearGradient19282)" width="1" height="1" x="1122" y="945.36"/>
  <rect style="fill:url(#linearGradient19282)" width="1" height="1" x="1122" y="947.36"/>
  <rect style="fill:url(#linearGradient19282)" width="1" height="1" x="1121" y="948.36"/>
  <rect style="fill:url(#linearGradient19282)" width="1" height="1" x="1119" y="948.36"/>
  <rect style="opacity:0.3;fill:url(#linearGradient19282)" width="5" height="20" x="1123" y="929.36"/>
  <rect style="opacity:0.3;fill:url(#linearGradient19282)" width="1" height="1" x="1129" y="929.36"/>
  <rect style="opacity:0.3;fill:url(#linearGradient19282)" width="1" height="1" x="1131" y="929.36"/>
  <rect style="opacity:0.3;fill:url(#linearGradient19282)" width="1" height="1" x="1130" y="930.36"/>
  <rect style="opacity:0.3;fill:url(#linearGradient19282)" width="1" height="1" x="1132" y="930.36"/>
  <rect style="opacity:0.3;fill:url(#linearGradient19282)" width="1" height="1" x="1131" y="931.36"/>
  <rect style="opacity:0.3;fill:url(#linearGradient19282)" width="1" height="1" x="1129" y="931.36"/>
  <rect style="opacity:0.3;fill:url(#linearGradient19282)" width="1" height="1" x="1130" y="932.36"/>
  <rect style="opacity:0.3;fill:url(#linearGradient19282)" width="1" height="1" x="1132" y="932.36"/>
  <rect style="opacity:0.3;fill:url(#linearGradient19282)" width="1" height="1" x="1131" y="933.36"/>
  <rect style="opacity:0.3;fill:url(#linearGradient19282)" width="1" height="1" x="1129" y="933.36"/>
  <rect style="opacity:0.3;fill:url(#linearGradient19282)" width="1" height="1" x="1130" y="934.36"/>
  <rect style="opacity:0.3;fill:url(#linearGradient19282)" width="1" height="1" x="1132" y="934.36"/>
  <rect style="opacity:0.3;fill:url(#linearGradient19282)" width="1" height="1" x="1131" y="935.36"/>
  <rect style="opacity:0.3;fill:url(#linearGradient19282)" width="1" height="1" x="1129" y="935.36"/>
  <rect style="opacity:0.3;fill:url(#linearGradient19282)" width="1" height="1" x="1130" y="936.36"/>
  <rect style="opacity:0.3;fill:url(#linearGradient19282)" width="1" height="1" x="1132" y="936.36"/>
  <rect style="opacity:0.3;fill:url(#linearGradient19282)" width="1" height="1" x="1131" y="937.36"/>
  <rect style="opacity:0.3;fill:url(#linearGradient19282)" width="1" height="1" x="1129" y="937.36"/>
  <rect style="opacity:0.3;fill:url(#linearGradient19282)" width="1" height="1" x="1132" y="938.36"/>
  <rect style="opacity:0.3;fill:url(#linearGradient19282)" width="1" height="1" x="1130" y="938.36"/>
  <rect style="opacity:0.3;fill:url(#linearGradient19282)" width="1" height="1" x="1129" y="939.36"/>
  <rect style="opacity:0.3;fill:url(#linearGradient19282)" width="1" height="1" x="1131" y="939.36"/>
  <rect style="opacity:0.3;fill:url(#linearGradient19282)" width="1" height="1" x="1132" y="940.36"/>
  <rect style="opacity:0.3;fill:url(#linearGradient19282)" width="1" height="1" x="1130" y="940.36"/>
  <rect style="opacity:0.3;fill:url(#linearGradient19282)" width="1" height="1" x="1129" y="941.36"/>
  <rect style="opacity:0.3;fill:url(#linearGradient19282)" width="1" height="1" x="1131" y="941.36"/>
  <rect style="opacity:0.3;fill:url(#linearGradient19282)" width="1" height="1" x="1132" y="942.36"/>
  <rect style="opacity:0.3;fill:url(#linearGradient19282)" width="1" height="1" x="1130" y="942.36"/>
  <rect style="opacity:0.3;fill:url(#linearGradient19282)" width="1" height="1" x="1129" y="943.36"/>
  <rect style="opacity:0.3;fill:url(#linearGradient19282)" width="1" height="1" x="1131" y="943.36"/>
  <rect style="opacity:0.3;fill:url(#linearGradient19282)" width="1" height="1" x="1132" y="944.36"/>
  <rect style="opacity:0.3;fill:url(#linearGradient19282)" width="1" height="1" x="1130" y="944.36"/>
  <rect style="opacity:0.3;fill:url(#linearGradient19282)" width="1" height="1" x="1129" y="945.36"/>
  <rect style="opacity:0.3;fill:url(#linearGradient19282)" width="1" height="1" x="1131" y="945.36"/>
  <rect style="opacity:0.3;fill:url(#linearGradient19282)" width="1" height="1" x="1132" y="946.36"/>
  <rect style="opacity:0.3;fill:url(#linearGradient19282)" width="1" height="1" x="1130" y="946.36"/>
  <rect style="opacity:0.3;fill:url(#linearGradient19282)" width="1" height="1" x="1129" y="947.36"/>
  <rect style="opacity:0.3;fill:url(#linearGradient19282)" width="1" height="1" x="1131" y="947.36"/>
  <rect style="opacity:0.3;fill:url(#linearGradient19282)" width="1" height="1" x="1132" y="948.36"/>
  <rect style="opacity:0.3;fill:url(#linearGradient19282)" width="1" height="1" x="1130" y="948.36"/>
  <rect style="opacity:0.3;fill:url(#linearGradient19282)" width="1" height="1" x="1128" y="930.36"/>
  <rect style="opacity:0.3;fill:url(#linearGradient19282)" width="1" height="1" x="1128" y="932.36"/>
  <rect style="opacity:0.3;fill:url(#linearGradient19282)" width="1" height="1" x="1128" y="934.36"/>
  <rect style="opacity:0.3;fill:url(#linearGradient19282)" width="1" height="1" x="1128" y="936.36"/>
  <rect style="opacity:0.3;fill:url(#linearGradient19282)" width="1" height="1" x="1128" y="938.36"/>
  <rect style="opacity:0.3;fill:url(#linearGradient19282)" width="1" height="1" x="1128" y="940.36"/>
  <rect style="opacity:0.3;fill:url(#linearGradient19282)" width="1" height="1" x="1128" y="942.36"/>
  <rect style="opacity:0.3;fill:url(#linearGradient19282)" width="1" height="1" x="1128" y="944.36"/>
  <rect style="opacity:0.3;fill:url(#linearGradient19282)" width="1" height="1" x="1128" y="946.36"/>
  <rect style="opacity:0.3;fill:url(#linearGradient19282)" width="1" height="1" x="1128" y="948.36"/>
 </g>
</svg>
