<svg xmlns="http://www.w3.org/2000/svg" xmlns:osb="http://www.openswatchbook.org/uri/2009/osb" width="16" height="16" version="1.1" viewBox="0 0 16 16">
 <defs>
  <linearGradient id="linearGradient19282" gradientTransform="matrix(0,0,0,0,-1.1046e8,-6315800)" osb:paint="solid">
   <stop style="stop-color:#666666" offset="0"/>
  </linearGradient>
 </defs>
 <g transform="translate(-165,-707.36)">
  <rect style="fill:none" width="16" height="16" x="165" y="707.36"/>
  <path style="fill:url(#linearGradient19282)" d="M 170,712.36 V 713.36 723.36 H 172 181 V 721.36 714.36 712.36 H 171 Z M 171,713.36 H 179.97 V 722.36 H 170.97 Z"/>
  <path style="fill:url(#linearGradient19282)" d="M 170.5,707.36 C 167.46,707.36 165,709.82 165,712.86 165,715.9 167.46,718.36 170.5,718.36 173.54,718.36 176,715.9 176,712.86 176,709.82 173.54,707.36 170.5,707.36 Z M 170.5,708.36 C 172.99,708.36 175,710.37 175,712.86 175,715.35 172.99,717.36 170.5,717.36 168.01,717.36 166,715.35 166,712.86 166,710.37 168.01,708.36 170.5,708.36 Z"/>
 </g>
</svg>
