<svg xmlns="http://www.w3.org/2000/svg" xmlns:osb="http://www.openswatchbook.org/uri/2009/osb" width="16" height="16" version="1.1" viewBox="0 0 16 16">
 <defs>
  <linearGradient id="linearGradient19282" gradientTransform="matrix(0,0,0,0,-1.1046e8,-6316300)" osb:paint="solid">
   <stop style="stop-color:#666666" offset="0"/>
  </linearGradient>
 </defs>
 <g transform="translate(-255,-607.36)">
  <rect style="fill:none" width="16" height="16" x="255" y="607.36"/>
  <path style="fill:url(#linearGradient19282)" d="M 255,611.36 C 255,611.36 258,612.36 260,610.36 262,608.36 264,608.36 266,610.36 268,612.36 271,611.36 271,611.36 V 613.36 C 271,613.36 268,614.36 266,612.36 264,610.36 262,610.36 260,612.36 258,614.36 255,613.36 255,613.36 Z"/>
  <path style="fill:url(#linearGradient19282)" d="M 255,618.36 C 255,618.36 258,617.36 260,619.36 262,621.36 264,621.36 266,619.36 268,617.36 271,618.36 271,618.36 V 616.36 C 271,616.36 268,615.36 266,617.36 264,619.36 262,619.36 260,617.36 258,615.36 255,616.36 255,616.36 Z"/>
 </g>
</svg>
