<svg xmlns="http://www.w3.org/2000/svg" width="16" height="16" version="1.1" viewBox="0 0 16 16">
 <g transform="translate(-165,-827.36)">
  <rect style="fill:none" width="16" height="16" x="165" y="827.36"/>
  <path style="fill:#666666" d="M 170.4,827.52 C 169.15,827.31 167.77,827.87 166.33,829.49 A 0.81973,1.0001 0 1 0 167.43,830.96 C 168.65,829.59 169.47,829.37 170.2,829.49 170.92,829.61 171.69,830.22 172.55,830.99 173.41,831.76 174.33,832.66 175.52,833.08 176.72,833.5 178.16,833.3 179.65,832.05 A 0.82971,1.0123 0 0 0 178.7,830.39 C 177.52,831.39 176.76,831.45 175.98,831.17 175.21,830.9 174.38,830.15 173.5,829.36 172.62,828.57 171.65,827.73 170.4,827.52 Z"/>
  <path style="fill:#666666" d="M 166.78,840.36 A 0.8214,1.0012 0 1 0 166.86,842.36 H 179.17 A 0.82051,1.0001 0 1 0 179.17,840.36 H 166.86 A 0.82051,1.0001 0 0 0 166.78,840.36 Z"/>
  <path style="fill:#666666" d="M 170,835.36 H 175 176 L 173,838.36 Z"/>
 </g>
</svg>
