<svg xmlns="http://www.w3.org/2000/svg" width="16" height="16" version="1.1" viewBox="0 0 16 16">
 <g transform="translate(-165.03,-687.36)">
  <rect style="fill:none" width="16" height="16" x="165.03" y="687.36"/>
  <path style="opacity:0.3;fill:#666666" d="M 170.53,687.36 C 167.49,687.36 165.03,689.82 165.03,692.86 165.03,695.9 167.49,698.36 170.53,698.36 173.57,698.36 176.03,695.9 176.03,692.86 176.03,689.82 173.57,687.36 170.53,687.36 Z M 170.53,689.36 C 172.46,689.36 174.03,690.93 174.03,692.86 174.03,694.8 172.46,696.36 170.53,696.36 168.6,696.36 167.03,694.8 167.03,692.86 167.03,690.93 168.6,689.36 170.53,689.36 Z"/>
  <path style="fill:#666666" d="M 177,692.36 C 177.01,692.53 177.03,692.69 177.03,692.86 177.03,693.38 177.11,692.88 177,693.36 H 180 V 702.36 H 171 V 699.36 C 170.52,699.48 171.05,699.36 170.53,699.36 170.36,699.36 170.2,699.34 170.03,699.33 V 703.36 H 172.03 181.03 V 701.36 694.36 692.36 H 179.03 Z"/>
  <path style="fill:#666666" d="M 170,692.36 V 694.36 695.36 H 171 V 693.36 H 173 V 692.36 H 172 Z"/>
 </g>
</svg>
