<svg xmlns="http://www.w3.org/2000/svg" width="16" height="16" version="1.1" viewBox="0 0 16 16">
 <g transform="translate(-165,-727.36)">
  <rect style="fill:none" width="16" height="16" x="165" y="727.36"/>
  <path style="fill:#666666" d="M 176.97,732.36 H 177 L 176.97,733.36 H 179.97 V 742.36 H 170.97 V 739.36 C 170.49,739.48 171.02,739.36 170.5,739.36 170.33,739.36 170.17,739.34 170,739.33 V 743.36 H 172 181 V 741.36 734.36 732.36 H 179 Z"/>
  <path style="fill:#666666" d="M 169.97,732.36 V 734.36 735.36 H 170.97 V 733.36 H 172.97 V 732.36 H 171.97 Z"/>
  <path style="fill:#666666" d="M 170.5,727.36 C 167.46,727.36 165,729.82 165,732.86 165,735.9 167.46,738.36 170.5,738.36 173.54,738.36 176,735.9 176,732.86 176,729.82 173.54,727.36 170.5,727.36 Z M 170.5,728.36 C 172.99,728.36 175,730.38 175,732.86 175,735.35 172.99,737.36 170.5,737.36 168.01,737.36 166,735.35 166,732.86 166,730.38 168.01,728.36 170.5,728.36 Z"/>
 </g>
</svg>
