<svg xmlns="http://www.w3.org/2000/svg" xmlns:osb="http://www.openswatchbook.org/uri/2009/osb" width="16" height="16" version="1.1" viewBox="0 0 16 16">
 <defs>
  <linearGradient id="linearGradient19282" gradientTransform="matrix(0,0,0,0,-1.1046e8,-6316300)" osb:paint="solid">
   <stop style="stop-color:#666666" offset="0"/>
  </linearGradient>
 </defs>
 <g transform="translate(-255,-627.36)">
  <rect style="fill:none" width="16" height="16" x="255" y="627.36"/>
  <path style="fill:url(#linearGradient19282)" d="M 255,631.96 C 255,631.96 257,631.47 259,633.36 261,635.25 265.05,635.31 267,633.36 269,631.36 271,631.96 271,631.96 V 630.37 C 271,630.37 269,629.58 267,631.47 265,633.36 261,633.36 259,631.47 257,629.58 255,630.37 255,630.37 Z"/>
  <path style="fill:url(#linearGradient19282)" d="M 255,638.77 C 255,638.77 257,639.25 259,637.36 261,635.47 265,635.47 267,637.36 269,639.25 271,638.77 271,638.77 V 640.36 C 271,640.36 269,641.15 267,639.25 265,637.36 261,637.36 259,639.25 257,641.15 255,640.36 255,640.36 Z"/>
 </g>
</svg>
