<svg xmlns="http://www.w3.org/2000/svg" xmlns:osb="http://www.openswatchbook.org/uri/2009/osb" width="16" height="16" version="1.1" viewBox="0 0 16 16">
 <defs>
  <linearGradient id="linearGradient19282" gradientTransform="matrix(0,0,0,0,-1.1046e8,-6315800)" osb:paint="solid">
   <stop style="stop-color:#666666" offset="0"/>
  </linearGradient>
 </defs>
 <g transform="translate(-165,-667.36)">
  <rect style="fill:none" width="16" height="16" x="165" y="667.36"/>
  <path style="fill:url(#linearGradient19282)" d="M 170,672.36 V 676.36 C 170.13,676.38 170.36,676.36 170.5,676.36 172.43,676.36 174,674.79 174,672.86 174,672.69 173.99,672.52 173.97,672.36 Z M 175.97,672.36 C 175.98,672.52 176,672.69 176,672.86 176,675.9 173.54,678.36 170.5,678.36 170.34,678.36 170.19,678.34 170.03,678.33 V 682.36 H 180.03 V 672.36 H 176 Z"/>
  <path style="opacity:0.3;fill:url(#linearGradient19282)" d="M 170.5,667.36 C 167.46,667.36 165,669.82 165,672.86 165,675.73 167.2,678.08 170,678.33 V 672.36 H 175.97 C 175.72,669.56 173.37,667.36 170.5,667.36 Z"/>
 </g>
</svg>
