<svg xmlns="http://www.w3.org/2000/svg" width="16" height="16" version="1.1" viewBox="0 0 16 16">
 <g transform="translate(-165,-627.36)">
  <rect style="opacity:0.3;fill:none" width="16" height="16" x="165" y="627.36"/>
  <path style="fill:#666666;fill-rule:evenodd" d="M 170,632.36 V 638.33 C 170.16,638.34 170.33,638.36 170.5,638.36 173.54,638.36 176,635.9 176,632.86 176,632.69 175.98,632.52 175.97,632.36 Z"/>
  <path style="opacity:0.3;fill:#666666" d="M 170.5,627.36 C 167.46,627.36 165,629.82 165,632.86 165,635.73 167.2,638.08 170,638.33 V 638.17 C 170.21,638.2 170.38,638.3 170.59,638.3 171.5,638.3 172.37,638.1 173.12,637.7 173.29,637.62 173.44,637.5 173.59,637.39 173.61,637.38 173.64,637.37 173.66,637.36 173.77,637.28 173.89,637.2 174,637.11 174.03,637.09 174.07,637.07 174.09,637.05 174.2,636.96 174.27,636.83 174.37,636.73 174.4,636.71 174.44,636.7 174.47,636.67 174.57,636.57 174.66,636.47 174.75,636.36 175.53,635.41 176,634.19 176,632.86 176,629.82 173.54,627.36 170.5,627.36 Z"/>
  <rect style="opacity:0.3;fill:#666666" width="10" height="10" x="170" y="632.36"/>
 </g>
</svg>
