<svg xmlns="http://www.w3.org/2000/svg" width="16" height="16" version="1.1" viewBox="0 0 16 16">
 <g transform="translate(-768.94,-558.36)">
  <rect style="fill:none" width="16" height="16" x="768.94" y="558.36"/>
  <path style="fill:#666666" d="M 782.37,560.31 C 776.79,561.34 771.79,565.04 770.96,571.75 A 0.50389,0.50389 0 1 0 771.96,571.87 C 772.74,565.6 777.28,562.29 782.56,561.31 A 0.50894,0.50894 0 1 0 782.37,560.31 Z"/>
  <path style="fill:#666666" d="M 777.99,567.41 778.04,573.48 781.95,570.32 Z"/>
  <rect style="fill:#666666" width=".949" height="6" x="783" y="567.36"/>
  <circle style="fill:#666666" cx="782.5" cy="560.86" r="1.5"/>
  <circle style="fill:#666666" cx="771.5" cy="571.86" r="1.5"/>
  <path style="fill:#666666;fill-rule:evenodd" d="M 771.92,562.57 C 770.68,564.44 770.64,566.78 772.16,568.19 773.64,568.99 775.12,568.83 776.94,567.2 773.69,567.63 771.95,566.1 771.92,562.57 Z"/>
  <path style="fill:#666666;fill-rule:evenodd" d="M 777.86,559.47 C 776.35,560.39 775.56,561.98 776.2,563.39 777,564.38 778.12,564.71 779.97,564.13 777.49,563.46 776.73,561.9 777.86,559.47 Z"/>
 </g>
</svg>
