<svg xmlns="http://www.w3.org/2000/svg" xmlns:osb="http://www.openswatchbook.org/uri/2009/osb" width="16" height="16" version="1.1" viewBox="0 0 16 16">
 <defs>
  <linearGradient id="linearGradient19282" gradientTransform="matrix(0,0,0,0,-1.1046e8,-6314500)" osb:paint="solid">
   <stop style="stop-color:#666666" offset="0"/>
  </linearGradient>
 </defs>
 <g transform="translate(-165,-867.36)">
  <rect style="fill:none" width="16" height="16" x="165" y="867.36"/>
  <path style="fill:url(#linearGradient19282)" d="M 166,868.36 V 869.36 H 167 V 870.36 H 168 V 869.36 868.36 H 167 Z M 168,870.36 V 871.36 H 169 V 870.36 Z M 169,870.36 H 170 V 869.36 H 169 Z M 170,869.36 H 171 172 173 174 175 V 868.36 H 174 173 172 171 170 Z M 175,869.36 V 870.36 H 176 177 178 V 869.36 H 179 V 868.36 H 178 177 176 V 869.36 Z M 168,871.36 H 167 V 872.36 873.36 H 168 V 872.36 Z M 167,873.36 H 166 V 874.36 875.36 H 167 V 874.36 Z M 167,875.36 V 876.36 H 168 V 875.36 Z M 167,876.36 H 166 V 877.36 878.36 H 167 V 877.36 Z M 167,878.36 V 879.36 H 168 V 878.36 Z M 168,879.36 V 880.36 H 169 V 879.36 Z M 169,880.36 V 881.36 H 170 V 880.36 Z M 170,881.36 V 882.36 H 171 V 883.36 H 172 V 882.36 881.36 H 171 Z M 177,871.36 V 872.36 H 178 V 871.36 Z M 178,872.36 V 873.36 874.36 875.36 876.36 H 179 V 875.36 874.36 873.36 872.36 Z M 179,876.36 V 877.36 878.36 H 180 V 877.36 876.36 Z M 179,878.36 H 178 V 879.36 H 179 Z M 178,879.36 H 177 V 880.36 H 178 Z M 177,880.36 H 176 V 881.36 H 177 Z M 176,881.36 H 175 174 V 882.36 883.36 H 175 V 882.36 H 176 Z M 170,872.36 V 873.36 H 171 V 872.36 Z M 170,873.36 H 169 V 874.36 H 170 Z M 170,874.36 V 875.36 H 171 V 874.36 Z M 174,872.36 V 873.36 H 175 176 V 872.36 H 175 Z M 176,873.36 V 874.36 H 177 V 873.36 Z M 176,874.36 H 175 174 V 875.36 H 175 176 Z M 174,874.36 V 873.36 H 173 V 874.36 Z"/>
  <path style="opacity:0.5;fill:url(#linearGradient19282)" d="M 171,876.36 V 877.36 H 172 V 876.36 Z M 172,877.36 V 878.36 H 173 V 877.36 Z M 173,878.36 V 879.36 H 174 V 878.36 Z M 174,878.36 H 175 V 877.36 H 174 Z M 171,877.36 H 170 V 878.36 H 171 Z M 170,878.36 H 169 V 879.36 H 170 Z"/>
 </g>
</svg>
