<?xml version="1.0" encoding="UTF-8" standalone="no"?>
<!-- Created with Inkscape (http://www.inkscape.org/) -->

<svg
  xmlns:osb="http://www.openswatchbook.org/uri/2009/osb"
  xmlns:dc="http://purl.org/dc/elements/1.1/"
  xmlns:cc="http://creativecommons.org/ns#"
  xmlns:rdf="http://www.w3.org/1999/02/22-rdf-syntax-ns#"
  xmlns:svg="http://www.w3.org/2000/svg"
  xmlns="http://www.w3.org/2000/svg"
  xmlns:sodipodi="http://sodipodi.sourceforge.net/DTD/sodipodi-0.dtd"
  xmlns:inkscape="http://www.inkscape.org/namespaces/inkscape"
  width="16"
  height="16"
  id="svg15638"
  version="1.1"
  inkscape:version="0.92.2 (unknown)"
  sodipodi:docname="pixelart-trace.svg"
  viewBox="0 0 16 16">
 <title
   id="title9623">Inkscape Icon Theme</title>
 <defs
   id="defs15640">
  <!--<inkscape:path-effect effect="spiro" id="path-effect36695" is_visible="true" />-->
  <linearGradient
    id="linearGradient19282"
    osb:paint="solid"
    gradientTransform="matrix(0,0,0,0,-1.1046e8,-6314500)">
   <stop
     style="stop-color:#666666;stop-opacity:1"
     offset="0"
     id="stop19284" />
  </linearGradient>
 </defs>
 <sodipodi:namedview
   id="base"
   pagecolor="#f2f2f2"
   bordercolor="#666666"
   borderopacity="1.0"
   inkscape:pageopacity="0"
   inkscape:pageshadow="2"
   inkscape:zoom="0.76028"
   inkscape:cx="195.9"
   inkscape:cy="80.98"
   inkscape:document-units="px"
   inkscape:current-layer="layer1"
   showgrid="false"
   inkscape:window-width="1280"
   inkscape:window-height="960"
   inkscape:window-x="0"
   inkscape:window-y="27"
   inkscape:window-maximized="1"
   inkscape:snap-bbox="true"
   inkscape:bbox-paths="false"
   inkscape:bbox-nodes="true"
   inkscape:snap-global="false"
   showguides="false"
   inkscape:guide-bbox="true"
   inkscape:snap-nodes="false"
   inkscape:snap-object-midpoints="false"
   inkscape:snap-grids="true"
   inkscape:snap-to-guides="true"
   borderlayer="true"
   inkscape:showpageshadow="false"
   showborder="true"
   inkscape:snap-bbox-edge-midpoints="false"
   inkscape:object-nodes="true"
   inkscape:snap-intersection-paths="false"
   inkscape:snap-center="true">
  <inkscape:grid
    type="xygrid"
    id="grid15646"
    empspacing="5"
    visible="true"
    enabled="true"
    snapvisiblegridlinesonly="true"
    originx="-165"
    originy="-289" />
 </sodipodi:namedview>
 <metadata
   id="metadata15643">
  <rdf:RDF>
   <cc:Work
     rdf:about="">
    <dc:format>image/svg+xml</dc:format>
    <dc:type
      rdf:resource="http://purl.org/dc/dcmitype/StillImage" />
    <dc:title>Inkscape Icon Theme</dc:title>
    <dc:creator>
     <cc:Agent>
      <dc:title>Barbara Muraus</dc:title>
     </cc:Agent>
    </dc:creator>
    <dc:contributor>
     <cc:Agent>
      <dc:title>Jakub Steiner, Josh Andler</dc:title>
     </cc:Agent>
    </dc:contributor>
   </cc:Work>
  </rdf:RDF>
 </metadata>
 <g
   inkscape:label="Layer 1"
   inkscape:groupmode="layer"
   id="layer1"
   transform="translate(-165,-867.36)">
  <rect
    y="867.36"
    x="165"
    height="16"
    width="16"
    id="rect36770"
    style="fill:none" />
  <path
    style="fill:url(#linearGradient19282)"
    inkscape:connector-curvature="0"
    d="M 166,868.36 V 869.36 H 167 V 870.36 H 168 V 869.36 868.36 H 167 Z M 168,870.36 V 871.36 H 169 V 870.36 Z M 169,870.36 H 170 V 869.36 H 169 Z M 170,869.36 H 171 172 173 174 175 V 868.36 H 174 173 172 171 170 Z M 175,869.36 V 870.36 H 176 177 178 V 869.36 H 179 V 868.36 H 178 177 176 V 869.36 Z M 168,871.36 H 167 V 872.36 873.36 H 168 V 872.36 Z M 167,873.36 H 166 V 874.36 875.36 H 167 V 874.36 Z M 167,875.36 V 876.36 H 168 V 875.36 Z M 167,876.36 H 166 V 877.36 878.36 H 167 V 877.36 Z M 167,878.36 V 879.36 H 168 V 878.36 Z M 168,879.36 V 880.36 H 169 V 879.36 Z M 169,880.36 V 881.36 H 170 V 880.36 Z M 170,881.36 V 882.36 H 171 V 883.36 H 172 V 882.36 881.36 H 171 Z M 177,871.36 V 872.36 H 178 V 871.36 Z M 178,872.36 V 873.36 874.36 875.36 876.36 H 179 V 875.36 874.36 873.36 872.36 Z M 179,876.36 V 877.36 878.36 H 180 V 877.36 876.36 Z M 179,878.36 H 178 V 879.36 H 179 Z M 178,879.36 H 177 V 880.36 H 178 Z M 177,880.36 H 176 V 881.36 H 177 Z M 176,881.36 H 175 174 V 882.36 883.36 H 175 V 882.36 H 176 Z M 170,872.36 V 873.36 H 171 V 872.36 Z M 170,873.36 H 169 V 874.36 H 170 Z M 170,874.36 V 875.36 H 171 V 874.36 Z M 174,872.36 V 873.36 H 175 176 V 872.36 H 175 Z M 176,873.36 V 874.36 H 177 V 873.36 Z M 176,874.36 H 175 174 V 875.36 H 175 176 Z M 174,874.36 V 873.36 H 173 V 874.36 Z"
    id="path36774" />
  <path
    inkscape:connector-curvature="0"
    style="opacity:0.5;fill:url(#linearGradient19282)"
    d="M 171,876.36 V 877.36 H 172 V 876.36 Z M 172,877.36 V 878.36 H 173 V 877.36 Z M 173,878.36 V 879.36 H 174 V 878.36 Z M 174,878.36 H 175 V 877.36 H 174 Z M 171,877.36 H 170 V 878.36 H 171 Z M 170,878.36 H 169 V 879.36 H 170 Z"
    id="path36776" />
 </g>
</svg>
