<?xml version="1.0" encoding="UTF-8" standalone="no"?>
<!-- Created with Inkscape (http://www.inkscape.org/) -->

<svg
  xmlns:osb="http://www.openswatchbook.org/uri/2009/osb"
  xmlns:dc="http://purl.org/dc/elements/1.1/"
  xmlns:cc="http://creativecommons.org/ns#"
  xmlns:rdf="http://www.w3.org/1999/02/22-rdf-syntax-ns#"
  xmlns:svg="http://www.w3.org/2000/svg"
  xmlns="http://www.w3.org/2000/svg"
  xmlns:sodipodi="http://sodipodi.sourceforge.net/DTD/sodipodi-0.dtd"
  xmlns:inkscape="http://www.inkscape.org/namespaces/inkscape"
  width="16"
  height="16"
  id="svg15638"
  version="1.1"
  inkscape:version="0.92.2 (unknown)"
  sodipodi:docname="selection-make-bitmap-copy.svg"
  viewBox="0 0 16 16">
 <title
   id="title9623">Inkscape Icon Theme</title>
 <defs
   id="defs15640">
  <!--<inkscape:path-effect effect="spiro" id="path-effect36695" is_visible="true" />-->
  <linearGradient
    id="linearGradient19282"
    osb:paint="solid"
    gradientTransform="matrix(0,0,0,0,-1.1046e8,-6315900)">
   <stop
     style="stop-color:#666666;stop-opacity:1"
     offset="0"
     id="stop19284" />
  </linearGradient>
 </defs>
 <sodipodi:namedview
   id="base"
   pagecolor="#f2f2f2"
   bordercolor="#666666"
   borderopacity="1.0"
   inkscape:pageopacity="0"
   inkscape:pageshadow="2"
   inkscape:zoom="0.76028"
   inkscape:cx="315.9"
   inkscape:cy="-139.02"
   inkscape:document-units="px"
   inkscape:current-layer="layer1"
   showgrid="false"
   inkscape:window-width="1280"
   inkscape:window-height="960"
   inkscape:window-x="0"
   inkscape:window-y="27"
   inkscape:window-maximized="1"
   inkscape:snap-bbox="true"
   inkscape:bbox-paths="false"
   inkscape:bbox-nodes="true"
   inkscape:snap-global="false"
   showguides="false"
   inkscape:guide-bbox="true"
   inkscape:snap-nodes="false"
   inkscape:snap-object-midpoints="false"
   inkscape:snap-grids="true"
   inkscape:snap-to-guides="true"
   borderlayer="true"
   inkscape:showpageshadow="false"
   showborder="true"
   inkscape:snap-bbox-edge-midpoints="false"
   inkscape:object-nodes="true"
   inkscape:snap-intersection-paths="false"
   inkscape:snap-center="true">
  <inkscape:grid
    type="xygrid"
    id="grid15646"
    empspacing="5"
    visible="true"
    enabled="true"
    snapvisiblegridlinesonly="true"
    originx="-45"
    originy="-509" />
 </sodipodi:namedview>
 <metadata
   id="metadata15643">
  <rdf:RDF>
   <cc:Work
     rdf:about="">
    <dc:format>image/svg+xml</dc:format>
    <dc:type
      rdf:resource="http://purl.org/dc/dcmitype/StillImage" />
    <dc:title>Inkscape Icon Theme</dc:title>
    <dc:creator>
     <cc:Agent>
      <dc:title>Barbara Muraus</dc:title>
     </cc:Agent>
    </dc:creator>
    <dc:contributor>
     <cc:Agent>
      <dc:title>Jakub Steiner, Josh Andler</dc:title>
     </cc:Agent>
    </dc:contributor>
   </cc:Work>
  </rdf:RDF>
 </metadata>
 <g
   inkscape:label="Layer 1"
   inkscape:groupmode="layer"
   id="layer1"
   transform="translate(-45,-647.36)">
  <rect
    style="fill:none"
    id="rect11539"
    width="16"
    height="16"
    x="45"
    y="647.36" />
  <path
    inkscape:connector-curvature="0"
    id="rect5238"
    d="M 51,649.36 C 50.45,649.36 50,649.81 50,650.36 V 651.36 H 47 C 46.448,651.36 46,651.81 46,652.36 V 660.36 C 46,660.91 46.448,661.36 47,661.36 H 59 C 59.552,661.36 60,660.91 60,660.36 V 652.36 C 60,651.81 59.552,651.36 59,651.36 H 56 V 650.36 C 56,649.81 55.55,649.36 55,649.36 Z M 53,652.36 C 55.209,652.36 57,654.15 57,656.36 57,658.57 55.209,660.36 53,660.36 50.791,660.36 49,658.57 49,656.36 49,654.15 50.791,652.36 53,652.36 Z M 53,654.36 C 51.895,654.36 51,655.26 51,656.36 51,657.46 51.895,658.36 53,658.36 54.105,658.36 55,657.46 55,656.36 55,655.26 54.105,654.36 53,654.36 Z"
    style="fill:url(#linearGradient19282);stroke-width:3" />
 </g>
</svg>
