<svg xmlns="http://www.w3.org/2000/svg" xmlns:osb="http://www.openswatchbook.org/uri/2009/osb" width="16" height="16" version="1.1" viewBox="0 0 16 16">
 <defs>
  <linearGradient id="linearGradient19282" gradientTransform="matrix(0,0,0,0,-1.1046e8,-6315900)" osb:paint="solid">
   <stop style="stop-color:#666666" offset="0"/>
  </linearGradient>
 </defs>
 <g transform="translate(-45,-647.36)">
  <rect style="fill:none" width="16" height="16" x="45" y="647.36"/>
  <path style="fill:url(#linearGradient19282)" d="M 51,649.36 C 50.45,649.36 50,649.81 50,650.36 V 651.36 H 47 C 46.448,651.36 46,651.81 46,652.36 V 660.36 C 46,660.91 46.448,661.36 47,661.36 H 59 C 59.552,661.36 60,660.91 60,660.36 V 652.36 C 60,651.81 59.552,651.36 59,651.36 H 56 V 650.36 C 56,649.81 55.55,649.36 55,649.36 Z M 53,652.36 C 55.209,652.36 57,654.15 57,656.36 57,658.57 55.209,660.36 53,660.36 50.791,660.36 49,658.57 49,656.36 49,654.15 50.791,652.36 53,652.36 Z M 53,654.36 C 51.895,654.36 51,655.26 51,656.36 51,657.46 51.895,658.36 53,658.36 54.105,658.36 55,657.46 55,656.36 55,655.26 54.105,654.36 53,654.36 Z"/>
 </g>
</svg>
