<svg xmlns="http://www.w3.org/2000/svg" xmlns:osb="http://www.openswatchbook.org/uri/2009/osb" width="16" height="16" version="1.1" viewBox="0 0 16 16">
 <defs>
  <linearGradient id="linearGradient19282" gradientTransform="matrix(0,0,0,0,-1.1046e8,-6316300)" osb:paint="solid">
   <stop style="stop-color:#666666" offset="0"/>
  </linearGradient>
 </defs>
 <g transform="translate(-709,-589.36)">
  <rect style="fill:none" width="16" height="16" x="709" y="589.36"/>
  <rect style="fill:url(#linearGradient19282)" width="1" height="1" x="712" y="591.36"/>
  <rect style="fill:url(#linearGradient19282)" width="1" height="1" x="712" y="593.36"/>
  <rect style="fill:url(#linearGradient19282)" width="1" height="1" x="712" y="595.36"/>
  <rect style="fill:url(#linearGradient19282)" width="1" height="1" x="712" y="597.36"/>
  <rect style="fill:url(#linearGradient19282)" width="1" height="1" x="712" y="599.36"/>
  <rect style="fill:url(#linearGradient19282)" width="1" height="1" x="712" y="601.36"/>
  <rect style="fill:url(#linearGradient19282)" width="1" height="1" x="712" y="603.36"/>
  <rect style="fill:url(#linearGradient19282)" width="1" height="1" x="714" y="603.36"/>
  <rect style="fill:url(#linearGradient19282)" width="1" height="1" x="716" y="603.36"/>
  <rect style="fill:url(#linearGradient19282)" width="1" height="1" x="718" y="603.36"/>
  <rect style="fill:url(#linearGradient19282)" width="1" height="1" x="720" y="603.36"/>
  <rect style="fill:url(#linearGradient19282)" width="1" height="1" x="720" y="601.36"/>
  <rect style="fill:url(#linearGradient19282)" width="1" height="1" x="720" y="599.36"/>
  <rect style="fill:url(#linearGradient19282)" width="1" height="1" x="720" y="597.36"/>
  <rect style="fill:url(#linearGradient19282)" width="1" height="1" x="720" y="595.36"/>
  <rect style="fill:url(#linearGradient19282)" width="1" height="1" x="720" y="593.36"/>
  <rect style="fill:url(#linearGradient19282)" width="1" height="1" x="720" y="591.36"/>
  <rect style="fill:url(#linearGradient19282)" width="1" height="1" x="718" y="591.36"/>
  <rect style="fill:url(#linearGradient19282)" width="1" height="1" x="716" y="591.36"/>
  <rect style="fill:url(#linearGradient19282)" width="1" height="1" x="714" y="591.36"/>
 </g>
</svg>
