<svg xmlns="http://www.w3.org/2000/svg" xmlns:osb="http://www.openswatchbook.org/uri/2009/osb" width="16" height="16" version="1.1" viewBox="0 0 16 16">
 <defs>
  <linearGradient id="linearGradient19282" gradientTransform="matrix(0,0,0,0,-1.1046e8,-6316300)" osb:paint="solid">
   <stop style="stop-color:#666666" offset="0"/>
  </linearGradient>
 </defs>
 <g transform="translate(-799,-558.36)">
  <rect style="fill:none" width="16" height="16" x="799" y="558.36"/>
  <rect style="fill:url(#linearGradient19282)" width="4" height="3.992" x="811" y="558.36"/>
  <rect style="fill:url(#linearGradient19282)" width="4" height="4" x="799" y="570.36"/>
  <path style="fill:url(#linearGradient19282)" d="M 809.34,560.44 C 806.52,560.79 804.4,562.23 803.03,564.03 801.21,566.44 800.64,569.48 801.22,571.81 L 801.28,572.16 801.66,572.22 C 808.35,573.34 813.96,567.65 812.84,560.91 L 812.78,560.53 812.41,560.47 C 811.31,560.33 810.29,560.32 809.34,560.44 Z M 809.47,561.5 C 810.2,561.41 810.99,561.45 811.84,561.53 812.52,567.27 807.93,571.87 802.25,571.19 801.9,569.26 802.34,566.68 803.87,564.66 805.09,563.05 806.92,561.81 809.47,561.5 Z"/>
 </g>
</svg>
