<svg xmlns="http://www.w3.org/2000/svg" xmlns:osb="http://www.openswatchbook.org/uri/2009/osb" width="15.997" height="16" version="1.1" viewBox="0 0 16 16">
 <defs>
  <linearGradient id="linearGradient19282" gradientTransform="matrix(0,0,0,0,-1.1046e8,-6315800)" osb:paint="solid">
   <stop style="stop-color:#666666" offset="0"/>
  </linearGradient>
 </defs>
 <g transform="translate(-75,-707.36)">
  <rect style="fill:none" width="15.976" height="16" x="-91" y="707.36" transform="scale(-1,1)"/>
  <path style="fill:url(#linearGradient19282)" d="M 75,707.36 V 723.36 H 90.094 A 0.71824,0.71824 0 0 1 89.781,723.17 L 87.188,720.73 C 86.556,721.16 85.809,721.39 85,721.39 82.801,721.39 81,719.57 81,717.36 81,715.15 82.801,713.33 85,713.33 87.199,713.33 89,715.15 89,717.36 89,718.23 88.721,719.04 88.25,719.7 L 90.781,722.14 A 0.71824,0.71824 0 0 1 90.969,722.48 V 707.36 Z M 77.031,708.36 H 89 V 710.36 H 77.031 Z M 85,714.8 C 83.586,714.8 82.469,715.94 82.469,717.36 82.469,718.78 83.586,719.92 85,719.92 86.414,719.92 87.531,718.78 87.531,717.36 87.531,715.94 86.414,714.8 85,714.8 Z M 90.969,722.89 A 0.71824,0.71824 0 0 1 90.438,723.36 H 90.969 Z"/>
 </g>
</svg>
