<svg xmlns="http://www.w3.org/2000/svg" xmlns:osb="http://www.openswatchbook.org/uri/2009/osb" width="16.063" height="16.031" version="1.1" viewBox="0 0 16.06 16.03">
 <defs>
  <linearGradient id="linearGradient19282" gradientTransform="matrix(0,0,0,0,-1.1046e8,-6316200)" osb:paint="solid">
   <stop style="stop-color:#666666" offset="0"/>
  </linearGradient>
 </defs>
 <g transform="translate(-559,-526.34)">
  <rect style="fill:none" width="16" height="16" x="559" y="526.36"/>
  <rect style="fill:none" width="16" height="16" x="559" y="526.36"/>
  <rect style="fill:url(#linearGradient19282)" width="3" height="3" x="561" y="526.36" rx="7" ry="0"/>
  <rect style="fill:url(#linearGradient19282)" width="3" height="3" x="561" y="539.36" rx="7" ry="0"/>
  <path style="fill:url(#linearGradient19282)" d="M 561,531.36 559,533.36 561,535.36 559,537.36 H 561 L 563,535.36 561,533.36 563,531.36 Z"/>
  <path style="fill:url(#linearGradient19282)" d="M 565,526.34 V 529.34 H 566.53 C 569.65,529.34 572.06,531.65 572.06,534.37 572.06,537.1 569.65,539.37 566.53,539.37 566.41,539.37 566.3,539.35 566.19,539.34 H 566.16 566.13 564.97 V 542.34 H 566.03 566.13 C 566.27,542.35 566.39,542.37 566.53,542.37 571.16,542.37 575.06,538.84 575.06,534.37 575.06,529.91 571.16,526.34 566.53,526.34 Z"/>
 </g>
</svg>
