<?xml version="1.0" encoding="UTF-8" standalone="no"?>
<!-- Created with Inkscape (http://www.inkscape.org/) -->

<svg
  xmlns:osb="http://www.openswatchbook.org/uri/2009/osb"
  xmlns:dc="http://purl.org/dc/elements/1.1/"
  xmlns:cc="http://creativecommons.org/ns#"
  xmlns:rdf="http://www.w3.org/1999/02/22-rdf-syntax-ns#"
  xmlns:svg="http://www.w3.org/2000/svg"
  xmlns="http://www.w3.org/2000/svg"
  xmlns:sodipodi="http://sodipodi.sourceforge.net/DTD/sodipodi-0.dtd"
  xmlns:inkscape="http://www.inkscape.org/namespaces/inkscape"
  width="16.022"
  height="16.006"
  id="svg15638"
  version="1.1"
  inkscape:version="0.92.2 (unknown)"
  sodipodi:docname="snap-nodes.svg"
  viewBox="0 0 16.022 16.006">
 <title
   id="title9623">Inkscape Icon Theme</title>
 <defs
   id="defs15640">
  <!--<inkscape:path-effect effect="spiro" id="path-effect36695" is_visible="true" />-->
  <linearGradient
    id="linearGradient19282"
    osb:paint="solid"
    gradientTransform="matrix(0,0,0,0,-1.1046e8,-6449700)">
   <stop
     style="stop-color:#666666;stop-opacity:1"
     offset="0"
     id="stop19284" />
  </linearGradient>
 </defs>
 <sodipodi:namedview
   id="base"
   pagecolor="#f2f2f2"
   bordercolor="#666666"
   borderopacity="1.0"
   inkscape:pageopacity="0"
   inkscape:pageshadow="2"
   inkscape:zoom="0.76028"
   inkscape:cx="-378.08"
   inkscape:cy="-259.02"
   inkscape:document-units="px"
   inkscape:current-layer="layer1"
   showgrid="false"
   inkscape:window-width="1280"
   inkscape:window-height="960"
   inkscape:window-x="0"
   inkscape:window-y="27"
   inkscape:window-maximized="1"
   inkscape:snap-bbox="true"
   inkscape:bbox-paths="false"
   inkscape:bbox-nodes="true"
   inkscape:snap-global="false"
   showguides="false"
   inkscape:guide-bbox="true"
   inkscape:snap-nodes="false"
   inkscape:snap-object-midpoints="false"
   inkscape:snap-grids="true"
   inkscape:snap-to-guides="true"
   borderlayer="true"
   inkscape:showpageshadow="false"
   showborder="true"
   inkscape:snap-bbox-edge-midpoints="false"
   inkscape:object-nodes="true"
   inkscape:snap-intersection-paths="false"
   inkscape:snap-center="true">
  <inkscape:grid
    type="xygrid"
    id="grid15646"
    empspacing="5"
    visible="true"
    enabled="true"
    snapvisiblegridlinesonly="true"
    originx="-738.98"
    originy="-629" />
 </sodipodi:namedview>
 <metadata
   id="metadata15643">
  <rdf:RDF>
   <cc:Work
     rdf:about="">
    <dc:format>image/svg+xml</dc:format>
    <dc:type
      rdf:resource="http://purl.org/dc/dcmitype/StillImage" />
    <dc:title>Inkscape Icon Theme</dc:title>
    <dc:creator>
     <cc:Agent>
      <dc:title>Barbara Muraus</dc:title>
     </cc:Agent>
    </dc:creator>
    <dc:contributor>
     <cc:Agent>
      <dc:title>Jakub Steiner, Josh Andler</dc:title>
     </cc:Agent>
    </dc:contributor>
   </cc:Work>
  </rdf:RDF>
 </metadata>
 <g
   inkscape:label="Layer 1"
   inkscape:groupmode="layer"
   id="layer1"
   transform="translate(-738.98,-527.35)">
  <rect
    style="color:#000000;fill:none"
    id="rect22660"
    width="16"
    height="16"
    x="739"
    y="527.36" />
  <path
    inkscape:connector-curvature="0"
    id="path22658"
    d="M 754.31,543.36 A 0.51404,0.51211 0 0 1 753.91,542.76 C 754.14,541.17 753.85,539.04 752.78,537.36 752.15,536.36 751.25,535.51 750,534.98 V 533.86 C 751.66,534.45 752.86,535.54 753.66,536.79 754.88,538.73 755.17,541.05 754.91,542.89 A 0.51404,0.51211 0 0 1 754.31,543.36 Z M 739.59,543.23 A 0.52408,0.52211 0 0 1 739.09,542.79 C 738.8,540.97 739.04,538.64 740.22,536.73 741.01,535.44 742.26,534.36 744,533.79 V 534.86 C 742.65,535.36 741.73,536.23 741.09,537.26 740.08,538.91 739.86,541 740.12,542.61 A 0.52408,0.52211 0 0 1 739.59,543.23 Z"
    style="color:#000000;-inkscape-font-specification:Sans;opacity:0.3;fill:url(#linearGradient19282);stroke-width:1.02798" />
  <rect
    style="fill:url(#linearGradient19282)"
    id="rect22662"
    width="4"
    height="5"
    x="745"
    y="-535.36"
    transform="scale(1,-1)" />
  <rect
    y="-532.36"
    x="750"
    height="1"
    width="2"
    id="rect22664"
    style="fill:url(#linearGradient19282)"
    transform="scale(1,-1)" />
  <rect
    style="fill:url(#linearGradient19282)"
    id="rect22666"
    width="2"
    height="1"
    x="742"
    y="-532.36"
    transform="scale(1,-1)" />
  <ellipse
    cy="-531.81"
    cx="753"
    transform="scale(1,-1)"
    id="path22668"
    style="fill:url(#linearGradient19282);stroke-width:1.00519"
    rx="1.5"
    ry="1.5156" />
  <ellipse
    cy="-531.84"
    cx="741"
    style="fill:url(#linearGradient19282);stroke-width:1.00519"
    id="path22670"
    transform="scale(1,-1)"
    rx="1.5"
    ry="1.5156" />
 </g>
</svg>
