<svg xmlns="http://www.w3.org/2000/svg" width="16" height="16" version="1.1" viewBox="0 0 16 16">
 <g transform="translate(-889,-527.36)">
  <rect style="fill:none" width="16" height="16" x="889" y="527.36"/>
  <path style="fill:#666666" d="M 903.91,527.86 A 0.50005,0.50005 0 0 0 903.66,528.02 L 889.66,542.02 A 0.50005,0.50005 0 1 0 890.34,542.7 L 904.34,528.7 A 0.50005,0.50005 0 0 0 903.91,527.86 Z"/>
  <path style="fill:#666666" d="M 904.27,534.32 A 0.50005,0.50005 0 0 0 904.23,534.34 L 889.71,535.44 A 0.50005,0.50005 0 1 0 889.77,536.41 L 904.29,535.31 A 0.50005,0.50005 0 0 0 904.27,534.32 Z"/>
  <circle style="fill:#666666;fill-rule:evenodd" cx="896.99" cy="535.36" r="3"/>
 </g>
</svg>
