<svg xmlns="http://www.w3.org/2000/svg" width="16" height="16" version="1.1" viewBox="0 0 16 16">
 <g transform="translate(-799,-527.36)">
  <rect style="fill:none" width="16" height="16" x="799" y="527.36"/>
  <path style="fill:#666666" d="M 807.55,540.85 C 811.15,540.85 813.08,539.49 814.04,538.06 815,536.63 815,535.14 815,535.14 A 0.49652,0.51886 0 1 0 814.01,535.14 C 814.01,535.14 814.01,536.28 813.23,537.45 812.55,538.46 811.06,539.37 808.51,539.62 809.93,537.44 810.58,535.53 810.31,533.94 810,532.1 808.77,530.75 807.34,529.79 804.47,527.89 800.66,527.39 800.66,527.39 A 0.49652,0.51886 0 1 0 800.54,528.4 C 800.54,528.4 804.18,528.94 806.78,530.67 808.07,531.53 809.07,532.64 809.32,534.11 809.57,535.57 809.11,537.48 807.18,540.01 A 0.49652,0.51886 0 0 0 807.55,540.85 Z"/>
  <rect style="fill:#666666;fill-rule:evenodd" width="4.133" height="4.176" x="-190.61" y="-954.82" transform="rotate(135)"/>
 </g>
</svg>
