<?xml version="1.0" encoding="UTF-8" standalone="no"?>
<!-- Created with Inkscape (http://www.inkscape.org/) -->

<svg
  xmlns:osb="http://www.openswatchbook.org/uri/2009/osb"
  xmlns:dc="http://purl.org/dc/elements/1.1/"
  xmlns:cc="http://creativecommons.org/ns#"
  xmlns:rdf="http://www.w3.org/1999/02/22-rdf-syntax-ns#"
  xmlns:svg="http://www.w3.org/2000/svg"
  xmlns="http://www.w3.org/2000/svg"
  xmlns:sodipodi="http://sodipodi.sourceforge.net/DTD/sodipodi-0.dtd"
  xmlns:inkscape="http://www.inkscape.org/namespaces/inkscape"
  width="16.022"
  height="16.006"
  id="svg15638"
  version="1.1"
  inkscape:version="0.92.2 (unknown)"
  sodipodi:docname="snap-nodes-path.svg"
  viewBox="0 0 16.022 16.006">
 <title
   id="title9623">Inkscape Icon Theme</title>
 <defs
   id="defs15640">
  <!--<inkscape:path-effect effect="spiro" id="path-effect36695" is_visible="true" />-->
  <linearGradient
    id="linearGradient19282"
    osb:paint="solid"
    gradientTransform="matrix(0,0,0,0,-1.1046e8,-6449700)">
   <stop
     style="stop-color:#666666;stop-opacity:1"
     offset="0"
     id="stop19284" />
  </linearGradient>
 </defs>
 <sodipodi:namedview
   id="base"
   pagecolor="#f2f2f2"
   bordercolor="#666666"
   borderopacity="1.0"
   inkscape:pageopacity="0"
   inkscape:pageshadow="2"
   inkscape:zoom="0.76028"
   inkscape:cx="-408.08"
   inkscape:cy="-259.01"
   inkscape:document-units="px"
   inkscape:current-layer="layer1"
   showgrid="false"
   inkscape:window-width="1280"
   inkscape:window-height="960"
   inkscape:window-x="0"
   inkscape:window-y="27"
   inkscape:window-maximized="1"
   inkscape:snap-bbox="true"
   inkscape:bbox-paths="false"
   inkscape:bbox-nodes="true"
   inkscape:snap-global="false"
   showguides="false"
   inkscape:guide-bbox="true"
   inkscape:snap-nodes="false"
   inkscape:snap-object-midpoints="false"
   inkscape:snap-grids="true"
   inkscape:snap-to-guides="true"
   borderlayer="true"
   inkscape:showpageshadow="false"
   showborder="true"
   inkscape:snap-bbox-edge-midpoints="false"
   inkscape:object-nodes="true"
   inkscape:snap-intersection-paths="false"
   inkscape:snap-center="true">
  <inkscape:grid
    type="xygrid"
    id="grid15646"
    empspacing="5"
    visible="true"
    enabled="true"
    snapvisiblegridlinesonly="true"
    originx="-768.98"
    originy="-628.99" />
 </sodipodi:namedview>
 <metadata
   id="metadata15643">
  <rdf:RDF>
   <cc:Work
     rdf:about="">
    <dc:format>image/svg+xml</dc:format>
    <dc:type
      rdf:resource="http://purl.org/dc/dcmitype/StillImage" />
    <dc:title>Inkscape Icon Theme</dc:title>
    <dc:creator>
     <cc:Agent>
      <dc:title>Barbara Muraus</dc:title>
     </cc:Agent>
    </dc:creator>
    <dc:contributor>
     <cc:Agent>
      <dc:title>Jakub Steiner, Josh Andler</dc:title>
     </cc:Agent>
    </dc:contributor>
   </cc:Work>
  </rdf:RDF>
 </metadata>
 <g
   inkscape:label="Layer 1"
   inkscape:groupmode="layer"
   id="layer1"
   transform="translate(-768.98,-527.36)">
  <rect
    y="527.36"
    x="769"
    height="16"
    width="16"
    id="rect22695"
    style="color:#000000;fill:none" />
  <path
    style="color:#000000;-inkscape-font-specification:Sans;fill:url(#linearGradient19282);stroke-width:1.02798"
    d="M 784.31,543.36 A 0.51404,0.51211 0 0 1 783.91,542.77 C 784.14,541.17 783.85,539.05 782.78,537.36 782.15,536.36 781.25,535.52 780,534.99 V 533.86 C 781.66,534.46 782.86,535.54 783.66,536.8 784.88,538.74 785.17,541.06 784.91,542.89 A 0.51404,0.51211 0 0 1 784.31,543.36 Z M 769.59,543.24 A 0.52408,0.52211 0 0 1 769.09,542.8 C 768.8,540.97 769.04,538.65 770.22,536.74 771.01,535.45 772.26,534.37 774,533.8 V 534.86 C 772.65,535.36 771.73,536.24 771.09,537.27 770.08,538.91 769.86,541.01 770.12,542.61 A 0.52408,0.52211 0 0 1 769.59,543.24 Z"
    id="path22693"
    inkscape:connector-curvature="0" />
  <rect
    transform="scale(1,-1)"
    y="-534.36"
    x="775"
    height="3.9999"
    width="4"
    id="rect22697"
    style="opacity:0.3;fill:url(#linearGradient19282)" />
  <rect
    transform="scale(1,-1)"
    style="opacity:0.3;fill:url(#linearGradient19282)"
    id="rect22699"
    width="2"
    height="1"
    x="780"
    y="-532.36" />
  <rect
    transform="scale(1,-1)"
    y="-532.36"
    x="772"
    height="1"
    width="2"
    id="rect22701"
    style="opacity:0.3;fill:url(#linearGradient19282)" />
  <ellipse
    cy="-531.81"
    cx="783"
    style="opacity:0.3;fill:url(#linearGradient19282);stroke-width:1.00519"
    id="path22703"
    transform="scale(1,-1)"
    rx="1.5"
    ry="1.5156" />
  <ellipse
    cy="-531.85"
    cx="771"
    transform="scale(1,-1)"
    id="path22705"
    style="opacity:0.3;fill:url(#linearGradient19282);stroke-width:1.00519"
    rx="1.5"
    ry="1.5156" />
 </g>
</svg>
