<svg xmlns="http://www.w3.org/2000/svg" xmlns:osb="http://www.openswatchbook.org/uri/2009/osb" width="16.022" height="16.006" version="1.1" viewBox="0 0 16.02 16.01">
 <defs>
  <linearGradient id="linearGradient19282" gradientTransform="matrix(0,0,0,0,-88368000,-5052500)" osb:paint="solid">
   <stop style="stop-color:#666666" offset="0"/>
  </linearGradient>
 </defs>
 <g transform="translate(-828.98,-527.36)">
  <rect style="fill:none" width="16" height="16" x="829" y="527.36"/>
  <path style="fill:url(#linearGradient19282)" d="M 844.31,543.36 A 0.51404,0.51211 0 0 1 843.91,542.77 C 844.14,541.17 843.85,539.05 842.78,537.36 842.15,536.36 841.25,535.52 840,534.99 V 533.86 C 841.66,534.46 842.86,535.54 843.66,536.8 844.88,538.74 845.17,541.06 844.91,542.89 A 0.51404,0.51211 0 0 1 844.31,543.36 Z M 829.59,543.24 A 0.52408,0.52211 0 0 1 829.09,542.8 C 828.8,540.97 829.04,538.65 830.22,536.74 831.01,535.45 832.26,534.37 834,533.8 V 534.86 C 832.65,535.36 831.73,536.24 831.09,537.27 830.08,538.91 829.86,541.01 830.12,542.61 A 0.52408,0.52211 0 0 1 829.59,543.24 Z"/>
  <circle style="fill:url(#linearGradient19282)" cx="837" cy="533.36" r="2"/>
 </g>
</svg>
