<svg xmlns="http://www.w3.org/2000/svg" xmlns:osb="http://www.openswatchbook.org/uri/2009/osb" width="16" height="16" version="1.1" viewBox="0 0 16 16">
 <defs>
  <linearGradient id="linearGradient19282" gradientTransform="matrix(0,0,0,0,-1.1046e8,-6316100)" osb:paint="solid">
   <stop style="stop-color:#666666" offset="0"/>
  </linearGradient>
 </defs>
 <g transform="translate(-679,-527.42)">
  <rect style="fill:none" width="16" height="15.938" x="679" y="527.49"/>
  <path style="fill:url(#linearGradient19282)" d="M 694.91,527.42 692.97,527.51 V 531.47 H 694.97 C 694.97,530.59 694.91,528.31 694.91,527.43 Z"/>
  <rect style="fill:url(#linearGradient19282)" width="2" height="3.984" x="-694.97" y="-543.42" transform="scale(-1)"/>
  <rect style="fill:url(#linearGradient19282)" width="1.992" height="3" x="-543.36" y="686" transform="rotate(-90)"/>
  <rect style="fill:url(#linearGradient19282)" width="4" height="1.992" x="-694.97" y="-543.42" transform="scale(-1)"/>
  <rect style="fill:url(#linearGradient19282)" width="1.992" height="3" x="-529.42" y="686" transform="rotate(-90)"/>
  <rect style="fill:url(#linearGradient19282)" width="4" height="1.992" x="691" y="527.42"/>
  <rect style="fill:url(#linearGradient19282)" width="1.992" height="7" x="534.4" y="-688" transform="rotate(90)"/>
  <path style="fill:url(#linearGradient19282)" d="M 688,532.41 V 538.38 L 692,535.39 Z"/>
  <rect style="fill:url(#linearGradient19282)" width="2" height="3.984" x="693" y="533.4"/>
  <rect style="fill:url(#linearGradient19282)" width="2" height="7.969" x="681" y="531.41"/>
  <path style="fill:url(#linearGradient19282)" d="M 685,539.38 H 679 L 682,543.36 Z"/>
  <path style="fill:url(#linearGradient19282)" d="M 685,531.41 H 679 L 682,527.42 Z"/>
 </g>
</svg>
