<svg xmlns="http://www.w3.org/2000/svg" xmlns:osb="http://www.openswatchbook.org/uri/2009/osb" width="16" height="16" version="1.1" viewBox="0 0 16 16">
 <defs>
  <linearGradient id="linearGradient19282" gradientTransform="matrix(0,0,0,0,-1.1046e8,-6316300)" osb:paint="solid">
   <stop style="stop-color:#666666" offset="0"/>
  </linearGradient>
 </defs>
 <g transform="translate(-225,-961.36)">
  <rect style="fill:none" width="16" height="16" x="225" y="961.36"/>
  <path style="fill:url(#linearGradient19282)" d="M 231.5,962.36 C 228.46,962.36 226,964.85 226,967.89 226,970.94 228.46,973.36 231.5,973.36 232.58,973.36 233.59,973.06 234.44,972.52 L 237.21,975.11 C 237.59,975.48 238.18,975.46 238.55,975.07 L 238.74,974.89 C 239.11,974.5 239.12,973.89 238.74,973.51 L 236.03,970.99 C 236.65,970.1 237.03,969.06 237.03,967.89 237.03,964.85 234.54,962.36 231.5,962.36 Z M 231.53,964.42 C 233.47,964.42 235.03,965.98 235.03,967.89 235.03,969.81 233.47,971.36 231.53,971.36 229.59,971.36 228,969.81 228,967.89 228,965.98 229.59,964.42 231.53,964.42 Z"/>
 </g>
</svg>
