<svg xmlns="http://www.w3.org/2000/svg" width="16" height="16" version="1.1" viewBox="0 0 16 16">
 <g transform="translate(-1044,-1028.4)">
  <rect style="opacity:0.3;fill:none" width="16" height="16" x="1044" y="1028.4"/>
  <path style="fill:#666666" d="M 1049,1030.4 1046,1033.4 V 1035.4 1038.4 1043.4 H 1049 V 1033.4 H 1051 1052 1058 V 1030.4 Z M 1052,1036.4 V 1043.4 H 1055 V 1039.4 H 1058 V 1036.4 Z"/>
  <rect style="fill:#666666" width="1" height="1" x="1056" y="1034.4"/>
  <rect style="fill:#666666" width="1" height="1" x="1054" y="1034.4"/>
  <rect style="fill:#666666" width="1" height="1" x="1052" y="1034.4"/>
  <rect style="fill:#666666" width="1" height="1" x="1050" y="1034.4"/>
  <rect style="fill:#666666" width="1" height="1" x="1050" y="1036.4"/>
  <rect style="fill:#666666" width="1" height="1" x="1050" y="1038.4"/>
  <rect style="fill:#666666" width="1" height="1" x="1050" y="1040.4"/>
  <rect style="fill:#666666" width="1" height="1" x="1050" y="1042.4"/>
 </g>
</svg>
