<svg xmlns="http://www.w3.org/2000/svg" width="24" height="24" version="1.1" viewBox="0 0 24 24">
 <g transform="translate(-1083,-997.36)">
  <rect style="opacity:0.3;fill:none" width="24" height="24" x="1083" y="997.36"/>
  <path style="fill:#666666" d="M 1091.2,998.48 1085,998.36 V 1019.4 H 1090 V 1003.4 H 1092.4 1094 1106 V 998.48 Z M 1094,1007.4 V 1019.4 H 1099 V 1012.4 H 1106 V 1007.4 Z"/>
  <rect style="fill:#666666" width="2" height="2" x="1094" y="1004.4"/>
  <rect style="fill:#666666" width="2" height="2" x="1100" y="1004.4"/>
  <rect style="fill:#666666" width="2" height="2" x="1097" y="1004.4"/>
  <rect style="fill:#666666" width="2" height="2" x="1091" y="1004.4"/>
  <rect style="fill:#666666" width="2" height="2" x="1103" y="1004.4"/>
  <rect style="fill:#666666" width="2" height="2" x="1091" y="1007.4"/>
  <rect style="fill:#666666" width="2" height="2" x="1091" y="1010.4"/>
  <rect style="fill:#666666" width="2" height="2" x="1091" y="1013.4"/>
  <rect style="fill:#666666" width="2" height="2" x="1091" y="1016.4"/>
 </g>
</svg>
