<svg xmlns="http://www.w3.org/2000/svg" xmlns:osb="http://www.openswatchbook.org/uri/2009/osb" width="24" height="24" version="1.1" viewBox="0 0 24 24">
 <defs>
  <linearGradient id="linearGradient19282" gradientTransform="matrix(0,0,0,0,-1.1046e8,-6316300)" osb:paint="solid">
   <stop style="stop-color:#666666" offset="0"/>
  </linearGradient>
 </defs>
 <g transform="translate(-1121,-997.36)">
  <rect style="opacity:0.3;fill:none" width="24" height="24" x="1121" y="997.36"/>
  <path style="fill:url(#linearGradient19282)" d="M 1123,1020.4 V 1014.4 1006 C 1123,1002.6 1126.5,999.36 1129.8,999.36 H 1144 V 1004.4 H 1132 C 1128,1004.4 1128,1004.4 1128,1007.4 V 1015.6 1020.4 Z"/>
  <path style="fill:url(#linearGradient19282)" d="M 1132,1008.4 H 1144 V 1013.4 H 1142 1137 V 1020.4 H 1132 Z"/>
  <rect style="fill:url(#linearGradient19282)" width="2" height="2" x="1132" y="1005.4"/>
  <rect style="fill:url(#linearGradient19282)" width="2" height="2" x="1138" y="1005.4"/>
  <rect style="fill:url(#linearGradient19282)" width="2" height="2" x="1135" y="1005.4"/>
  <rect style="fill:url(#linearGradient19282)" width="2" height="2" x="1129" y="1005.4"/>
  <rect style="fill:url(#linearGradient19282)" width="2" height="2" x="1141" y="1005.4"/>
  <rect style="fill:url(#linearGradient19282)" width="2" height="2" x="1129" y="1008.4"/>
  <rect style="fill:url(#linearGradient19282)" width="2" height="2" x="1129" y="1011.4"/>
  <rect style="fill:url(#linearGradient19282)" width="2" height="2" x="1129" y="1014.4"/>
  <rect style="fill:url(#linearGradient19282)" width="2" height="2" x="1129" y="1017.4"/>
 </g>
</svg>
