<svg xmlns="http://www.w3.org/2000/svg" xmlns:osb="http://www.openswatchbook.org/uri/2009/osb" width="16" height="16" version="1.1" viewBox="0 0 16 16">
 <defs>
  <linearGradient id="linearGradient19282" gradientTransform="matrix(0,0,0,0,-1.1046e8,-6316300)" osb:paint="solid">
   <stop style="stop-color:#666666" offset="0"/>
  </linearGradient>
 </defs>
 <g transform="translate(-165,-547.36)">
  <rect style="fill:none" width="16" height="16" x="165" y="547.36"/>
  <path style="fill:url(#linearGradient19282)" d="M 168,563.36 C 168,556.36 168,560.24 168,556.36 168,552.48 170,550.36 175,550.36 H 181 V 549.36 H 174 C 169,549.36 167,552.48 167,556.36 V 563.36 Z"/>
  <path style="fill:url(#linearGradient19282)" d="M 172,563.36 C 172,556.36 172,564.24 172,560.36 172,554.36 172,554.36 177,554.36 H 181 V 553.36 H 176 C 170,553.36 171,555.36 171,560.36 V 563.36 Z"/>
  <rect style="fill:url(#linearGradient19282)" width="3" height="3" x="166" y="557.36"/>
  <rect style="fill:url(#linearGradient19282)" width="3" height="3" x="170" y="557.36"/>
  <rect style="fill:url(#linearGradient19282)" width="3" height="3" x="176" y="548.36"/>
  <rect style="fill:url(#linearGradient19282)" width="3" height="3" x="176" y="552.36"/>
 </g>
</svg>
