<svg xmlns="http://www.w3.org/2000/svg" xmlns:osb="http://www.openswatchbook.org/uri/2009/osb" width="16" height="16" version="1.1" viewBox="0 0 16 16">
 <defs>
  <linearGradient id="linearGradient19282" gradientTransform="matrix(0,0,0,0,-1.1046e8,-6315400)" osb:paint="solid">
   <stop style="stop-color:#666666" offset="0"/>
  </linearGradient>
 </defs>
 <g transform="translate(-135,-867.36)">
  <path style="fill:url(#linearGradient19282)" d="M 143.03,867.36 C 140.91,867.38 138.77,867.72 136.62,868.33 137.55,870.76 136.69,874.71 137.22,877.86 137.74,880.96 140.64,882.03 143.03,883.36 145.89,882.04 148.47,880.46 148.81,877.86 149.23,874.7 148.34,871.61 149.37,868.33 147.28,867.64 145.16,867.34 143.03,867.36 Z M 143.03,869.99 C 143.86,870.65 144.58,871.47 145,872.83 144.08,873.51 143.48,874.74 143.31,875.99 H 143.94 C 144,875.72 144.06,875.41 144.19,875.11 145.38,872.32 148.82,874.88 146.97,876.3 146.91,875.03 146.01,874.59 145.22,875.77 145.17,875.84 145.13,875.92 145.09,875.99 H 145.62 A 0.39277,0.4063 0 0 1 145.62,876.8 H 144.84 C 144.86,877.37 145.3,877.74 145.75,877.74 145.25,879.07 143.88,878.44 143.84,876.8 H 143.28 C 143.31,877.74 143.61,878.63 144.25,879.2 143.95,879.79 143.74,880.46 143.03,880.7 142.48,880.5 142.03,879.93 141.81,879.2 142.46,878.61 142.74,877.73 142.75,876.8 H 142.16 C 142.12,878.44 140.75,879.07 140.25,877.74 140.7,877.74 141.14,877.37 141.16,876.8 H 140.37 A 0.39277,0.4063 0 1 1 140.37,875.99 H 140.91 C 140.87,875.92 140.83,875.84 140.78,875.77 139.99,874.59 139.09,875.03 139.03,876.3 137.18,874.88 140.62,872.32 141.81,875.11 141.94,875.41 142,875.72 142.06,875.99 H 142.69 C 142.5,874.77 141.88,873.56 141.03,872.83 141.38,871.73 142.01,870.74 143.03,869.99 Z"/>
  <rect style="fill:none" width="16" height="16" x="135" y="867.36"/>
 </g>
</svg>
