<?xml version="1.0" encoding="UTF-8" standalone="no"?>
<!-- Created with Inkscape (http://www.inkscape.org/) -->

<svg
  xmlns:osb="http://www.openswatchbook.org/uri/2009/osb"
  xmlns:dc="http://purl.org/dc/elements/1.1/"
  xmlns:cc="http://creativecommons.org/ns#"
  xmlns:rdf="http://www.w3.org/1999/02/22-rdf-syntax-ns#"
  xmlns:svg="http://www.w3.org/2000/svg"
  xmlns="http://www.w3.org/2000/svg"
  xmlns:sodipodi="http://sodipodi.sourceforge.net/DTD/sodipodi-0.dtd"
  xmlns:inkscape="http://www.inkscape.org/namespaces/inkscape"
  width="16"
  height="16"
  id="svg15638"
  version="1.1"
  inkscape:version="0.92.2 (unknown)"
  sodipodi:docname="text-put-on-path.svg"
  viewBox="0 0 16 16">
 <title
   id="title9623">Inkscape Icon Theme</title>
 <defs
   id="defs15640">
  <!--<inkscape:path-effect effect="spiro" id="path-effect36695" is_visible="true" />-->
  <linearGradient
    id="linearGradient19282"
    osb:paint="solid"
    gradientTransform="matrix(0,0,0,0,-1.1046e8,-6316300)">
   <stop
     style="stop-color:#666666;stop-opacity:1"
     offset="0"
     id="stop19284" />
  </linearGradient>
 </defs>
 <sodipodi:namedview
   id="base"
   pagecolor="#f2f2f2"
   bordercolor="#666666"
   borderopacity="1.0"
   inkscape:pageopacity="0"
   inkscape:pageshadow="2"
   inkscape:zoom="0.76028"
   inkscape:cx="165.96"
   inkscape:cy="-218.97"
   inkscape:document-units="px"
   inkscape:current-layer="layer1"
   showgrid="false"
   inkscape:window-width="1280"
   inkscape:window-height="960"
   inkscape:window-x="0"
   inkscape:window-y="27"
   inkscape:window-maximized="1"
   inkscape:snap-bbox="true"
   inkscape:bbox-paths="false"
   inkscape:bbox-nodes="true"
   inkscape:snap-global="false"
   showguides="false"
   inkscape:guide-bbox="true"
   inkscape:snap-nodes="false"
   inkscape:snap-object-midpoints="false"
   inkscape:snap-grids="true"
   inkscape:snap-to-guides="true"
   borderlayer="true"
   inkscape:showpageshadow="false"
   showborder="true"
   inkscape:snap-bbox-edge-midpoints="false"
   inkscape:object-nodes="true"
   inkscape:snap-intersection-paths="false"
   inkscape:snap-center="true">
  <inkscape:grid
    type="xygrid"
    id="grid15646"
    empspacing="5"
    visible="true"
    enabled="true"
    snapvisiblegridlinesonly="true"
    originx="-194.94"
    originy="-588.95" />
 </sodipodi:namedview>
 <metadata
   id="metadata15643">
  <rdf:RDF>
   <cc:Work
     rdf:about="">
    <dc:format>image/svg+xml</dc:format>
    <dc:type
      rdf:resource="http://purl.org/dc/dcmitype/StillImage" />
    <dc:title>Inkscape Icon Theme</dc:title>
    <dc:creator>
     <cc:Agent>
      <dc:title>Barbara Muraus</dc:title>
     </cc:Agent>
    </dc:creator>
    <dc:contributor>
     <cc:Agent>
      <dc:title>Jakub Steiner, Josh Andler</dc:title>
     </cc:Agent>
    </dc:contributor>
   </cc:Work>
  </rdf:RDF>
 </metadata>
 <g
   inkscape:label="Layer 1"
   inkscape:groupmode="layer"
   id="layer1"
   transform="translate(-194.94,-567.41)">
  <rect
    y="567.41"
    x="194.94"
    height="16"
    width="16"
    id="rect28783"
    style="opacity:0.3;fill:none" />
  <path
    inkscape:connector-curvature="0"
    id="path28785"
    d="M 204,568.46 C 204,573.48 204,571.02 204.03,573.92 V 574.35 H 204.5 206.78 C 208.46,574.41 208.39,570.3 206.75,570.42 206.74,570.42 206.73,570.42 206.72,570.42 H 205 V 568.46 Z M 204.94,571.31 H 206.75 206.78 206.81 C 207.18,571.27 207.25,573.48 206.81,573.46 H 206.78 204.94 C 204.93,572.99 204.94,571.46 204.94,571.31 Z"
    style="fill:url(#linearGradient19282)" />
  <path
    inkscape:connector-curvature="0"
    id="path28787"
    d="M 199,569.36 V 570.23 H 200.75 C 200.88,570.25 200.95,570.3 201,570.36 201.05,570.42 201.12,570.55 201.12,570.73 201.13,570.75 201.12,570.75 201.12,570.76 V 571.45 H 199.28 199.25 C 197.64,571.33 197.56,574.41 199.22,574.35 H 201.53 201.97 V 573.91 L 202,570.76 C 202,570.39 201.9,570.05 201.69,569.8 201.48,569.55 201.16,569.39 200.84,569.36 H 200.81 Z M 199.19,572.32 H 199.22 199.25 201.09 L 201.06,573.47 H 199.22 199.19 C 198.72,573.49 198.79,572.28 199.19,572.32 Z"
    style="fill:url(#linearGradient19282)" />
  <path
    inkscape:connector-curvature="0"
    id="path28789"
    d="M 202.94,576.41 C 198.7,576.41 195.24,579.5 194.97,583.41 H 195.97 C 196.25,580.06 199.26,577.41 202.94,577.41 206.62,577.41 209.63,580.06 209.91,583.41 H 210.91 C 210.64,579.5 207.18,576.41 202.94,576.41 Z"
    style="fill:url(#linearGradient19282)" />
 </g>
</svg>
