<svg xmlns="http://www.w3.org/2000/svg" xmlns:osb="http://www.openswatchbook.org/uri/2009/osb" width="16" height="16" version="1.1" viewBox="0 0 16 16">
 <defs>
  <linearGradient id="linearGradient19282" gradientTransform="matrix(0,0,0,0,-1.1046e8,-6316300)" osb:paint="solid">
   <stop style="stop-color:#666666" offset="0"/>
  </linearGradient>
 </defs>
 <g transform="translate(-499,-836.36)">
  <rect style="opacity:0.3;fill:none" width="16" height="16" x="499" y="836.36"/>
  <path style="fill:url(#linearGradient19282)" d="M 501.5,840.37 499,847.36 H 500.5 C 501.25,845.36 500.5,847.36 501.24,845.36 L 503.8,845.38 504.51,847.36 H 506.01 L 503.51,840.37 Z M 502.5,841.87 503.52,844.36 H 501.51 Z"/>
  <path style="fill:url(#linearGradient19282)" d="M 512.36,842.26 507.36,847.85 508.77,848.4 C 510.23,846.81 508.77,848.4 510.23,846.81 L 512.62,847.77 512.54,849.87 513.95,850.42 514.25,842.99 Z M 512.74,844.02 V 846.72 L 510.86,845.98 Z"/>
  <rect style="fill:url(#linearGradient19282)" width="1" height="11" x="506" y="838.36"/>
  <rect style="fill:url(#linearGradient19282)" width="8" height="1" x="499" y="848.36"/>
  <rect style="fill:url(#linearGradient19282)" width="8.466" height="1.038" x="789.94" y="608.89" transform="matrix(0.9328,0.3604,-0.37858,0.92557,0,0)"/>
 </g>
</svg>
