<svg xmlns="http://www.w3.org/2000/svg" xmlns:osb="http://www.openswatchbook.org/uri/2009/osb" width="16" height="16" version="1.1" viewBox="0 0 16 16">
 <defs>
  <linearGradient id="linearGradient19282" gradientTransform="matrix(0,0,0,0,-1.1016e8,-6315800)" osb:paint="solid">
   <stop style="stop-color:#666666" offset="0"/>
  </linearGradient>
 </defs>
 <g transform="translate(-439,-836.36)">
  <rect style="opacity:0.3;fill:none" width="15.991" height="16" x="439" y="836.36"/>
  <path style="fill:url(#linearGradient19282)" d="M 441.5,836.37 439,843.36 H 440.5 C 441.25,841.36 440.5,843.36 441.24,841.36 L 443.8,841.38 444.51,843.36 H 446 L 443.51,836.37 Z M 442.5,837.87 443.52,840.36 H 441.51 Z"/>
  <path style="fill:url(#linearGradient19282)" d="M 450.49,843.37 447.99,850.36 H 449.49 C 450.24,848.36 449.49,850.36 450.23,848.36 L 452.79,848.38 453.5,850.36 H 455 L 452.5,843.37 Z M 451.49,844.87 452.51,847.36 H 450.5 Z"/>
  <rect style="fill:url(#linearGradient19282)" width="6.996" height="1" x="439" y="844.36"/>
  <rect style="fill:url(#linearGradient19282)" width="7.996" height="1" x="446.99" y="851.36"/>
  <rect style="fill:url(#linearGradient19282)" width=".999" height="8" x="445.99" y="844.36"/>
 </g>
</svg>
