<svg xmlns="http://www.w3.org/2000/svg" xmlns:osb="http://www.openswatchbook.org/uri/2009/osb" width="16" height="16" version="1.1" viewBox="0 0 16 16">
 <defs>
  <linearGradient id="linearGradient19282" gradientTransform="matrix(0,0,0,0,-1.1046e8,-6314800)" osb:paint="solid">
   <stop style="stop-color:#666666" offset="0"/>
  </linearGradient>
 </defs>
 <g transform="translate(-409,-836.36)">
  <rect style="opacity:0.3;fill:none" width="16" height="16" x="409" y="836.36"/>
  <path style="fill:url(#linearGradient19282)" d="M 412,842.36 C 411.45,842.36 411,842.81 411,843.36 V 847.36 H 412 V 844.36 C 412,843.81 412.45,843.36 413,843.36 413.55,843.36 414,843.81 414,844.36 V 847.36 H 415 V 843.36 C 415,842.81 414.55,842.36 414,842.36 Z"/>
  <path style="fill:url(#linearGradient19282)" d="M 419,838.36 418,839.36 V 845.86 C 418,846.63 418.57,847.24 419.31,847.33 419.37,847.35 419.43,847.36 419.5,847.36 419.66,847.36 419.89,847.36 420,847.36 V 846.36 H 419.5 C 419.22,846.36 419,846.14 419,845.86 V 845.36 841.36 840.36 C 419,840.21 418.96,838.5 419,838.36 Z"/>
  <rect style="fill:url(#linearGradient19282)" width="3" height="1" x="417" y="840.36" rx="0" ry=".5"/>
  <rect style="fill:url(#linearGradient19282)" width="1" height="5" x="409" y="842.36" ry=".5"/>
  <rect style="fill:url(#linearGradient19282)" width="1" height="1" x="409" y="840.36" ry="0"/>
  <path style="fill:url(#linearGradient19282)" d="M 422,838.36 C 421,839.36 421,839.36 421,839.36 V 847.36 H 422 V 845.36 841.36 840.36 C 422,840.21 421.96,838.5 422,838.36 Z"/>
  <path style="fill:url(#linearGradient19282)" d="M 422,842.36 C 421.45,842.36 421,842.81 421,843.36 V 847.36 H 422 V 844.36 C 422,843.81 422.45,843.36 423,843.36 423.55,843.36 424,843.81 424,844.36 V 847.36 H 425 V 843.36 C 425,842.81 424.55,842.36 424,842.36 Z"/>
 </g>
</svg>
