<?xml version="1.0" encoding="UTF-8" standalone="no"?>
<!-- Created with Inkscape (http://www.inkscape.org/) -->

<svg
  xmlns:osb="http://www.openswatchbook.org/uri/2009/osb"
  xmlns:dc="http://purl.org/dc/elements/1.1/"
  xmlns:cc="http://creativecommons.org/ns#"
  xmlns:rdf="http://www.w3.org/1999/02/22-rdf-syntax-ns#"
  xmlns:svg="http://www.w3.org/2000/svg"
  xmlns="http://www.w3.org/2000/svg"
  xmlns:sodipodi="http://sodipodi.sourceforge.net/DTD/sodipodi-0.dtd"
  xmlns:inkscape="http://www.inkscape.org/namespaces/inkscape"
  width="16"
  height="16"
  id="svg15638"
  version="1.1"
  inkscape:version="0.92.2 (unknown)"
  sodipodi:docname="text_word_spacing.svg"
  viewBox="0 0 16 16">
 <title
   id="title9623">Inkscape Icon Theme</title>
 <defs
   id="defs15640">
  <!--<inkscape:path-effect effect="spiro" id="path-effect36695" is_visible="true" />-->
  <linearGradient
    id="linearGradient19282"
    osb:paint="solid"
    gradientTransform="matrix(0,0,0,0,-1.1046e8,-6314800)">
   <stop
     style="stop-color:#666666;stop-opacity:1"
     offset="0"
     id="stop19284" />
  </linearGradient>
 </defs>
 <sodipodi:namedview
   id="base"
   pagecolor="#f2f2f2"
   bordercolor="#666666"
   borderopacity="1.0"
   inkscape:pageopacity="0"
   inkscape:pageshadow="2"
   inkscape:zoom="0.76028"
   inkscape:cx="-48.1"
   inkscape:cy="49.98"
   inkscape:document-units="px"
   inkscape:current-layer="layer1"
   showgrid="false"
   inkscape:window-width="1280"
   inkscape:window-height="960"
   inkscape:window-x="0"
   inkscape:window-y="27"
   inkscape:window-maximized="1"
   inkscape:snap-bbox="true"
   inkscape:bbox-paths="false"
   inkscape:bbox-nodes="true"
   inkscape:snap-global="false"
   showguides="false"
   inkscape:guide-bbox="true"
   inkscape:snap-nodes="false"
   inkscape:snap-object-midpoints="false"
   inkscape:snap-grids="true"
   inkscape:snap-to-guides="true"
   borderlayer="true"
   inkscape:showpageshadow="false"
   showborder="true"
   inkscape:snap-bbox-edge-midpoints="false"
   inkscape:object-nodes="true"
   inkscape:snap-intersection-paths="false"
   inkscape:snap-center="true">
  <inkscape:grid
    type="xygrid"
    id="grid15646"
    empspacing="5"
    visible="true"
    enabled="true"
    snapvisiblegridlinesonly="true"
    originx="-409"
    originy="-320" />
 </sodipodi:namedview>
 <metadata
   id="metadata15643">
  <rdf:RDF>
   <cc:Work
     rdf:about="">
    <dc:format>image/svg+xml</dc:format>
    <dc:type
      rdf:resource="http://purl.org/dc/dcmitype/StillImage" />
    <dc:title>Inkscape Icon Theme</dc:title>
    <dc:creator>
     <cc:Agent>
      <dc:title>Barbara Muraus</dc:title>
     </cc:Agent>
    </dc:creator>
    <dc:contributor>
     <cc:Agent>
      <dc:title>Jakub Steiner, Josh Andler</dc:title>
     </cc:Agent>
    </dc:contributor>
   </cc:Work>
  </rdf:RDF>
 </metadata>
 <g
   inkscape:label="Layer 1"
   inkscape:groupmode="layer"
   id="layer1"
   transform="translate(-409,-836.36)">
  <rect
    style="opacity:0.3;fill:none"
    id="rect21014"
    width="16"
    height="16"
    x="409"
    y="836.36" />
  <path
    style="fill:url(#linearGradient19282)"
    d="M 412,842.36 C 411.45,842.36 411,842.81 411,843.36 V 847.36 H 412 V 844.36 C 412,843.81 412.45,843.36 413,843.36 413.55,843.36 414,843.81 414,844.36 V 847.36 H 415 V 843.36 C 415,842.81 414.55,842.36 414,842.36 Z"
    id="rect21366"
    inkscape:connector-curvature="0"
    sodipodi:nodetypes="ssccsssccsss" />
  <path
    style="fill:url(#linearGradient19282)"
    d="M 419,838.36 418,839.36 V 845.86 C 418,846.63 418.57,847.24 419.31,847.33 419.37,847.35 419.43,847.36 419.5,847.36 419.66,847.36 419.89,847.36 420,847.36 V 846.36 H 419.5 C 419.22,846.36 419,846.14 419,845.86 V 845.36 841.36 840.36 C 419,840.21 418.96,838.5 419,838.36 Z"
    id="rect21376"
    inkscape:connector-curvature="0"
    sodipodi:nodetypes="ccscsccssccsc" />
  <rect
    style="fill:url(#linearGradient19282)"
    id="rect21387"
    width="3"
    height="1"
    x="417"
    y="840.36"
    ry="0.5"
    rx="0" />
  <rect
    style="fill:url(#linearGradient19282)"
    id="rect21391"
    width="1"
    height="5"
    x="409"
    y="842.36"
    ry="0.5" />
  <rect
    style="fill:url(#linearGradient19282)"
    id="rect21393"
    width="1"
    height="1"
    x="409"
    y="840.36"
    ry="0" />
  <path
    sodipodi:nodetypes="ccccccsc"
    inkscape:connector-curvature="0"
    id="path21395"
    d="M 422,838.36 C 421,839.36 421,839.36 421,839.36 V 847.36 H 422 V 845.36 841.36 840.36 C 422,840.21 421.96,838.5 422,838.36 Z"
    style="fill:url(#linearGradient19282)" />
  <path
    sodipodi:nodetypes="ssccsssccsss"
    inkscape:connector-curvature="0"
    id="path21406"
    d="M 422,842.36 C 421.45,842.36 421,842.81 421,843.36 V 847.36 H 422 V 844.36 C 422,843.81 422.45,843.36 423,843.36 423.55,843.36 424,843.81 424,844.36 V 847.36 H 425 V 843.36 C 425,842.81 424.55,842.36 424,842.36 Z"
    style="fill:url(#linearGradient19282)" />
 </g>
</svg>
