<svg xmlns="http://www.w3.org/2000/svg" xmlns:osb="http://www.openswatchbook.org/uri/2009/osb" width="16" height="16" version="1.1" viewBox="0 0 16 16">
 <defs>
  <linearGradient id="linearGradient19282" gradientTransform="matrix(0,0,0,0,-1.1046e8,-6316300)" osb:paint="solid">
   <stop style="stop-color:#666666" offset="0"/>
  </linearGradient>
 </defs>
 <g transform="translate(-195,-607.36)">
  <rect style="fill:none" width="16" height="16" x="195" y="607.36"/>
  <path style="fill:url(#linearGradient19282)" d="M 197,609.36 V 612.36 L 198,611.36 H 200 V 617.36 L 199,618.36 H 203 L 202,617.36 V 611.36 H 204 L 205,612.36 V 609.36 Z"/>
  <rect style="fill:url(#linearGradient19282)" width="1" height="1" x="195" y="607.36"/>
  <rect style="fill:url(#linearGradient19282)" width="1" height="1" x="197" y="607.36"/>
  <rect style="fill:url(#linearGradient19282)" width="1" height="1" x="199" y="607.36"/>
  <rect style="fill:url(#linearGradient19282)" width="1" height="1" x="201" y="607.36"/>
  <rect style="fill:url(#linearGradient19282)" width="1" height="1" x="203" y="607.36"/>
  <rect style="fill:url(#linearGradient19282)" width="1" height="1" x="205" y="607.36"/>
  <rect style="fill:url(#linearGradient19282)" width="1" height="1" x="195" y="611.36"/>
  <rect style="fill:url(#linearGradient19282)" width="1" height="1" x="195" y="613.36"/>
  <rect style="fill:url(#linearGradient19282)" width="1" height="1" x="195" y="615.36"/>
  <rect style="fill:url(#linearGradient19282)" width="1" height="1" x="195" y="617.36"/>
  <rect style="fill:url(#linearGradient19282)" width="1" height="1" x="195" y="619.36"/>
  <rect style="fill:url(#linearGradient19282)" width="1" height="1" x="195" y="621.36"/>
  <rect style="fill:url(#linearGradient19282)" width="1" height="1" x="195" y="609.36"/>
  <rect style="fill:url(#linearGradient19282)" width="1" height="1" x="209" y="607.36"/>
  <rect style="fill:url(#linearGradient19282)" width="1" height="1" x="207" y="607.36"/>
  <rect style="fill:url(#linearGradient19282)" width="1" height="1" x="197" y="621.36"/>
  <rect style="fill:url(#linearGradient19282)" width="1" height="1" x="199" y="621.36"/>
  <rect style="fill:url(#linearGradient19282)" width="1" height="1" x="201" y="621.36"/>
  <rect style="fill:url(#linearGradient19282)" width="1" height="1" x="203" y="621.36"/>
  <rect style="fill:url(#linearGradient19282)" width="1" height="1" x="209" y="611.36"/>
  <rect style="fill:url(#linearGradient19282)" width="1" height="1" x="209" y="613.36"/>
  <rect style="fill:url(#linearGradient19282)" width="1" height="1" x="209" y="615.36"/>
  <rect style="fill:url(#linearGradient19282)" width="1" height="1" x="209" y="609.36"/>
  <path style="fill:url(#linearGradient19282)" d="M 205,618.36 H 207 L 211,623.36 H 209 Z"/>
  <path style="fill:url(#linearGradient19282)" d="M 211,618.36 H 209 L 205,623.36 H 207 Z"/>
 </g>
</svg>
