<?xml version="1.0" encoding="UTF-8" standalone="no"?>
<!-- Created with Inkscape (http://www.inkscape.org/) -->

<svg
  xmlns:osb="http://www.openswatchbook.org/uri/2009/osb"
  xmlns:dc="http://purl.org/dc/elements/1.1/"
  xmlns:cc="http://creativecommons.org/ns#"
  xmlns:rdf="http://www.w3.org/1999/02/22-rdf-syntax-ns#"
  xmlns:svg="http://www.w3.org/2000/svg"
  xmlns="http://www.w3.org/2000/svg"
  xmlns:sodipodi="http://sodipodi.sourceforge.net/DTD/sodipodi-0.dtd"
  xmlns:inkscape="http://www.inkscape.org/namespaces/inkscape"
  width="16"
  height="16.049"
  id="svg15638"
  version="1.1"
  inkscape:version="0.92.2 (unknown)"
  sodipodi:docname="text-remove-from-path.svg"
  viewBox="0 0 16 16.049">
 <title
   id="title9623">Inkscape Icon Theme</title>
 <defs
   id="defs15640">
  <!--<inkscape:path-effect effect="spiro" id="path-effect36695" is_visible="true" />-->
  <linearGradient
    id="linearGradient19282"
    osb:paint="solid"
    gradientTransform="matrix(0,0,0,0,-1.1046e8,-6316300)">
   <stop
     style="stop-color:#666666;stop-opacity:1"
     offset="0"
     id="stop19284" />
  </linearGradient>
 </defs>
 <sodipodi:namedview
   id="base"
   pagecolor="#f2f2f2"
   bordercolor="#666666"
   borderopacity="1.0"
   inkscape:pageopacity="0"
   inkscape:pageshadow="2"
   inkscape:zoom="0.76028"
   inkscape:cx="165.9"
   inkscape:cy="-238.97"
   inkscape:document-units="px"
   inkscape:current-layer="layer1"
   showgrid="false"
   inkscape:window-width="1280"
   inkscape:window-height="960"
   inkscape:window-x="0"
   inkscape:window-y="27"
   inkscape:window-maximized="1"
   inkscape:snap-bbox="true"
   inkscape:bbox-paths="false"
   inkscape:bbox-nodes="true"
   inkscape:snap-global="false"
   showguides="false"
   inkscape:guide-bbox="true"
   inkscape:snap-nodes="false"
   inkscape:snap-object-midpoints="false"
   inkscape:snap-grids="true"
   inkscape:snap-to-guides="true"
   borderlayer="true"
   inkscape:showpageshadow="false"
   showborder="true"
   inkscape:snap-bbox-edge-midpoints="false"
   inkscape:object-nodes="true"
   inkscape:snap-intersection-paths="false"
   inkscape:snap-center="true">
  <inkscape:grid
    type="xygrid"
    id="grid15646"
    empspacing="5"
    visible="true"
    enabled="true"
    snapvisiblegridlinesonly="true"
    originx="-195"
    originy="-608.95" />
 </sodipodi:namedview>
 <metadata
   id="metadata15643">
  <rdf:RDF>
   <cc:Work
     rdf:about="">
    <dc:format>image/svg+xml</dc:format>
    <dc:type
      rdf:resource="http://purl.org/dc/dcmitype/StillImage" />
    <dc:title>Inkscape Icon Theme</dc:title>
    <dc:creator>
     <cc:Agent>
      <dc:title>Barbara Muraus</dc:title>
     </cc:Agent>
    </dc:creator>
    <dc:contributor>
     <cc:Agent>
      <dc:title>Jakub Steiner, Josh Andler</dc:title>
     </cc:Agent>
    </dc:contributor>
   </cc:Work>
  </rdf:RDF>
 </metadata>
 <g
   inkscape:label="Layer 1"
   inkscape:groupmode="layer"
   id="layer1"
   transform="translate(-195,-547.36)">
  <rect
    style="opacity:0.3;fill:none"
    id="rect7066"
    width="16"
    height="16"
    x="195"
    y="547.36" />
  <path
    style="fill:url(#linearGradient19282)"
    d="M 204.06,547.41 C 204.06,552.43 204.06,549.97 204.09,552.87 V 553.3 H 204.56 206.84 C 208.52,553.37 208.45,549.25 206.81,549.37 206.8,549.37 206.79,549.37 206.78,549.37 H 205.06 V 547.41 Z M 205,550.26 H 206.81 206.84 206.88 C 207.24,550.23 207.31,552.43 206.88,552.41 H 206.84 205 C 204.99,551.94 205,550.41 205,550.26 Z"
    id="path7106"
    inkscape:connector-curvature="0" />
  <path
    style="fill:url(#linearGradient19282)"
    d="M 199.06,548.31 V 549.19 H 200.81 C 200.94,549.2 201.01,549.25 201.06,549.31 201.11,549.37 201.18,549.5 201.19,549.69 201.19,549.7 201.19,549.7 201.19,549.72 V 550.4 H 199.34 199.31 C 197.7,550.29 197.63,553.36 199.28,553.3 H 201.59 202.03 V 552.86 L 202.06,549.72 C 202.06,549.35 201.96,549 201.75,548.75 201.54,548.5 201.22,548.35 200.91,548.31 H 200.87 Z M 199.25,551.27 H 199.28 199.31 201.16 L 201.12,552.43 H 199.28 199.25 C 198.78,552.45 198.85,551.23 199.25,551.27 Z"
    id="path7104"
    inkscape:connector-curvature="0" />
  <path
    style="fill:url(#linearGradient19282)"
    d="M 203,554.36 C 198.76,554.36 195.3,557.45 195.03,561.36 H 196.03 C 196.31,558.01 199.32,555.36 203,555.36 206.68,555.36 209.69,558.01 209.97,561.36 H 210.97 C 210.7,557.45 207.24,554.36 203,554.36 Z"
    id="path23199"
    inkscape:connector-curvature="0" />
  <path
    style="fill:url(#linearGradient19282)"
    d="M 200,558.38 H 201.71 L 206,563.36 H 204.29 Z"
    id="path28750"
    inkscape:connector-curvature="0" />
  <path
    inkscape:connector-curvature="0"
    id="path28752"
    d="M 206,558.38 H 204.27 L 199.95,563.41 H 201.68 Z"
    style="fill:url(#linearGradient19282)" />
 </g>
</svg>
