<?xml version="1.0" encoding="UTF-8" standalone="no"?>
<!-- Created with Inkscape (http://www.inkscape.org/) -->

<svg
  xmlns:osb="http://www.openswatchbook.org/uri/2009/osb"
  xmlns:dc="http://purl.org/dc/elements/1.1/"
  xmlns:cc="http://creativecommons.org/ns#"
  xmlns:rdf="http://www.w3.org/1999/02/22-rdf-syntax-ns#"
  xmlns:svg="http://www.w3.org/2000/svg"
  xmlns="http://www.w3.org/2000/svg"
  xmlns:sodipodi="http://sodipodi.sourceforge.net/DTD/sodipodi-0.dtd"
  xmlns:inkscape="http://www.inkscape.org/namespaces/inkscape"
  width="16"
  height="16"
  id="svg15638"
  version="1.1"
  inkscape:version="0.92.2 (unknown)"
  sodipodi:docname="transform-rotate.svg"
  viewBox="0 0 16 16">
 <title
   id="title9623">Inkscape Icon Theme</title>
 <defs
   id="defs15640">
  <!--<inkscape:path-effect effect="spiro" id="path-effect36695" is_visible="true" />-->
  <linearGradient
    id="linearGradient19282"
    osb:paint="solid"
    gradientTransform="matrix(0,0,0,0,-1.1046e8,-6316300)">
   <stop
     style="stop-color:#666666;stop-opacity:1"
     offset="0"
     id="stop19284" />
  </linearGradient>
 </defs>
 <sodipodi:namedview
   id="base"
   pagecolor="#f2f2f2"
   bordercolor="#666666"
   borderopacity="1.0"
   inkscape:pageopacity="0"
   inkscape:pageshadow="2"
   inkscape:zoom="0.76028"
   inkscape:cx="-197.1"
   inkscape:cy="-74.007"
   inkscape:document-units="px"
   inkscape:current-layer="layer1"
   showgrid="false"
   inkscape:window-width="1280"
   inkscape:window-height="960"
   inkscape:window-x="0"
   inkscape:window-y="27"
   inkscape:window-maximized="1"
   inkscape:snap-bbox="true"
   inkscape:bbox-paths="false"
   inkscape:bbox-nodes="true"
   inkscape:snap-global="false"
   showguides="false"
   inkscape:guide-bbox="true"
   inkscape:snap-nodes="false"
   inkscape:snap-object-midpoints="false"
   inkscape:snap-grids="true"
   inkscape:snap-to-guides="true"
   borderlayer="true"
   inkscape:showpageshadow="false"
   showborder="true"
   inkscape:snap-bbox-edge-midpoints="false"
   inkscape:object-nodes="true"
   inkscape:snap-intersection-paths="false"
   inkscape:snap-center="true">
  <inkscape:grid
    type="xygrid"
    id="grid15646"
    empspacing="5"
    visible="true"
    enabled="true"
    snapvisiblegridlinesonly="true"
    originx="-558"
    originy="-443.99" />
 </sodipodi:namedview>
 <metadata
   id="metadata15643">
  <rdf:RDF>
   <cc:Work
     rdf:about="">
    <dc:format>image/svg+xml</dc:format>
    <dc:type
      rdf:resource="http://purl.org/dc/dcmitype/StillImage" />
    <dc:title>Inkscape Icon Theme</dc:title>
    <dc:creator>
     <cc:Agent>
      <dc:title>Barbara Muraus</dc:title>
     </cc:Agent>
    </dc:creator>
    <dc:contributor>
     <cc:Agent>
      <dc:title>Jakub Steiner, Josh Andler</dc:title>
     </cc:Agent>
    </dc:contributor>
   </cc:Work>
  </rdf:RDF>
 </metadata>
 <g
   inkscape:label="Layer 1"
   inkscape:groupmode="layer"
   id="layer1"
   transform="translate(-558,-712.37)">
  <rect
    style="fill:none"
    id="rect10072"
    width="16"
    height="15.987"
    x="558"
    y="712.38"
    rx="0.46967"
    ry="0" />
  <path
    sodipodi:nodetypes="ccccccscscscc"
    inkscape:connector-curvature="0"
    style="fill:url(#linearGradient19282)"
    d="M 558,712.38 V 717.37 C 558.98,717.37 560.12,717.39 561,717.37 H 563 L 561.19,715.56 V 715.53 C 561.56,714.8 562.44,714.25 563.56,714.25 565.06,714.25 566.12,715.25 566.12,716.31 566.04,716.85 566.51,717.41 567.06,717.41 567.61,717.41 568.09,716.85 568,716.31 568,714.06 565.94,712.38 563.56,712.38 562.02,712.38 560.61,713.07 559.81,714.19 Z"
    id="path18623" />
  <path
    style="fill:url(#linearGradient19282)"
    d="M 567.97,727.58 A 0.9501,0.94932 0 0 0 569.06,728.36 C 571.32,728.36 573,726.3 573,723.93 573,722.39 572.3,720.98 571.19,720.18 L 573,718.37 H 568 V 720.12 720.21 A 0.9501,0.94932 0 0 0 568,720.68 V 721.37 723.37 L 569.81,721.56 C 569.82,721.56 569.84,721.55 569.84,721.56 570.57,721.93 571.12,722.81 571.12,723.93 571.12,725.42 570.12,726.49 569.06,726.49 A 0.9501,0.94932 0 0 0 567.97,727.58 Z"
    id="rect10846"
    inkscape:connector-curvature="0" />
  <rect
    style="fill:url(#linearGradient19282)"
    id="rect23174"
    width="7"
    height="6.9943"
    x="559"
    y="719.37"
    rx="0.46967"
    ry="0" />
 </g>
</svg>
