<svg xmlns="http://www.w3.org/2000/svg" xmlns:osb="http://www.openswatchbook.org/uri/2009/osb" width="16" height="16" version="1.1" viewBox="0 0 16 16">
 <defs>
  <linearGradient id="linearGradient19282" gradientTransform="matrix(0,0,0,0,-1.1046e8,-6316300)" osb:paint="solid">
   <stop style="stop-color:#666666" offset="0"/>
  </linearGradient>
 </defs>
 <g transform="translate(-378,-527.36)">
  <rect style="opacity:0.3;fill:none" width="16" height="16" x="378" y="527.36"/>
  <path style="fill:url(#linearGradient19282)" d="M 381,532.36 C 380.74,532.39 380.53,532.64 380.55,532.89 380.57,533.14 380.83,533.35 381.1,533.32 L 385.49,533.35 C 386.66,533.36 386.92,533.4 387.35,533.79 387.78,534.19 388,534.82 388,535.85 388,536.11 388.24,536.34 388.5,536.34 388.77,536.34 389,536.11 389,535.85 389,534.69 388.73,533.74 388.04,533.1 387.34,532.47 386.8,532.41 385.49,532.4 L 381.1,532.36 C 381.06,532.36 381.03,532.36 381,532.36 Z"/>
  <path style="fill:url(#linearGradient19282)" d="M 383,539.36 V 541.38 H 385 V 539.36 Z"/>
  <path style="fill:url(#linearGradient19282)" d="M 387,541.36 V 539.36 H 390 V 537.36 L 392.99,540.36 390,543.36 V 541.36 Z"/>
  <path style="fill:url(#linearGradient19282)" d="M 380,539.38 V 541.4 H 382 V 539.38 Z"/>
  <path style="fill:url(#linearGradient19282)" d="M 380.81,528.37 A 1.0045,1.0045 0 1 0 381,530.37 H 386.5 C 388.06,530.37 389.15,530.79 389.87,531.46 390.59,532.13 391,533.09 391,534.37 A 1.0001,1.0001 0 1 0 393,534.37 C 393,532.64 392.4,531.07 391.25,529.99 390.09,528.91 388.44,528.37 386.5,528.37 H 381 A 1.0001,1.0001 0 0 0 380.81,528.37 Z"/>
 </g>
</svg>
