<svg xmlns="http://www.w3.org/2000/svg" width="16" height="16" version="1.1" viewBox="0 0 16 16">
 <g transform="translate(-558,-712.37)">
  <rect style="fill:none" width="16" height="15.987" x="558" y="712.38" rx=".47" ry="0"/>
  <path style="fill:#666666" d="M 558,712.38 V 717.37 C 558.98,717.37 560.12,717.39 561,717.37 H 563 L 561.19,715.56 V 715.53 C 561.56,714.8 562.44,714.25 563.56,714.25 565.06,714.25 566.12,715.25 566.12,716.31 566.04,716.85 566.51,717.41 567.06,717.41 567.61,717.41 568.09,716.85 568,716.31 568,714.06 565.94,712.38 563.56,712.38 562.02,712.38 560.61,713.07 559.81,714.19 Z"/>
  <path style="fill:#666666" d="M 567.97,727.58 A 0.9501,0.94932 0 0 0 569.06,728.36 C 571.32,728.36 573,726.3 573,723.93 573,722.39 572.3,720.98 571.19,720.18 L 573,718.37 H 568 V 720.12 720.21 A 0.9501,0.94932 0 0 0 568,720.68 V 721.37 723.37 L 569.81,721.56 C 569.82,721.56 569.84,721.55 569.84,721.56 570.57,721.93 571.12,722.81 571.12,723.93 571.12,725.42 570.12,726.49 569.06,726.49 A 0.9501,0.94932 0 0 0 567.97,727.58 Z"/>
  <rect style="fill:#666666" width="7" height="6.994" x="559" y="719.37" rx=".47" ry="0"/>
 </g>
</svg>
