<svg xmlns="http://www.w3.org/2000/svg" width="24" height="24" version="1.1" viewBox="0 0 24 24">
 <g transform="translate(-1044,-557.36)">
  <rect style="fill:none" width="24" height="24" x="1044" y="557.36"/>
  <rect style="fill:#666666" width="1" height="24" x="1044" y="557.36"/>
  <rect style="fill:#666666" width="24" height="1" x="1044" y="557.36"/>
  <rect style="fill:#666666" width="24" height="1" x="1044" y="580.36"/>
  <rect style="fill:#666666" width="1" height="24" x="1067" y="557.36"/>
  <path style="fill:#666666" d="M 1054,563.36 V 568.38 L 1055,568.36 V 563.36 Z"/>
  <path style="fill:#666666" d="M 1059.5,563.37 C 1058.7,563.3 1058,563.59 1057.5,563.86 L 1057.9,564.75 C 1058.3,564.53 1058.9,564.31 1059.4,564.35 1059.6,564.37 1059.7,564.45 1059.8,564.57 1059.9,564.68 1060,564.86 1060,565.27 V 568.36 H 1061 V 565.54 C 1061,564.97 1061,564.27 1060.5,563.89 1060.2,563.56 1059.8,563.41 1059.5,563.37 Z"/>
  <path style="fill:#666666" d="M 1062,559.38 V 565.44 566.36 C 1061.9,568.86 1063.4,568.3 1065,568.36 V 567.33 L 1064,567.36 C 1064,567.32 1063,567.76 1063,566.36 V 559.38 Z"/>
  <path style="fill:#666666" d="M 1056.6,563.37 C 1056,563.3 1055.3,563.59 1054.8,563.86 L 1055.2,564.75 C 1055.5,564.53 1056.1,564.31 1056.5,564.35 1056.7,564.37 1056.9,564.45 1057,564.57 1057.1,564.68 1057,565.13 1057,565.54 V 568.36 H 1058 V 565.54 C 1058,564.97 1058.2,564.18 1057.6,563.89 1057.3,563.56 1057,563.41 1056.6,563.37 Z"/>
  <path style="fill:#666666" d="M 1048.6,563.36 1048,563.97 1052.4,568.36 1053,567.76 Z"/>
  <path style="fill:#666666" d="M 1052.4,563.36 1048,567.75 1048.6,568.36 1053,563.97 Z"/>
  <path style="fill:#666666" d="M 1050.2,571.42 1049.8,571.77 1046.4,574.53 1046,574.84 1046.4,575.16 1049.8,577.92 1050.2,578.26 1051.1,577.6 1050.6,577.29 1047.6,574.84 1050.6,572.4 1051.1,572.08 Z M 1053.7,571.42 1052.8,572.08 1053.3,572.4 1056.3,574.84 1053.3,577.29 1052.8,577.6 1053.7,578.26 1054.1,577.92 1057.5,575.16 1057.9,574.84 1057.5,574.53 1054.1,571.77 Z"/>
  <path style="fill:#666666" d="M 1059,572.36 V 580.36 H 1067 V 572.36 Z M 1062,573.36 H 1064 V 575.36 H 1066 V 577.36 H 1064 V 579.36 H 1062 V 577.36 H 1060 V 575.36 H 1062 Z"/>
 </g>
</svg>
