<svg xmlns="http://www.w3.org/2000/svg" xmlns:osb="http://www.openswatchbook.org/uri/2009/osb" width="24" height="24" version="1.1" viewBox="0 0 24 24">
 <defs>
  <linearGradient id="linearGradient19282" gradientTransform="matrix(0,0,0,0,-1.2663e8,-5811200)" osb:paint="solid">
   <stop style="stop-color:#666666" offset="0"/>
  </linearGradient>
 </defs>
 <g transform="translate(-1082,-557.36)">
  <rect style="fill:none" width="24" height="24" x="1082" y="557.36"/>
  <rect style="fill:url(#linearGradient19282)" width="1" height="24" x="1082" y="557.36"/>
  <rect style="fill:url(#linearGradient19282)" width="24" height="1" x="1082" y="557.36"/>
  <rect style="fill:url(#linearGradient19282)" width="24" height="1" x="1082" y="580.36"/>
  <rect style="fill:url(#linearGradient19282)" width="1" height="24" x="1105" y="557.36"/>
  <path style="fill:url(#linearGradient19282)" d="M 1097,572.36 V 580.36 H 1105 V 572.36 Z M 1100,573.36 H 1102 V 575.36 H 1104 V 577.36 H 1102 V 579.36 H 1100 V 577.36 H 1098 V 575.36 H 1100 Z"/>
  <path style="fill:url(#linearGradient19282)" d="M 1100,563.36 C 1098.9,563.36 1098,564.11 1098,565.03 V 566.7 C 1098,567.62 1098.9,568.36 1100,568.36 1101.1,568.36 1102,567.62 1102,566.7 H 1101 C 1101,567.16 1100.6,567.53 1100,567.53 1099.4,567.53 1099,567.16 1099,566.7 V 565.03 C 1099,564.57 1099.4,564.2 1100,564.2 1100.6,564.2 1101,564.57 1101,565.03 H 1102 C 1102,564.11 1101.1,563.36 1100,563.36 Z"/>
  <path style="fill:url(#linearGradient19282)" d="M 1088,563.36 C 1086.9,563.36 1086,564.1 1086,565.02 V 566.71 C 1086,567.63 1086.9,568.36 1088,568.36 1088.4,568.36 1088.7,568.28 1089,568.14 V 568.36 H 1090 V 566.71 565.02 563.36 H 1089 V 563.58 C 1088.7,563.44 1088.4,563.36 1088,563.36 Z M 1088,564.21 C 1088.6,564.21 1089,564.56 1089,565.02 V 566.71 C 1089,567.17 1088.6,567.52 1088,567.52 1087.4,567.52 1087,567.17 1087,566.71 V 565.02 C 1087,564.56 1087.4,564.21 1088,564.21 Z"/>
  <path style="fill:url(#linearGradient19282)" d="M 1094,563.36 C 1095.1,563.36 1096,564.1 1096,565.02 V 566.71 C 1096,567.63 1095.1,568.36 1094,568.36 1093.6,568.36 1093.3,568.28 1093,568.14 V 568.36 H 1092 V 566.71 565.02 560.36 H 1093 V 563.58 C 1093.3,563.44 1093.6,563.36 1094,563.36 Z M 1094,564.21 C 1093.4,564.21 1093,564.56 1093,565.02 V 566.71 C 1093,567.17 1093.4,567.52 1094,567.52 1094.6,567.52 1095,567.17 1095,566.71 V 565.02 C 1095,564.56 1094.6,564.21 1094,564.21 Z"/>
  <path style="fill:url(#linearGradient19282)" d="M 1088.3,571.38 1088,571.73 1084.5,574.49 1084.1,574.8 1084.5,575.12 1088,577.88 1088.3,578.22 1089.2,577.56 1088.7,577.25 1085.7,574.8 1088.7,572.36 1089.2,572.04 Z M 1091.8,571.38 1091,572.04 1091.4,572.36 1094.4,574.8 1091.4,577.25 1091,577.56 1091.8,578.22 1092.2,577.88 1095.6,575.12 1096,574.8 1095.6,574.49 1092.2,571.73 Z"/>
 </g>
</svg>
