<?xml version="1.0" encoding="UTF-8" standalone="no"?>
<svg
   xmlns:dc="http://purl.org/dc/elements/1.1/"
   xmlns:cc="http://creativecommons.org/ns#"
   xmlns:rdf="http://www.w3.org/1999/02/22-rdf-syntax-ns#"
   xmlns:svg="http://www.w3.org/2000/svg"
   xmlns="http://www.w3.org/2000/svg"
   xmlns:sodipodi="http://sodipodi.sourceforge.net/DTD/sodipodi-0.dtd"
   xmlns:inkscape="http://www.inkscape.org/namespaces/inkscape"
   width="24"
   height="24"
   version="1.1"
   viewBox="0 0 24 24"
   id="svg2"
   inkscape:version="0.91 r13725"
   sodipodi:docname="xml-attribute-delete.svg">
  <metadata
     id="metadata34">
    <rdf:RDF>
      <cc:Work
         rdf:about="">
        <dc:format>image/svg+xml</dc:format>
        <dc:type
           rdf:resource="http://purl.org/dc/dcmitype/StillImage" />
        <dc:title></dc:title>
      </cc:Work>
    </rdf:RDF>
  </metadata>
  <defs
     id="defs32" />
  <sodipodi:namedview
     pagecolor="#ffffff"
     bordercolor="#666666"
     borderopacity="1"
     objecttolerance="10"
     gridtolerance="10"
     guidetolerance="10"
     inkscape:pageopacity="0"
     inkscape:pageshadow="2"
     inkscape:window-width="1920"
     inkscape:window-height="1016"
     id="namedview30"
     showgrid="false"
     inkscape:zoom="9.8333333"
     inkscape:cx="12"
     inkscape:cy="12"
     inkscape:window-x="0"
     inkscape:window-y="34"
     inkscape:window-maximized="1"
     inkscape:current-layer="svg2" />
  <path
     style="opacity:1;fill:#666666;fill-opacity:1;stroke:none;stroke-width:1;stroke-linecap:round;stroke-linejoin:round;stroke-miterlimit:4;stroke-dasharray:none;stroke-dashoffset:0;stroke-opacity:1"
     d="M 3 0 C 1.338 0 0 1.338 0 3 L 0 21 C 0 22.662 1.338 24 3 24 L 21 24 C 22.662 24 24 22.662 24 21 L 24 3 C 24 1.338 22.662 0 21 0 L 3 0 z M 3 2 L 6 2 L 6 5 L 5 5 L 5 8 L 11 8 L 11 6 L 21 6 L 21 10 L 11 10 L 11 9 L 5 9 L 5 13 L 11 13 L 11 11 L 21 11 L 21 15 L 11 15 L 11 14 L 4 14 L 4 13 L 4 5 L 3 5 L 3 2 z M 4 3 L 4 4 L 5 4 L 5 3 L 4 3 z M 12 7 L 12 9 L 20 9 L 20 7 L 12 7 z M 12 12 L 12 14 L 20 14 L 20 12 L 12 12 z M 17 17 L 19 17 L 20 18.25 L 21 17 L 23 17 L 21 19.5 L 23 22 L 21 22 L 20 20.75 L 19 22 L 17 22 L 19 19.5 L 17 17 z "
     id="rect3974" />
  <g
     transform="translate(-1196,-557.36)"
     id="g4">
    <rect
       style="fill:none"
       width="24"
       height="24"
       x="1196"
       y="557.36"
       id="rect6" />
  </g>
</svg>
