<?xml version="1.0" encoding="UTF-8" standalone="no"?>
<svg
   xmlns:dc="http://purl.org/dc/elements/1.1/"
   xmlns:cc="http://creativecommons.org/ns#"
   xmlns:rdf="http://www.w3.org/1999/02/22-rdf-syntax-ns#"
   xmlns:svg="http://www.w3.org/2000/svg"
   xmlns="http://www.w3.org/2000/svg"
   xmlns:sodipodi="http://sodipodi.sourceforge.net/DTD/sodipodi-0.dtd"
   xmlns:inkscape="http://www.inkscape.org/namespaces/inkscape"
   width="24"
   height="24"
   version="1.1"
   viewBox="0 0 24 24"
   id="svg2"
   inkscape:version="0.91 r13725"
   sodipodi:docname="xml-text-new.svg">
  <metadata
     id="metadata30">
    <rdf:RDF>
      <cc:Work
         rdf:about="">
        <dc:format>image/svg+xml</dc:format>
        <dc:type
           rdf:resource="http://purl.org/dc/dcmitype/StillImage" />
      </cc:Work>
    </rdf:RDF>
  </metadata>
  <defs
     id="defs28" />
  <sodipodi:namedview
     pagecolor="#ffffff"
     bordercolor="#666666"
     borderopacity="1"
     objecttolerance="10"
     gridtolerance="10"
     guidetolerance="10"
     inkscape:pageopacity="0"
     inkscape:pageshadow="2"
     inkscape:window-width="1920"
     inkscape:window-height="1016"
     id="namedview26"
     showgrid="false"
     inkscape:zoom="19.68"
     inkscape:cx="12"
     inkscape:cy="12"
     inkscape:window-x="0"
     inkscape:window-y="34"
     inkscape:window-maximized="1"
     inkscape:current-layer="svg2" />
  <path
     style="opacity:1;fill:#666666;fill-opacity:1;stroke:none;stroke-width:1;stroke-linecap:round;stroke-linejoin:round;stroke-miterlimit:4;stroke-dasharray:none;stroke-dashoffset:0;stroke-opacity:1"
     d="M 3 0 C 1.338 0 0 1.338 0 3 L 0 21 C 0 22.662 1.338 24 3 24 L 21 24 C 22.662 24 24 22.662 24 21 L 24 3 C 24 1.338 22.662 0 21 0 L 3 0 z M 10 3 L 11 3 L 11 6.2207031 C 11.3 6.0807031 11.6 6 12 6 C 13.1 6 14 6.7401563 14 7.6601562 L 14 9.3496094 C 14 10.269609 13.1 11 12 11 C 11.6 11 11.3 10.919297 11 10.779297 L 11 11 L 10 11 L 10 9.3496094 L 10 7.6601562 L 10 3 z M 6 6 C 6.4 6 6.7 6.0807031 7 6.2207031 L 7 6 L 8 6 L 8 7.6601562 L 8 9.3496094 L 8 11 L 7 11 L 7 10.779297 C 6.7 10.919297 6.4 11 6 11 C 4.9 11 4 10.269609 4 9.3496094 L 4 7.6601562 C 4 6.7401563 4.9 6 6 6 z M 18 6 C 19.1 6 20 6.7499219 20 7.6699219 L 19 7.6699219 C 19 7.2099219 18.6 6.8398438 18 6.8398438 C 17.4 6.8398437 17 7.2099219 17 7.6699219 L 17 9.3398438 C 17 9.7998436 17.4 10.169922 18 10.169922 C 18.6 10.169922 19 9.7998437 19 9.3398438 L 20 9.3398438 C 20 10.259844 19.1 11 18 11 C 16.9 11 16 10.259844 16 9.3398438 L 16 7.6699219 C 16 6.7499219 16.9 6 18 6 z M 6 6.8496094 C 5.4 6.8496094 5 7.2001563 5 7.6601562 L 5 9.3496094 C 5 9.8096094 5.4 10.160156 6 10.160156 C 6.6 10.160156 7 9.8096094 7 9.3496094 L 7 7.6601562 C 7 7.2001562 6.6 6.8496094 6 6.8496094 z M 12 6.8496094 C 11.4 6.8496094 11 7.2001563 11 7.6601562 L 11 9.3496094 C 11 9.8096094 11.4 10.160156 12 10.160156 C 12.6 10.160156 13 9.8096094 13 9.3496094 L 13 7.6601562 C 13 7.2001564 12.6 6.8496094 12 6.8496094 z M 6.3007812 14.019531 L 7.1992188 14.679688 L 6.6992188 15 L 3.6992188 17.439453 L 6.6992188 19.890625 L 7.1992188 20.199219 L 6.3007812 20.859375 L 6 20.519531 L 2.5 17.759766 L 2.0996094 17.439453 L 2.5 17.130859 L 6 14.369141 L 6.3007812 14.019531 z M 9.8007812 14.019531 L 10.199219 14.369141 L 13.599609 17.130859 L 14 17.439453 L 13.599609 17.759766 L 10.199219 20.519531 L 9.8007812 20.859375 L 9 20.199219 L 9.4003906 19.890625 L 12.400391 17.439453 L 9.4003906 15 L 9 14.679688 L 9.8007812 14.019531 z M 18 16 L 20 16 L 20 18 L 22 18 L 22 20 L 20 20 L 20 22 L 18 22 L 18 20 L 16 20 L 16 18 L 18 18 L 18 16 z "
     id="rect3976" />
  <rect
     id="rect6"
     y="-1.4648437e-05"
     x="0"
     height="24"
     width="24"
     style="fill:none" />
</svg>
