<?xml version="1.0" encoding="UTF-8" standalone="no"?>
<!-- Created with Inkscape (http://www.inkscape.org/) -->

<svg
  xmlns:osb="http://www.openswatchbook.org/uri/2009/osb"
  xmlns:dc="http://purl.org/dc/elements/1.1/"
  xmlns:cc="http://creativecommons.org/ns#"
  xmlns:rdf="http://www.w3.org/1999/02/22-rdf-syntax-ns#"
  xmlns:svg="http://www.w3.org/2000/svg"
  xmlns="http://www.w3.org/2000/svg"
  xmlns:sodipodi="http://sodipodi.sourceforge.net/DTD/sodipodi-0.dtd"
  xmlns:inkscape="http://www.inkscape.org/namespaces/inkscape"
  width="16"
  height="16"
  id="svg15638"
  version="1.1"
  inkscape:version="0.92.2 (unknown)"
  sodipodi:docname="zoom-fit-selection.svg"
  viewBox="0 0 16 16">
 <title
   id="title9623">Inkscape Icon Theme</title>
 <defs
   id="defs15640">
  <!--<inkscape:path-effect effect="spiro" id="path-effect36695" is_visible="true" />-->
  <linearGradient
    id="linearGradient19282"
    osb:paint="solid"
    gradientTransform="matrix(0,0,0,0,-1.1046e8,-6316300)">
   <stop
     style="stop-color:#666666;stop-opacity:1"
     offset="0"
     id="stop19284" />
  </linearGradient>
 </defs>
 <sodipodi:namedview
   id="base"
   pagecolor="#f2f2f2"
   bordercolor="#666666"
   borderopacity="1.0"
   inkscape:pageopacity="0"
   inkscape:pageshadow="2"
   inkscape:zoom="0.76028"
   inkscape:cx="285.9"
   inkscape:cy="-199.02"
   inkscape:document-units="px"
   inkscape:current-layer="layer1"
   showgrid="false"
   inkscape:window-width="1280"
   inkscape:window-height="960"
   inkscape:window-x="0"
   inkscape:window-y="27"
   inkscape:window-maximized="1"
   inkscape:snap-bbox="true"
   inkscape:bbox-paths="false"
   inkscape:bbox-nodes="true"
   inkscape:snap-global="false"
   showguides="false"
   inkscape:guide-bbox="true"
   inkscape:snap-nodes="false"
   inkscape:snap-object-midpoints="false"
   inkscape:snap-grids="true"
   inkscape:snap-to-guides="true"
   borderlayer="true"
   inkscape:showpageshadow="false"
   showborder="true"
   inkscape:snap-bbox-edge-midpoints="false"
   inkscape:object-nodes="true"
   inkscape:snap-intersection-paths="false"
   inkscape:snap-center="true">
  <inkscape:grid
    type="xygrid"
    id="grid15646"
    empspacing="5"
    visible="true"
    enabled="true"
    snapvisiblegridlinesonly="true"
    originx="-75"
    originy="-569" />
 </sodipodi:namedview>
 <metadata
   id="metadata15643">
  <rdf:RDF>
   <cc:Work
     rdf:about="">
    <dc:format>image/svg+xml</dc:format>
    <dc:type
      rdf:resource="http://purl.org/dc/dcmitype/StillImage" />
    <dc:title>Inkscape Icon Theme</dc:title>
    <dc:creator>
     <cc:Agent>
      <dc:title>Barbara Muraus</dc:title>
     </cc:Agent>
    </dc:creator>
    <dc:contributor>
     <cc:Agent>
      <dc:title>Jakub Steiner, Josh Andler</dc:title>
     </cc:Agent>
    </dc:contributor>
   </cc:Work>
  </rdf:RDF>
 </metadata>
 <g
   inkscape:label="Layer 1"
   inkscape:groupmode="layer"
   id="layer1"
   transform="translate(-75,-587.36)">
  <rect
    y="587.36"
    x="75"
    height="16"
    width="16"
    id="rect11438"
    style="fill:none" />
  <path
    inkscape:connector-curvature="0"
    id="path11442"
    d="M 82.5,587.36 C 78.358,587.36 75,590.7 75,594.8 75,598.9 78.358,602.21 82.5,602.21 83.973,602.21 85.341,601.78 86.5,601.05 L 88.469,602.99 C 88.987,603.5 89.802,603.48 90.313,602.96 L 90.563,602.71 C 91.073,602.19 91.08,601.34 90.563,600.83 L 88.656,598.99 C 89.496,597.79 90,596.37 90,594.8 90,590.7 86.642,587.36 82.5,587.36 Z M 78,590.36 H 79 V 591.36 H 78 Z M 80,590.36 H 81 V 591.36 H 80 Z M 82,590.36 H 83 V 591.36 H 82 Z M 84,590.36 H 85 V 591.36 H 84 Z M 86,590.36 H 87 V 591.36 H 86 Z M 78,592.36 H 79 V 593.36 H 78 Z M 86,592.36 H 87 V 593.36 H 86 Z M 78,594.36 H 79 V 595.36 H 78 Z M 86,594.36 H 87 V 595.36 H 86 Z M 78,596.36 H 79 V 597.36 H 78 Z M 86,596.36 H 87 V 597.36 H 86 Z M 78,598.36 H 79 V 599.36 H 78 Z M 80,598.36 H 81 V 599.36 H 80 Z M 82,598.36 H 83 V 599.36 H 82 Z M 84,598.36 H 85 V 599.36 H 84 Z M 86,598.36 H 87 V 599.36 H 86 Z"
    style="fill:url(#linearGradient19282)" />
 </g>
</svg>
