<svg xmlns="http://www.w3.org/2000/svg" width="16" height="16" version="1.1" viewBox="0 0 16 16">
 <g transform="translate(-75,-587.36)">
  <rect style="fill:none" width="16" height="16" x="75" y="587.36"/>
  <path style="fill:#666666" d="M 82.5,587.36 C 78.358,587.36 75,590.7 75,594.8 75,598.9 78.358,602.21 82.5,602.21 83.973,602.21 85.341,601.78 86.5,601.05 L 88.469,602.99 C 88.987,603.5 89.802,603.48 90.313,602.96 L 90.563,602.71 C 91.073,602.19 91.08,601.34 90.563,600.83 L 88.656,598.99 C 89.496,597.79 90,596.37 90,594.8 90,590.7 86.642,587.36 82.5,587.36 Z M 78,590.36 H 79 V 591.36 H 78 Z M 80,590.36 H 81 V 591.36 H 80 Z M 82,590.36 H 83 V 591.36 H 82 Z M 84,590.36 H 85 V 591.36 H 84 Z M 86,590.36 H 87 V 591.36 H 86 Z M 78,592.36 H 79 V 593.36 H 78 Z M 86,592.36 H 87 V 593.36 H 86 Z M 78,594.36 H 79 V 595.36 H 78 Z M 86,594.36 H 87 V 595.36 H 86 Z M 78,596.36 H 79 V 597.36 H 78 Z M 86,596.36 H 87 V 597.36 H 86 Z M 78,598.36 H 79 V 599.36 H 78 Z M 80,598.36 H 81 V 599.36 H 80 Z M 82,598.36 H 83 V 599.36 H 82 Z M 84,598.36 H 85 V 599.36 H 84 Z M 86,598.36 H 87 V 599.36 H 86 Z"/>
 </g>
</svg>
