<svg xmlns="http://www.w3.org/2000/svg" xmlns:osb="http://www.openswatchbook.org/uri/2009/osb" width="16" height="16" version="1.1" viewBox="0 0 16 16">
 <defs>
  <linearGradient id="linearGradient19282" gradientTransform="matrix(0,0,0,0,-1.1046e8,-6316300)" osb:paint="solid">
   <stop style="stop-color:#666666" offset="0"/>
  </linearGradient>
 </defs>
 <g transform="translate(-75,-527.36)">
  <rect style="fill:none" width="16" height="16" x="75" y="527.36"/>
  <path style="fill:url(#linearGradient19282)" d="M 82.5,527.36 C 78.358,527.36 75,530.7 75,534.8 75,538.9 78.358,542.21 82.5,542.21 83.973,542.21 85.341,541.78 86.5,541.05 L 88.469,542.99 C 88.987,543.5 89.802,543.48 90.313,542.96 L 90.563,542.71 C 91.073,542.19 91.08,541.34 90.563,540.83 L 88.656,538.99 C 89.496,537.79 90,536.37 90,534.8 90,530.7 86.642,527.36 82.5,527.36 Z M 78,531.36 H 79.5 80 V 531.86 538.36 H 79 V 532.36 H 78 Z M 84,531.36 H 85.5 86 V 531.86 538.36 H 85 V 532.36 H 84 Z M 82,534.36 H 83 V 535.36 H 82 Z M 82,537.36 H 83 V 538.36 H 82 Z"/>
 </g>
</svg>
