<svg xmlns="http://www.w3.org/2000/svg" width="16" height="16" version="1.1" viewBox="0 0 16 16">
 <g transform="translate(-378,-589.36)">
  <rect style="fill:none" width="16" height="16" x="378" y="589.36"/>
  <path style="fill:#666666" d="M 385.5,589.36 C 381.36,589.36 378,592.7 378,596.8 378,600.9 381.36,604.21 385.5,604.21 386.97,604.21 388.34,603.78 389.5,603.05 L 391.47,604.99 C 391.99,605.5 392.8,605.48 393.31,604.96 L 393.56,604.71 C 394.07,604.19 394.08,603.34 393.56,602.83 L 391.66,600.99 C 392.5,599.79 393,598.37 393,596.8 393,592.7 389.64,589.36 385.5,589.36 Z M 385.5,591.36 C 388.54,591.36 391,593.82 391,596.86 391,599.9 388.54,602.36 385.5,602.36 382.46,602.36 380,599.9 380,596.86 380,593.82 382.46,591.36 385.5,591.36 Z"/>
  <rect style="fill:#666666" width="9" height="3" x="381" y="595.36"/>
 </g>
</svg>
