<svg xmlns="http://www.w3.org/2000/svg" xmlns:osb="http://www.openswatchbook.org/uri/2009/osb" width="16" height="16" version="1.1" viewBox="0 0 16 16">
 <defs>
  <linearGradient id="linearGradient19282" gradientTransform="matrix(0,0,0,0,-1.1046e8,-6316300)" osb:paint="solid">
   <stop style="stop-color:#666666" offset="0"/>
  </linearGradient>
 </defs>
 <g transform="translate(-75,-687.36)">
  <rect style="fill:none" width="16" height="16" x="75" y="687.36"/>
  <path style="fill:url(#linearGradient19282)" d="M 82.5,687.36 C 78.358,687.36 75,690.7 75,694.8 75,698.9 78.358,702.21 82.5,702.21 83.973,702.21 85.341,701.78 86.5,701.05 L 88.469,702.99 C 88.987,703.5 89.802,703.48 90.313,702.96 L 90.563,702.71 C 91.073,702.19 91.08,701.34 90.563,700.83 L 88.656,698.99 C 89.496,697.79 90,696.37 90,694.8 90,690.7 86.642,687.36 82.5,687.36 Z M 85,691.36 V 699.36 L 79,695.36 V 698.36 H 78 V 692.36 H 79 V 695.36 Z"/>
 </g>
</svg>
