<svg xmlns="http://www.w3.org/2000/svg" xmlns:osb="http://www.openswatchbook.org/uri/2009/osb" width="16" height="16" version="1.1" viewBox="0 0 16 16">
 <defs>
  <linearGradient id="linearGradient19282" gradientTransform="matrix(0,0,0,0,-1.1046e8,-6316200)" osb:paint="solid">
   <stop style="stop-color:#666666" offset="0"/>
  </linearGradient>
 </defs>
 <g transform="translate(-75,-627.36)">
  <rect style="fill:none" width="16" height="16" x="75" y="627.36"/>
  <path style="fill:url(#linearGradient19282)" d="M 82.5,627.36 C 78.358,627.36 75,630.7 75,634.8 75,638.9 78.358,642.21 82.5,642.21 83.97,642.21 85.34,641.78 86.5,641.05 L 88.47,642.99 C 88.99,643.5 89.8,643.48 90.31,642.96 L 90.56,642.71 C 91.07,642.19 91.08,641.34 90.56,640.83 L 88.66,638.99 C 89.5,637.79 90,636.37 90,634.8 90,630.7 86.64,627.36 82.5,627.36 Z M 79,629.36 H 86 V 640.36 H 79 Z M 80,630.36 V 639.36 H 85 V 637.36 632.36 630.36 H 84 Z"/>
 </g>
</svg>
