<svg xmlns="http://www.w3.org/2000/svg" width="16" height="16" version="1.1" viewBox="0 0 16 16">
 <g transform="translate(-75,-567.36)">
  <rect style="fill:none" width="16" height="16" x="75" y="567.36"/>
  <path style="fill:#666666" d="M 82.5,567.36 C 78.358,567.36 75,570.7 75,574.8 75,578.9 78.358,582.21 82.5,582.21 83.97,582.21 85.34,581.78 86.5,581.05 L 88.47,582.99 C 88.99,583.5 89.8,583.48 90.31,582.96 L 90.56,582.71 C 91.07,582.19 91.08,581.34 90.56,580.83 L 88.66,578.99 C 89.5,577.79 90,576.37 90,574.8 90,570.7 86.64,567.36 82.5,567.36 Z M 85,571.36 H 86.5 87 V 571.86 578.36 H 86 V 572.36 H 85 Z M 78,571.36 H 81 V 575.36 H 79 V 577.36 H 81 V 578.36 H 79.5 78 V 574.36 H 80 V 572.36 H 78 Z M 83,574.36 H 84 V 575.36 H 83 Z M 83,577.36 H 84 V 578.36 H 83 Z"/>
 </g>
</svg>
