<svg xmlns="http://www.w3.org/2000/svg" xmlns:osb="http://www.openswatchbook.org/uri/2009/osb" width="24" height="24" version="1.1" viewBox="0 0 24 24">
 <defs>
  <linearGradient id="linearGradient19282" gradientTransform="matrix(0,0,0,0,-1.1046e8,-6316300)" osb:paint="solid">
   <stop style="stop-color:#666666" offset="0"/>
  </linearGradient>
 </defs>
 <g transform="translate(-285,-589.36)">
  <rect style="fill:none" width="24" height="24" x="285" y="589.36"/>
  <path style="fill:url(#linearGradient19282)" d="M 296.46,591.36 C 291.19,591.36 286.92,595.53 286.92,600.66 286.92,605.79 291.19,609.92 296.46,609.92 298.33,609.92 300.07,609.38 301.55,608.48 L 305,612.36 C 305.66,613 306.7,612.97 307.35,612.32 L 307.66,612.01 C 308.31,611.36 308.32,610.31 307.66,609.67 L 304.29,605.9 C 305.36,604.4 306,602.62 306,600.66 306,595.53 301.73,591.36 296.46,591.36 Z M 296.46,593.86 C 300.32,593.86 303.46,596.94 303.46,600.74 303.46,604.54 300.32,607.62 296.46,607.62 292.6,607.62 289.47,604.54 289.47,600.74 289.47,596.94 292.6,593.86 296.46,593.86 Z"/>
 </g>
</svg>
