<svg xmlns="http://www.w3.org/2000/svg" xmlns:osb="http://www.openswatchbook.org/uri/2009/osb" width="16" height="16" version="1.1" viewBox="0 0 16 16">
 <defs>
  <linearGradient id="linearGradient19282" gradientTransform="matrix(0,0,0,0,-1.1046e8,-6316300)" osb:paint="solid">
   <stop style="stop-color:#666666" offset="0"/>
  </linearGradient>
 </defs>
 <g transform="translate(-75,-547.36)">
  <rect style="fill:none" width="16" height="16" x="75" y="547.36"/>
  <path style="fill:url(#linearGradient19282)" d="M 82.5,547.36 C 78.358,547.36 75,550.7 75,554.8 75,558.9 78.358,562.21 82.5,562.21 83.973,562.21 85.341,561.78 86.5,561.05 L 88.469,562.99 C 88.987,563.5 89.802,563.48 90.313,562.96 L 90.563,562.71 C 91.073,562.19 91.08,561.34 90.563,560.83 L 88.656,558.99 C 89.496,557.79 90,556.37 90,554.8 90,550.7 86.642,547.36 82.5,547.36 Z M 78,551.36 H 79.5 80 V 551.86 558.36 H 79 V 552.36 H 78 Z M 84,551.36 H 87 V 555.36 H 85 V 557.36 H 87 V 558.36 H 85.5 84 V 554.36 H 86 V 552.36 H 84 Z M 81,554.36 H 82 V 555.36 H 81 Z M 81,557.36 H 82 V 558.36 H 81 Z"/>
 </g>
</svg>
