<svg xmlns="http://www.w3.org/2000/svg" width="16" height="16" version="1.1" viewBox="0 0 16 16">
 <g transform="translate(-75,-647.36)">
  <rect style="fill:none" width="16" height="16" x="75" y="647.36"/>
  <path style="fill:#666666" d="M 82.5,647.36 C 78.358,647.36 75,650.7 75,654.8 75,658.9 78.358,662.21 82.5,662.21 83.97,662.21 85.34,661.78 86.5,661.05 L 88.47,662.99 C 88.99,663.5 89.8,663.48 90.31,662.96 L 90.56,662.71 C 91.07,662.19 91.08,661.34 90.56,660.83 L 88.66,658.99 C 89.5,657.79 90,656.37 90,654.8 90,650.7 86.64,647.36 82.5,647.36 Z M 80,651.36 V 653.36 H 85 V 651.36 L 88,654.36 85,657.36 V 655.36 H 80 V 657.36 L 77,654.36 Z"/>
 </g>
</svg>
