<svg xmlns="http://www.w3.org/2000/svg" xmlns:osb="http://www.openswatchbook.org/uri/2009/osb" width="16" height="16" version="1.1" viewBox="0 0 16 16">
 <defs>
  <linearGradient id="linearGradient19282" gradientTransform="matrix(0,0,0,0,-1.1046e8,-6316300)" osb:paint="solid">
   <stop style="stop-color:#666666" offset="0"/>
  </linearGradient>
 </defs>
 <g transform="translate(-349,-589.36)">
  <rect style="fill:none" width="16" height="16" x="349" y="589.36"/>
  <path style="fill:url(#linearGradient19282)" d="M 356.5,589.36 C 352.36,589.36 349,592.7 349,596.8 349,600.9 352.36,604.21 356.5,604.21 357.97,604.21 359.34,603.78 360.5,603.05 L 362.47,604.99 C 362.99,605.5 363.8,605.48 364.31,604.96 L 364.56,604.71 C 365.07,604.19 365.08,603.34 364.56,602.83 L 362.66,600.99 C 363.5,599.79 364,598.37 364,596.8 364,592.7 360.64,589.36 356.5,589.36 Z M 356.5,591.36 C 359.54,591.36 362,593.82 362,596.86 362,599.9 359.54,602.36 356.5,602.36 353.46,602.36 351,599.9 351,596.86 351,593.82 353.46,591.36 356.5,591.36 Z"/>
  <rect style="fill:url(#linearGradient19282)" width="3" height="9" x="355" y="592.36"/>
  <rect style="fill:url(#linearGradient19282)" width="9" height="3" x="352" y="595.36"/>
 </g>
</svg>
