<svg xmlns="http://www.w3.org/2000/svg" width="15.721" height="15.721" version="1.1" viewBox="0 0 15.72 15.72">
 <g transform="translate(-350.78,-712.77)">
  <rect style="fill:none" width="15.721" height="15.721" x="350.78" y="712.77"/>
  <path style="fill:#666666" d="M 355.99,713.46 C 355.25,713.44 354.59,713.69 354.15,714.2 353.7,714.71 353.5,715.38 353.42,716.07 353.25,717.46 353.51,719.06 353.77,720.65 354.03,722.23 354.32,723.79 354.32,724.81 354.32,725.31 354.24,725.66 354.17,725.77 354.11,725.89 354.13,725.91 353.86,725.9 353.23,725.88 353.02,725.65 352.8,725.12 352.57,724.59 352.48,723.73 352.5,722.84 352.54,721.06 352.61,720.7 352.61,720.7 L 351.23,720.69 C 351.23,720.69 351.2,721.13 351.15,723.19 351.13,724.22 351.11,724.9 351.5,725.83 351.89,726.76 352.73,727.51 353.82,727.54 354.45,727.56 355.08,727.21 355.39,726.65 355.7,726.09 355.76,725.46 355.76,724.8 355.76,723.47 355.44,721.9 355.18,720.34 354.93,718.78 354.73,717.25 354.84,716.3 354.9,715.82 355.02,715.52 355.16,715.36 355.3,715.2 355.49,715.09 355.95,715.1 356.41,715.11 356.65,715.23 356.78,715.34 356.91,715.45 356.98,715.59 357.04,715.87 357.15,716.43 357.03,717.46 356.83,718.53 356.63,719.61 356.36,720.72 356.39,721.75 356.4,722.27 356.49,722.8 356.8,723.26 357.12,723.71 357.64,723.97 358.2,724 358.66,724.03 359.08,723.95 359.43,723.73 359.79,723.51 360.05,723.14 360.19,722.77 360.47,722.03 360.42,721.29 360.4,720.61 360.37,719.94 360.36,719.31 360.42,719.04 360.45,718.9 360.48,718.89 360.48,718.88 360.48,718.88 360.5,718.85 360.68,718.86 360.9,718.86 360.92,718.9 360.95,718.93 360.98,718.96 361.04,719.05 361.14,719.25 361.25,719.45 361.39,719.76 361.68,720.03 361.97,720.29 362.38,720.47 362.85,720.49 364.46,720.21 365.14,719.48 366.26,720.4 V 718.74 C 364.77,718.01 363.97,718.58 362.92,718.85 362.68,718.84 362.63,718.79 362.58,718.75 362.54,718.71 362.48,718.62 362.39,718.43 362.29,718.23 362.15,717.93 361.87,717.67 361.58,717.4 361.17,717.23 360.71,717.22 360.3,717.2 359.89,717.32 359.58,717.6 359.28,717.89 359.11,718.27 359.03,718.63 358.87,719.34 358.94,720.04 358.96,720.68 358.99,721.33 358.95,721.89 358.87,722.11 358.83,722.22 358.81,722.25 358.74,722.29 358.68,722.33 358.55,722.38 358.27,722.36 358,722.35 357.97,722.29 357.93,722.24 357.89,722.19 357.83,722.02 357.82,721.71 357.81,721.07 358.02,719.99 358.23,718.87 358.44,717.76 358.66,716.61 358.44,715.51 358.33,714.97 358.08,714.42 357.65,714.04 357.22,713.66 356.65,713.48 355.99,713.46 Z"/>
 </g>
</svg>
