<svg xmlns="http://www.w3.org/2000/svg" xmlns:xlink="http://www.w3.org/1999/xlink" width="24" height="24" version="1.1" viewBox="0 0 24 24">
 <g transform="translate(-1044,-670.36)">
  <use width="1250" height="1250" x="0" y="0" transform="matrix(1,0,0,0.99802,1078,495.68)" xlink:href="#path5120"/>
  <rect style="fill:none" width="24" height="24" x="670.36" y="-1068" transform="rotate(90)"/>
  <path style="fill:#666666" d="M 1051.2,679.76 C 1051.9,679.09 1053.3,679.33 1053.9,680.11 1054.8,681.3 1055.1,682.81 1055.5,684.23 1055.7,685.43 1055.9,686.66 1056,687.89 1056.8,686.33 1057.7,684.66 1057.7,682.91 1057.7,682.02 1057.2,681.27 1056.8,680.49 1056.5,679.83 1057.3,679.15 1058,679.36 1058.9,679.52 1059,680.46 1059,681.13 1058.9,683.14 1058.1,685.1 1057.3,686.93 1056.1,689.35 1054.4,691.59 1052.2,693.28 1051.3,693.9 1049.1,694.63 1048,694.25 1046,693.26 1046,691.28 1048,691.28 1048.8,690.95 1050.6,692.52 1051.3,692.5 1052.5,692.49 1053.4,691.44 1053.7,690.45 1054.1,689.14 1053.7,687.79 1053.5,686.48 1053.2,684.78 1052.8,683.05 1051.9,681.51 1051.8,680.91 1050.3,680.56 1051.2,679.76 Z"/>
  <path style="fill:#666666" d="M 1055.4,674.8 C 1054.8,674.8 1054.4,674.88 1054.1,675.06 1053.8,675.23 1053.7,675.49 1053.7,675.83 1053.7,676.14 1053.8,676.38 1054,676.56 1054.2,676.74 1054.6,676.82 1055,676.82 1055.5,676.82 1055.9,676.66 1056.2,676.33 1056.6,675.99 1056.7,675.58 1056.7,675.08 V 674.8 H 1055.4 M 1059.4,673.87 V 678.26 H 1056.7 V 677.12 C 1056.4,677.59 1056,677.93 1055.5,678.15 1055.1,678.36 1054.5,678.46 1053.9,678.46 1053.1,678.46 1052.4,678.23 1051.8,677.77 1051.3,677.3 1051,676.69 1051,675.95 1051,675.05 1051.3,674.38 1052,673.96 1052.7,673.54 1053.7,673.33 1055.2,673.33 H 1056.7 V 673.14 C 1056.7,672.75 1056.6,672.46 1056.2,672.28 1055.9,672.1 1055.4,672.01 1054.7,672.01 1054.1,672.01 1053.6,672.06 1053.1,672.17 1052.6,672.27 1052.2,672.43 1051.7,672.64 V 670.76 C 1052.3,670.64 1052.9,670.54 1053.5,670.47 1054,670.41 1054.6,670.37 1055.2,670.37 1056.7,670.37 1057.7,670.65 1058.4,671.2 1059.1,671.74 1059.4,672.63 1059.4,673.87"/>
  <rect style="fill:#666666" width="1" height="24" x="1049" y="670.36"/>
 </g>
</svg>
