<svg xmlns="http://www.w3.org/2000/svg" width="24" height="24" version="1.1" viewBox="0 0 24 24">
 <g transform="translate(-1082,-632.36)">
  <rect style="fill:none" width="24" height="24" x="-656.36" y="-1106" transform="matrix(0,-1,-1,0,0,0)"/>
  <rect style="fill:#666666" width="1" height="24" x="-636.36" y="-1106" transform="matrix(0,-1,-1,0,0,0)"/>
  <rect style="fill:#666666" width="16" height="5" x="-653.36" y="-1095" transform="matrix(0,-1,-1,0,0,0)"/>
  <rect style="fill:#666666" width="10" height="3" x="-647.36" y="-1100" transform="matrix(0,-1,-1,0,0,0)"/>
  <rect style="fill:#666666" width="14" height="4" x="-651.36" y="-1106" transform="matrix(0,-1,-1,0,0,0)"/>
  <path style="fill:#666666" d="M 1085,637.36 1088,640.36 H 1082 Z"/>
  <rect style="fill:#666666" width="9" height="2" x="640.36" y="-1086" transform="rotate(90)"/>
 </g>
</svg>
