<svg xmlns="http://www.w3.org/2000/svg" width="24" height="24" version="1.1" viewBox="0 0 24 24">
 <g transform="translate(-285,-960.36)">
  <rect style="fill:none" width="24" height="24" x="285" y="960.36"/>
  <path style="fill:#666666" d="M 297,966.36 293.28,967.83 C 293.3,967.81 293.25,967.79 292.87,967.86 286.87,969.03 286.5,970.35 286.5,972.36 V 979.86 C 286.5,980.69 287.17,981.36 288,981.36 288.83,981.36 290,981.19 290,980.36 V 970.36 C 297,981.36 290,970.38 297.19,981.99 297.76,982.84 298.78,983.14 299.47,982.64 L 306.94,977.24 C 307.62,976.74 307.7,975.65 307.12,974.8 L 303,968.71 V 970.86 972.36 C 303,972.92 302.55,973.36 302,973.36 H 298 C 297.45,973.36 297,972.92 297,972.36 V 971.86 967.36 Z"/>
  <rect style="fill:#666666" width="4" height="12" x="298" y="960.36" rx="1" ry="1"/>
 </g>
</svg>
