<svg xmlns="http://www.w3.org/2000/svg" width="24" height="24" version="1.1" viewBox="0 0 24 24">
 <g transform="translate(-1082,-785.36)">
  <rect style="fill:none" width="24" height="24" x="785.36" y="-1106" transform="rotate(90)"/>
  <path style="fill:#666666" d="M 1097.2,795.78 C 1097.9,795.15 1099.3,795.37 1099.9,796.1 1100.8,797.2 1101.1,798.61 1101.5,799.93 1101.7,801.05 1101.9,801.7 1102,802.84 1102.8,801.39 1103.7,800.33 1103.7,798.7 1103.7,797.88 1103.2,797.18 1102.8,796.45 1102.5,795.84 1103.3,795.2 1104,795.4 1104.9,795.55 1105,796.43 1105,797.05 1104.9,798.91 1104.1,800.74 1103.3,802.44 1102.1,804.69 1100.4,806.77 1098.2,808.35 1097.3,808.93 1095.1,809.61 1094,809.26 1092,808.33 1092,806.49 1094,806.49 1094.7,806.18 1096.6,807.64 1097.3,807.62 1098.5,807.61 1099.4,806.64 1099.7,805.72 1100,804.5 1099.7,803.24 1099.5,802.02 1099.2,800.44 1098.8,798.83 1097.9,797.4 1097.8,796.85 1096.3,796.52 1097.2,795.78 Z"/>
  <path style="fill:#666666" d="M 1101.3,789.8 C 1100.8,789.8 1100.4,789.89 1100.1,790.06 1099.8,790.24 1099.7,790.49 1099.7,790.83 1099.7,791.14 1099.8,791.39 1100,791.57 1100.2,791.74 1100.6,791.83 1101,791.83 1101.5,791.83 1101.9,791.66 1102.2,791.33 1102.6,791 1102.7,790.58 1102.7,790.08 V 789.8 H 1101.3 M 1105,788.36 V 793.36 H 1103 V 792.22 C 1102.6,792.69 1102.2,793.03 1101.8,793.25 1101.4,793.46 1100.8,793.56 1100.2,793.56 1099.3,793.56 1098.3,793.23 1097.8,792.77 1097.3,792.3 1097,791.7 1097,790.96 1097,790.05 1097.3,789.39 1098,788.97 1098.7,788.55 1099.7,788.33 1101.2,788.33 H 1102.7 V 788.14 C 1102.7,787.75 1102.6,787.47 1102.2,787.29 1101.9,787.11 1101.4,787.01 1100.7,787.01 1100.1,787.01 1099.6,787.07 1099.1,787.17 1098.6,787.28 1098.2,787.44 1097.7,787.65 V 785.77 C 1098.3,785.64 1098.9,785.54 1099.4,785.48 1100,785.41 1100.6,785.38 1101.2,785.38 1102.7,785.38 1103.2,785.46 1103.8,786.01 1104.5,786.55 1105,787.13 1105,788.36"/>
  <rect style="fill:#666666" width="1" height="24" x="805.36" y="-1106" transform="rotate(90)"/>
  <rect style="fill:#666666" width="1" height="24" x="793.36" y="-1106" transform="rotate(90)"/>
  <path style="fill:#666666;fill-rule:evenodd" d="M 1084,797.36 1087,794.36 1090,797.36 H 1088 V 802.36 H 1090 L 1087,805.36 1084,802.36 H 1086 V 797.36 Z"/>
 </g>
</svg>
