<svg xmlns="http://www.w3.org/2000/svg" width="24" height="24" version="1.1" viewBox="0 0 24 24">
 <g transform="translate(-285,-712.36)">
  <rect style="fill:none" width="24" height="24" x="285" y="712.36"/>
  <path style="fill:none;stroke:#666666;stroke-width:2;stroke-linecap:round;stroke-linejoin:round" d="M 296.19,725.35 C 297.16,725.12 297.61,726.46 297.44,727.25 297.09,728.91 295.24,729.48 293.88,728.94 291.77,728.09 291.08,725.33 291.97,723.25 293.18,720.4 296.55,719.51 299.08,720.86 302.33,722.59 303.31,727.02 301.66,730.33 299.63,734.4 294.68,735.6 290.99,733.43 286.6,730.85 285.32,724.72 287.75,720.17 290.57,714.89 297.13,713.36 301.97,716.37 307.5,719.8 309.08,727.64 305.87,733.41 305.86,733.43 305.85,733.45 305.84,733.47"/>
 </g>
</svg>
