<svg xmlns="http://www.w3.org/2000/svg" width="24" height="24" version="1.1" viewBox="0 0 24 24">
 <g transform="translate(-1262,-823.36)">
  <rect style="fill:none" width="24" height="24" x="1262" y="823.36"/>
  <path style="fill:#666666" d="M 1264.5,839.36 1262.5,841.36 H 1264 V 847.36 H 1265 V 841.36 H 1266.5 Z"/>
  <path style="fill:#666666" d="M 1267,839.36 V 845.36 H 1265.5 L 1267.5,847.36 1269.5,845.36 H 1268 V 839.36 Z"/>
  <rect style="fill:#666666" width="9" height="9" x="1266" y="823.36" ry="1"/>
  <rect style="fill:#666666" width="9" height="9" x="1276" y="833.36" ry="1"/>
  <path style="fill:#666666" d="M 1276,826.36 V 827.36 H 1279 A 1,1 0 0 1 1280,828.36 V 829.36 H 1278 L 1280.5,832.36 1283,829.36 H 1281 V 828.36 A 2,2 0 0 0 1279,826.36 Z"/>
  <path style="fill:#666666" d="M 1275,839.36 V 838.36 H 1272 A 1,1 0 0 1 1271,837.36 V 836.36 H 1273 L 1270.5,833.36 1268,836.36 H 1270 V 837.36 A 2,2 0 0 0 1272,839.36 Z"/>
 </g>
</svg>
