<?xml version="1.0" encoding="UTF-8" standalone="no"?>
<svg
   xmlns:dc="http://purl.org/dc/elements/1.1/"
   xmlns:cc="http://creativecommons.org/ns#"
   xmlns:rdf="http://www.w3.org/1999/02/22-rdf-syntax-ns#"
   xmlns:svg="http://www.w3.org/2000/svg"
   xmlns="http://www.w3.org/2000/svg"
   xmlns:sodipodi="http://sodipodi.sourceforge.net/DTD/sodipodi-0.dtd"
   xmlns:inkscape="http://www.inkscape.org/namespaces/inkscape"
   width="24"
   height="24"
   version="1.1"
   viewBox="0 0 24 24"
   id="svg2"
   inkscape:version="0.91 r13725"
   sodipodi:docname="xml-element-new.svg">
  <metadata
     id="metadata36">
    <rdf:RDF>
      <cc:Work
         rdf:about="">
        <dc:format>image/svg+xml</dc:format>
        <dc:type
           rdf:resource="http://purl.org/dc/dcmitype/StillImage" />
      </cc:Work>
    </rdf:RDF>
  </metadata>
  <defs
     id="defs34" />
  <sodipodi:namedview
     pagecolor="#ffffff"
     bordercolor="#666666"
     borderopacity="1"
     objecttolerance="10"
     gridtolerance="10"
     guidetolerance="10"
     inkscape:pageopacity="0"
     inkscape:pageshadow="2"
     inkscape:window-width="1920"
     inkscape:window-height="1016"
     id="namedview32"
     showgrid="false"
     inkscape:zoom="17.13"
     inkscape:cx="12"
     inkscape:cy="12"
     inkscape:window-x="0"
     inkscape:window-y="34"
     inkscape:window-maximized="1"
     inkscape:current-layer="svg2" />
  <path
     style="opacity:1;fill:#666666;fill-opacity:1;stroke:none;stroke-width:1;stroke-linecap:round;stroke-linejoin:round;stroke-miterlimit:4;stroke-dasharray:none;stroke-dashoffset:0;stroke-opacity:1"
     d="M 3 0 C 1.338 0 0 1.338 0 3 L 0 21 C 0 22.662 1.338 24 3 24 L 21 24 C 22.662 24 24 22.662 24 21 L 24 3 C 24 1.338 22.662 0 21 0 L 3 0 z M 18 2.0195312 L 19 2.0195312 L 19 9 C 19 10.4 20 9.96 20 10 L 21 9.9707031 L 21 11 C 19.4 10.94 17.9 11.5 18 9 L 18 8.0800781 L 18 2.0195312 z M 4.5996094 6 L 6.4980469 7.8984375 L 8.4003906 6 L 9 6.609375 L 7.1015625 8.5019531 L 9 10.400391 L 8.4003906 11 L 6.5 9.1035156 L 4.5996094 11 L 4 10.390625 L 5.8945312 8.5 L 4 6.609375 L 4.5996094 6 z M 10 6 L 11 6 L 11 6.4003906 C 11.477712 6.1642741 12.073308 5.9483638 12.599609 6.0097656 C 12.975709 6.0473756 13.262512 6.1882237 13.544922 6.4785156 C 14.041828 6.215087 14.721799 5.941673 15.5 6.0097656 C 15.8 6.0497656 16.2 6.1992969 16.5 6.5292969 C 17 6.9092969 17 7.6096875 17 8.1796875 L 17 11 L 16 11 L 16 7.9101562 C 16 7.5001564 15.900781 7.3209375 15.800781 7.2109375 C 15.700781 7.0909375 15.600391 7.0102344 15.400391 6.9902344 C 14.943442 6.9536785 14.418439 7.1405477 14.023438 7.3398438 C 14.033983 7.6207245 14 7.9222253 14 8.1796875 L 14 11 L 13 11 L 13 8.1796875 C 13 7.7696875 13.1 7.3209375 13 7.2109375 C 12.9 7.0909375 12.7 7.0102344 12.5 6.9902344 C 12.1 6.9502344 11.499219 7.170625 11.199219 7.390625 L 11 6.9453125 L 11 11 L 10 11.019531 L 10 6 z M 6.1992188 14.060547 L 7.0996094 14.720703 L 6.5996094 15.039062 L 3.5996094 17.480469 L 6.5996094 19.929688 L 7.0996094 20.240234 L 6.1992188 20.900391 L 5.8007812 20.560547 L 2.4003906 17.800781 L 2 17.480469 L 2.4003906 17.169922 L 5.8007812 14.410156 L 6.1992188 14.060547 z M 9.6992188 14.060547 L 10.099609 14.410156 L 13.5 17.169922 L 13.900391 17.480469 L 13.5 17.800781 L 10.099609 20.560547 L 9.6992188 20.900391 L 8.8007812 20.240234 L 9.3007812 19.929688 L 12.300781 17.480469 L 9.3007812 15.039062 L 8.8007812 14.720703 L 9.6992188 14.060547 z M 18 16 L 20 16 L 20 18 L 22 18 L 22 20 L 20 20 L 20 22 L 18 22 L 18 20 L 16 20 L 16 18 L 18 18 L 18 16 z "
     id="rect3972" />
  <g
     transform="translate(-1044,-557.36)"
     id="g4">
    <rect
       style="fill:none"
       width="24"
       height="24"
       x="1044"
       y="557.36"
       id="rect6" />
  </g>
</svg>
