<?xml version="1.0" encoding="UTF-8" standalone="no"?>
<svg
   xmlns:dc="http://purl.org/dc/elements/1.1/"
   xmlns:cc="http://creativecommons.org/ns#"
   xmlns:rdf="http://www.w3.org/1999/02/22-rdf-syntax-ns#"
   xmlns:svg="http://www.w3.org/2000/svg"
   xmlns="http://www.w3.org/2000/svg"
   xmlns:sodipodi="http://sodipodi.sourceforge.net/DTD/sodipodi-0.dtd"
   xmlns:inkscape="http://www.inkscape.org/namespaces/inkscape"
   width="24"
   height="24"
   version="1.1"
   viewBox="0 0 24 24"
   id="svg2"
   inkscape:version="0.91 r13725"
   sodipodi:docname="xml-node-duplicate.svg">
  <metadata
     id="metadata32">
    <rdf:RDF>
      <cc:Work
         rdf:about="">
        <dc:format>image/svg+xml</dc:format>
        <dc:type
           rdf:resource="http://purl.org/dc/dcmitype/StillImage" />
      </cc:Work>
    </rdf:RDF>
  </metadata>
  <defs
     id="defs30" />
  <sodipodi:namedview
     pagecolor="#ffffff"
     bordercolor="#666666"
     borderopacity="1"
     objecttolerance="10"
     gridtolerance="10"
     guidetolerance="10"
     inkscape:pageopacity="0"
     inkscape:pageshadow="2"
     inkscape:window-width="1920"
     inkscape:window-height="1016"
     id="namedview28"
     showgrid="false"
     inkscape:zoom="21.09"
     inkscape:cx="12"
     inkscape:cy="12"
     inkscape:window-x="0"
     inkscape:window-y="34"
     inkscape:window-maximized="1"
     inkscape:current-layer="svg2" />
  <path
     style="opacity:1;fill:#666666;fill-opacity:1;stroke:none;stroke-width:1;stroke-linecap:round;stroke-linejoin:round;stroke-miterlimit:4;stroke-dasharray:none;stroke-dashoffset:0;stroke-opacity:1"
     d="M 3.0292969 0 C 1.3512956 0 -2.9605947e-16 1.3479342 0 3.0214844 L 0 14.978516 C 0 16.652066 1.3512956 18 3.0292969 18 L 5 18 L 5 8.0214844 C 5 6.3479342 6.3512956 5 8.0292969 5 L 18 5 L 18 3.0214844 C 18 1.3479342 16.648704 -2.9605947e-16 14.970703 0 L 3.0292969 0 z M 9.0292969 6 C 7.3512956 6 6 7.3479342 6 9.0214844 L 6 20.978516 C 6 22.652066 7.3512956 24 9.0292969 24 L 20.970703 24 C 22.648704 24 24 22.652066 24 20.978516 L 24 9.0214844 C 24 7.3479342 22.648704 6 20.970703 6 L 9.0292969 6 z M 13.300781 8.0195312 L 14.199219 8.6796875 L 13.699219 9 L 10.699219 11.439453 L 13.699219 13.890625 L 14.199219 14.199219 L 13.300781 14.859375 L 13 14.519531 L 9.5 11.759766 L 9.0996094 11.439453 L 9.5 11.130859 L 13 8.3691406 L 13.300781 8.0195312 z M 16.800781 8.0195312 L 17.199219 8.3691406 L 20.599609 11.130859 L 21 11.439453 L 20.599609 11.759766 L 17.199219 14.519531 L 16.800781 14.859375 L 16 14.199219 L 16.400391 13.890625 L 19.400391 11.439453 L 16.400391 9 L 16 8.6796875 L 16.800781 8.0195312 z M 18 16 L 20 16 L 20 18 L 22 18 L 22 20 L 20 20 L 20 22 L 18 22 L 18 20 L 16 20 L 16 18 L 18 18 L 18 16 z "
     id="rect3968" />
  <rect
     id="rect6"
     y="-1.4648437e-05"
     x="0"
     height="24"
     width="24"
     style="fill:none" />
</svg>
