<svg xmlns="http://www.w3.org/2000/svg" width="20" height="20" version="1.1" viewBox="0 0 20 20">
 <path style="fill:#666666;fill-rule:evenodd" d="M 0,0 V 1.03 L 2.7,4.19 6.4,0 Z M 2.7,4.19 0,7.31 v 4.22 l 2.7,3.16 4.6,-5.28 z m 4.6,5.22 4.5,5.28 4.6,-5.28 -4.6,-5.22 z M 11.8,4.19 15.5,0 H 8.2 Z m 4.6,5.22 3.6,4.21 V 5.22 Z M 11.8,14.69 7.3,19.91 7.4,20 h 8.9 l 0.1,-0.09 z m 4.6,5.22 0.1,0.09 H 20 v -4.28 z m -9.1,0 L 2.7,14.69 0,17.81 V 20 H 7.2 Z M 17.3,0 20,3.12 V 0 Z"/>
 <path style="fill:none" d="M 0,0 V 20 H 20 V 0 Z"/>
</svg>
