<svg xmlns="http://www.w3.org/2000/svg" width="20" height="20" version="1.1" viewBox="0 0 20 20">
 <rect style="fill:none" width="20" height="20" x="0" y="0"/>
 <rect style="fill:#666666" width="5" height="20" x="0" y="0"/>
 <path style="fill:#666666" d="M 5,0 V 1 H 6 V 0 Z M 7,0 V 1 H 8 V 0 Z M 5,2 V 3 H 6 V 2 Z M 6,3 V 4 H 7 V 3 Z M 7,3 H 8 V 2 H 7 Z m 2,1 v 1 h 1 V 4 Z"/>
 <rect style="fill:#666666" width="1" height="1" x="6" y="1"/>
 <rect style="fill:#666666" width="1" height="1" x="5" y="4"/>
 <rect style="fill:#666666" width="1" height="1" x="7" y="4"/>
 <rect style="fill:#666666" width="1" height="1" x="6" y="5"/>
 <rect style="fill:#666666" width="1" height="1" x="5" y="6"/>
 <rect style="fill:#666666" width="1" height="1" x="7" y="6"/>
 <rect style="fill:#666666" width="1" height="1" x="6" y="7"/>
 <rect style="fill:#666666" width="1" height="1" x="5" y="8"/>
 <rect style="fill:#666666" width="1" height="1" x="7" y="8"/>
 <rect style="fill:#666666" width="1" height="1" x="6" y="9"/>
 <rect style="fill:#666666" width="1" height="1" x="5" y="10"/>
 <rect style="fill:#666666" width="1" height="1" x="7" y="10"/>
 <rect style="fill:#666666" width="1" height="1" x="6" y="11"/>
 <rect style="fill:#666666" width="1" height="1" x="5" y="12"/>
 <rect style="fill:#666666" width="1" height="1" x="7" y="12"/>
 <rect style="fill:#666666" width="1" height="1" x="6" y="13"/>
 <rect style="fill:#666666" width="1" height="1" x="5" y="14"/>
 <rect style="fill:#666666" width="1" height="1" x="7" y="14"/>
 <rect style="fill:#666666" width="1" height="1" x="6" y="15"/>
 <rect style="fill:#666666" width="1" height="1" x="5" y="16"/>
 <rect style="fill:#666666" width="1" height="1" x="7" y="16"/>
 <rect style="fill:#666666" width="1" height="1" x="6" y="17"/>
 <rect style="fill:#666666" width="1" height="1" x="5" y="18"/>
 <rect style="fill:#666666" width="1" height="1" x="7" y="18"/>
 <rect style="fill:#666666" width="1" height="1" x="8" y="17"/>
 <rect style="fill:#666666" width="1" height="1" x="8" y="15"/>
 <rect style="fill:#666666" width="1" height="1" x="8" y="13"/>
 <rect style="fill:#666666" width="1" height="1" x="8" y="11"/>
 <rect style="fill:#666666" width="1" height="1" x="8" y="9"/>
 <rect style="fill:#666666" width="1" height="1" x="8" y="7"/>
 <rect style="fill:#666666" width="1" height="1" x="8" y="5"/>
 <rect style="fill:#666666" width="1" height="1" x="8" y="3"/>
 <rect style="fill:#666666" width="1" height="1" x="8" y="1"/>
 <rect style="fill:#666666" width="1" height="1" x="9" y="0"/>
 <rect style="fill:#666666" width="1" height="1" x="9" y="2"/>
 <rect style="fill:#666666" width="1" height="1" x="9" y="6"/>
 <rect style="fill:#666666" width="1" height="1" x="9" y="8"/>
 <rect style="fill:#666666" width="1" height="1" x="9" y="10"/>
 <rect style="fill:#666666" width="1" height="1" x="9" y="12"/>
 <rect style="fill:#666666" width="1" height="1" x="9" y="14"/>
 <rect style="fill:#666666" width="1" height="1" x="9" y="16"/>
 <rect style="fill:#666666" width="1" height="1" x="9" y="18"/>
 <rect style="fill:#666666" width="1" height="1" x="8" y="19"/>
 <rect style="fill:#666666" width="1" height="1" x="6" y="19"/>
 <rect style="opacity:0.3;fill:#666666" width="5" height="20" x="10" y="0"/>
 <rect style="opacity:0.3;fill:#666666" width="1" height="1" x="16" y="0"/>
 <rect style="opacity:0.3;fill:#666666" width="1" height="1" x="18" y="0"/>
 <rect style="opacity:0.3;fill:#666666" width="1" height="1" x="17" y="1"/>
 <rect style="opacity:0.3;fill:#666666" width="1" height="1" x="19" y="1"/>
 <rect style="opacity:0.3;fill:#666666" width="1" height="1" x="18" y="2"/>
 <rect style="opacity:0.3;fill:#666666" width="1" height="1" x="16" y="2"/>
 <rect style="opacity:0.3;fill:#666666" width="1" height="1" x="17" y="3"/>
 <rect style="opacity:0.3;fill:#666666" width="1" height="1" x="19" y="3"/>
 <rect style="opacity:0.3;fill:#666666" width="1" height="1" x="18" y="4"/>
 <rect style="opacity:0.3;fill:#666666" width="1" height="1" x="16" y="4"/>
 <rect style="opacity:0.3;fill:#666666" width="1" height="1" x="17" y="5"/>
 <rect style="opacity:0.3;fill:#666666" width="1" height="1" x="19" y="5"/>
 <rect style="opacity:0.3;fill:#666666" width="1" height="1" x="18" y="6"/>
 <rect style="opacity:0.3;fill:#666666" width="1" height="1" x="16" y="6"/>
 <rect style="opacity:0.3;fill:#666666" width="1" height="1" x="17" y="7"/>
 <rect style="opacity:0.3;fill:#666666" width="1" height="1" x="19" y="7"/>
 <rect style="opacity:0.3;fill:#666666" width="1" height="1" x="18" y="8"/>
 <rect style="opacity:0.3;fill:#666666" width="1" height="1" x="16" y="8"/>
 <rect style="opacity:0.3;fill:#666666" width="1" height="1" x="19" y="9"/>
 <rect style="opacity:0.3;fill:#666666" width="1" height="1" x="17" y="9"/>
 <rect style="opacity:0.3;fill:#666666" width="1" height="1" x="16" y="10"/>
 <rect style="opacity:0.3;fill:#666666" width="1" height="1" x="18" y="10"/>
 <rect style="opacity:0.3;fill:#666666" width="1" height="1" x="19" y="11"/>
 <rect style="opacity:0.3;fill:#666666" width="1" height="1" x="17" y="11"/>
 <rect style="opacity:0.3;fill:#666666" width="1" height="1" x="16" y="12"/>
 <rect style="opacity:0.3;fill:#666666" width="1" height="1" x="18" y="12"/>
 <rect style="opacity:0.3;fill:#666666" width="1" height="1" x="19" y="13"/>
 <rect style="opacity:0.3;fill:#666666" width="1" height="1" x="17" y="13"/>
 <rect style="opacity:0.3;fill:#666666" width="1" height="1" x="16" y="14"/>
 <rect style="opacity:0.3;fill:#666666" width="1" height="1" x="18" y="14"/>
 <rect style="opacity:0.3;fill:#666666" width="1" height="1" x="19" y="15"/>
 <rect style="opacity:0.3;fill:#666666" width="1" height="1" x="17" y="15"/>
 <rect style="opacity:0.3;fill:#666666" width="1" height="1" x="16" y="16"/>
 <rect style="opacity:0.3;fill:#666666" width="1" height="1" x="18" y="16"/>
 <rect style="opacity:0.3;fill:#666666" width="1" height="1" x="19" y="17"/>
 <rect style="opacity:0.3;fill:#666666" width="1" height="1" x="17" y="17"/>
 <rect style="opacity:0.3;fill:#666666" width="1" height="1" x="16" y="18"/>
 <rect style="opacity:0.3;fill:#666666" width="1" height="1" x="18" y="18"/>
 <rect style="opacity:0.3;fill:#666666" width="1" height="1" x="19" y="19"/>
 <rect style="opacity:0.3;fill:#666666" width="1" height="1" x="17" y="19"/>
 <rect style="opacity:0.3;fill:#666666" width="1" height="1" x="15" y="1"/>
 <rect style="opacity:0.3;fill:#666666" width="1" height="1" x="15" y="3"/>
 <rect style="opacity:0.3;fill:#666666" width="1" height="1" x="15" y="5"/>
 <rect style="opacity:0.3;fill:#666666" width="1" height="1" x="15" y="7"/>
 <rect style="opacity:0.3;fill:#666666" width="1" height="1" x="15" y="9"/>
 <rect style="opacity:0.3;fill:#666666" width="1" height="1" x="15" y="11"/>
 <rect style="opacity:0.3;fill:#666666" width="1" height="1" x="15" y="13"/>
 <rect style="opacity:0.3;fill:#666666" width="1" height="1" x="15" y="15"/>
 <rect style="opacity:0.3;fill:#666666" width="1" height="1" x="15" y="17"/>
 <rect style="opacity:0.3;fill:#666666" width="1" height="1" x="15" y="19"/>
</svg>
