<svg xmlns="http://www.w3.org/2000/svg" width="20" height="20" version="1.1" viewBox="0 0 20 20">
 <rect style="opacity:0.3;fill:none" width="20" height="20" x="0" y="0"/>
 <rect style="fill:#666666" width="6" height="6" x="7" y="7"/>
 <rect style="fill:#666666" width="1" height="1" x="7" y="6"/>
 <rect style="fill:#666666" width="1" height="1" x="9" y="6"/>
 <rect style="fill:#666666" width="1" height="1" x="11" y="6"/>
 <rect style="fill:#666666" width="1" height="1" x="13" y="6"/>
 <rect style="fill:#666666" width="1" height="1" x="13" y="8"/>
 <rect style="fill:#666666" width="1" height="1" x="13" y="10"/>
 <rect style="fill:#666666" width="1" height="1" x="13" y="12"/>
 <rect style="fill:#666666" width="1" height="1" x="12" y="13"/>
 <rect style="fill:#666666" width="1" height="1" x="10" y="13"/>
 <rect style="fill:#666666" width="1" height="1" x="8" y="13"/>
 <rect style="fill:#666666" width="1" height="1" x="6" y="9"/>
 <rect style="fill:#666666" width="1" height="1" x="14" y="9"/>
 <rect style="fill:#666666" width="1" height="1" x="14" y="11"/>
 <rect style="fill:#666666" width="1" height="1" x="14" y="13"/>
 <rect style="fill:#666666" width="1" height="1" x="13" y="14"/>
 <rect style="fill:#666666" width="1" height="1" x="11" y="14"/>
 <rect style="fill:#666666" width="1" height="1" x="9" y="14"/>
 <rect style="fill:#666666" width="1" height="1" x="7" y="14"/>
 <rect style="fill:#666666" width="1" height="1" x="6" y="13"/>
 <rect style="fill:#666666" width="1" height="1" x="6" y="7"/>
 <rect style="opacity:0.3;fill:#666666" width="10" height="1" x="5" y="15"/>
 <rect style="opacity:0.3;fill:#666666" width="1" height="12" x="15" y="4"/>
 <rect style="opacity:0.3;fill:#666666" width="1" height="1" x="4" y="2"/>
 <rect style="opacity:0.3;fill:#666666" width="1" height="1" x="5" y="3"/>
 <rect style="opacity:0.3;fill:#666666" width="1" height="1" x="7" y="3"/>
 <rect style="opacity:0.3;fill:#666666" width="1" height="1" x="9" y="3"/>
 <rect style="opacity:0.3;fill:#666666" width="1" height="1" x="11" y="3"/>
 <rect style="opacity:0.3;fill:#666666" width="1" height="1" x="13" y="3"/>
 <rect style="opacity:0.3;fill:#666666" width="1" height="1" x="3" y="13"/>
 <rect style="opacity:0.3;fill:#666666" width="1" height="1" x="3" y="11"/>
 <rect style="opacity:0.3;fill:#666666" width="1" height="1" x="3" y="9"/>
 <rect style="opacity:0.3;fill:#666666" width="1" height="1" x="3" y="7"/>
 <rect style="opacity:0.3;fill:#666666" width="1" height="1" x="3" y="5"/>
 <rect style="opacity:0.3;fill:#666666" width="1" height="1" x="3" y="3"/>
 <rect style="opacity:0.3;fill:#666666" width="1" height="1" x="5" y="1"/>
 <rect style="opacity:0.3;fill:#666666" width="1" height="1" x="7" y="1"/>
 <rect style="opacity:0.3;fill:#666666" width="1" height="1" x="9" y="1"/>
 <rect style="opacity:0.3;fill:#666666" width="1" height="1" x="11" y="1"/>
 <rect style="opacity:0.3;fill:#666666" width="1" height="1" x="13" y="1"/>
 <rect style="opacity:0.3;fill:#666666" width="1" height="1" x="15" y="1"/>
 <rect style="opacity:0.3;fill:#666666" width="1" height="1" x="17" y="1"/>
 <rect style="opacity:0.3;fill:#666666" width="1" height="1" x="16" y="4"/>
 <rect style="opacity:0.3;fill:#666666" width="1" height="1" x="16" y="8"/>
 <rect style="opacity:0.3;fill:#666666" width="1" height="1" x="16" y="10"/>
 <rect style="opacity:0.3;fill:#666666" width="1" height="1" x="17" y="11"/>
 <rect style="opacity:0.3;fill:#666666" width="1" height="1" x="17" y="13"/>
 <rect style="opacity:0.3;fill:#666666" width="1" height="1" x="16" y="12"/>
 <rect style="opacity:0.3;fill:#666666" width="1" height="1" x="14" y="18"/>
 <rect style="opacity:0.3;fill:#666666" width="1" height="1" x="12" y="18"/>
 <rect style="opacity:0.3;fill:#666666" width="1" height="1" x="10" y="18"/>
 <rect style="opacity:0.3;fill:#666666" width="1" height="1" x="8" y="18"/>
 <rect style="opacity:0.3;fill:#666666" width="1" height="1" x="6" y="18"/>
 <rect style="opacity:0.3;fill:#666666" width="1" height="1" x="4" y="18"/>
 <rect style="opacity:0.3;fill:#666666" width="1" height="1" x="2" y="18"/>
 <rect style="opacity:0.3;fill:#666666" width="1" height="1" x="2" y="14"/>
 <rect style="opacity:0.3;fill:#666666" width="1" height="1" x="2" y="12"/>
 <rect style="opacity:0.3;fill:#666666" width="1" height="1" x="2" y="10"/>
 <rect style="opacity:0.3;fill:#666666" width="1" height="1" x="2" y="8"/>
 <rect style="opacity:0.3;fill:#666666" width="1" height="1" x="2" y="6"/>
 <rect style="opacity:0.3;fill:#666666" width="1" height="1" x="2" y="4"/>
 <rect style="opacity:0.3;fill:#666666" width="1" height="1" x="2" y="2"/>
 <rect style="opacity:0.3;fill:#666666" width="1" height="1" x="18" y="12"/>
 <rect style="opacity:0.3;fill:#666666" width="1" height="1" x="18" y="10"/>
 <rect style="opacity:0.3;fill:#666666" width="1" height="1" x="18" y="8"/>
 <rect style="opacity:0.3;fill:#666666" width="1" height="1" x="18" y="6"/>
 <rect style="opacity:0.3;fill:#666666" width="1" height="1" x="18" y="4"/>
 <rect style="opacity:0.3;fill:#666666" width="1" height="1" x="18" y="2"/>
 <rect style="opacity:0.3;fill:#666666" width="1" height="1" x="-4" y="1" transform="scale(-1,1)"/>
 <rect style="opacity:0.3;fill:#666666" width="1" height="1" x="15" y="3"/>
 <rect style="opacity:0.3;fill:#666666" width="1" height="1" x="16" y="6"/>
 <rect style="opacity:0.3;fill:#666666" width="1" height="1" x="2" y="16"/>
 <rect style="opacity:0.3;fill:#666666" width="1" height="1" x="16" y="18"/>
 <rect style="opacity:0.3;fill:#666666" width="1" height="1" x="18" y="18"/>
 <rect style="opacity:0.3;fill:#666666" width="1" height="1" x="18" y="16"/>
 <rect style="opacity:0.3;fill:#666666" width="1" height="1" x="18" y="14"/>
 <rect style="opacity:0.3;fill:#666666" width="1" height="1" x="16" y="14"/>
 <rect style="opacity:0.3;fill:#666666" width="1" height="1" x="16" y="16"/>
 <rect style="opacity:0.3;fill:#666666" width="1" height="1" x="14" y="16"/>
 <rect style="opacity:0.3;fill:#666666" width="1" height="1" x="12" y="16"/>
 <rect style="opacity:0.3;fill:#666666" width="1" height="1" x="10" y="16"/>
 <rect style="opacity:0.3;fill:#666666" width="1" height="1" x="8" y="16"/>
 <rect style="opacity:0.3;fill:#666666" width="1" height="1" x="6" y="16"/>
 <rect style="opacity:0.3;fill:#666666" width="1" height="1" x="5" y="17"/>
 <rect style="opacity:0.3;fill:#666666" width="1" height="1" x="3" y="17"/>
 <rect style="opacity:0.3;fill:#666666" width="1" height="1" x="3" y="15"/>
 <rect style="opacity:0.3;fill:#666666" width="1" height="1" x="4" y="16"/>
 <rect style="fill:#666666" width="1" height="1" x="5" y="14"/>
 <rect style="fill:#666666" width="1" height="1" x="5" y="12"/>
 <rect style="fill:#666666" width="1" height="1" x="5" y="10"/>
 <rect style="fill:#666666" width="1" height="1" x="5" y="8"/>
 <rect style="fill:#666666" width="1" height="1" x="5" y="6"/>
 <rect style="fill:#666666" width="1" height="1" x="6" y="5"/>
 <rect style="fill:#666666" width="1" height="1" x="8" y="5"/>
 <rect style="fill:#666666" width="1" height="1" x="10" y="5"/>
 <rect style="fill:#666666" width="1" height="1" x="12" y="5"/>
 <rect style="fill:#666666" width="1" height="1" x="14" y="5"/>
 <rect style="fill:#666666" width="1" height="1" x="14" y="7"/>
 <rect style="fill:#666666" width="1" height="1" x="14" y="7"/>
 <rect style="fill:#666666" width="1" height="1" x="6" y="11"/>
 <rect style="opacity:0.3;fill:#666666" width="1" height="1" x="17" y="3"/>
 <rect style="opacity:0.3;fill:#666666" width="1" height="1" x="6" y="2"/>
 <rect style="opacity:0.3;fill:#666666" width="1" height="1" x="8" y="2"/>
 <rect style="opacity:0.3;fill:#666666" width="1" height="1" x="10" y="2"/>
 <rect style="opacity:0.3;fill:#666666" width="1" height="1" x="12" y="2"/>
 <rect style="opacity:0.3;fill:#666666" width="1" height="1" x="17" y="15"/>
 <rect style="opacity:0.3;fill:#666666" width="1" height="1" x="14" y="2"/>
 <rect style="opacity:0.3;fill:#666666" width="1" height="1" x="17" y="17"/>
 <rect style="opacity:0.3;fill:#666666" width="1" height="1" x="16" y="2"/>
 <rect style="opacity:0.3;fill:#666666" width="1" height="1" x="15" y="17"/>
 <rect style="opacity:0.3;fill:#666666" width="1" height="1" x="13" y="17"/>
 <rect style="opacity:0.3;fill:#666666" width="1" height="1" x="11" y="17"/>
 <rect style="opacity:0.3;fill:#666666" width="1" height="1" x="9" y="17"/>
 <rect style="opacity:0.3;fill:#666666" width="1" height="1" x="7" y="17"/>
 <rect style="opacity:0.3;fill:#666666" width="1" height="1" x="17" y="9"/>
 <rect style="opacity:0.3;fill:#666666" width="1" height="1" x="17" y="7"/>
 <rect style="opacity:0.3;fill:#666666" width="1" height="1" x="17" y="5"/>
 <rect style="opacity:0.3;fill:#666666" width="1" height="1" x="1" y="17"/>
 <rect style="opacity:0.3;fill:#666666" width="1" height="1" x="1" y="15"/>
 <rect style="opacity:0.3;fill:#666666" width="1" height="1" x="1" y="13"/>
 <rect style="opacity:0.3;fill:#666666" width="1" height="1" x="1" y="11"/>
 <rect style="opacity:0.3;fill:#666666" width="1" height="1" x="1" y="9"/>
 <rect style="opacity:0.3;fill:#666666" width="1" height="1" x="1" y="7"/>
 <rect style="opacity:0.3;fill:#666666" width="1" height="1" x="1" y="5"/>
 <rect style="opacity:0.3;fill:#666666" width="1" height="1" x="1" y="3"/>
 <rect style="opacity:0.3;fill:#666666" width="1" height="1" x="1" y="1"/>
 <rect style="opacity:0.3;fill:#666666" width="10" height="1" x="5" y="4"/>
 <rect style="opacity:0.3;fill:#666666" width="1" height="12" x="4" y="4"/>
</svg>
