<svg xmlns="http://www.w3.org/2000/svg" width="20" height="20" version="1.1" viewBox="0 0 20 20">
 <rect style="fill:none" width="20" height="20" x="0" y="0"/>
 <path style="fill:#666666" d="m 10.3,1.91 c 1.4,0 2.7,0.38 3.8,1.13 1.3,0.86 1.9,2.02 1.9,3.48 0,1.23 -0.4,2.19 -1.2,2.9 l -2.1,1.69 C 12,11.6 12,12.12 12,13 H 7 C 6.7,10.85 7.6,10.25 8.2,9.58 8.4,9.39 9.5,8.94 10.4,8.13 11,7.62 11.4,7.34 11.4,6.76 11.4,6.35 11.2,6.02 10.9,5.77 10.6,5.52 10.3,5.39 9.9,5.39 9.4,5.39 8,5.65 8,7.23 V 8 L 4,7.94 C 4,7 4.2,5.75 4.5,5.06 4.9,4.36 5.4,3.76 6.1,3.27 7.2,2.46 8.4,1.91 10.3,1.91"/>
 <path style="fill:#666666" d="m 7,15 h 5 l -0.1,4.91 H 7 V 15"/>
</svg>
