<svg xmlns="http://www.w3.org/2000/svg" width="16" height="16.068" version="1.1" viewBox="0 0 16 16.07">
 <g transform="translate(-617.97,-772.33)">
  <rect style="fill:none" width="16" height="16" x="617.97" y="772.3" rx=".47" ry="0"/>
  <rect style="fill:#666666" width="2" height="12" x="617.97" y="776.3" rx="0"/>
  <rect style="fill:#666666" width="2" height="12" x="983.42" y="194.74" rx="0" transform="rotate(39.69)"/>
  <path style="fill:#666666" d="M 621.76,778.36 A 0.94932,0.9501 0 0 1 620.98,777.27 C 620.98,775.01 623.04,773.33 625.41,773.33 626.95,773.33 628.36,774.03 629.16,775.14 L 630.97,773.33 V 778.33 H 629.22 629.13 A 0.94932,0.9501 0 0 1 628.66,778.33 H 627.97 625.98 L 627.79,776.52 C 627.78,776.51 627.79,776.49 627.79,776.49 627.42,775.76 626.53,775.21 625.41,775.21 623.92,775.21 622.85,776.21 622.85,777.27 A 0.94932,0.9501 0 0 1 621.76,778.36 Z"/>
 </g>
</svg>
