<svg xmlns="http://www.w3.org/2000/svg" width="16" height="16" version="1.1" viewBox="0 0 16 16">
 <g transform="translate(-134.99,-847.43)">
  <rect style="fill:none" width="16" height="16" x="134.99" y="847.43"/>
  <path style="fill:#666666" d="M 143.01,848.37 C 140.81,848.37 139.01,850.16 139.01,852.36 139.01,854.56 140.81,856.35 143.01,856.35 145.21,856.35 147,854.56 147,852.36 147,850.16 145.21,848.37 143.01,848.37 Z M 143.01,849.42 C 144.63,849.42 145.95,850.73 145.95,852.36 145.95,853.99 144.63,855.3 143.01,855.3 141.38,855.3 140.07,853.99 140.07,852.36 140.07,850.73 141.38,849.42 143.01,849.42 Z"/>
  <path style="fill:#666666" d="M 138.99,855.44 C 136.79,855.44 135,857.23 135,859.43 135,861.63 136.79,863.42 138.99,863.42 141.2,863.42 142.99,861.63 142.99,859.43 142.99,857.23 141.2,855.44 138.99,855.44 Z M 138.99,856.49 C 140.62,856.49 141.93,857.8 141.93,859.43 141.93,861.06 140.62,862.37 138.99,862.37 137.37,862.37 136.05,861.06 136.05,859.43 136.05,857.8 137.37,856.49 138.99,856.49 Z"/>
  <path style="fill:#666666" d="M 146.99,855.44 C 144.79,855.44 143,857.23 143,859.43 143,861.63 144.79,863.42 146.99,863.42 149.19,863.42 150.98,861.63 150.98,859.43 150.98,857.23 149.19,855.44 146.99,855.44 Z M 146.99,856.49 C 148.62,856.49 149.93,857.8 149.93,859.43 149.93,861.06 148.62,862.37 146.99,862.37 145.37,862.37 144.05,861.06 144.05,859.43 144.05,857.8 145.37,856.49 146.99,856.49 Z"/>
  <circle style="opacity:0.3;fill:#666666" cx="138.95" cy="859.36" r="2"/>
  <circle style="fill:#666666" cx="146.95" cy="859.36" r="2"/>
 </g>
</svg>
