<svg xmlns="http://www.w3.org/2000/svg" width="16" height="16" version="1.1" viewBox="0 0 16 16">
 <g transform="translate(-165,-887.36)">
  <rect style="fill:none" width="16" height="16" x="165" y="887.36"/>
  <path style="fill:#666666" d="M 178.43,889.31 C 172.85,890.34 167.86,894.04 167.02,900.75 A 0.50389,0.50389 0 1 0 168.02,900.87 C 168.8,894.6 173.35,891.29 178.62,890.31 A 0.50894,0.50894 0 1 0 178.43,889.31 Z"/>
  <circle style="fill:#666666" cx="178.56" cy="889.86" r="1.5"/>
  <circle style="fill:#666666" cx="167.56" cy="900.86" r="1.5"/>
  <path style="fill:#666666" d="M 167.98,891.57 C 166.74,893.44 166.71,895.78 168.23,897.19 169.71,897.99 171.18,897.83 173,896.2 169.75,896.63 168.01,895.1 167.98,891.57 Z"/>
  <path style="fill:#666666" d="M 173.92,888.47 C 172.41,889.39 171.62,890.98 172.26,892.39 173.07,893.38 174.18,893.71 176.03,893.13 173.55,892.46 172.79,890.9 173.92,888.47 Z"/>
 </g>
</svg>
