<svg xmlns="http://www.w3.org/2000/svg" width="16" height="16" version="1.1" viewBox="0 0 16 16">
 <g transform="translate(-195,-707.36)">
  <rect style="fill:none" width="16" height="16" x="195" y="707.36"/>
  <path style="fill:#666666" d="M 203,708.36 C 202.78,708.36 202.56,708.37 202.34,708.39 L 201.94,710.49 C 201.6,710.56 201.27,710.66 200.97,710.8 L 199.44,709.33 C 199.05,709.56 198.71,709.84 198.37,710.14 L 199.28,712.05 C 199.06,712.3 198.86,712.57 198.69,712.86 L 196.59,712.58 C 196.42,712.99 196.28,713.42 196.19,713.86 L 198.03,714.86 C 198.01,715.03 198,715.19 198,715.36 H 200 C 200,713.7 201.34,712.36 203,712.36 204.66,712.36 206,713.7 206,715.36 H 208 C 208,715.19 207.99,715.03 207.97,714.86 L 209.81,713.86 C 209.71,713.42 209.58,712.99 209.41,712.58 L 207.31,712.86 C 207.14,712.57 206.94,712.3 206.72,712.05 L 207.62,710.14 C 207.29,709.84 206.95,709.56 206.56,709.33 L 205.03,710.8 C 204.73,710.66 204.4,710.56 204.06,710.49 L 203.66,708.39 C 203.44,708.37 203.22,708.36 203,708.36 Z"/>
  <path style="fill:#666666" d="M 196,716.36 V 723.36 H 210 V 716.36 Z M 199,717.36 H 200 V 722.36 H 199 V 718.36 L 198,719.36 V 718.36 Z M 202.5,717.36 C 203.33,717.36 204,718.03 204,718.86 V 720.86 C 204,721.69 203.33,722.36 202.5,722.36 201.67,722.36 201,721.69 201,720.86 V 718.86 C 201,718.03 201.67,717.36 202.5,717.36 Z M 207,717.36 209,719.36 H 205 Z M 202.5,718.36 C 202.22,718.36 202,718.58 202,718.86 V 720.86 C 202,721.14 202.22,721.36 202.5,721.36 202.78,721.36 203,721.14 203,720.86 V 718.86 C 203,718.58 202.78,718.36 202.5,718.36 Z M 205,720.36 H 209 L 207,722.36 Z"/>
 </g>
</svg>
