<svg xmlns="http://www.w3.org/2000/svg" width="16" height="16" version="1.1" viewBox="0 0 16 16">
 <g transform="translate(-528,-589.36)">
  <rect style="fill:none" width="16" height="16" x="528" y="589.36"/>
  <path style="fill:none;stroke:#666666;stroke-width:1.05744;stroke-linecap:square;stroke-linejoin:bevel;stroke-miterlimit:4.27;stroke-dashoffset:23.2" d="M 542.48,597.36 C 542.48,598.21 542.31,599.06 541.99,599.84 541.66,600.62 541.18,601.34 540.57,601.94 539.97,602.54 539.25,603.02 538.46,603.34 537.67,603.67 536.82,603.83 535.97,603.83 535.12,603.83 534.26,603.66 533.48,603.34 532.69,603.02 531.97,602.54 531.37,601.94 530.76,601.34 530.28,600.62 529.96,599.84 529.63,599.06 529.46,598.21 529.46,597.36 529.46,596.52 529.63,595.67 529.96,594.89 530.28,594.1 530.76,593.39 531.37,592.79 531.97,592.19 532.69,591.71 533.48,591.38 534.26,591.06 535.12,590.89 535.97,590.89 536.82,590.89 537.67,591.06 538.46,591.38 539.25,591.71 539.97,592.19 540.57,592.79 541.18,593.39 541.66,594.1 541.99,594.89 542.31,595.67 542.48,596.51 542.48,597.36"/>
  <rect style="fill:#666666" width="4" height="4" x="534" y="589.36"/>
  <rect style="fill:#666666" width="4" height="4" x="528" y="595.36"/>
  <rect style="fill:#666666" width="4" height="4" x="540" y="595.36"/>
 </g>
</svg>
