<svg xmlns="http://www.w3.org/2000/svg" width="16" height="16" version="1.1" viewBox="0 0 16 16">
 <g transform="translate(-45.07,-547.42)">
  <rect style="fill:none" width="16" height="15.938" x="45.07" y="547.48" rx="0"/>
  <rect style="fill:#666666" width="6" height="2.988" x="50" y="547.42" rx=".53" ry=".53"/>
  <path style="fill:#666666" d="M 49,552.41 V 560.37 H 55 L 57,558.38 V 552.41 Z M 52,553.4 H 54 V 556.39 H 56 L 53,559.38 50,556.39 H 52 Z"/>
  <path style="fill:#666666" d="M 46.531,548.42 C 46.489,548.42 46.446,548.44 46.406,548.45 46.172,548.51 45.999,548.7 46,548.95 L 46.031,555.92 46,562.9 C 45.999,563.15 46.172,563.34 46.406,563.39 46.47,563.42 46.52,563.43 46.594,563.42 H 49 L 59.469,563.36 C 59.763,563.36 60,563.13 60,562.83 V 557.45 554.4 549.01 C 60,548.72 59.763,548.48 59.469,548.48 H 57 V 549.48 H 58.469 C 58.763,549.48 59,549.72 59,550.01 V 554.4 557.45 561.84 C 59,562.13 58.763,562.36 58.469,562.37 L 49,562.43 H 47.594 C 47.57,562.43 47.554,562.43 47.531,562.43 47.489,562.43 47.446,562.41 47.406,562.4 47.216,562.32 47.064,562.12 47.063,561.9 L 47.031,555.92 47.063,549.95 C 47.064,549.73 47.216,549.53 47.406,549.45 47.446,549.44 47.489,549.42 47.531,549.42 H 49 V 548.42 Z"/>
 </g>
</svg>
