<svg xmlns="http://www.w3.org/2000/svg" width="16" height="16" version="1.1" viewBox="0 0 16 16">
 <g transform="translate(-45,-627.36)">
  <path style="fill:none" d="M 45,627.36 V 643.36 H 61 V 627.36 Z"/>
  <path style="fill:#666666" d="M 50,632.36 V 643.36 H 60 V 632.36 Z M 54.469,634.36 H 55.469 C 56.32,634.36 57,635.07 57,635.92 V 637.36 H 57.469 C 57.744,637.36 57.969,637.61 57.969,637.92 V 638.24 641.33 H 52 V 638.24 637.92 C 52,637.61 52.225,637.36 52.5,637.36 H 52.969 54 55 55.969 V 635.92 C 55.969,635.59 55.726,635.39 55.469,635.39 H 54.469 C 54.211,635.39 54,635.59 54,635.92 V 636.36 H 52.969 V 635.92 C 52.969,635.07 53.617,634.36 54.469,634.36 Z"/>
  <path style="fill:#666666" d="M 49,636.36 V 635.36 631.36 H 55 V 631.36 627.36 H 45 V 636.36 Z"/>
 </g>
</svg>
