<svg xmlns="http://www.w3.org/2000/svg" width="16.088" height="16" version="1.1" viewBox="0 0 16.09 16">
 <g transform="translate(-224.91,-527.36)">
  <rect style="fill:none" width="16" height="16" x="225" y="527.36"/>
  <path style="fill:#666666" d="M 229.98,535.82 C 229.99,537.18 228.87,538.31 227.49,538.32 226.11,538.33 224.97,537.21 224.96,535.86 224.95,534.5 226.07,533.36 227.45,533.35 228.83,533.34 229.97,534.46 229.98,535.82 Z M 228.53,535.83 C 228.52,535.22 228.05,534.76 227.46,534.76 226.87,534.76 226.4,535.24 226.41,535.84 226.41,536.45 226.89,536.92 227.48,536.91 228.07,536.91 228.53,536.44 228.53,535.83 Z"/>
  <path style="fill:#666666" d="M 229.93,529.84 C 229.94,531.19 228.83,532.32 227.44,532.34 226.05,532.35 224.92,531.23 224.91,529.88 224.9,528.52 226.02,527.39 227.41,527.38 228.8,527.37 229.92,528.49 229.93,529.84 Z M 228.48,529.85 C 228.48,529.24 228.01,528.78 227.42,528.78 226.83,528.79 226.36,529.26 226.36,529.87 226.37,530.48 226.84,530.93 227.43,530.93 228.02,530.92 228.49,530.46 228.48,529.85 Z"/>
  <path style="fill:#666666" d="M 235.97,536.14 C 235.6,536.88 234.77,537.12 234.1,536.71 L 229.07,533.71 227.46,534.92 226.01,533.96 227.72,532.85 226,531.78 227.37,530.81 229.06,531.96 234.05,528.9 C 234.7,528.48 235.54,528.7 235.92,529.43 L 230.45,532.83 Z"/>
  <rect style="fill:#666666" width="2" height="1" x="235" y="532.36"/>
  <rect style="fill:#666666" width="2" height="1" x="238" y="532.36"/>
  <rect style="fill:#666666" width="1" height="2" x="239" y="534.36"/>
  <rect style="fill:#666666" width="1" height="2" x="239" y="537.36"/>
  <rect style="fill:#666666" width="2" height="1" x="238" y="540.36"/>
  <rect style="fill:#666666" width="2" height="1" x="235" y="540.36"/>
  <rect style="fill:#666666" width="2" height="1" x="232" y="540.36"/>
  <rect style="fill:#666666" width="2" height="1" x="229" y="540.36"/>
  <rect style="fill:#666666" width="2" height="1" x="226" y="540.36"/>
 </g>
</svg>
