<svg xmlns="http://www.w3.org/2000/svg" xmlns:xlink="http://www.w3.org/1999/xlink" width="16" height="16" version="1.1" viewBox="0 0 16 16">
 <g transform="translate(-255,-727.36)">
  <rect style="opacity:0.3;fill:none" width="16" height="16" x="255" y="727.36"/>
  <circle style="fill:#666666" cx="257.02" cy="729.3" r="1.341"/>
  <use style="fill:#666666" width="1250" height="1250" x="0" y="0" transform="translate(8.56,0.49)" xlink:href="#path5084-3"/>
  <use style="fill:#666666" width="1250" height="1250" x="0" y="0" transform="translate(11.84,2.65)" xlink:href="#path5084-3"/>
  <use style="fill:#666666" width="1250" height="1250" x="0" y="0" transform="translate(11.46,6.02)" xlink:href="#path5084-3"/>
  <use style="fill:#666666" width="1250" height="1250" x="0" y="0" transform="translate(2.8,0.16)" xlink:href="#path5084-3"/>
  <use style="fill:#666666" width="1250" height="1250" x="0" y="0" transform="translate(11.94,-0.01)" xlink:href="#path5084-3"/>
  <use style="fill:#666666" width="1250" height="1250" x="0" y="0" transform="translate(-0.12,6.12)" xlink:href="#path5084-3"/>
  <use style="fill:#666666" width="1250" height="1250" x="0" y="0" transform="translate(0.26,9.38)" xlink:href="#path5084-3"/>
  <use style="fill:#666666" width="1250" height="1250" x="0" y="0" transform="translate(6.1,-0.22)" xlink:href="#path5084-3"/>
  <use style="fill:#666666" width="1250" height="1250" x="0" y="0" transform="translate(0.44,2.79)" xlink:href="#path5084-3"/>
  <use style="fill:#666666" width="1250" height="1250" x="0" y="0" transform="translate(2.82,2.99)" xlink:href="#path5084-3"/>
  <use style="fill:#666666" width="1250" height="1250" x="0" y="0" transform="translate(2.27,8.91)" xlink:href="#path5084-3"/>
  <use style="fill:#666666" width="1250" height="1250" x="0" y="0" transform="translate(7.82,3.04)" xlink:href="#path5084-3"/>
  <use style="fill:#666666" width="1250" height="1250" x="0" y="0" transform="translate(8.51,3.4)" xlink:href="#path5084-3"/>
  <use style="fill:#666666" width="1250" height="1250" x="0" y="0" transform="translate(2.87,4.5)" xlink:href="#path5084-3"/>
  <use style="fill:#666666" width="1250" height="1250" x="0" y="0" transform="translate(5.94,8.42)" xlink:href="#path5084-3"/>
  <use style="fill:#666666" width="1250" height="1250" x="0" y="0" transform="translate(7,5.08)" xlink:href="#path5084-3"/>
  <use style="fill:#666666" width="1250" height="1250" x="0" y="0" transform="translate(7.57,6.44)" xlink:href="#path5084-3"/>
  <use style="fill:#666666" width="1250" height="1250" x="0" y="0" transform="translate(8.4,9.33)" xlink:href="#path5084-3"/>
  <use style="fill:#666666" width="1250" height="1250" x="0" y="0" transform="translate(8.89,11.77)" xlink:href="#path5084-3"/>
  <use style="fill:#666666" width="1250" height="1250" x="0" y="0" transform="translate(11.5,9.06)" xlink:href="#path5084-3"/>
  <use style="fill:#666666" width="1250" height="1250" x="0" y="0" transform="translate(-0.01,12.1)" xlink:href="#path5084-3"/>
  <use style="fill:#666666" width="1250" height="1250" x="0" y="0" transform="translate(3.17,12.23)" xlink:href="#path5084-3"/>
  <use style="fill:#666666" width="1250" height="1250" x="0" y="0" transform="translate(5.94,11.85)" xlink:href="#path5084-3"/>
  <use style="fill:#666666" width="1250" height="1250" x="0" y="0" transform="translate(12.07,12.1)" xlink:href="#path5084-3"/>
 </g>
</svg>
