<svg xmlns="http://www.w3.org/2000/svg" width="16" height="16" version="1.1" viewBox="0 0 16 16">
 <g transform="translate(-588,-805.36)">
  <rect style="fill:none" width="16" height="16" x="588" y="805.36"/>
  <rect style="opacity:0.3;fill:#666666" width="3" height="3" x="589.5" y="806.86"/>
  <rect style="opacity:0.3;fill:#666666" width="3" height="3" x="594.5" y="806.86"/>
  <rect style="opacity:0.3;fill:#666666" width="3" height="3" x="599.5" y="806.86"/>
  <rect style="opacity:0.3;fill:#666666" width="3" height="3" x="589.5" y="811.86"/>
  <rect style="opacity:0.3;fill:#666666" width="3" height="3" x="594.5" y="811.86"/>
  <rect style="opacity:0.3;fill:#666666" width="3" height="3" x="599.5" y="811.86"/>
  <rect style="opacity:0.3;fill:#666666" width="3" height="3" x="589.5" y="816.86"/>
  <rect style="opacity:0.3;fill:#666666" width="3" height="3" x="594.5" y="816.86"/>
  <rect style="opacity:0.3;fill:#666666" width="3" height="3" x="599.5" y="816.86"/>
  <rect style="fill:none;stroke:#666666" width="3" height="3" x="589.5" y="806.86"/>
  <rect style="fill:none;stroke:#666666" width="3" height="3" x="594.5" y="806.86"/>
  <rect style="fill:none;stroke:#666666" width="3" height="3" x="599.5" y="806.86"/>
  <rect style="fill:none;stroke:#666666" width="3" height="3" x="589.5" y="811.86"/>
  <rect style="fill:none;stroke:#666666" width="3" height="3" x="594.5" y="811.86"/>
  <rect style="fill:none;stroke:#666666" width="3" height="3" x="599.5" y="811.86"/>
  <rect style="fill:none;stroke:#666666" width="3" height="3" x="589.5" y="816.86"/>
  <rect style="fill:none;stroke:#666666" width="3" height="3" x="594.5" y="816.86"/>
  <rect style="fill:none;stroke:#666666" width="3" height="3" x="599.5" y="816.86"/>
 </g>
</svg>
