<svg xmlns="http://www.w3.org/2000/svg" width="16" height="16" version="1.1" viewBox="0 0 16 16">
 <g transform="translate(-165,-647.36)">
  <rect style="opacity:0.3;fill:none" width="16" height="16" x="165" y="647.36"/>
  <path style="fill:#666666" d="M 175.97,652.36 C 175.98,652.52 176,652.69 176,652.86 176,654.19 175.53,655.41 174.75,656.36 174.66,656.47 174.57,656.57 174.47,656.67 174.44,656.7 174.4,656.71 174.37,656.73 174.27,656.83 174.2,656.96 174.09,657.05 174.07,657.07 174.03,657.09 174,657.11 173.89,657.2 173.77,657.28 173.66,657.36 173.64,657.37 173.61,657.38 173.59,657.39 173.44,657.49 173.29,657.62 173.12,657.7 172.37,658.1 171.5,658.3 170.59,658.3 170.38,658.3 170.21,658.2 170,658.17 V 658.33 662.36 H 180 V 652.36 Z"/>
  <path style="fill:#666666" d="M 170.5,647.36 C 167.46,647.36 165,649.82 165,652.86 165,655.74 167.21,658.09 170.03,658.33 V 652.36 H 175.97 C 175.72,649.56 173.37,647.36 170.5,647.36 Z"/>
  <path style="opacity:0.3;fill:#666666;fill-rule:evenodd" d="M 170.03,652.36 V 658.33 C 170.2,658.35 170.36,658.36 170.53,658.36 173.57,658.36 176.03,655.9 176.03,652.86 176.03,652.69 176.01,652.53 176,652.36 Z"/>
 </g>
</svg>
