<svg xmlns="http://www.w3.org/2000/svg" width="16" height="16" version="1.1" viewBox="0 0 16 16">
 <g transform="translate(-709,-589.36)">
  <rect style="fill:none" width="16" height="16" x="709" y="589.36"/>
  <rect style="fill:#666666" width="1" height="1" x="712" y="591.36"/>
  <rect style="fill:#666666" width="1" height="1" x="712" y="593.36"/>
  <rect style="fill:#666666" width="1" height="1" x="712" y="595.36"/>
  <rect style="fill:#666666" width="1" height="1" x="712" y="597.36"/>
  <rect style="fill:#666666" width="1" height="1" x="712" y="599.36"/>
  <rect style="fill:#666666" width="1" height="1" x="712" y="601.36"/>
  <rect style="fill:#666666" width="1" height="1" x="712" y="603.36"/>
  <rect style="fill:#666666" width="1" height="1" x="714" y="603.36"/>
  <rect style="fill:#666666" width="1" height="1" x="716" y="603.36"/>
  <rect style="fill:#666666" width="1" height="1" x="718" y="603.36"/>
  <rect style="fill:#666666" width="1" height="1" x="720" y="603.36"/>
  <rect style="fill:#666666" width="1" height="1" x="720" y="601.36"/>
  <rect style="fill:#666666" width="1" height="1" x="720" y="599.36"/>
  <rect style="fill:#666666" width="1" height="1" x="720" y="597.36"/>
  <rect style="fill:#666666" width="1" height="1" x="720" y="595.36"/>
  <rect style="fill:#666666" width="1" height="1" x="720" y="593.36"/>
  <rect style="fill:#666666" width="1" height="1" x="720" y="591.36"/>
  <rect style="fill:#666666" width="1" height="1" x="718" y="591.36"/>
  <rect style="fill:#666666" width="1" height="1" x="716" y="591.36"/>
  <rect style="fill:#666666" width="1" height="1" x="714" y="591.36"/>
 </g>
</svg>
