<svg xmlns="http://www.w3.org/2000/svg" width="16" height="16" version="1.1" viewBox="0 0 16 16">
 <g transform="translate(-739,-558.36)">
  <rect style="opacity:0;fill-rule:evenodd" width="16" height="16" x="739" y="558.36"/>
  <path style="fill:#666666" d="M 753.23,561.27 C 751.08,561.6 748.59,562.85 746.58,564.7 744.57,566.54 743,569.02 743,571.74 A 0.575,0.6183 0 1 0 744.15,571.74 C 744.15,569.53 745.44,567.35 747.29,565.66 749.15,563.96 751.52,562.75 753.38,562.47 A 0.57251,0.61562 0 1 0 753.23,561.27 Z"/>
  <path style="fill:#666666" d="M 743.48,560.55 A 0.54999,0.76843 0 0 0 743,561.36 V 570.58 A 0.55,0.76844 0 1 0 744.1,570.58 V 561.36 A 0.54999,0.76843 0 0 0 743.48,560.55 Z"/>
  <rect style="fill:#666666" width="4" height="4" x="742" y="568.36"/>
  <circle style="fill:#666666" cx="743.52" cy="560.86" r="1.563"/>
 </g>
</svg>
