<svg xmlns="http://www.w3.org/2000/svg" width="16.022" height="16.006" version="1.1" viewBox="0 0 16.02 16.01">
 <g transform="translate(-768.98,-527.36)">
  <rect style="fill:none" width="16" height="16" x="769" y="527.36"/>
  <path style="fill:#666666" d="M 784.31,543.36 A 0.51404,0.51211 0 0 1 783.91,542.77 C 784.14,541.17 783.85,539.05 782.78,537.36 782.15,536.36 781.25,535.52 780,534.99 V 533.86 C 781.66,534.46 782.86,535.54 783.66,536.8 784.88,538.74 785.17,541.06 784.91,542.89 A 0.51404,0.51211 0 0 1 784.31,543.36 Z M 769.59,543.24 A 0.52408,0.52211 0 0 1 769.09,542.8 C 768.8,540.97 769.04,538.65 770.22,536.74 771.01,535.45 772.26,534.37 774,533.8 V 534.86 C 772.65,535.36 771.73,536.24 771.09,537.27 770.08,538.91 769.86,541.01 770.12,542.61 A 0.52408,0.52211 0 0 1 769.59,543.24 Z"/>
  <rect style="opacity:0.3;fill:#666666" width="4" height="4" x="775" y="-534.36" transform="scale(1,-1)"/>
  <rect style="opacity:0.3;fill:#666666" width="2" height="1" x="780" y="-532.36" transform="scale(1,-1)"/>
  <rect style="opacity:0.3;fill:#666666" width="2" height="1" x="772" y="-532.36" transform="scale(1,-1)"/>
  <ellipse style="opacity:0.3;fill:#666666" cx="783" cy="-531.81" rx="1.5" ry="1.516" transform="scale(1,-1)"/>
  <ellipse style="opacity:0.3;fill:#666666" cx="771" cy="-531.85" rx="1.5" ry="1.516" transform="scale(1,-1)"/>
 </g>
</svg>
