<svg xmlns="http://www.w3.org/2000/svg" width="16.022" height="16.006" version="1.1" viewBox="0 0 16.02 16.01">
 <g transform="translate(-738.98,-527.35)">
  <rect style="fill:none" width="16" height="16" x="739" y="527.36"/>
  <path style="opacity:0.3;fill:#666666" d="M 754.31,543.36 A 0.51404,0.51211 0 0 1 753.91,542.76 C 754.14,541.17 753.85,539.04 752.78,537.36 752.15,536.36 751.25,535.51 750,534.98 V 533.86 C 751.66,534.45 752.86,535.54 753.66,536.79 754.88,538.73 755.17,541.05 754.91,542.89 A 0.51404,0.51211 0 0 1 754.31,543.36 Z M 739.59,543.23 A 0.52408,0.52211 0 0 1 739.09,542.79 C 738.8,540.97 739.04,538.64 740.22,536.73 741.01,535.44 742.26,534.36 744,533.79 V 534.86 C 742.65,535.36 741.73,536.23 741.09,537.26 740.08,538.91 739.86,541 740.12,542.61 A 0.52408,0.52211 0 0 1 739.59,543.23 Z"/>
  <rect style="fill:#666666" width="4" height="5" x="745" y="-535.36" transform="scale(1,-1)"/>
  <rect style="fill:#666666" width="2" height="1" x="750" y="-532.36" transform="scale(1,-1)"/>
  <rect style="fill:#666666" width="2" height="1" x="742" y="-532.36" transform="scale(1,-1)"/>
  <ellipse style="fill:#666666" cx="753" cy="-531.81" rx="1.5" ry="1.516" transform="scale(1,-1)"/>
  <ellipse style="fill:#666666" cx="741" cy="-531.84" rx="1.5" ry="1.516" transform="scale(1,-1)"/>
 </g>
</svg>
