<svg xmlns="http://www.w3.org/2000/svg" width="16" height="16.049" version="1.1" viewBox="0 0 16 16.05">
 <g transform="translate(-195,-547.36)">
  <rect style="opacity:0.3;fill:none" width="16" height="16" x="195" y="547.36"/>
  <path style="fill:#666666" d="M 204.06,547.41 C 204.06,552.43 204.06,549.97 204.09,552.87 V 553.3 H 204.56 206.84 C 208.52,553.37 208.45,549.25 206.81,549.37 206.8,549.37 206.79,549.37 206.78,549.37 H 205.06 V 547.41 Z M 205,550.26 H 206.81 206.84 206.88 C 207.24,550.23 207.31,552.43 206.88,552.41 H 206.84 205 C 204.99,551.94 205,550.41 205,550.26 Z"/>
  <path style="fill:#666666" d="M 199.06,548.31 V 549.19 H 200.81 C 200.94,549.2 201.01,549.25 201.06,549.31 201.11,549.37 201.18,549.5 201.19,549.69 201.19,549.7 201.19,549.7 201.19,549.72 V 550.4 H 199.34 199.31 C 197.7,550.29 197.63,553.36 199.28,553.3 H 201.59 202.03 V 552.86 L 202.06,549.72 C 202.06,549.35 201.96,549 201.75,548.75 201.54,548.5 201.22,548.35 200.91,548.31 H 200.87 Z M 199.25,551.27 H 199.28 199.31 201.16 L 201.12,552.43 H 199.28 199.25 C 198.78,552.45 198.85,551.23 199.25,551.27 Z"/>
  <path style="fill:#666666" d="M 203,554.36 C 198.76,554.36 195.3,557.45 195.03,561.36 H 196.03 C 196.31,558.01 199.32,555.36 203,555.36 206.68,555.36 209.69,558.01 209.97,561.36 H 210.97 C 210.7,557.45 207.24,554.36 203,554.36 Z"/>
  <path style="fill:#666666" d="M 200,558.38 H 201.71 L 206,563.36 H 204.29 Z"/>
  <path style="fill:#666666" d="M 206,558.38 H 204.27 L 199.95,563.41 H 201.68 Z"/>
 </g>
</svg>
