<svg xmlns="http://www.w3.org/2000/svg" width="16" height="16" version="1.1" viewBox="0 0 16 16">
 <g transform="translate(-194.94,-567.41)">
  <rect style="opacity:0.3;fill:none" width="16" height="16" x="194.94" y="567.41"/>
  <path style="fill:#666666" d="M 204,568.46 C 204,573.48 204,571.02 204.03,573.92 V 574.35 H 204.5 206.78 C 208.46,574.41 208.39,570.3 206.75,570.42 206.74,570.42 206.73,570.42 206.72,570.42 H 205 V 568.46 Z M 204.94,571.31 H 206.75 206.78 206.81 C 207.18,571.27 207.25,573.48 206.81,573.46 H 206.78 204.94 C 204.93,572.99 204.94,571.46 204.94,571.31 Z"/>
  <path style="fill:#666666" d="M 199,569.36 V 570.23 H 200.75 C 200.88,570.25 200.95,570.3 201,570.36 201.05,570.42 201.12,570.55 201.12,570.73 201.13,570.75 201.12,570.75 201.12,570.76 V 571.45 H 199.28 199.25 C 197.64,571.33 197.56,574.41 199.22,574.35 H 201.53 201.97 V 573.91 L 202,570.76 C 202,570.39 201.9,570.05 201.69,569.8 201.48,569.55 201.16,569.39 200.84,569.36 H 200.81 Z M 199.19,572.32 H 199.22 199.25 201.09 L 201.06,573.47 H 199.22 199.19 C 198.72,573.49 198.79,572.28 199.19,572.32 Z"/>
  <path style="fill:#666666" d="M 202.94,576.41 C 198.7,576.41 195.24,579.5 194.97,583.41 H 195.97 C 196.25,580.06 199.26,577.41 202.94,577.41 206.62,577.41 209.63,580.06 209.91,583.41 H 210.91 C 210.64,579.5 207.18,576.41 202.94,576.41 Z"/>
 </g>
</svg>
