<svg xmlns="http://www.w3.org/2000/svg" width="16" height="16" version="1.1" viewBox="0 0 16 16">
 <g transform="translate(-75,-607.36)">
  <rect style="fill:none" width="16" height="16" x="75" y="607.36"/>
  <path style="fill:#666666" d="M 82.5,607.36 C 78.358,607.36 75,610.7 75,614.8 75,618.9 78.358,622.21 82.5,622.21 83.973,622.21 85.341,621.78 86.5,621.05 L 88.469,622.99 C 88.987,623.5 89.802,623.48 90.313,622.96 L 90.563,622.71 C 91.073,622.19 91.08,621.34 90.563,620.83 L 88.656,618.99 C 89.496,617.79 90,616.37 90,614.8 90,610.7 86.642,607.36 82.5,607.36 Z M 78,610.36 H 87 V 619.36 H 78 Z M 79,611.36 V 618.36 H 86 V 611.36 Z M 80,612.36 H 85 V 617.36 H 80 Z"/>
 </g>
</svg>
