<svg xmlns="http://www.w3.org/2000/svg" width="16" height="16" version="1.1" viewBox="0 0 16 16">
 <g transform="translate(-75,-667.36)">
  <rect style="fill:none" width="16" height="16" x="75" y="667.36"/>
  <path style="fill:#666666" d="M 82.5,667.36 C 78.358,667.36 75,670.7 75,674.8 75,678.9 78.358,682.21 82.5,682.21 83.973,682.21 85.341,681.78 86.5,681.05 L 88.469,682.99 C 88.987,683.5 89.802,683.48 90.313,682.96 L 90.563,682.71 C 91.073,682.19 91.08,681.34 90.563,680.83 L 88.656,678.99 C 89.496,677.79 90,676.37 90,674.8 90,670.7 86.642,667.36 82.5,667.36 Z M 79,670.36 85,674.36 V 671.36 H 86 C 86,673.7 86,671.36 86,677.36 H 85 V 674.36 L 79,678.36 Z"/>
 </g>
</svg>
