<svg xmlns="http://www.w3.org/2000/svg" width="16" height="16" version="1.1" viewBox="0 0 16 16">
 <g transform="translate(-318,-589.36)">
  <rect style="fill:none" width="16" height="16" x="318" y="589.36"/>
  <path style="fill:#666666" d="M 325.5,589.36 C 321.36,589.36 318,592.7 318,596.8 318,600.9 321.36,604.21 325.5,604.21 326.97,604.21 328.34,603.78 329.5,603.05 L 331.47,604.99 C 331.99,605.5 332.8,605.48 333.31,604.96 L 333.56,604.71 C 334.07,604.19 334.08,603.34 333.56,602.83 L 331.66,600.99 C 332.5,599.79 333,598.37 333,596.8 333,592.7 329.64,589.36 325.5,589.36 Z M 325.5,591.36 C 328.54,591.36 331,593.82 331,596.86 331,599.9 328.54,602.36 325.5,602.36 322.46,602.36 320,599.9 320,596.86 320,593.82 322.46,591.36 325.5,591.36 Z"/>
 </g>
</svg>
