<svg xmlns="http://www.w3.org/2000/svg" width="16.068" height="16" version="1.1" viewBox="0 0 16.07 16">
 <rect style="fill:none" width="16" height="16" x="0" y="-16.07" rx=".47" ry="0" transform="rotate(90)"/>
 <rect style="fill:#666666" width="2" height="12" x="0" y="-12.07" rx="0" transform="rotate(90)"/>
 <rect style="fill:#666666" width="2" height="12" x="4.39" y="-17.28" rx="0" transform="rotate(129.69)"/>
 <path style="fill:#666666" d="m 10.04,3.79 a 0.9501,0.94932 0 0 1 1.09,-0.78 c 2.26,0 3.94,2.06 3.94,4.43 0,1.54 -0.7,2.95 -1.81,3.75 L 15.07,13 h -5 v -1.75 -0.09 a 0.9501,0.94932 0 0 1 0,-0.47 V 10 8.01 l 1.81,1.81 c 0.01,-0.01 0.03,0 0.03,0 0.73,-0.37 1.28,-1.26 1.28,-2.38 0,-1.49 -1,-2.56 -2.06,-2.56 A 0.9501,0.94932 0 0 1 10.04,3.79 Z"/>
</svg>
