<svg xmlns="http://www.w3.org/2000/svg" width="16" height="16.068" version="1.1" viewBox="0 0 16 16.07">
 <rect style="fill:none" width="16" height="16" x="0" y="-.03" rx=".47" ry="0"/>
 <rect style="fill:#666666" width="2" height="12" x="0" y="3.97" rx="0"/>
 <rect style="fill:#666666" width="2" height="12" x="14.65" y="-4.92" rx="0" transform="rotate(39.69)"/>
 <path style="fill:#666666" d="M 3.79,6.03 A 0.94932,0.9501 0 0 1 3.01,4.94 C 3.01,2.68 5.07,1 7.44,1 8.98,1 10.39,1.7 11.19,2.81 L 13,1 V 6 H 11.25 11.16 A 0.94932,0.9501 0 0 1 10.69,6 H 10 8.01 L 9.82,4.19 C 9.81,4.18 9.82,4.16 9.82,4.16 9.45,3.43 8.56,2.88 7.44,2.88 c -1.49,0 -2.56,1 -2.56,2.06 A 0.94932,0.9501 0 0 1 3.79,6.03 Z"/>
</svg>
