<svg xmlns="http://www.w3.org/2000/svg" width="16" height="16.015" version="1.1" viewBox="0 0 16 16.02">
 <rect style="fill:none" width="16" height="16" x="0" y="-16" rx=".47" ry="0" transform="rotate(90)"/>
 <rect style="fill:#666666" width="2" height="12" x="3" y="-14" rx="0" transform="rotate(90)"/>
 <path style="fill:#666666" d="m 2,7 v 2 h 8.92 l 1.56,-2 z"/>
 <path style="fill:#666666" d="m 2,11 v 2 h 6 l 1.52,-1.96 z"/>
 <path style="fill:#666666" d="m 7,15.15 c 2.72,0 2.45,-2.97 3.77,-3.79 1.53,-0.96 2.87,0.23 3.14,1.2 0.34,1.23 -0.3,2.24 -1.14,2.78 C 11.16,16.39 7.26,16.15 7,15.15 Z"/>
 <path style="fill:#666666" d="m 16,5.41 c -1.01,1.06 -2.09,2.34 -3.75,4.62 1,0.04 1.87,0.69 2.31,1.63 C 15.09,11.08 15.57,10.52 16,10 Z"/>
</svg>
