<svg xmlns="http://www.w3.org/2000/svg" width="16" height="16" version="1.1" viewBox="0 0 16 16">
 <rect style="fill:none" width="16" height="16" x="0" y="0"/>
 <path style="fill:#666666" d="m 8.02,0.94 c -2.2,0 -4,1.79 -4,3.99 0,2.2 1.8,3.99 4,3.99 2.2,0 3.99,-1.79 3.99,-3.99 0,-2.2 -1.79,-3.99 -3.99,-3.99 z m 0,1.05 c 1.62,0 2.94,1.31 2.94,2.94 0,1.63 -1.32,2.94 -2.94,2.94 C 6.39,7.87 5.08,6.56 5.08,4.93 5.08,3.3 6.39,1.99 8.02,1.99 Z"/>
 <path style="fill:#666666" d="M 4,8.01 C 1.8,8.01 0.01,9.8 0.01,12 0.01,14.2 1.8,15.99 4,15.99 6.21,15.99 8,14.2 8,12 8,9.8 6.21,8.01 4,8.01 Z m 0,1.05 c 1.63,0 2.94,1.31 2.94,2.94 0,1.63 -1.31,2.94 -2.94,2.94 C 2.38,14.94 1.06,13.63 1.06,12 1.06,10.37 2.38,9.06 4,9.06 Z"/>
 <path style="fill:#666666" d="M 12,8.01 C 9.8,8.01 8.01,9.8 8.01,12 c 0,2.2 1.79,3.99 3.99,3.99 2.2,0 3.99,-1.79 3.99,-3.99 C 15.99,9.8 14.2,8.01 12,8.01 Z m 0,1.05 c 1.63,0 2.94,1.31 2.94,2.94 0,1.63 -1.31,2.94 -2.94,2.94 -1.62,0 -2.94,-1.31 -2.94,-2.94 0,-1.63 1.32,-2.94 2.94,-2.94 z"/>
 <circle style="opacity:0.3;fill:#666666" cx="3.96" cy="11.93" r="2"/>
 <circle style="fill:#666666" cx="11.96" cy="11.93" r="2"/>
</svg>
