<svg xmlns="http://www.w3.org/2000/svg" width="16" height="16" version="1.1" viewBox="0 0 16 16">
 <rect style="fill:none" width="16" height="16" x="0" y="0"/>
 <path style="fill:#666666" d="M 8,3.2 5.53,5.01 C 5.54,5 5.5,4.99 5.25,5.04 1.25,5.82 1,6.7 1,8.04 v 5 c 0,0.55 0.45,1 1,1 0.55,0 1,-0.45 1,-1 V 6.85 l 1.28,1.88 1.06,1.56 2.78,4.16 c 0.39,0.56 1.08,0.77 1.54,0.43 l 4.96,-3.59 c 0.46,-0.33 0.51,-1.06 0.13,-1.63 L 12,5.6 v 1.44 c 0,1.1 -0.89,2 -2,2 -1.11,0 -2,-0.9 -2,-2 z"/>
 <rect style="fill:#666666" width="1.998" height="8" x="9" y="0" rx="1" ry="1"/>
</svg>
