<svg xmlns="http://www.w3.org/2000/svg" width="16" height="16" version="1.1" viewBox="0 0 16 16">
 <rect style="fill:none" width="16" height="15.956" x="0" y="0" rx=".998" ry="0"/>
 <path style="fill:#666666;fill-rule:evenodd" d="M 10.61,5.39 6.39,11.04 4.7,12.53 4,11.97 5,9.93 9.22,4.27 Z"/>
 <path style="fill:#666666;fill-rule:evenodd" d="m 4,12.54 c 0,0 -1.48,0.67 -1.47,2.07 0.02,1.76 2.66,1.85 2.75,0.29 C 5.33,14.01 4,12.54 4,12.54 Z"/>
 <path style="fill:#666666;fill-rule:evenodd" d="M 6.65,4.42 11.3,7.94 12,7.01 10.61,5.96 C 13.41,5.17 15.33,1.8 13.47,0.39 11.61,-1.01 8.76,1.65 8.75,4.55 L 7.35,3.49 Z"/>
</svg>
