<svg xmlns="http://www.w3.org/2000/svg" width="16" height="16" version="1.1" viewBox="0 0 16 16">
 <rect style="fill:none" width="16" height="16" x="0" y="0" rx="0"/>
 <rect style="fill:#666666" width="14" height="1" x="1" y="14"/>
 <rect style="fill:#666666" width="1" height="14" x="14" y="1"/>
 <path style="fill:#666666" d="M 13.69,1 C 11.59,1.05 9.48,1.6 7.53,2.72 L 7.5,2.75 C 3.03,5.33 0.7,10.17 1.06,15 h 1 C 1.69,10.52 3.85,6.02 8,3.62 L 8.03,3.59 C 9.83,2.56 11.78,2.04 13.72,2 14.15,1.99 14.57,2 15,2.03 v -1 C 14.57,1 14.12,0.99 13.69,1 Z"/>
 <rect style="fill:#666666" width="4" height="4" x="3" y="3"/>
</svg>
