<svg xmlns="http://www.w3.org/2000/svg" width="16" height="16" version="1.1" viewBox="0 0 16 16">
 <rect style="fill:none" width="16" height="16" x="0" y="0"/>
 <rect style="fill:#666666" width="1" height="2" x="-6" y="-3" rx="2" ry="0" transform="scale(-1)"/>
 <rect style="fill:#666666" width="1" height="2" x="-8" y="-3" rx="2" ry="0" transform="scale(-1)"/>
 <rect style="fill:#666666" width="1" height="2" x="-10" y="-3" rx="2" ry="0" transform="scale(-1)"/>
 <rect style="fill:#666666" width="1" height="2" x="-12" y="-3" rx="2" ry="0" transform="scale(-1)"/>
 <rect style="fill:#666666" width="1" height="2" x="-6" y="-16" rx="2" ry="0" transform="scale(-1)"/>
 <rect style="fill:#666666" width="1" height="2" x="-8" y="-16" rx="2" ry="0" transform="scale(-1)"/>
 <rect style="fill:#666666" width="1" height="2" x="-10" y="-16" rx="2" ry="0" transform="scale(-1)"/>
 <rect style="fill:#666666" width="1" height="2" x="-12" y="-16" rx="2" ry="0" transform="scale(-1)"/>
 <rect style="fill:#666666" width="2" height="1" x="1" y="5" rx="2" ry="0"/>
 <rect style="fill:#666666" width="2" height="1" x="1" y="7" rx="2" ry="0"/>
 <rect style="fill:#666666" width="2" height="1" x="1" y="9" rx="2" ry="0"/>
 <rect style="fill:#666666" width="2" height="1" x="1" y="11" rx="2" ry="0"/>
 <rect style="fill:#666666" width="2" height="1" x="14" y="5" rx="2" ry="0"/>
 <rect style="fill:#666666" width="2" height="1" x="14" y="7" rx="2" ry="0"/>
 <rect style="fill:#666666" width="2" height="1" x="14" y="9" rx="2" ry="0"/>
 <rect style="fill:#666666" width="2" height="1" x="14" y="11" rx="2" ry="0"/>
 <path style="fill:#666666" d="m 4,4 v 9 h 9 V 4 Z m 1,1 h 7 v 7 H 5 Z"/>
</svg>
