<svg xmlns="http://www.w3.org/2000/svg" width="16" height="16" version="1.1" viewBox="0 0 16 16">
 <rect style="fill:none" width="16" height="16" x="0" y="0"/>
 <path style="fill:#666666" d="M 8,1 C 7.78,1 7.56,1.01 7.34,1.03 l -0.4,2.1 C 6.6,3.2 6.27,3.3 5.97,3.44 L 4.44,1.97 C 4.05,2.2 3.71,2.48 3.37,2.78 L 4.28,4.69 C 4.06,4.94 3.86,5.21 3.69,5.5 L 1.59,5.22 C 1.42,5.63 1.28,6.06 1.19,6.5 l 1.84,1 C 3.01,7.67 3,7.83 3,8 H 5 C 5,6.34 6.34,5 8,5 c 1.66,0 3,1.34 3,3 h 2 C 13,7.83 12.99,7.67 12.97,7.5 l 1.84,-1 C 14.71,6.06 14.58,5.63 14.41,5.22 L 12.31,5.5 C 12.14,5.21 11.94,4.94 11.72,4.69 l 0.9,-1.91 C 12.29,2.48 11.95,2.2 11.56,1.97 L 10.03,3.44 C 9.73,3.3 9.4,3.2 9.06,3.13 L 8.66,1.03 C 8.44,1.01 8.22,1 8,1 Z"/>
 <path style="fill:#666666" d="m 1,9 v 7 H 15 V 9 Z m 3,1 h 1 v 5 H 4 v -4 l -1,1 v -1 z m 3.5,0 C 8.33,10 9,10.67 9,11.5 v 2 C 9,14.33 8.33,15 7.5,15 6.67,15 6,14.33 6,13.5 v -2 C 6,10.67 6.67,10 7.5,10 Z m 4.5,0 2,2 H 10 Z M 7.5,11 C 7.22,11 7,11.22 7,11.5 v 2 C 7,13.78 7.22,14 7.5,14 7.78,14 8,13.78 8,13.5 v -2 C 8,11.22 7.78,11 7.5,11 Z m 2.5,2 h 4 l -2,2 z"/>
</svg>
