<svg xmlns="http://www.w3.org/2000/svg" width="16" height="16" version="1.1" viewBox="0 0 16 16">
 <rect style="fill:none" width="16" height="16" x="0" y="0"/>
 <path style="fill:#666666" d="M 8.5,0 C 4.91,0 2,2.91 2,6.5 2,6.67 2.02,6.83 2.03,7 H 0 L 3,10 6,7 H 4.06 C 4.04,6.83 4,6.67 4,6.5 4,4.01 6.01,2 8.5,2 8.67,2 8.83,2.04 9,2.06 9.17,2.04 9.33,2 9.5,2 11.99,2 14,4.01 14,6.5 14,6.67 13.96,6.83 13.94,7 13.96,7.17 14,7.33 14,7.5 14,9.99 11.99,12 9.5,12 9.33,12 9.17,11.96 9,11.94 v 2.03 C 9.17,13.98 9.33,14 9.5,14 13.09,14 16,11.09 16,7.5 16,7.33 15.98,7.17 15.97,7 15.98,6.83 16,6.67 16,6.5 16,2.91 13.09,0 9.5,0 9.33,0 9.17,0.02 9,0.03 8.83,0.02 8.67,0 8.5,0 Z"/>
 <circle style="fill:#666666" cx="8.99" cy="7" r="2"/>
 <rect style="fill:#666666" width="6" height="5" x="0" y="11"/>
</svg>
