<svg xmlns="http://www.w3.org/2000/svg" width="16" height="16" version="1.1" viewBox="0 0 16 16">
 <path style="fill:#666666" d="M 1.47,2.71 C 1.36,3.06 1.25,3.44 1.25,3.8 1.25,5.54 2.66,6.68 4.41,6.36 4.78,6.3 5.13,6.15 5.46,5.97 c 0.02,-0.01 1.13,0.87 1.42,1.1 0.05,0.03 0.2,0.16 0.2,0.16 0.34,0.27 2.75,2.2 2.74,2.23 -0.1,0.35 -0.18,0.72 -0.17,1.08 0.04,1.75 1.46,2.87 3.2,2.51 0.36,-0.07 0.72,-0.25 1.04,-0.43 l -1.74,-1.35 c -0.36,-0.28 -0.32,-0.82 0.02,-1.25 L 12.8,9.26 c 0.35,-0.42 0.83,-0.6 1.19,-0.32 l 1.77,1.37 C 15.86,9.96 15.94,9.59 15.93,9.23 15.89,7.48 14.45,6.38 12.71,6.74 12.35,6.82 12.01,6.93 11.69,7.11 L 11.1,6.64 8,4.17 7.42,3.7 C 7.53,3.36 7.57,3 7.57,2.64 7.58,0.9 6.18,-0.27 4.43,0.06 4.07,0.12 3.71,0.27 3.39,0.45 L 5.11,1.86 C 5.47,2.15 5.39,2.65 5.04,3.07 L 4.41,3.83 C 4.06,4.25 3.53,4.4 3.17,4.11 Z"/>
 <rect style="fill:none" width="16" height="16" x="0" y="0"/>
 <path style="fill:#666666" d="m 0,9 v 7 H 7 V 9 Z"/>
</svg>
