<svg xmlns="http://www.w3.org/2000/svg" width="16" height="16" version="1.1" viewBox="0 0 16 16">
 <rect style="fill:none" width="16" height="16" x="0" y="0"/>
 <rect style="fill:#666666" width="1" height="1" x="3" y="9"/>
 <rect style="fill:#666666" width="1" height="1" x="2" y="10"/>
 <rect style="fill:#666666" width="1" height="1" x="3" y="11"/>
 <rect style="fill:#666666" width="1" height="1" x="2" y="12"/>
 <rect style="fill:#666666" width="1" height="1" x="3" y="13"/>
 <rect style="fill:#666666" width="1" height="1" x="2" y="14"/>
 <rect style="fill:#666666" width="1" height="1" x="4" y="14"/>
 <rect style="fill:#666666" width="1" height="1" x="6" y="14"/>
 <rect style="fill:#666666" width="1" height="1" x="8" y="14"/>
 <rect style="fill:#666666" width="1" height="1" x="10" y="14"/>
 <rect style="fill:#666666" width="1" height="1" x="3" y="15"/>
 <rect style="fill:#666666" width="1" height="1" x="5" y="15"/>
 <rect style="fill:#666666" width="1" height="1" x="7" y="15"/>
 <rect style="fill:#666666" width="1" height="1" x="9" y="15"/>
 <rect style="fill:#666666" width="1" height="1" x="11" y="15"/>
 <rect style="fill:#666666" width="1" height="1" x="12" y="14"/>
 <path style="fill:#666666" d="M 2.813,1 C 2.354,1.09 1.992,1.53 2,2 v 8 H 4 V 3 h 5 v 3 h 3 v 8 h 2 V 5.56 C 14.006,5.3 13.903,5.03 13.719,4.84 L 10.156,1.28 C 9.967,1.1 9.702,0.99 9.438,1 H 3 C 2.969,1 2.938,1 2.906,1 2.875,1 2.844,1 2.813,1 Z"/>
</svg>
