<svg xmlns="http://www.w3.org/2000/svg" width="16" height="16" version="1.1" viewBox="0 0 16 16">
 <rect style="fill:none" width="15.976" height="16" x="0" y="0"/>
 <path style="fill:#666666" d="M 2.021,2 H 14.003 V 4 H 2.021 Z"/>
 <rect style="fill:#666666" width=".999" height="16" x=".02" y="0"/>
 <rect style="fill:#666666" width="15.976" height="1" x=".02" y="0"/>
 <rect style="fill:#666666" width=".999" height="16" x="15" y="0"/>
 <rect style="fill:#666666" width="15.976" height="1" x=".02" y="15"/>
 <path style="fill:#666666" d="m 8.003,6 c -3.314,0 -4,2 -6,3.5 2,1.5 2.686,3.5 6,3.5 3.314,0 4,-2 6,-3.5 -2,-1.5 -2.686,-3.5 -6,-3.5 z m 0,1 c 1.657,0 3,1.12 3,2.5 0,1.38 -1.343,2.5 -3,2.5 -1.657,0 -3,-1.12 -3,-2.5 0,-1.38 1.343,-2.5 3,-2.5 z"/>
 <ellipse style="fill:#666666" cx="8.038" cy="9.5" rx="1.219" ry="1.5"/>
</svg>
