<svg xmlns="http://www.w3.org/2000/svg" width="16" height="16" version="1.1" viewBox="0 0 16 16">
 <rect style="fill:none" width="16" height="16" x="0" y="0"/>
 <rect style="fill:#666666" width="1" height="16" x="0" y="0" rx=".75" ry="0"/>
 <rect style="fill:#666666" width="1" height="16" x="15" y="0" rx=".75" ry="0"/>
 <rect style="fill:#666666" width="16" height="1" x="0" y="0" rx="0" ry="1"/>
 <rect style="fill:#666666" width="16" height="1" x="0" y="15" rx="0"/>
 <rect style="fill:#666666" width="12" height="1" x="2" y="2" rx="0" ry=".6"/>
 <rect style="display:block;fill:#666666" width="10" height="1.044" x="3" y="11.06" rx=".623" ry=".5"/>
 <path style="display:block;fill:#666666" d="M 12,8 10,7 9,8 h 1 l 1,1 v 3 1 L 10.93,15.11 12,13 12.06,11.51 Z"/>
 <path style="display:block;fill:#666666" d="M 4.06,8 6.01,6.95 7,8 H 6.06 L 5.06,9 5,12 v 2 1 L 4,13 v -1.49 z"/>
 <rect style="fill:#666666" width="2" height="3" x="7" y="10" rx="1" ry="1"/>
 <path style="fill:#666666" d="M 8.06,4.75 C 6.78,4.75 5.75,5.76 5.75,7 c 0,1.25 1.03,2.25 2.31,2.25 1.28,0 2.31,-1 2.31,-2.25 0,-1.24 -1.03,-2.25 -2.31,-2.25 z M 8,6 C 8.55,6 9,6.45 9,7 9,7.55 8.55,8 8,8 7.45,8 7,7.55 7,7 7,6.45 7.45,6 8,6 Z"/>
 <rect style="fill:#666666" width="2" height="2" x="7" y="4" rx="1" ry="1"/>
</svg>
