<svg xmlns="http://www.w3.org/2000/svg" width="16" height="16" version="1.1" viewBox="0 0 16 16">
 <rect style="opacity:0" width="16" height="16" x="0" y="0" ry="0"/>
 <path style="fill:#666666" d="m 12.026,0 c 0,0 -1.823,3.79 -2.95,6 L 8.599,7 V 8 L 8,9 H 9 L 9.767,8 10.566,7.58 10.689,7 14.016,0 Z"/>
 <path style="fill:#666666" d="M 1.227,8.03 C 0.561,8.03 0.003,8.31 0,9 0.013,9.54 0.006,10.45 0,11 L 2.016,10.99 V 8.03 H 1.225 Z m 1.784,0 v 2.96 L 5,11 C 5.01,10.45 4.995,9.54 5,9 5.001,8.31 4.517,8.05 3.851,8.04 H 3.011 Z M 0.026,11.98 C 0.017,12.58 0,12.81 0,13.36 -0.006,14.82 1.109,16 2.501,16 3.894,16.01 5.02,14.84 5.027,13.39 5.002,12.78 4.994,12.55 5,11.98 Z"/>
 <path style="fill:#666666" d="M 3,3 2,7 H 3.406 C 3.542,7 3.39,7 4.469,7 L 5,5 H 8 L 9,3 Z m 11,0 -1,2 0.609,6 H 6 v 2 H 16 L 15,3 Z"/>
</svg>
