<svg xmlns="http://www.w3.org/2000/svg" width="16" height="16" version="1.1" viewBox="0 0 16 16">
 <rect style="fill:none" width="16" height="15.978" x="0" y="0"/>
 <path style="fill:#666666" d="m 1,15.13 c 2.72,0 2.45,-2.97 3.77,-3.79 1.53,-0.96 2.87,0.23 3.14,1.2 0.34,1.23 -0.3,2.24 -1.14,2.78 C 5.16,16.37 1.26,16.13 1,15.13 Z"/>
 <path style="fill:#666666" d="m 15.42,1.34 c 0.3,-0.67 -0.17,-0.92 -0.74,-0.36 -4,3.97 -4.68,4 -8.42,9.15 1,0.04 1.86,0.69 2.31,1.62 C 13,6.98 13.5,4.42 15.42,1.34 Z"/>
 <rect style="fill:#666666" width="12" height="1" x="0" y="0"/>
 <rect style="fill:#666666" width="1" height="13" x="0" y="0"/>
</svg>
