<svg xmlns="http://www.w3.org/2000/svg" width="16" height="16" version="1.1" viewBox="0 0 16 16">
 <rect style="fill:none" width="15.95" height="16" x="0" y="0"/>
 <path style="fill:#666666" d="m 9.704,2.82 c 0,0 -0.013,0.55 -0.303,1.09 C 9.112,4.46 8.601,5 7.285,5 6.172,5 3.988,5 3.415,5.14 2.779,5.29 2.18,5.58 1.723,6.09 1.264,6.61 0.997,7.35 0.997,8.27 c 0,0.71 0.129,1.28 0.393,1.71 0.263,0.43 0.653,0.71 1.027,0.85 C 3.167,11.12 3.949,11 4.382,11 V 9.91 C 3.85,9.91 3.18,9.98 2.721,9.81 2.49,9.72 2.336,9.58 2.206,9.37 2.077,9.15 1.964,8.82 1.964,8.27 1.964,7.57 2.146,7.15 2.417,6.84 2.69,6.54 3.099,6.35 3.627,6.23 3.988,6 6.104,6.09 7.285,6.09 8.87,6.09 9.811,5.28 10.247,4.46 10.684,3.64 10.671,2.82 10.671,2.82 Z"/>
 <ellipse style="fill:#666666;fill-rule:evenodd" cx="4.983" cy="15" rx=".997" ry="1"/>
 <path style="fill:#666666;fill-rule:evenodd" d="M 3.988,10 C 7.975,8 13.957,9 13.957,9 v 6 c 0,0 0.019,-0.02 -10.966,0 -1.994,0 -0.997,-4 0.997,-5 z"/>
 <ellipse style="fill:#666666;fill-rule:evenodd" cx="13.571" cy="13.53" rx="2.427" ry="2.478"/>
 <rect style="fill:#666666;fill-rule:evenodd" width="7.826" height="2.034" x="6.27" y="1.04"/>
</svg>
