<svg xmlns="http://www.w3.org/2000/svg" width="16" height="16" version="1.1" viewBox="0 0 16 16">
 <rect style="fill:none" width="16" height="16" x="0" y="0"/>
 <rect style="fill:none" width="15.999" height="14.967" x="0" y="1.03"/>
 <path style="fill:#666666" d="m 0.956,13.76 c 0.112,0 0.213,0.02 0.303,0.05 0.09,0.04 0.167,0.09 0.229,0.16 0.064,0.07 0.112,0.15 0.145,0.25 0.034,0.1 0.052,0.21 0.052,0.33 0,0.12 -0.018,0.22 -0.052,0.32 -0.033,0.1 -0.081,0.18 -0.145,0.25 -0.062,0.07 -0.139,0.12 -0.229,0.16 -0.09,0.03 -0.191,0.05 -0.303,0.05 -0.111,0 -0.213,-0.02 -0.303,-0.05 C 0.563,15.24 0.487,15.19 0.423,15.12 0.36,15.05 0.311,14.97 0.277,14.87 0.242,14.77 0.225,14.67 0.225,14.55 c 0,-0.12 0.017,-0.23 0.052,-0.33 0.034,-0.1 0.083,-0.18 0.146,-0.25 0.064,-0.07 0.14,-0.12 0.23,-0.16 0.09,-0.03 0.192,-0.05 0.303,-0.05 m 0,1.36 c 0.152,0 0.264,-0.05 0.339,-0.15 0.074,-0.1 0.112,-0.24 0.112,-0.42 0,-0.19 -0.038,-0.33 -0.112,-0.43 -0.075,-0.1 -0.187,-0.15 -0.339,-0.15 -0.076,0 -0.143,0.01 -0.199,0.04 -0.056,0.02 -0.104,0.06 -0.142,0.11 -0.037,0.05 -0.065,0.11 -0.085,0.18 -0.018,0.07 -0.027,0.16 -0.027,0.25 0,0.09 0.009,0.17 0.027,0.24 0.02,0.07 0.048,0.13 0.085,0.18 0.038,0.05 0.086,0.09 0.142,0.11 0.056,0.03 0.123,0.04 0.199,0.04"/>
 <path style="fill:#666666" d="m 2.075,15.83 v -2.05 h 0.16 c 0.038,0 0.062,0.02 0.072,0.06 l 0.023,0.18 c 0.065,-0.08 0.14,-0.15 0.223,-0.19 0.085,-0.05 0.183,-0.08 0.292,-0.08 0.088,0 0.167,0.02 0.239,0.05 0.071,0.04 0.132,0.09 0.183,0.15 0.05,0.07 0.089,0.15 0.116,0.25 0.027,0.1 0.041,0.21 0.041,0.34 0,0.11 -0.015,0.21 -0.045,0.31 -0.031,0.1 -0.074,0.18 -0.13,0.25 C 3.192,15.17 3.123,15.23 3.04,15.27 2.959,15.31 2.866,15.33 2.763,15.33 2.669,15.33 2.588,15.32 2.52,15.29 2.454,15.25 2.395,15.21 2.344,15.15 v 0.68 H 2.075 m 0.681,-1.86 c -0.088,0 -0.164,0.02 -0.231,0.06 -0.066,0.04 -0.126,0.1 -0.181,0.17 v 0.74 c 0.049,0.07 0.103,0.12 0.161,0.14 0.06,0.03 0.126,0.04 0.198,0.04 0.142,0 0.251,-0.05 0.328,-0.15 0.077,-0.1 0.115,-0.25 0.115,-0.43 0,-0.1 -0.009,-0.19 -0.027,-0.26 C 3.101,14.21 3.076,14.15 3.043,14.1 3.01,14.06 2.969,14.02 2.921,14 2.872,13.98 2.818,13.97 2.756,13.97"/>
 <path style="fill:#666666" d="m 4.412,13.76 c 0.092,0 0.176,0.01 0.254,0.04 0.078,0.03 0.144,0.08 0.201,0.14 0.056,0.05 0.1,0.13 0.131,0.21 0.033,0.09 0.049,0.18 0.049,0.29 0,0.04 -0.005,0.07 -0.014,0.09 -0.009,0.01 -0.026,0.02 -0.051,0.02 H 3.963 c 0.002,0.09 0.016,0.18 0.04,0.25 0.024,0.07 0.057,0.13 0.1,0.18 0.042,0.05 0.092,0.08 0.15,0.11 0.059,0.02 0.124,0.03 0.197,0.03 0.068,0 0.125,-0.01 0.173,-0.02 C 4.673,15.08 4.715,15.07 4.75,15.05 4.786,15.03 4.815,15.01 4.838,15 4.862,14.98 4.883,14.97 4.9,14.97 c 0.022,0 0.039,0.01 0.052,0.03 l 0.075,0.1 C 4.994,15.14 4.954,15.17 4.908,15.2 4.861,15.23 4.811,15.26 4.758,15.28 4.706,15.29 4.651,15.31 4.595,15.32 4.539,15.33 4.483,15.33 4.427,15.33 4.322,15.33 4.224,15.31 4.134,15.28 4.045,15.24 3.969,15.19 3.903,15.12 3.838,15.05 3.788,14.97 3.752,14.87 3.716,14.76 3.698,14.65 3.698,14.51 c 0,-0.1 0.016,-0.2 0.048,-0.29 0.033,-0.1 0.081,-0.18 0.142,-0.24 0.061,-0.07 0.136,-0.13 0.225,-0.16 0.089,-0.04 0.188,-0.06 0.299,-0.06 m 0.006,0.19 c -0.129,0 -0.232,0.04 -0.307,0.12 -0.074,0.07 -0.12,0.18 -0.138,0.31 H 4.805 C 4.805,14.32 4.796,14.26 4.779,14.21 4.762,14.16 4.737,14.11 4.704,14.07 4.67,14.04 4.63,14.01 4.582,13.99 4.534,13.97 4.479,13.95 4.418,13.95"/>
 <path style="fill:#666666" d="m 5.455,15.31 v -1.53 h 0.161 c 0.038,0 0.062,0.02 0.072,0.06 L 5.709,14 c 0.067,-0.07 0.141,-0.13 0.222,-0.18 0.083,-0.04 0.178,-0.06 0.286,-0.06 0.083,0 0.157,0.01 0.221,0.04 0.064,0.03 0.117,0.07 0.16,0.12 0.043,0.05 0.075,0.11 0.098,0.18 0.022,0.07 0.033,0.15 0.033,0.24 v 0.97 H 6.46 V 14.34 C 6.46,14.22 6.433,14.13 6.38,14.07 6.328,14 6.247,13.97 6.138,13.97 c -0.079,0 -0.154,0.02 -0.223,0.06 -0.069,0.04 -0.132,0.09 -0.191,0.15 v 1.13 H 5.455"/>
 <path style="fill:#666666" d="m 8.237,14.05 c -0.008,0.01 -0.016,0.02 -0.024,0.03 -0.008,0 -0.02,0.01 -0.035,0.01 -0.015,0 -0.032,-0.01 -0.05,-0.02 C 8.111,14.06 8.089,14.04 8.062,14.03 8.034,14.01 8.001,14 7.962,13.99 7.924,13.97 7.876,13.97 7.82,13.97 c -0.075,0 -0.14,0.01 -0.198,0.04 -0.057,0.02 -0.106,0.06 -0.145,0.11 -0.038,0.05 -0.067,0.11 -0.087,0.18 -0.019,0.08 -0.029,0.16 -0.029,0.25 0,0.09 0.01,0.17 0.031,0.24 0.021,0.07 0.051,0.13 0.09,0.18 0.038,0.05 0.084,0.09 0.138,0.12 0.056,0.02 0.118,0.03 0.187,0.03 0.065,0 0.119,0 0.161,-0.02 0.043,-0.01 0.078,-0.03 0.106,-0.05 0.028,-0.02 0.051,-0.04 0.069,-0.05 0.018,-0.02 0.037,-0.03 0.055,-0.03 0.023,0 0.04,0.01 0.051,0.03 l 0.076,0.1 C 8.258,15.18 8.175,15.24 8.076,15.28 7.976,15.31 7.87,15.33 7.76,15.33 7.664,15.33 7.575,15.31 7.492,15.28 7.411,15.24 7.34,15.19 7.279,15.13 7.219,15.06 7.171,14.98 7.136,14.88 7.101,14.78 7.084,14.67 7.084,14.55 c 0,-0.12 0.016,-0.22 0.047,-0.32 0.033,-0.1 0.079,-0.18 0.139,-0.25 0.061,-0.07 0.137,-0.13 0.227,-0.16 0.089,-0.04 0.192,-0.06 0.308,-0.06 0.107,0 0.201,0.01 0.284,0.05 0.083,0.03 0.155,0.08 0.219,0.15 l -0.071,0.09"/>
 <path style="fill:#666666" d="m 8.964,13.09 v 2.22 H 8.695 v -2.22 h 0.269"/>
 <path style="fill:#666666" d="m 9.799,13.78 v 1.53 H 9.53 v -1.53 h 0.269 m 0.06,-0.48 c 0,0.03 -0.005,0.05 -0.016,0.07 -0.01,0.03 -0.024,0.05 -0.043,0.06 -0.017,0.02 -0.037,0.04 -0.06,0.05 -0.023,0.01 -0.047,0.01 -0.074,0.01 -0.026,0 -0.051,0 -0.074,-0.01 C 9.57,13.47 9.55,13.45 9.532,13.43 9.515,13.42 9.501,13.4 9.491,13.37 9.481,13.35 9.476,13.33 9.476,13.3 c 0,-0.03 0.005,-0.05 0.015,-0.07 0.01,-0.03 0.024,-0.05 0.041,-0.07 0.018,-0.01 0.038,-0.03 0.06,-0.04 0.023,-0.01 0.048,-0.01 0.074,-0.01 0.027,0 0.051,0 0.074,0.01 0.023,0.01 0.043,0.03 0.06,0.04 0.019,0.02 0.033,0.04 0.043,0.07 0.011,0.02 0.016,0.04 0.016,0.07"/>
 <path style="fill:#666666" d="m 10.335,15.83 v -2.05 h 0.16 c 0.038,0 0.062,0.02 0.072,0.06 l 0.023,0.18 c 0.066,-0.08 0.14,-0.15 0.224,-0.19 0.084,-0.05 0.181,-0.08 0.291,-0.08 0.088,0 0.167,0.02 0.239,0.05 0.071,0.04 0.132,0.09 0.183,0.15 0.05,0.07 0.089,0.15 0.116,0.25 0.027,0.1 0.041,0.21 0.041,0.34 0,0.11 -0.015,0.21 -0.046,0.31 -0.03,0.1 -0.073,0.18 -0.129,0.25 -0.057,0.07 -0.126,0.13 -0.209,0.17 -0.081,0.04 -0.174,0.06 -0.276,0.06 -0.095,0 -0.176,-0.01 -0.243,-0.04 -0.067,-0.04 -0.126,-0.08 -0.177,-0.14 v 0.68 h -0.269 m 0.681,-1.86 c -0.087,0 -0.165,0.02 -0.231,0.06 -0.065,0.04 -0.126,0.1 -0.181,0.17 v 0.74 c 0.049,0.07 0.103,0.12 0.161,0.14 0.06,0.03 0.125,0.04 0.198,0.04 0.142,0 0.252,-0.05 0.328,-0.15 0.076,-0.1 0.115,-0.25 0.115,-0.43 0,-0.1 -0.009,-0.19 -0.027,-0.26 C 11.362,14.21 11.336,14.15 11.303,14.1 11.27,14.06 11.229,14.02 11.181,14 11.133,13.98 11.077,13.97 11.016,13.97"/>
 <path style="fill:#666666" d="m 13.19,15.31 h -0.119 c -0.026,0 -0.047,0 -0.063,-0.01 -0.016,-0.01 -0.027,-0.03 -0.032,-0.05 l -0.03,-0.14 c -0.041,0.03 -0.08,0.06 -0.118,0.09 -0.038,0.03 -0.079,0.06 -0.121,0.08 -0.042,0.02 -0.088,0.03 -0.136,0.04 -0.047,0.01 -0.1,0.02 -0.159,0.02 -0.059,0 -0.115,-0.01 -0.167,-0.03 -0.051,-0.02 -0.096,-0.04 -0.134,-0.07 -0.039,-0.04 -0.07,-0.08 -0.093,-0.13 -0.022,-0.05 -0.033,-0.11 -0.033,-0.18 0,-0.06 0.017,-0.12 0.05,-0.17 0.033,-0.06 0.086,-0.11 0.16,-0.15 0.074,-0.05 0.172,-0.08 0.291,-0.11 0.12,-0.03 0.267,-0.04 0.44,-0.05 v -0.12 c 0,-0.12 -0.026,-0.21 -0.077,-0.27 -0.051,-0.06 -0.125,-0.09 -0.225,-0.09 -0.066,0 -0.121,0.01 -0.166,0.03 -0.045,0.01 -0.083,0.03 -0.117,0.05 -0.032,0.02 -0.06,0.04 -0.084,0.06 -0.023,0.01 -0.046,0.02 -0.07,0.02 -0.018,0 -0.034,0 -0.048,-0.01 -0.013,-0.01 -0.024,-0.02 -0.032,-0.04 L 12.059,14 c 0.085,-0.08 0.176,-0.15 0.273,-0.19 0.098,-0.04 0.206,-0.06 0.325,-0.06 0.086,0 0.162,0.02 0.228,0.05 0.067,0.02 0.123,0.06 0.168,0.11 0.045,0.05 0.079,0.12 0.103,0.19 0.023,0.07 0.034,0.15 0.034,0.23 v 0.98 m -0.698,-0.16 c 0.048,0 0.091,-0.01 0.13,-0.02 0.04,-0.01 0.076,-0.02 0.111,-0.04 0.035,-0.02 0.068,-0.04 0.1,-0.06 0.032,-0.03 0.063,-0.06 0.093,-0.09 v -0.32 c -0.124,0.01 -0.229,0.02 -0.316,0.03 -0.086,0.02 -0.157,0.04 -0.211,0.06 -0.055,0.03 -0.094,0.06 -0.12,0.09 -0.023,0.04 -0.036,0.07 -0.036,0.12 0,0.04 0.007,0.07 0.02,0.1 0.013,0.03 0.031,0.05 0.053,0.07 0.022,0.02 0.048,0.04 0.078,0.04 0.03,0.01 0.063,0.02 0.098,0.02"/>
 <path style="fill:#666666" d="m 13.662,15.31 v -1.53 h 0.155 c 0.029,0 0.049,0.01 0.06,0.02 0.011,0.01 0.019,0.03 0.023,0.05 l 0.018,0.24 c 0.052,-0.1 0.117,-0.19 0.193,-0.25 0.078,-0.06 0.168,-0.09 0.272,-0.09 0.042,0 0.08,0.01 0.115,0.02 0.034,0.01 0.066,0.02 0.095,0.04 l -0.035,0.2 c -0.007,0.02 -0.022,0.04 -0.047,0.04 -0.014,0 -0.035,-0.01 -0.065,-0.02 -0.029,-0.01 -0.069,-0.01 -0.122,-0.01 -0.093,0 -0.172,0.03 -0.235,0.08 -0.063,0.05 -0.115,0.13 -0.158,0.24 v 0.97 h -0.269"/>
 <path style="fill:#666666" d="m 15.404,15.34 c -0.121,0 -0.214,-0.04 -0.28,-0.11 -0.064,-0.06 -0.096,-0.16 -0.096,-0.29 v -0.93 h -0.185 c -0.016,0 -0.03,-0.01 -0.041,-0.02 -0.011,-0.01 -0.017,-0.02 -0.017,-0.04 v -0.11 l 0.251,-0.03 0.062,-0.47 c 0.002,-0.02 0.009,-0.03 0.02,-0.04 0.011,-0.01 0.025,-0.02 0.042,-0.02 h 0.136 v 0.53 h 0.439 v 0.2 h -0.439 v 0.91 c 0,0.07 0.016,0.12 0.047,0.15 0.031,0.03 0.072,0.04 0.121,0.04 0.028,0 0.052,0 0.072,-0.01 0.022,0 0.04,-0.01 0.055,-0.02 0.015,-0.01 0.027,-0.02 0.038,-0.03 0.011,0 0.02,-0.01 0.028,-0.01 0.015,0 0.027,0.01 0.038,0.03 l 0.079,0.13 c -0.047,0.04 -0.102,0.07 -0.168,0.1 -0.065,0.02 -0.133,0.04 -0.202,0.04"/>
 <path style="fill:#666666" d="M 2.373,1.2 C 1.524,1.19 0.652,1.56 0.397,2.26 0.018,3.1 0.627,4.08 1.666,4.38 c 0.003,0 0.008,0 0.011,0 1.133,0.41 2.544,0.61 3.772,1.88 L 5.909,6.74 5.494,7.16 C 4.262,8.43 2.856,8.63 1.722,9.03 c -0.003,0 -0.008,0 -0.011,0 -1.037,0.3 -1.638,1.28 -1.269,2.12 0.001,0 -0.001,0 0,0.01 0.315,0.85 1.554,1.22 2.549,1 0.003,-0.01 0.007,0 0.011,0 C 4.021,11.98 4.855,11.15 4.618,10.31 4.502,9.9 4.353,9.71 4.214,9.59 4.145,9.53 4.085,9.5 4.046,9.46 4.007,9.43 3.843,9.34 3.843,9.34 3.944,9.27 4.004,9.23 4.09,9.18 4.221,9.09 4.448,8.99 4.742,8.86 5.324,8.61 6.181,8.26 7.166,7.69 c 1.782,1.02 4.098,2.33 5.378,3.05 1.279,0.73 2.589,0.36 3.132,0.03 L 8.813,6.74 15.715,2.67 C 14.646,2.01 13.425,2.29 12.611,2.69 10.803,3.72 8.989,4.74 7.178,5.76 6.352,5.31 5.465,4.89 4.697,4.56 4.403,4.43 4.176,4.33 4.046,4.25 3.98,4.2 3.816,4.11 3.816,4.11 3.966,4.02 4.126,3.86 4.242,3.74 4.358,3.61 4.495,3.43 4.573,3.11 4.781,2.27 3.975,1.44 2.957,1.26 2.76,1.22 2.547,1.21 2.373,1.2 Z M 2.261,1.91 C 2.64,1.89 3.031,1.99 3.282,2.19 3.659,2.5 3.731,2.91 3.586,3.26 3.44,3.6 3.091,3.85 2.598,3.85 H 2.586 C 2.134,3.87 1.693,3.66 1.43,3.36 1.167,3.05 1.093,2.67 1.351,2.34 V 2.33 C 1.53,2.06 1.882,1.92 2.261,1.91 Z m 0.292,7.65 c 0.033,0 0.068,0 0.09,0 0.493,0 0.842,0.26 0.987,0.6 0.145,0.34 0.075,0.76 -0.303,1.06 -0.251,0.2 -0.653,0.31 -1.033,0.3 C 1.915,11.5 1.574,11.36 1.396,11.08 H 1.385 C 1.135,10.76 1.208,10.4 1.452,10.09 1.697,9.79 2.117,9.57 2.553,9.56 Z"/>
</svg>
