<svg xmlns="http://www.w3.org/2000/svg" width="16" height="16" version="1.1" viewBox="0 0 16 16">
 <rect style="fill:none" width="16" height="15.999" x="0" y="0"/>
 <path style="fill:#666666" d="M 0.813,0 C 0.354,0.09 -0.008,0.53 0,1 v 1 11 1 c 0,0.52 0.476,1 1,1 h 10 c 0.524,0 1,-0.48 1,-1 v -3 h -2 v 2 H 2 V 2 h 5 v 3 h 3 v 2 h 2 V 4.56 C 12.006,4.3 11.902,4.03 11.719,3.84 L 8.156,0.28 C 7.966,0.1 7.702,-0.01 7.437,0 H 1 C 0.969,0 0.937,0 0.906,0 0.875,0 0.844,0 0.813,0 Z"/>
 <path style="fill:#666666;fill-rule:evenodd" d="m 7,8 h 6 V 6 l 3,3 -3,3 V 10 H 7 Z"/>
</svg>
