<svg xmlns="http://www.w3.org/2000/svg" width="16.024" height="16" version="1.1" viewBox="0 0 16.02 16">
 <rect style="fill:none" width="16" height="16" x="0" y="0"/>
 <path style="fill:#666666" d="M 2.836,6 C 2.378,6.09 2.016,6.54 2.024,7 v 1 8 h 2 V 8 h 5 v 3 h 3 v 5 h 2 V 10.56 C 14.03,10.3 13.926,10.04 13.743,9.85 L 10.18,6.28 C 9.99,6.1 9.726,6 9.461,6 H 3.024 C 2.993,6 2.961,6 2.93,6 2.899,6 2.868,6 2.836,6 Z"/>
 <path style="fill:#666666" d="m 2.024,2 h 12 v 2 h -12 z"/>
 <rect style="fill:#666666" width="1" height="16" x=".02" y="0"/>
 <rect style="fill:#666666" width="16" height="1" x=".02" y="0"/>
 <rect style="fill:#666666" width="1" height="16" x="15.02" y="0"/>
 <rect style="fill:#666666" width="16" height="1" x=".02" y="15"/>
</svg>
