<svg xmlns="http://www.w3.org/2000/svg" width="16" height="16" version="1.1" viewBox="0 0 16 16">
 <rect style="fill:none" width="16" height="15.999" x="0" y="0"/>
 <path style="fill:#666666" d="M 3.812,0 C 3.354,0.09 2.992,0.54 3,1 v 1 11 1 c 0,0.53 0.476,1 1,1 h 10 c 0.524,0 1,-0.47 1,-1 V 4.56 C 15.006,4.3 14.902,4.04 14.719,3.85 L 11.156,0.28 C 10.966,0.1 10.702,0 10.437,0 H 4 C 3.969,0 3.937,0 3.906,0 3.875,0 3.844,0 3.813,0 Z M 5,2 h 5 v 3 h 3 v 8 H 5 Z"/>
 <path style="fill:#666666;fill-rule:evenodd" d="M 1,7 H 7 V 5 l 3,3 -3,3 V 9 H 1 Z"/>
</svg>
