<svg xmlns="http://www.w3.org/2000/svg" width="16" height="16" version="1.1" viewBox="0 0 16 16">
 <rect style="opacity:0.3;fill:none" width="16" height="16" x="0" y="0"/>
 <path style="fill:#666666" d="M 4.812,1 C 4.354,1.09 3.992,1.54 4,2 v 1 c 0.126,0 0.251,0.02 0.375,0.03 0.051,0.01 0.106,0 0.156,0 C 4.684,3.02 4.845,3 5,3 5.338,3 5.677,2.95 6,3 v 0 h 5 v 3 h 3 v 8 H 8.312 C 7.362,14.63 6.227,15 5,15 4.662,15 4.323,14.96 4,14.91 V 15 c 0,0.53 0.476,1 1,1 h 10 c 0.524,0 1,-0.47 1,-1 V 5.56 C 16.006,5.3 15.902,5.04 15.719,4.85 L 12.156,1.28 C 11.966,1.1 11.702,1 11.437,1 H 5 C 4.969,1 4.937,1 4.906,1 4.875,1 4.844,1 4.812,1 Z"/>
 <path style="fill:#666666" d="M 5,4 C 2.239,4 0,6.24 0,9 c 0,2.76 2.239,5 5,5 2.761,0 5,-2.24 5,-5 C 10,6.24 7.761,4 5,4 Z M 6,5.97 V 9 10 H 5 2 V 9 H 5 V 6 Z"/>
</svg>
