<svg xmlns="http://www.w3.org/2000/svg" width="16.006" height="16" version="1.1" viewBox="0 0 16.01 16">
 <rect style="fill:none" width="16" height="16" x="0" y="0"/>
 <path style="fill:none;stroke:#666666;stroke-width:1.29971004;stroke-linecap:round;stroke-linejoin:round" d="M 7.95,8.44 C 8.59,8.29 8.88,9.15 8.77,9.67 8.54,10.74 7.33,11.11 6.45,10.76 5.06,10.21 4.62,8.42 5.2,7.08 5.99,5.23 8.19,4.66 9.84,5.53 c 2.12,1.12 2.76,3.99 1.68,6.13 -1.32,2.63 -4.55,3.41 -6.96,2 C 1.69,11.99 0.86,8.03 2.44,5.09 4.28,1.67 8.57,0.68 11.73,2.62 c 3.61,2.22 4.64,7.3 2.55,11.03 -0.01,0.01 -0.02,0.02 -0.02,0.04"/>
</svg>
