<svg xmlns="http://www.w3.org/2000/svg" width="16" height="16" version="1.1" viewBox="0 0 16 16">
 <rect style="fill:none" width="16" height="16" x="0" y="0"/>
 <path style="fill:#666666" d="M 8,2 C 4.69,2 2,4.69 2,8 c 0,3.31 2.69,6 6,6 2.62,0 4.84,-1.69 5.66,-4.03 C 13.07,9.86 12.52,9.51 12.22,8.94 11.71,7.96 12.08,6.73 13.06,6.22 13.26,6.11 13.48,6.06 13.69,6.03 13.34,5.03 12.72,4.15 11.94,3.47 11.81,4.01 11.47,4.5 10.94,4.78 9.96,5.29 8.73,4.92 8.22,3.94 7.89,3.31 7.95,2.57 8.28,2 8.19,2 8.09,2 8,2 Z"/>
 <path style="fill:#666666" d="M 10.89,2.54 A 1,1 0 0 1 10.47,3.88 1,1 0 0 1 9.12,3.47 1,1 0 0 1 9.52,2.12 1,1 0 0 1 10.87,2.52 L 10,3 Z"/>
 <path style="fill:#666666" d="m 14.89,7.54 a 1,1 0 0 1 -0.42,1.34 1,1 0 0 1 -1.35,-0.41 1,1 0 0 1 0.4,-1.35 1,1 0 0 1 1.35,0.4 L 14,8 Z"/>
</svg>
