<svg xmlns="http://www.w3.org/2000/svg" width="15.987" height="16" version="1.1" viewBox="0 0 15.99 16">
 <path style="fill:#666666" d="m 5.68,0 -5.66,4.44 2,6.56 1.41,0.03 0.56,-1.02 -0.77,0.02 -1.6,-5.1 4,-2.98 3.09,2.46 1.21,-1.08 z"/>
 <rect style="fill:none" width="15.979" height="16" x="0" y="0"/>
 <path style="fill:#666666;fill-rule:evenodd" d="M 11.71,2.69 8.3,5.87 3.89,4.72 5.8,9 3.33,12.94 7.93,12.41 10.8,16 11.74,11.34 15.99,10.19 11.96,7.34 Z m -1.1,3.15 0.13,2.38 2.19,1.47 -2.25,0.53 L 10.14,13 8.64,11.09 5.99,11.28 7.68,9.16 6.3,6.75 8.8,7.44 Z"/>
</svg>
