<svg xmlns="http://www.w3.org/2000/svg" width="16" height="16" version="1.1" viewBox="0 0 16 16">
 <path style="fill:#666666;fill-rule:evenodd" d="m 9.54,9.7 -1.06,3.02 c -0.28,0.82 0.87,1.26 1.16,0.41 l 1.17,-3 z"/>
 <path style="fill:#666666;fill-rule:evenodd" d="M 8.87,5.64 9.4,6.43 13.35,8.05 14.39,7.71 15.72,4.02 C 14.05,4.02 15.38,0 11.05,0 Z"/>
 <path style="fill:#666666;fill-rule:evenodd" d="M 9.33,7.38 8.87,8.72 12.2,10 12.67,8.72 Z"/>
 <rect style="fill:none" width="16" height="15.994" x="0" y=".01"/>
 <path style="fill:none;stroke:#666666;stroke-width:0.97609001" d="M 2.4,12.52 C 8.77,11.34 1.49,1.49 1.49,1.49 h 6.02"/>
 <path style="fill:#666666;fill-rule:evenodd" d="m 1,12.01 h 3 v 3 H 1 Z"/>
 <path style="fill:#666666;fill-rule:evenodd" d="m 6.55,14.75 v 0"/>
 <path style="fill:none;stroke:#666666;stroke-width:0.93980002" d="M 1.47,13.43 H 6.55"/>
 <rect style="fill:#666666" width="3" height="2.996" x="0" y=".01"/>
</svg>
