<svg xmlns="http://www.w3.org/2000/svg" width="16" height="16" version="1.1" viewBox="0 0 16 16">
 <rect style="fill:none" width="16" height="16" x="0" y="0"/>
 <path style="fill:none;stroke:#666666;stroke-width:1.05744004;stroke-linecap:square;stroke-linejoin:bevel;stroke-miterlimit:4.26999998;stroke-dashoffset:23.20000076" d="m 14.48,8 c 0,0.85 -0.17,1.7 -0.49,2.48 -0.33,0.78 -0.81,1.5 -1.42,2.1 -0.6,0.6 -1.32,1.08 -2.11,1.4 C 9.67,14.31 8.82,14.47 7.97,14.47 7.12,14.47 6.26,14.3 5.48,13.98 4.69,13.66 3.97,13.18 3.37,12.58 2.76,11.98 2.28,11.26 1.96,10.48 1.63,9.7 1.46,8.85 1.46,8 1.46,7.16 1.63,6.31 1.96,5.53 2.28,4.74 2.76,4.03 3.37,3.43 3.97,2.83 4.69,2.35 5.48,2.02 6.26,1.7 7.12,1.53 7.97,1.53 c 0.85,0 1.7,0.17 2.49,0.49 0.79,0.33 1.51,0.81 2.11,1.41 0.61,0.6 1.09,1.31 1.42,2.1 0.32,0.78 0.49,1.62 0.49,2.47"/>
 <rect style="fill:#666666" width="4" height="4" x="6" y="6"/>
 <rect style="fill:#666666" width="4" height="4" x="11" y="1"/>
 <rect style="fill:#666666" width="1.035" height="7.243" x="10.81" y="-8.15" transform="matrix(0.68251846,0.73086835,-0.6898921,0.72391221,0,0)"/>
</svg>
