<svg xmlns="http://www.w3.org/2000/svg" width="16" height="16" version="1.1" viewBox="0 0 16 16">
 <path style="fill:#666666" d="m 10.31,2 a 0.33209,0.30752 0 0 0 -0.17,0.56 l 3.2,2.36 v 4.77 a 0.33209,0.30752 0 1 0 0.66,0 V 4.77 A 0.33209,0.30752 0 0 0 13.88,4.54 L 10.55,2.08 A 0.33209,0.30752 0 0 0 10.31,2 Z"/>
 <path style="fill:#666666" d="M 5.62,6 A 0.37433,0.27069 3.633 0 0 5.27,6.16 L 3,9.6 A 0.37839247,0.27362178 3.633 0 0 3.68,9.86 L 5.96,6.41 A 0.37433,0.27069 3.633 0 0 5.62,6 Z"/>
 <rect style="fill:#666666" width="5" height="5" x="4" y="0"/>
 <rect style="fill:#666666" width="5" height="4.999" x=".99" y="11"/>
 <rect style="fill:#666666" width="5" height="5" x="11" y="11.01"/>
 <rect style="fill:none" width="16" height="16" x="0" y="0"/>
</svg>
