<svg xmlns="http://www.w3.org/2000/svg" width="16" height="16.002" version="1.1" viewBox="0 0 16 16">
 <path style="fill:#666666;fill-rule:evenodd" d="M 13.16,1.05 11.28,3.04 C 12.61,3.07 13.95,4.25 14,5.47 L 16,3.48 C 15.94,2.21 14.53,1 13.16,1.05 Z"/>
 <rect style="fill:none" width="16" height="15.951" x="0" y=".05"/>
 <path style="fill:#666666;fill-rule:evenodd" d="M 2.63,12.05 10.15,4.04 C 11.52,3.99 12.94,5.2 13,6.46 L 5.51,14.24 1,16 Z"/>
 <path style="fill:none;stroke:#666666;stroke-width:1.02040005;stroke-linecap:round;stroke-linejoin:round" d="M 2.25,8.51 C -1.61,6.7 2.04,7.55 2.92,6.55 3.49,5.92 2.56,5.16 2.04,4.76 1.5,4.33 0.95,3.62 0.89,2.93 0.8,1.99 1.64,1.27 2.17,0.97 2.73,0.66 3.63,0.42 4.44,0.55 5.31,0.7 6.24,1.18 6.54,1.47"/>
</svg>
