<svg xmlns="http://www.w3.org/2000/svg" width="16" height="16" version="1.1" viewBox="0 0 16 16">
 <rect style="fill:none" width="16" height="16" x="0" y="0"/>
 <rect style="display:block;fill:#666666" width="13.952" height="1" x="1" y="10" rx=".623" ry=".5"/>
 <path style="display:block;fill:#666666" d="M 12.24,6.55 9.53,5 8.75,5.77 10.3,7.71 11.08,12.36 12,14 v 2 l 1,-1 0.01,-3.8 z"/>
 <path style="display:block;fill:#666666" d="M 3.76,6.55 6.44,5 7.2,5.77 5.67,7.71 4.91,12.36 4,14 v 2 L 3,15 v -3.8 z"/>
 <rect style="display:block;fill:#666666" width="2" height="1.996" x="7" y="0" rx=".75" ry=".6"/>
 <rect style="display:block;fill:#666666" width="2" height="3" x="7" y="9" rx="1.056" ry="1.106"/>
 <path style="fill:#666666" d="M 8,1 C 6.34,1 5,2.34 5,4 5,5.66 6.34,7 8,7 9.66,7 11,5.66 11,4 11,2.34 9.66,1 8,1 Z M 8,2.47 C 8.85,2.47 9.53,3.15 9.53,4 9.53,4.85 8.85,5.53 8,5.53 7.15,5.53 6.47,4.85 6.47,4 6.47,3.15 7.15,2.47 8,2.47 Z"/>
</svg>
