<svg xmlns="http://www.w3.org/2000/svg" width="16" height="16" version="1.1" viewBox="0 0 16 16">
 <rect style="fill:none" width="16" height="16" x="0" y="0"/>
 <path style="fill:#666666" d="M 7,7 C 6.45,7 6,7.45 6,8 v 7.04 c 0,0.5 0.45,1 1,1 h 7 c 0.55,0 1,-0.5 1,-1 V 8 C 15,7.45 14.55,7 14,7 Z m 1.91,0.72 1.78,2.12 1.78,-2.12 1.53,1.32 -2.03,2.4 2.03,2.5 -1.53,1.2 -1.78,-2.1 -1.78,2.1 -1.54,-1.2 2.04,-2.5 -2.04,-2.4 z"/>
 <path style="fill:#666666" d="m 0,3 v 1 9.04 1 h 1 4 v -1 H 1 V 4 h 11 v 2 h 1 V 3 Z"/>
 <path style="opacity:0.3;fill:#666666" d="m 2,5 v 1 6.04 H 5 V 6 h 6 V 5 H 5 Z"/>
</svg>
