<svg xmlns="http://www.w3.org/2000/svg" width="16" height="16" version="1.1" viewBox="0 0 16 16">
 <rect style="fill:none" width="16" height="16" x="0" y="0"/>
 <path style="fill:#666666" d="M 11.16,1 C 11.08,1.02 11,1.07 10.94,1.12 l -4.28,4 4.03,4.32 4.15,-3.85 C 15.08,5.37 15.02,4.91 14.72,4.56 L 11.94,1.34 C 11.71,1.08 11.39,0.95 11.16,1 Z"/>
 <path style="fill:#666666" d="M 5.5,6.22 3.16,8.41 C 2.92,8.63 2.95,9.14 3.25,9.44 l 2.81,3.2 c 0.31,0.4 0.73,0.5 0.97,0.2 l 2.47,-2.3 z"/>
 <path style="fill:#666666" d="m 8.7,14.04 c -0.39,0 -0.7,0.2 -0.7,0.5 0,0.2 0.31,0.5 0.7,0.5 h 1.4 4.2 0.7 v -0.5 -0.5 h -0.7 -4.2 z"/>
 <path style="fill:#666666" d="m 3.3,14.04 c 0.39,0 0.7,0.2 0.7,0.5 0,0.2 -0.31,0.5 -0.7,0.5 -2.1,0 -2,0 -2.3,0 v -0.5 -0.5 c 0,0 0.2,0 2.3,0 z"/>
</svg>
