<svg xmlns="http://www.w3.org/2000/svg" width="16" height="16" version="1.1" viewBox="0 0 16 16">
 <rect style="fill:none" width="16" height="16" x="0" y="0"/>
 <path style="fill:#666666" d="M 1,0 C 0.45,0 0,0.45 0,1 v 7 c 0,0.55 0.45,1 1,1 h 7 v 4 l 5,-4 h 2 c 0.55,0 1,-0.45 1,-1 V 1 C 16,0.45 15.55,0 15,0 Z m 1,1 h 12 c 0.55,0 1,0.45 1,1 v 5 c 0,0.55 -0.45,1 -1,1 H 13 12.5 L 9,10.66 V 8 H 8 2 C 1.45,8 1,7.55 1,7 V 2 C 1,1.45 1.45,1 2,1 Z"/>
 <path style="fill:#666666" d="m 0,14 v 2 h 1 v -1 h 1 v 1 h 1 v -1 h 1 v 1 h 1 v -1 h 1 v 1 h 1 v -1 h 1 v 1 h 1 v -1 h 1 v 1 h 1 v -1 h 1 v 1 h 1 v -1 h 1 v 1 h 1 v -2 z"/>
 <rect style="fill:#666666" width="1" height="5" x="6" y="2"/>
 <rect style="fill:#666666" width="1" height="1" x="8" y="6"/>
 <path style="fill:#666666" d="m 10,2 v 5 h 3 V 2 Z m 1,1 h 1 v 3 h -1 z"/>
</svg>
