<svg xmlns="http://www.w3.org/2000/svg" width="16" height="16" version="1.1" viewBox="0 0 16 16">
 <rect style="fill:none" width="16" height="15.937" x="0" y=".06"/>
 <path style="fill:#666666" d="M 15.75,3.88 15,4.8 11.66,1.22 12.78,0 M 11,1.93 l 1.35,1.43 0.66,0.72 1.33,1.43 -0.69,0.72 C 13,6.94 13.02,6.95 12.35,9.09 9.68,11.95 7,11.96 7,11.96 l -0.66,0.71 c 0,0 -0.67,0.72 -1.33,0 l 4,-4.29 0.06,-0.1 c 0.52,0.28 1.15,0.19 1.59,-0.28 0.55,-0.59 0.55,-1.55 0,-2.15 -0.55,-0.59 -1.45,-0.59 -2,0 C 8.23,6.32 8.15,7.03 8.41,7.6 l -0.06,0.06 -4,4.3 c -0.67,-0.72 0,-1.44 0,-1.44 L 5.01,9.81 c 0,0 -0.01,-2.87 2.65,-5.73 2,-0.72 2.02,-0.72 2.68,-1.43 z"/>
 <path style="fill:#666666" d="M 0,0.67 V 1 c 3.67,1.46 0,9 0,12 0,6.11 4.05,1 4.05,1 v -1 c 0,0 -1.83,3.08 -2.37,-0.26 C 0.77,7.15 8.47,0.67 0,0.67 Z"/>
</svg>
