<svg xmlns="http://www.w3.org/2000/svg" width="16" height="16" version="1.1" viewBox="0 0 16 16">
 <path style="fill:none" d="M 0,0 V 16 H 16 V 0 Z"/>
 <path style="fill:#666666" d="M 5,5 V 16 H 15 V 5 Z m 4.469,2 h 1 C 11.32,7 12,7.71 12,8.56 V 10 h 0.469 c 0.275,0 0.5,0.25 0.5,0.56 v 0.32 3.09 H 7 V 10.88 10.56 C 7,10.25 7.225,10 7.5,10 H 7.969 9 10 10.969 V 8.56 c 0,-0.33 -0.243,-0.53 -0.5,-0.53 h -1 C 9.211,8.03 9,8.23 9,8.56 V 9 H 7.969 V 8.56 C 7.969,7.71 8.617,7 9.469,7 Z"/>
 <path style="fill:#666666" d="M 4,9 V 8 4 h 6 V 4 0 H 0 v 9 z"/>
</svg>
