<svg xmlns="http://www.w3.org/2000/svg" width="16" height="16" version="1.1" viewBox="0 0 16 16">
 <path style="fill:none" d="M 0,0 V 16 H 16 V 0 Z"/>
 <path style="fill:#666666" d="M 10,5 V 7.09 C 10.148,7.04 10.302,7 10.469,7 h 1 C 12.32,7 13,7.71 13,8.56 V 10 h 0.469 c 0.275,0 0.5,0.25 0.5,0.56 v 0.31 3.1 H 8 V 11 H 6 v 5 H 16 V 5 Z m 0.5,3.03 c -0.257,0 -0.469,0.2 -0.469,0.53 V 10 H 12 V 8.56 C 12,8.23 11.757,8.03 11.5,8.03 Z"/>
 <path style="fill:#666666" d="m 4,10 v 0 H 9 V 5 5 1 H 0 v 9 z"/>
</svg>
