<svg xmlns="http://www.w3.org/2000/svg" width="16.062" height="16.125" version="1.1" viewBox="0 0 16.06 16.13">
 <rect style="fill:none" width="16" height="16" x=".06" y=".13"/>
 <rect style="fill:#666666" width="1" height="1" x="0" y="0"/>
 <rect style="fill:#666666" width="1" height="1" x="2.06" y=".13"/>
 <rect style="fill:#666666" width="1" height="1" x="4.06" y=".13"/>
 <rect style="fill:#666666" width="1" height="1" x="6.06" y=".13"/>
 <rect style="fill:#666666" width="1" height="1" x="8.06" y=".13"/>
 <rect style="fill:#666666" width="1" height="1" x="10.06" y=".13"/>
 <rect style="fill:#666666" width="1" height="1" x="12.06" y=".13"/>
 <rect style="fill:#666666" width="1" height="1" x="14.06" y=".13"/>
 <rect style="fill:#666666" width="1" height="1" x=".06" y="2.13"/>
 <rect style="fill:#666666" width="1" height="1" x=".06" y="4.13"/>
 <rect style="fill:#666666" width="1" height="1" x=".06" y="6.13"/>
 <rect style="fill:#666666" width="1" height="1" x=".06" y="8.13"/>
 <rect style="fill:#666666" width="1" height="1" x=".06" y="10.13"/>
 <rect style="fill:#666666" width="1" height="1" x=".06" y="12.13"/>
 <rect style="fill:#666666" width="1" height="1" x=".06" y="14.13"/>
 <rect style="fill:#666666" width="1" height="1" x="14.06" y="2.13"/>
 <rect style="fill:#666666" width="1" height="1" x="14.06" y="4.13"/>
 <rect style="fill:#666666" width="1" height="1" x="14.06" y="6.13"/>
 <rect style="fill:#666666" width="1" height="1" x="14.06" y="8.13"/>
 <rect style="fill:#666666" width="1" height="1" x="14.06" y="10.13"/>
 <rect style="fill:#666666" width="1" height="1" x="14.06" y="12.13"/>
 <rect style="fill:#666666" width="1" height="1" x="14.06" y="14.13"/>
 <rect style="fill:#666666" width="1" height="1" x="2.06" y="14.13"/>
 <rect style="fill:#666666" width="1" height="1" x="4.06" y="14.13"/>
 <rect style="fill:#666666" width="1" height="1" x="6.06" y="14.13"/>
 <rect style="fill:#666666" width="1" height="1" x="8.06" y="14.13"/>
 <rect style="fill:#666666" width="1" height="1" x="10.06" y="14.13"/>
 <rect style="fill:#666666" width="1" height="1" x="12.06" y="14.13"/>
 <rect style="fill:#666666" width="1" height="1" x="3" y="3"/>
 <rect style="fill:#666666" width="1" height="1" x="3" y="5"/>
 <rect style="fill:#666666" width="1" height="1" x="3" y="7"/>
 <rect style="fill:#666666" width="1" height="1" x="3" y="9"/>
 <rect style="fill:#666666" width="1" height="1" x="3" y="11"/>
 <rect style="fill:#666666" width="1" height="1" x="5" y="3"/>
 <rect style="fill:#666666" width="1" height="1" x="7" y="3"/>
 <rect style="fill:#666666" width="1" height="1" x="9" y="3"/>
 <rect style="fill:#666666" width="1" height="1" x="11" y="3"/>
 <rect style="fill:#666666" width="1" height="1" x="11" y="5"/>
 <rect style="fill:#666666" width="1" height="1" x="11" y="7"/>
 <rect style="fill:#666666" width="1" height="1" x="11" y="9"/>
 <rect style="fill:#666666" width="1" height="1" x="11" y="11"/>
 <rect style="fill:#666666" width="1" height="1" x="5" y="11"/>
 <rect style="fill:#666666" width="1" height="1" x="7" y="11"/>
 <rect style="fill:#666666" width="1" height="1" x="9" y="11"/>
</svg>
