<svg xmlns="http://www.w3.org/2000/svg" width="16" height="16" version="1.1" viewBox="0 0 16 16">
 <rect style="fill:none" width="16" height="16" x="0" y="0"/>
 <rect style="fill:#666666" width="1" height="1" x="0" y="0"/>
 <rect style="fill:#666666" width="1" height="1" x="2" y="0"/>
 <rect style="fill:#666666" width="1" height="1" x="4" y="0"/>
 <rect style="fill:#666666" width="1" height="1" x="6" y="0"/>
 <rect style="fill:#666666" width="1" height="1" x="8" y="0"/>
 <rect style="fill:#666666" width="1" height="1" x="10" y="0"/>
 <rect style="fill:#666666" width="1" height="1" x="12" y="0"/>
 <rect style="fill:#666666" width="1" height="1" x="14" y="0"/>
 <rect style="fill:#666666" width="1" height="1" x="0" y="2"/>
 <rect style="fill:#666666" width="1" height="1" x="0" y="4"/>
 <rect style="fill:#666666" width="1" height="1" x="0" y="6"/>
 <rect style="fill:#666666" width="1" height="1" x="0" y="8"/>
 <rect style="fill:#666666" width="1" height="1" x="0" y="10"/>
 <rect style="fill:#666666" width="1" height="1" x="0" y="12"/>
 <rect style="fill:#666666" width="1" height="1" x="0" y="14"/>
 <rect style="fill:#666666" width="1" height="1" x="14" y="2"/>
 <rect style="fill:#666666" width="1" height="1" x="14" y="4"/>
 <rect style="fill:#666666" width="1" height="1" x="14" y="6"/>
 <rect style="fill:#666666" width="1" height="1" x="14" y="8"/>
 <rect style="fill:#666666" width="1" height="1" x="14" y="10"/>
 <rect style="fill:#666666" width="1" height="1" x="14" y="12"/>
 <rect style="fill:#666666" width="1" height="1" x="14" y="14"/>
 <rect style="fill:#666666" width="1" height="1" x="2" y="14"/>
 <rect style="fill:#666666" width="1" height="1" x="4" y="14"/>
 <rect style="fill:#666666" width="1" height="1" x="6" y="14"/>
 <rect style="fill:#666666" width="1" height="1" x="8" y="14"/>
 <rect style="fill:#666666" width="1" height="1" x="10" y="14"/>
 <rect style="fill:#666666" width="1" height="1" x="12" y="14"/>
 <path style="fill:#666666" d="m 2,8 v 5 h 8 V 10.5 C 9.833,10.52 9.672,10.56 9.5,10.56 7.723,10.56 6.2,9.52 5.469,8 Z"/>
 <circle style="fill:#666666" cx="9.5" cy="6.01" r="3.5"/>
</svg>
