<svg xmlns="http://www.w3.org/2000/svg" width="16" height="16" version="1.1" viewBox="0 0 16 16">
 <rect style="fill:none" width="16" height="15.938" x="0" y=".06" rx="0"/>
 <rect style="fill:#666666" width="6" height="2.988" x="4.93" y="0" rx=".53" ry=".53"/>
 <path style="fill:#666666" d="m 3.93,4.99 v 7.96 h 6 l 2,-1.99 V 4.99 Z m 3,0.99 h 2 v 2.99 h 2 l -3,2.99 -3,-2.99 h 2 z"/>
 <path style="fill:#666666" d="M 1.461,1 C 1.419,1 1.376,1.02 1.336,1.03 1.102,1.09 0.929,1.28 0.93,1.53 L 0.961,8.5 0.93,15.48 C 0.929,15.73 1.102,15.92 1.336,15.97 1.4,16 1.45,16.01 1.524,16 H 3.93 l 10.469,-0.06 c 0.294,0 0.531,-0.23 0.531,-0.53 V 10.03 6.98 1.59 C 14.93,1.3 14.693,1.06 14.399,1.06 H 11.93 v 1 h 1.469 c 0.294,0 0.531,0.24 0.531,0.53 v 4.39 3.05 4.39 c 0,0.29 -0.237,0.52 -0.531,0.53 L 3.93,15.01 H 2.524 c -0.024,0 -0.04,0 -0.063,0 -0.042,0 -0.085,-0.02 -0.125,-0.03 C 2.146,14.9 1.994,14.7 1.993,14.48 L 1.961,8.5 1.993,2.53 C 1.994,2.31 2.146,2.11 2.336,2.03 2.376,2.02 2.419,2 2.461,2 H 3.93 V 1 Z"/>
</svg>
