<svg xmlns="http://www.w3.org/2000/svg" width="16" height="16" version="1.1" viewBox="0 0 16 16">
 <rect style="fill:none" width="16" height="16" x="0" y="0"/>
 <path style="fill:#666666;fill-rule:evenodd" d="M 11.68,5.0096 A 1.9927,2.0806 0 0 0 9.7605,6.5397 C 8.8204,6.8098 7.8603,7.2398 6.9502,7.9299 6.7202,8.1099 6.5101,8.2399 6.3001,8.3799 A 1.9927,2.0806 0 0 0 5,7.8799 1.9927,2.0806 0 0 0 3.0198,9.8001 C 2.0997,9.9701 1.2996,9.9501 0.60955,9.9501 L 0.59955,11.45 C 1.2896,11.45 2.2597,11.46 3.4198,11.22 A 1.9927,2.0806 0 0 0 5,12.04 1.9927,2.0806 0 0 0 6.9902,9.9601 1.9927,2.0806 0 0 0 6.9802,9.73 C 7.2702,9.54 7.5602,9.35 7.8603,9.12 8.5303,8.6099 9.2204,8.2699 9.9105,8.0499 A 1.9927,2.0806 0 0 0 11.68,9.17 1.9927,2.0806 0 0 0 13.59,7.6698 C 14.32,7.6998 14.991,7.7598 15.552,7.7598 V 6.2597 C 15.081,6.2597 14.34,6.1697 13.451,6.1397 A 1.9927,2.0806 0 0 0 11.68,5.0096 Z M 11.68,6.1197 A 0.92618,0.96705 0 0 1 12.611,7.0898 0.92618,0.96705 0 0 1 11.68,8.0599 0.92618,0.96705 0 0 1 10.761,7.0898 0.92618,0.96705 0 0 1 11.68,6.1197 Z M 5,9 A 0.92618,0.96705 0 0 1 5.9301,9.9601 0.92618,0.96705 0 0 1 5,10.93 0.92618,0.96705 0 0 1 4.0799,9.9601 0.92618,0.96705 0 0 1 5,9 Z"/>
</svg>
