<svg xmlns="http://www.w3.org/2000/svg" width="16" height="16" version="1.1" viewBox="0 0 16 16">
 <rect style="fill:none" width="16" height="16" x="0" y="0"/>
 <path style="fill:#666666" d="M 2.01,1 V 15 H 3 V 1 Z"/>
 <path style="fill:#666666" d="m 11.99,1 v 14 h 0.99 V 1 Z"/>
 <path style="fill:#666666" d="M 7.02,0 V 16 H 8.01 V 0 Z"/>
 <path style="fill:#666666" d="M 0.55,3 0,3.92 15.48,13 16,12.09 Z"/>
 <path style="fill:#666666" d="M 0.52,9 0,9.88 11,16 11.52,15.16 Z"/>
 <path style="fill:#666666" d="M 5.45,0.08 4.94,0.94 15.49,7 16,6.11 Z"/>
 <path style="fill:#666666" d="M 9.47,0 0,5.14 0.53,6 10,0.87 Z"/>
 <path style="fill:#666666" d="M 15.48,2 0,11.09 0.52,12 16,2.92 Z"/>
 <path style="fill:#666666" d="M 15.52,8 4,15.1 4.48,16 16,8.91 Z"/>
</svg>
