<svg xmlns="http://www.w3.org/2000/svg" width="16.088" height="16" version="1.1" viewBox="0 0 16.09 16">
 <rect style="fill:none" width="16" height="16" x=".09" y="0"/>
 <path style="fill:#666666" d="M 5.07,8.46 C 5.08,9.82 3.96,10.95 2.58,10.96 1.2,10.97 0.06,9.85 0.05,8.5 0.04,7.14 1.16,6 2.54,5.99 3.92,5.98 5.06,7.1 5.07,8.46 Z M 3.62,8.47 C 3.61,7.86 3.14,7.4 2.55,7.4 1.96,7.4 1.49,7.88 1.5,8.48 c 0,0.61 0.48,1.08 1.07,1.07 0.59,0 1.05,-0.47 1.05,-1.08 z"/>
 <path style="fill:#666666" d="M 5.02,2.48 C 5.03,3.83 3.92,4.96 2.53,4.98 1.14,4.99 0.01,3.87 0,2.52 -0.01,1.16 1.11,0.03 2.5,0.02 3.89,0.01 5.01,1.13 5.02,2.48 Z M 3.57,2.49 C 3.57,1.88 3.1,1.42 2.51,1.42 1.92,1.43 1.45,1.9 1.45,2.51 1.46,3.12 1.93,3.57 2.52,3.57 3.11,3.56 3.58,3.1 3.57,2.49 Z"/>
 <path style="fill:#666666" d="M 11.06,8.78 C 10.69,9.52 9.86,9.76 9.19,9.35 L 4.16,6.35 2.55,7.56 1.1,6.6 2.81,5.49 1.09,4.42 2.46,3.45 4.15,4.6 9.14,1.54 c 0.65,-0.42 1.49,-0.2 1.87,0.53 l -5.47,3.4 z"/>
 <rect style="fill:#666666" width="2" height="1" x="10.09" y="5"/>
 <rect style="fill:#666666" width="2" height="1" x="13.09" y="5"/>
 <rect style="fill:#666666" width="1" height="2" x="14.09" y="7"/>
 <rect style="fill:#666666" width="1" height="2" x="14.09" y="10"/>
 <rect style="fill:#666666" width="2" height="1" x="13.09" y="13"/>
 <rect style="fill:#666666" width="2" height="1" x="10.09" y="13"/>
 <rect style="fill:#666666" width="2" height="1" x="7.09" y="13"/>
 <rect style="fill:#666666" width="2" height="1" x="4.09" y="13"/>
 <rect style="fill:#666666" width="2" height="1" x="1.09" y="13"/>
</svg>
