<svg xmlns="http://www.w3.org/2000/svg" width="16" height="16" version="1.1" viewBox="0 0 16 16">
 <rect style="fill:none" width="16" height="16" x="0" y="0"/>
 <path style="fill:#666666;fill-rule:evenodd" d="M 8,0 C 7.54,0 7.1,0.18 6.75,0.54 L 0.53,6.95 C 0.19,7.3 0.01,7.77 0,8.23 0,8.24 0,8.26 0,8.27 0,9.64 3.69,8.29 4.02,9.97 4.2,10.88 2,10.48 2,11.4 c 0,1.07 3.09,0.31 3.98,1.2 0.36,0.88 -1.19,0.75 -0.91,1.57 0.51,0.53 1.68,0.24 1.9,1.1 0.26,0.99 1.94,0.81 2.92,0.09 C 10.41,14.83 9.08,14.57 9.6,14.03 10.12,13.5 12.69,13.6 12.71,12.44 12.47,11.7 11.5,11.6 11.49,10.74 11.43,10 12.25,10.21 14.9,9.47 15.96,8.98 16,8.72 16,8.27 16,8.26 16,8.24 16,8.23 15.99,7.77 15.8,7.3 15.46,6.95 L 9.25,0.54 C 8.9,0.18 8.45,0 8,0 Z m 0.13,1.35 c 0.47,0 1.76,1.61 2.91,2.8 0.32,0.43 -0.14,0.84 -0.14,0.84 L 8.51,3.69 7.43,5.13 6.51,3.74 5.94,5.9 4.29,4.92 4.73,4.35 7.32,1.71 C 7.52,1.51 7.67,1.35 8.13,1.35 Z"/>
 <path style="fill:#666666;fill-rule:evenodd" d="m 15.26,10.97 c -0.12,0 -0.24,0.02 -0.33,0.04 -0.17,0.05 -1,0.07 -0.93,0.68 0.73,0.31 1.85,0.54 1.98,-0.07 0.1,-0.46 -0.34,-0.63 -0.72,-0.65 z"/>
 <path style="fill:#666666;fill-rule:evenodd" d="M 3.08,13.01 C 2.93,12.99 2.79,13.01 2.65,13.06 2.1,13.27 1.73,13.73 2.24,13.93 2.76,14.12 3.13,13.9 3.58,13.66 4.03,13.42 4.02,13.38 3.99,13.28 3.92,13.3 3.51,13.04 3.08,13.01 Z"/>
 <path style="fill:none" d="m 13.2,13 c -0.37,0.15 -0.36,0.68 -0.07,0.91 0.3,0.23 0.67,0.08 0.82,-0.07 0.15,-0.15 0,-0.69 -0.75,-0.84 z"/>
</svg>
