<svg xmlns="http://www.w3.org/2000/svg" width="16" height="16" version="1.1" viewBox="0 0 16 16">
 <rect style="fill:none" width="16" height="16" x="0" y="0"/>
 <path style="fill:#666666" d="M 5.2105,0.96907 C 4.4704,0.94907 3.8104,1.1991 3.3703,1.7091 2.9203,2.2192 2.7203,2.8893 2.6403,3.5793 2.4702,4.9695 2.7303,6.5696 2.9903,8.1598 3.2503,9.7399 3.5404,11.3 3.5404,12.32 3.5404,12.82 3.4603,13.17 3.3903,13.28 3.3303,13.4 3.3503,13.42 3.0803,13.41 2.4502,13.39 2.2402,13.16 2.0202,12.63 1.7902,12.1 1.7002,11.24 1.7202,10.35 1.7602,8.5698 1.8302,8.2098 1.8302,8.2098 L 0.45004,8.1998 C 0.45004,8.1998 0.42004,8.6398 0.37004,10.7 0.35003,11.73 0.33003,12.41 0.72007,13.34 1.1101,14.27 1.9502,15.02 3.0403,15.05 3.6704,15.07 4.3004,14.72 4.6105,14.16 4.9205,13.6 4.9805,12.97 4.9805,12.31 4.9805,10.98 4.6605,9.4099 4.4004,7.8498 4.1504,6.2896 3.9504,4.7594 4.0604,3.8094 4.1204,3.3293 4.2404,3.0293 4.3804,2.8693 4.5205,2.7092 4.7105,2.5992 5.1705,2.6092 5.6306,2.6192 5.8706,2.7392 6.0006,2.8493 6.1306,2.9593 6.2006,3.0993 6.2606,3.3793 6.3706,3.9394 6.2506,4.9695 6.0506,6.0396 5.8506,7.1197 5.5806,8.2298 5.6106,9.2599 5.6206,9.7799 5.7106,10.31 6.0206,10.77 6.3406,11.22 6.8607,11.48 7.4207,11.51 7.8808,11.54 8.3008,11.46 8.6509,11.24 9.0109,11.02 9.2709,10.65 9.4109,10.28 9.691,9.5399 9.641,8.7999 9.621,8.1198 9.591,7.4497 9.581,6.8197 9.641,6.5496 9.671,6.4096 9.701,6.3996 9.701,6.3896 9.701,6.3896 9.721,6.3596 9.901,6.3696 10.121,6.3696 10.141,6.4096 10.171,6.4396 10.201,6.4696 10.261,6.5596 10.361,6.7596 10.471,6.9597 10.611,7.2697 10.901,7.5397 11.191,7.7998 11.601,7.9798 12.071,7.9998 13.681,7.7197 14.361,6.9897 15.482,7.9098 V 6.2496 C 13.991,5.5195 13.191,6.0896 12.141,6.3596 11.901,6.3496 11.851,6.2996 11.801,6.2596 11.761,6.2196 11.701,6.1296 11.611,5.9396 11.511,5.7395 11.371,5.4395 11.091,5.1795 10.801,4.9095 10.391,4.7394 9.931,4.7294 9.521,4.7094 9.1109,4.8295 8.8009,5.1095 8.5008,5.3995 8.3308,5.7795 8.2508,6.1396 8.0908,6.8497 8.1608,7.5497 8.1808,8.1898 8.2108,8.8399 8.1708,9.3999 8.0908,9.6199 8.0508,9.7299 8.0308,9.7599 7.9608,9.8 7.9008,9.84 7.7708,9.89 7.4907,9.87 7.2207,9.86 7.1907,9.8 7.1507,9.7499 7.1107,9.6999 7.0507,9.5299 7.0407,9.2199 7.0307,8.5798 7.2407,7.4997 7.4507,6.3796 7.6608,5.2695 7.8808,4.1194 7.6608,3.0193 7.5508,2.4792 7.3007,1.9292 6.8707,1.5491 6.4406,1.1691 5.8706,0.98907 5.2105,0.96907 Z"/>
</svg>
