<svg xmlns="http://www.w3.org/2000/svg" width="16" height="16" version="1.1" viewBox="0 0 16 16">
 <rect style="fill:none" width="16" height="16" x="0" y="0" rx="0" ry="1"/>
 <path style="fill:#666666" d="m 1,14 3,-3 h 11 l -3,3 z"/>
 <path style="fill:#666666" d="M 2,1 H 3 L 3.5,1.63 4,1 H 5 V 2 H 2 Z"/>
 <rect style="fill:#666666" width="1" height="6" x="3" y="2"/>
 <path style="fill:#666666" d="M 2,9 H 3 L 3.5,8.38 4,9 H 5 V 8 H 2 Z"/>
 <path style="fill:#666666" d="m 11,2 c 0,5.12 0,2.61 0.03,5.56 V 8 h 0.47 2.28 C 15.46,8.07 15.39,3.88 13.75,4 13.74,4 13.73,4 13.72,4 H 12 V 2 Z m 1,3 h 1.81 0.03 0.03 c 0.37,-0.04 0.44,2.02 0,2 H 13.84 12 C 11.99,6.52 12,5.15 12,5 Z"/>
 <path style="fill:#666666" d="m 6.99,3.03 v 1.03 c 0.52,0 0.96,0 1.41,0 C 9.21,4.07 9.02,4.94 9,5 H 7 V 5 C 5.48,5.07 5.37,8 7,8 L 9.53,8.03 H 9.97 V 7.6 L 10,4.44 C 10,4.07 9.9,3.72 9.69,3.47 9.48,3.22 9.16,3.07 8.84,3.03 H 8.81 Z M 7.18,6 H 7.21 7.24 9 V 7 H 7.15 7.12 C 6.75,6.99 6.78,5.96 7.18,6 Z"/>
</svg>
