<svg xmlns="http://www.w3.org/2000/svg" width="16" height="16" version="1.1" viewBox="0 0 16 16">
 <rect style="fill:none" width="16" height="16" x="0" y="0"/>
 <rect style="fill:#666666" width="3" height="3" x="0" y="0"/>
 <rect style="fill:#666666" width="3" height="3" x="0" y="13"/>
 <rect style="fill:#666666" width="3" height="3" x="13" y="13"/>
 <rect style="fill:#666666" width="3" height="3" x="13" y="0"/>
 <path style="fill:#666666" d="M 5,1.15 V 2 H 6 V 1.23 C 5.69,1.17 5.36,1.14 5,1.15 Z M 5,2 H 4 V 3 H 5 Z M 4,3 H 3 V 4 H 4 Z M 3,4 H 2.74 C 2.82,4.36 2.85,4.69 2.85,5 H 3 Z M 3,3 V 2 H 2 C 2.18,2.35 2.32,2.69 2.44,3 Z M 3,2 H 4 V 1.26 C 3.69,1.33 3.36,1.43 3,1.56 Z"/>
 <path style="opacity:0.8;fill:#666666" d="M 7,1.54 V 2 H 8 C 7.67,1.84 7.34,1.68 7,1.54 Z M 8,2 V 3 H 9 V 2.46 C 8.66,2.32 8.33,2.16 8,2 Z M 8,3 H 7 V 4 H 8 Z M 7,4 H 6 V 5 H 7 Z M 6,5 H 5 V 6 H 6 Z M 5,6 H 4 V 7 H 5 Z M 4,7 H 3 V 8 H 4 Z M 3,8 H 2 V 9 H 3 Z M 2,9 H 1.54 C 1.41,9.32 1.31,9.65 1.23,10 H 2 Z M 3,7 V 6 H 2.77 C 2.69,6.35 2.59,6.68 2.46,7 Z M 3,6 H 4 V 5 H 3 Z M 4,5 H 5 V 4 H 4 Z M 5,4 H 6 V 3 H 5 Z M 6,3 H 7 V 2 H 6 Z"/>
 <path style="opacity:0.6;fill:#666666" d="m 13,2.44 c -0.36,0.13 -0.69,0.23 -1,0.3 V 3 h 1 z M 12,3 h -1 v 1 h 1 z m -1,1 h -1 v 1 h 1 z M 10,5 H 9 v 1 h 1 z M 9,6 H 8 V 7 H 9 Z M 8,7 H 7 V 8 H 8 Z M 7,8 H 6 V 9 H 7 Z M 6,9 H 5 v 1 H 6 Z M 5,10 H 4 v 1 H 5 Z M 4,11 H 3 v 1 H 4 Z M 3,12 H 2 v 1 H 3 Z M 2,13 H 1.56 C 1.68,13.32 1.82,13.65 2,14 Z M 2,12 V 11 H 1.15 c 0,0.31 0.03,0.64 0.11,1 z M 2,11 H 3 V 10 H 2 Z M 3,10 H 4 V 9 H 3 Z M 4,9 H 5 V 8 H 4 Z M 5,8 H 6 V 7 H 5 Z M 6,7 H 7 V 6 H 6 Z M 7,6 H 8 V 5 H 7 Z M 8,5 H 9 V 4 H 8 Z M 9,4 h 1 V 3 H 9 Z m 1,-1 h 1 V 2.85 C 10.64,2.86 10.31,2.83 10,2.77 Z"/>
 <path style="opacity:0.4;fill:#666666" d="m 14,2 v 1 h 0.44 C 14.32,2.69 14.18,2.35 14,2 Z m 0,1 h -1 v 1 h 1 z m 0,1 v 1 h 0.85 c 0,-0.31 -0.03,-0.64 -0.11,-1 z m 0,1 h -1 v 1 h 1 z m -1,1 h -1 v 1 h 1 z m -1,1 h -1 v 1 h 1 z m -1,1 h -1 v 1 h 1 z M 10,9 H 9 v 1 h 1 z M 9,10 H 8 v 1 H 9 Z M 8,11 H 7 v 1 H 8 Z M 7,12 H 6 v 1 H 7 Z M 6,13 H 5 v 0.15 c 0.36,-0.01 0.69,0.02 1,0.08 z M 5,13 V 12 H 4 v 1 z M 4,13 H 3 v 0.56 c 0.36,-0.13 0.69,-0.23 1,-0.3 z M 5,12 H 6 V 11 H 5 Z M 6,11 H 7 V 10 H 6 Z M 7,10 H 8 V 9 H 7 Z M 8,9 H 9 V 8 H 8 Z M 9,8 h 1 V 7 H 9 Z m 1,-1 h 1 V 6 h -1 z m 1,-1 h 1 V 5 h -1 z m 1,-1 h 1 V 4 h -1 z"/>
 <path style="opacity:0.2;fill:#666666" d="m 14,6 v 1 h 0.46 c 0.13,-0.32 0.23,-0.65 0.31,-1 z m 0,1 h -1 v 1 h 1 z m -1,1 h -1 v 1 h 1 z m 0,1 v 1 h 0.23 c 0.08,-0.35 0.18,-0.68 0.31,-1 z m 0,1 h -1 v 1 h 1 z m -1,1 h -1 v 1 h 1 z m -1,1 h -1 v 1 h 1 z m -1,1 H 9 v 1 h 1 z M 9,14 H 8 c 0.33,0.16 0.66,0.32 1,0.46 z M 8,14 V 13 H 7 v 0.54 c 0.34,0.14 0.67,0.3 1,0.46 z M 8,13 H 9 V 12 H 8 Z m 1,-1 h 1 V 11 H 9 Z m 1,-1 h 1 v -1 h -1 z m 1,-1 h 1 V 9 h -1 z"/>
 <path style="opacity:0.1;fill:#666666" d="m 13,11 v 1 h 0.26 c -0.08,-0.36 -0.11,-0.69 -0.11,-1 z m 0,1 h -1 v 1 h 1 z m 0,1 v 1 h 1 c -0.18,-0.35 -0.32,-0.68 -0.44,-1 z m 0,1 h -1 v 0.74 c 0.31,-0.07 0.64,-0.17 1,-0.3 z m -1,0 v -1 h -1 v 1 z m -1,0 h -1 v 0.77 c 0.31,0.06 0.64,0.09 1,0.08 z"/>
 <path style="fill:none;stroke:#666666;stroke-width:0.75px" d="M 2,2 C 8,-1 8,5 14,2 17,8 11,8 14,14 8,17 8,11 2,14 -1,8 5,8 2,2 Z"/>
</svg>
