<svg xmlns="http://www.w3.org/2000/svg" width="16.022" height="16.006" version="1.1" viewBox="0 0 16.02 16.01">
 <rect style="fill:none" width="16" height="16" x=".02" y=".01"/>
 <path style="fill:#666666" d="m 15.33,0.01 a 0.51404,0.51211 0 0 0 -0.4,0.59 c 0.23,1.6 -0.06,3.73 -1.13,5.41 -0.63,1 -1.53,1.85 -2.78,2.38 V 9.51 C 12.68,8.92 13.88,7.83 14.68,6.57 15.9,4.63 16.19,2.31 15.93,0.48 A 0.51404,0.51211 0 0 0 15.33,0.01 Z M 0.61,0.14 A 0.52408,0.52211 0 0 0 0.11,0.57 C -0.18,2.4 0.06,4.72 1.24,6.64 2.03,7.92 3.28,9.01 5.02,9.57 V 8.51 C 3.67,8.01 2.75,7.13 2.11,6.1 1.1,4.46 0.88,2.36 1.14,0.76 A 0.52408,0.52211 0 0 0 0.61,0.14 Z"/>
 <rect style="fill:#666666" width="4" height="5" x="6.02" y="8.01"/>
 <rect style="fill:#666666" width="2" height="1" x="11.02" y="11.01"/>
 <rect style="fill:#666666" width="2" height="1" x="3.02" y="11.01"/>
 <ellipse style="fill:#666666" cx="14.02" cy="11.56" rx="1.5" ry="1.516"/>
 <ellipse style="fill:#666666" cx="2.02" cy="11.53" rx="1.5" ry="1.516"/>
</svg>
