<svg xmlns="http://www.w3.org/2000/svg" width="16.022" height="16" version="1.1" viewBox="0 0 16.02 16">
 <rect style="fill:none" width="16" height="16" x=".02" y="0"/>
 <path style="fill:#666666" d="m 15.33,0.92 a 0.51404,0.51404 0 0 0 -0.4,0.59 C 15.16,3.12 14.87,5.26 13.8,6.95 12.74,8.64 10.96,9.92 7.93,9.92 4.89,9.92 3.13,8.7 2.11,7.05 1.1,5.39 0.88,3.28 1.14,1.67 A 0.5241,0.5241 0 1 0 0.11,1.48 c -0.29,1.84 -0.05,4.18 1.13,6.1 1.18,1.92 3.36,3.37 6.69,3.37 3.33,0 5.52,-1.49 6.75,-3.44 1.22,-1.94 1.51,-4.28 1.25,-6.12 a 0.51404,0.51404 0 0 0 -0.6,-0.47 z"/>
 <circle style="fill:#666666" cx="8.02" cy="10" r="3"/>
</svg>
