<svg xmlns="http://www.w3.org/2000/svg" width="16.051" height="16.002" version="1.1" viewBox="0 0 16.05 16">
 <rect style="fill:none" width="16" height="16" x=".05" y="0"/>
 <path style="fill:#666666" d="m 0.46,0 a 0.50219,0.50219 0 1 0 0.09,1 c 1.64,0 2.79,0.54 3.69,1.35 0.89,0.81 1.52,1.91 1.93,3.12 0.84,2.43 0.85,5.16 0.85,6.16 a 0.50005,0.50005 0 0 0 0.75,0.43 c 4.58,-2.55 7.75,-5.84 8.28,-11.5 a 0.50219,0.50219 0 1 0 -1,-0.09 C 14.58,5.49 11.99,8.33 7.99,10.72 7.97,9.42 7.86,7.34 7.11,5.16 6.66,3.84 5.99,2.56 4.92,1.6 3.86,0.63 2.41,0 0.55,0 A 0.50005,0.50005 0 0 0 0.46,0 Z"/>
 <rect style="fill:#666666;fill-rule:evenodd" width="3.599" height="3.636" x="-4.64" y="11.72" transform="matrix(0.71369575,-0.70045583,0.71369575,0.70045583,0,0)"/>
</svg>
