<svg xmlns="http://www.w3.org/2000/svg" width="16" height="16" version="1.1" viewBox="0 0 16 16">
 <rect style="fill:none" width="16" height="16" x="0" y="0"/>
 <path style="fill:#666666" d="M 5.41,1 C 5.53,2.33 6.64,3.38 8,3.38 9.36,3.38 10.47,2.33 10.59,1 Z"/>
 <ellipse style="opacity:0.3;fill:#666666" cx="7" cy="7.39" rx="2.449" ry="2.404"/>
 <path style="fill:#666666" d="m 8,12.22 c -1.45,0 -2.63,1.21 -2.63,2.66 0,0.04 0,0.08 0,0.12 h 5.25 c 0,-0.04 0,-0.08 0,-0.12 0,-1.45 -1.17,-2.66 -2.62,-2.66 z"/>
 <path style="fill:#666666" d="m 15,5.19 c -1.42,0.03 -2.56,1.2 -2.56,2.62 0,1.43 1.14,2.6 2.56,2.63 z"/>
 <path style="fill:#666666" d="m 1,5.19 v 5.25 C 2.42,10.41 3.56,9.25 3.56,7.81 3.56,6.38 2.42,5.22 1,5.19 Z"/>
 <path style="fill:#666666" d="M 12.47,1 C 12.59,2.31 13.66,3.35 15,3.38 V 1 Z"/>
 <path style="fill:#666666" d="M 1,1 V 3.38 C 2.34,3.35 3.41,2.32 3.53,1 Z"/>
 <path style="fill:#666666" d="m 15,12.25 c -1.42,0.04 -2.56,1.2 -2.56,2.63 0,0.04 0,0.08 0,0.12 H 15 Z"/>
 <path style="fill:#666666" d="M 1,12.22 V 15 h 2.56 c 0,-0.04 0,-0.08 0,-0.12 0,-1.43 -1.14,-2.62 -2.56,-2.66 z"/>
 <circle style="fill:#666666" cx="8.66" cy="8.51" r="2.32"/>
</svg>
