<svg xmlns="http://www.w3.org/2000/svg" xmlns:xlink="http://www.w3.org/1999/xlink" width="16" height="16" version="1.1" viewBox="0 0 16 16">
 <rect style="opacity:0.3;fill:none" width="16" height="16" x="0" y="0"/>
 <circle style="fill:#666666" cx="2.02" cy="1.94" r="1.341"/>
 <use style="fill:#666666" width="1250" height="1250" x="0" y="0" transform="translate(-246.44,-726.87)" xlink:href="#path5084-3"/>
 <use style="fill:#666666" width="1250" height="1250" x="0" y="0" transform="translate(-243.16,-724.71)" xlink:href="#path5084-3"/>
 <use style="fill:#666666" width="1250" height="1250" x="0" y="0" transform="translate(-243.54,-721.34)" xlink:href="#path5084-3"/>
 <use style="fill:#666666" width="1250" height="1250" x="0" y="0" transform="translate(-252.2,-727.2)" xlink:href="#path5084-3"/>
 <use style="fill:#666666" width="1250" height="1250" x="0" y="0" transform="translate(-243.06,-727.37)" xlink:href="#path5084-3"/>
 <use style="fill:#666666" width="1250" height="1250" x="0" y="0" transform="translate(-255.12,-721.24)" xlink:href="#path5084-3"/>
 <use style="fill:#666666" width="1250" height="1250" x="0" y="0" transform="translate(-254.74,-717.98)" xlink:href="#path5084-3"/>
 <use style="fill:#666666" width="1250" height="1250" x="0" y="0" transform="translate(-248.9,-727.58)" xlink:href="#path5084-3"/>
 <use style="fill:#666666" width="1250" height="1250" x="0" y="0" transform="translate(-254.56,-724.57)" xlink:href="#path5084-3"/>
 <use style="fill:#666666" width="1250" height="1250" x="0" y="0" transform="translate(-252.18,-724.37)" xlink:href="#path5084-3"/>
 <use style="fill:#666666" width="1250" height="1250" x="0" y="0" transform="translate(-252.73,-718.45)" xlink:href="#path5084-3"/>
 <use style="fill:#666666" width="1250" height="1250" x="0" y="0" transform="translate(-247.18,-724.32)" xlink:href="#path5084-3"/>
 <use style="fill:#666666" width="1250" height="1250" x="0" y="0" transform="translate(-246.49,-723.96)" xlink:href="#path5084-3"/>
 <use style="fill:#666666" width="1250" height="1250" x="0" y="0" transform="translate(-252.13,-722.86)" xlink:href="#path5084-3"/>
 <use style="fill:#666666" width="1250" height="1250" x="0" y="0" transform="translate(-249.06,-718.94)" xlink:href="#path5084-3"/>
 <use style="fill:#666666" width="1250" height="1250" x="0" y="0" transform="translate(-248,-722.28)" xlink:href="#path5084-3"/>
 <use style="fill:#666666" width="1250" height="1250" x="0" y="0" transform="translate(-247.43,-720.92)" xlink:href="#path5084-3"/>
 <use style="fill:#666666" width="1250" height="1250" x="0" y="0" transform="translate(-246.6,-718.03)" xlink:href="#path5084-3"/>
 <use style="fill:#666666" width="1250" height="1250" x="0" y="0" transform="translate(-246.11,-715.59)" xlink:href="#path5084-3"/>
 <use style="fill:#666666" width="1250" height="1250" x="0" y="0" transform="translate(-243.5,-718.3)" xlink:href="#path5084-3"/>
 <use style="fill:#666666" width="1250" height="1250" x="0" y="0" transform="translate(-255.01,-715.26)" xlink:href="#path5084-3"/>
 <use style="fill:#666666" width="1250" height="1250" x="0" y="0" transform="translate(-251.83,-715.13)" xlink:href="#path5084-3"/>
 <use style="fill:#666666" width="1250" height="1250" x="0" y="0" transform="translate(-249.06,-715.51)" xlink:href="#path5084-3"/>
 <use style="fill:#666666" width="1250" height="1250" x="0" y="0" transform="translate(-242.93,-715.26)" xlink:href="#path5084-3"/>
</svg>
