<svg xmlns="http://www.w3.org/2000/svg" width="16" height="16" version="1.1" viewBox="0 0 16 16">
 <rect style="fill:none" width="16" height="16" x="0" y="0"/>
 <path style="fill:#666666" d="M 12,10 15,7 H 9 Z"/>
 <path style="fill:#666666" d="M 6.5,0 C 6.33,0 6.17,0.02 6,0.03 V 2.06 C 6.17,2.04 6.33,2 6.5,2 8.99,2 11,4.01 11,6.5 11,6.67 10.96,6.83 10.94,7 h 2.03 C 12.98,6.83 13,6.67 13,6.5 13,2.91 10.09,0 6.5,0 Z"/>
 <rect style="fill:#666666" width="5" height="10" x="0" y="0"/>
 <rect style="fill:#666666" width="5" height="10" x="11" y="-16" transform="rotate(90)"/>
</svg>
