<svg xmlns="http://www.w3.org/2000/svg" xmlns:xlink="http://www.w3.org/1999/xlink" width="16" height="16" version="1.1" viewBox="0 0 16 16">
 <rect style="opacity:0.3;fill:none" width="16" height="16" x="0" y="0"/>
 <use style="fill:#666666" width="1250" height="1250" x="0" y="0" transform="translate(-246.14,-696.34)" xlink:href="#path5084"/>
 <use style="fill:#666666" width="1250" height="1250" x="0" y="0" transform="translate(-252.05,-696.26)" xlink:href="#path5084"/>
 <use style="fill:#666666" width="1250" height="1250" x="0" y="0" transform="translate(-243.88,-704.33)" xlink:href="#path5084"/>
 <use style="fill:#666666" width="1250" height="1250" x="0" y="0" transform="translate(-243.96,-698.28)" xlink:href="#path5084"/>
 <use style="fill:#666666" width="1250" height="1250" x="0" y="0" transform="translate(-244.62,-701.31)" xlink:href="#path5084"/>
 <use style="fill:#666666" width="1250" height="1250" x="0" y="0" transform="translate(-249.09,-696.96)" xlink:href="#path5084"/>
 <circle style="fill:#666666" cx="2.17" cy="1.96" r="1.341"/>
 <use style="fill:#666666" width="1250" height="1250" x="0" y="0" transform="translate(-246.29,-706.43)" xlink:href="#path5084"/>
 <use style="fill:#666666" width="1250" height="1250" x="0" y="0" transform="translate(-252.05,-706.51)" xlink:href="#path5084"/>
 <use style="fill:#666666" width="1250" height="1250" x="0" y="0" transform="translate(-243.19,-707.36)" xlink:href="#path5084"/>
 <use style="fill:#666666" width="1250" height="1250" x="0" y="0" transform="translate(-253.68,-701.31)" xlink:href="#path5084"/>
 <use style="fill:#666666" width="1250" height="1250" x="0" y="0" transform="translate(-254.22,-698.28)" xlink:href="#path5084"/>
 <use style="fill:#666666" width="1250" height="1250" x="0" y="0" transform="translate(-249.09,-705.77)" xlink:href="#path5084"/>
 <use style="fill:#666666" width="1250" height="1250" x="0" y="0" transform="translate(-254.34,-704.33)" xlink:href="#path5084"/>
 <use style="fill:#666666" width="1250" height="1250" x="0" y="0" transform="translate(-251.77,-704.06)" xlink:href="#path5084"/>
 <use style="fill:#666666" width="1250" height="1250" x="0" y="0" transform="translate(-251.85,-698.63)" xlink:href="#path5084"/>
 <use style="fill:#666666" width="1250" height="1250" x="0" y="0" transform="translate(-249.09,-703.17)" xlink:href="#path5084"/>
 <use style="fill:#666666" width="1250" height="1250" x="0" y="0" transform="translate(-246.29,-703.98)" xlink:href="#path5084"/>
 <use style="fill:#666666" width="1250" height="1250" x="0" y="0" transform="translate(-251.04,-701.31)" xlink:href="#path5084"/>
 <use style="fill:#666666" width="1250" height="1250" x="0" y="0" transform="translate(-249.09,-699.6)" xlink:href="#path5084"/>
 <use style="fill:#666666" width="1250" height="1250" x="0" y="0" transform="translate(-247.3,-701.31)" xlink:href="#path5084"/>
 <use style="fill:#666666" width="1250" height="1250" x="0" y="0" transform="translate(-246.37,-698.59)" xlink:href="#path5084"/>
 <use style="fill:#666666" width="1250" height="1250" x="0" y="0" transform="translate(-255,-695.25)" xlink:href="#path5084"/>
 <use style="fill:#666666" width="1250" height="1250" x="0" y="0" transform="translate(-243.19,-695.25)" xlink:href="#path5084"/>
</svg>
