<svg xmlns="http://www.w3.org/2000/svg" xmlns:xlink="http://www.w3.org/1999/xlink" width="16" height="16" version="1.1" viewBox="0 0 16 16">
 <rect style="fill:none" width="16" height="16" x="0" y="0"/>
 <circle style="fill:#666666" cx="2.16" cy="3.18" r="1.341"/>
 <use style="fill:#666666" width="1250" height="1250" x="0" y="0" transform="translate(-255,-684.95)" xlink:href="#path5011"/>
 <use style="fill:#666666" width="1250" height="1250" x="0" y="0" transform="translate(-254.99,-682.27)" xlink:href="#path5011"/>
 <use style="fill:#666666" width="1250" height="1250" x="0" y="0" transform="translate(-255,-679.41)" xlink:href="#path5011"/>
 <use style="fill:#666666" width="1250" height="1250" x="0" y="0" transform="translate(-252.04,-687.99)" xlink:href="#path5011"/>
 <use style="fill:#666666" width="1250" height="1250" x="0" y="0" transform="translate(-251.99,-686.47)" xlink:href="#path5011"/>
 <use style="fill:#666666" width="1250" height="1250" x="0" y="0" transform="translate(-251.97,-684.64)" xlink:href="#path5011"/>
 <use style="fill:#666666" width="1250" height="1250" x="0" y="0" transform="translate(-252,-681.38)" xlink:href="#path5011"/>
 <use style="fill:#666666" width="1250" height="1250" x="0" y="0" transform="translate(-249.08,-688.07)" xlink:href="#path5011"/>
 <use style="fill:#666666" width="1250" height="1250" x="0" y="0" transform="translate(-249.01,-686.98)" xlink:href="#path5011"/>
 <use style="fill:#666666" width="1250" height="1250" x="0" y="0" transform="translate(-248.97,-685.31)" xlink:href="#path5011"/>
 <use style="fill:#666666" width="1250" height="1250" x="0" y="0" transform="translate(-249.01,-682.53)" xlink:href="#path5011"/>
 <use style="fill:#666666" width="1250" height="1250" x="0" y="0" transform="translate(-246.14,-688.04)" xlink:href="#path5011"/>
 <use style="fill:#666666" width="1250" height="1250" x="0" y="0" transform="translate(-246.09,-686.52)" xlink:href="#path5011"/>
 <use style="fill:#666666" width="1250" height="1250" x="0" y="0" transform="translate(-246.06,-684.8)" xlink:href="#path5011"/>
 <use style="fill:#666666" width="1250" height="1250" x="0" y="0" transform="translate(-246.1,-681.44)" xlink:href="#path5011"/>
 <use style="fill:#666666" width="1250" height="1250" x="0" y="0" transform="translate(-243.2,-687.37)" xlink:href="#path5011"/>
 <use style="fill:#666666" width="1250" height="1250" x="0" y="0" transform="translate(-243.19,-684.83)" xlink:href="#path5011"/>
 <use style="fill:#666666" width="1250" height="1250" x="0" y="0" transform="translate(-243.18,-682.18)" xlink:href="#path5011"/>
 <use style="fill:#666666" width="1250" height="1250" x="0" y="0" transform="translate(-243.2,-679.45)" xlink:href="#path5011"/>
 <use style="fill:#666666" width="1250" height="1250" x="0" y="0" transform="translate(-255,-676.65)" xlink:href="#path5011"/>
 <use style="fill:#666666" width="1250" height="1250" x="0" y="0" transform="translate(-252,-677.64)" xlink:href="#path5011"/>
 <use style="fill:#666666" width="1250" height="1250" x="0" y="0" transform="translate(-249.01,-677.86)" xlink:href="#path5011"/>
 <use style="fill:#666666" width="1250" height="1250" x="0" y="0" transform="translate(-246.1,-677.47)" xlink:href="#path5011"/>
 <use style="fill:#666666" width="1250" height="1250" x="0" y="0" transform="translate(-243.2,-676.68)" xlink:href="#path5011"/>
</svg>
