<svg xmlns="http://www.w3.org/2000/svg" width="16" height="16" version="1.1" viewBox="0 0 16 16">
 <rect style="fill:none" width="16" height="16" x="0" y="0"/>
 <path style="fill:#666666" d="m 0,5 c 0,0 3.58,6 8,6 4.42,0 8,-6 8,-6 H 14 C 14,5 11.87,9 8,9 4.13,9 2,5 2,5 Z"/>
 <path style="fill:#3b3c39;stroke:#666666;stroke-linecap:round" d="M 2,7 1,8"/>
 <path style="fill:#3b3c39;stroke:#666666;stroke-linecap:round" d="m 14,7 1,1"/>
 <path style="fill:#3b3c39;stroke:#666666;stroke-linecap:round" d="M 4,8 2,10"/>
 <path style="fill:#3b3c39;stroke:#666666;stroke-linecap:round" d="M 5.37,9.44 4,11.81"/>
 <path style="fill:#3b3c39;stroke:#666666;stroke-linecap:round" d="m 7.44,9.94 -0.69,3"/>
 <path style="fill:#3b3c39;stroke:#666666;stroke-linecap:round" d="M 12.44,8 14,10"/>
 <path style="fill:#3b3c39;stroke:#666666;stroke-linecap:round" d="m 11.06,9.44 1.33,2.15"/>
 <path style="fill:#3b3c39;stroke:#666666;stroke-linecap:round" d="m 9,9.94 0.86,3"/>
</svg>
