<svg xmlns="http://www.w3.org/2000/svg" width="16" height="16" version="1.1" viewBox="0 0 16 16">
 <rect style="fill:none" width="16" height="16" x="-16" y="0" transform="scale(-1,1)"/>
 <path style="fill:#666666" d="M 4,10 1,7 h 6 z"/>
 <path style="fill:#666666" d="M 9.5,0 C 9.67,0 9.83,0.02 10,0.03 V 2.06 C 9.83,2.04 9.67,2 9.5,2 7.01,2 5,4.02 5,6.5 5,6.67 5.04,6.83 5.06,7 H 3.03 C 3.02,6.83 3,6.67 3,6.5 3,2.91 5.91,0 9.5,0 Z"/>
 <rect style="fill:#666666" width="5" height="10" x="-16" y="0" transform="scale(-1,1)"/>
 <rect style="fill:#666666" width="5" height="10" x="11" y="0" transform="matrix(0,1,1,0,0,0)"/>
</svg>
