<svg xmlns="http://www.w3.org/2000/svg" xmlns:xlink="http://www.w3.org/1999/xlink" width="16" height="16" version="1.1" viewBox="0 0 16 16">
 <rect style="opacity:0.3;fill:none" width="16" height="16" x="0" y="0"/>
 <ellipse style="fill:#666666" cx="1.48" cy="1.45" rx="1.48" ry="1.45"/>
 <use style="fill:#666666" width="1250" height="1250" x="0" y="0" transform="matrix(0.98608,0,0,0.98608,-241.648,-736.933)" xlink:href="#path5084-2"/>
 <use style="fill:#666666" width="1250" height="1250" x="0" y="0" transform="matrix(0.97913,0,0,0.97913,-236.606,-728.455)" xlink:href="#path5084-2"/>
 <use style="fill:#666666" width="1250" height="1250" x="0" y="0" transform="matrix(0.90253,0,0,0.90253,-216.959,-667.82)" xlink:href="#path5084-2"/>
 <use style="fill:#666666" width="1250" height="1250" x="0" y="0" transform="matrix(0.98607,0,0,0.98607,-248.1672,-736.93)" xlink:href="#path5084-2"/>
 <use style="fill:#666666" width="1250" height="1250" x="0" y="0" transform="translate(-241.959,-747.36)" xlink:href="#path5084-2"/>
 <use style="fill:#666666" width="1250" height="1250" x="0" y="0" transform="matrix(0.90686,0,0,0.90686,-231.112,-671.067)" xlink:href="#path5084-2"/>
 <use style="fill:#666666" width="1250" height="1250" x="0" y="0" transform="matrix(0.9828,0,0,0.9828,-250.5891,-724.657)" xlink:href="#path5084-2"/>
 <use style="fill:#666666" width="1250" height="1250" x="0" y="0" transform="matrix(0.92205,0,0,0.92205,-228.486,-688.988)" xlink:href="#path5084-2"/>
 <use style="fill:#666666" width="1250" height="1250" x="0" y="0" transform="matrix(0.98019,0,0,0.98019,-249.9199,-729.254)" xlink:href="#path5084-2"/>
 <use style="fill:#666666" width="1250" height="1250" x="0" y="0" transform="matrix(0.61468,0,0,0.61468,-152.91,-455.55)" xlink:href="#path5084-2"/>
 <use style="fill:#666666" width="1250" height="1250" x="0" y="0" transform="matrix(0.62326,0,0,0.62326,-155.114,-455.43)" xlink:href="#path5084-2"/>
 <use style="fill:#666666" width="1250" height="1250" x="0" y="0" transform="matrix(0.42965,0,0,0.42965,-102.2,-317)" xlink:href="#path5084-2"/>
 <use style="fill:#666666" width="1250" height="1250" x="0" y="0" transform="matrix(0.61129,0,0,0.61129,-145.52,-453.02)" xlink:href="#path5084-2"/>
 <use style="fill:#666666" width="1250" height="1250" x="0" y="0" transform="matrix(0.4261,0,0,0.4261,-104.55,-311.07)" xlink:href="#path5084-2"/>
 <use style="fill:#666666" width="1250" height="1250" x="0" y="0" transform="matrix(0.43781,0,0,0.43781,-104.29,-316.56)" xlink:href="#path5084-2"/>
 <use style="fill:#666666" width="1250" height="1250" x="0" y="0" transform="matrix(0.25681,0,0,0.25681,-57.87,-184.3)" xlink:href="#path5084-2"/>
 <use style="fill:#666666" width="1250" height="1250" x="0" y="0" transform="matrix(0.42228,0,0,0.42228,-97.05,-308.21)" xlink:href="#path5084-2"/>
 <use style="fill:#666666" width="1250" height="1250" x="0" y="0" transform="matrix(0.619,0,0,0.619,-147.5,-452.24)" xlink:href="#path5084-2"/>
 <use style="fill:#666666" width="1250" height="1250" x="0" y="0" transform="matrix(0.98841,0,0,0.98841,-242.248,-725.584)" xlink:href="#path5084-2"/>
 <use style="fill:#666666" width="1250" height="1250" x="0" y="0" transform="matrix(0.98031,0,0,0.98031,-236.91,-722.793)" xlink:href="#path5084-2"/>
 <use style="fill:#666666" width="1250" height="1250" x="0" y="0" transform="translate(-255,-734.26)" xlink:href="#path5084-2"/>
 <use style="fill:#666666" width="1250" height="1250" x="0" y="0" transform="matrix(0.98978,0,0,0.98978,-249.1183,-726.607)" xlink:href="#path5084-2"/>
 <use style="fill:#666666" width="1250" height="1250" x="0" y="0" transform="matrix(0.93022,0,0,0.93022,-230.582,-682.008)" xlink:href="#path5084-2"/>
 <use style="fill:#666666" width="1250" height="1250" x="0" y="0" transform="translate(-241.959,-734.26)" xlink:href="#path5084-2"/>
</svg>
