<svg xmlns="http://www.w3.org/2000/svg" width="16" height="16.507" version="1.1" viewBox="0 0 16 16.51">
 <rect style="fill:none" width="16" height="16" x="0" y=".51"/>
 <path style="fill:#666666" d="m 8,5.51 c -1.66,0 -3,1.35 -3,3 0,1.66 1.34,3 3,3 1.66,0 3,-1.34 3,-3 0,-1.65 -1.34,-3 -3,-3 z M 7.51,6.34 c 0.37,0 0.68,0.31 0.68,0.7 0,0.38 -0.31,0.71 -0.68,0.71 -0.38,0 -0.69,-0.33 -0.69,-0.71 0,-0.39 0.31,-0.7 0.69,-0.7 z"/>
 <path style="fill:#666666" d="m 8,2.51 c -4.42,0 -8,6 -8,6 0,0 3.58,6 8,6 4.42,0 8,-6 8,-6 0,0 -3.58,-6 -8,-6 z m 0,2 c 3.87,0 6,4 6,4 0,0 -2.13,4 -6,4 -3.87,0 -6,-4 -6,-4 0,0 2.13,-4 6,-4 z"/>
 <path style="fill:none;stroke:#666666;stroke-linecap:round" d="m 2,6.45 -1,-1"/>
 <path style="fill:none;stroke:#666666;stroke-linecap:round" d="m 14,6.45 1,-1"/>
 <path style="fill:none;stroke:#666666;stroke-linecap:round" d="m 4,5.45 -2,-2"/>
 <path style="fill:none;stroke:#666666;stroke-linecap:round" d="M 5.37,4.01 4,1.64"/>
 <path style="fill:none;stroke:#666666;stroke-linecap:round" d="m 7.44,3.51 -0.69,-3"/>
 <path style="fill:none;stroke:#666666;stroke-linecap:round" d="M 12.44,5.45 14,3.45"/>
 <path style="fill:none;stroke:#666666;stroke-linecap:round" d="M 11.06,4.01 12.39,1.86"/>
 <path style="fill:none;stroke:#666666;stroke-linecap:round" d="m 9,3.51 0.86,-3"/>
</svg>
