<svg xmlns="http://www.w3.org/2000/svg" width="16" height="16" version="1.1" viewBox="0 0 16 16">
 <rect style="fill:none" width="16" height="16" x="0" y="0"/>
 <circle style="fill:#666666" cx="2.03" cy="1.99" r="1.341"/>
 <circle style="fill:#666666" cx="10.89" cy="2" r="1.041"/>
 <circle style="fill:#666666" cx="13.84" cy="5.03" r="1.063"/>
 <circle style="fill:#666666" cx="13.85" cy="8.05" r="1.21"/>
 <circle style="fill:#666666" cx="4.98" cy="2" r=".947"/>
 <circle style="fill:#666666" cx="13.84" cy="1.99" r="1.341"/>
 <circle style="fill:#666666" cx="2.02" cy="8.05" r="1.216"/>
 <circle style="fill:#666666" cx="2.03" cy="11.08" r="1.036"/>
 <circle style="fill:#666666" cx="7.93" cy="1.99" r="1.236"/>
 <circle style="fill:#666666" cx="2.02" cy="5.02" r="1.064"/>
 <circle style="fill:#666666" cx="10.88" cy="14.11" r="1.106"/>
 <circle style="fill:#666666" cx="13.84" cy="11.08" r="1.095"/>
 <circle style="fill:#666666" cx="2.03" cy="14.1" r="1.341"/>
 <circle style="fill:#666666" cx="4.98" cy="14.11" r="1.046"/>
 <circle style="fill:#666666" cx="7.94" cy="14.11" r="1.247"/>
 <circle style="fill:#666666" cx="13.84" cy="14.1" r="1.341"/>
 <circle style="fill:#666666" cx="2.94" cy="1.76" r="0"/>
 <circle style="opacity:0.3;fill:none;stroke:#666666;stroke-width:0.32975" cx="5.06" cy="5.13" r="1.322"/>
 <circle style="opacity:0.3;fill:#666666" cx="8.02" cy="5.13" r=".875"/>
 <circle style="opacity:0.3;fill:none;stroke:#666666;stroke-width:0.32975" cx="10.94" cy="5.08" r="1.322"/>
 <circle style="opacity:0.3;fill:#666666" cx="5.07" cy="8.13" r=".85"/>
 <circle style="opacity:0.3;fill:none;stroke:#666666;stroke-width:0.30834001" cx="8.02" cy="8.13" r="1.236"/>
 <circle style="opacity:0.3;fill:#666666" cx="10.95" cy="8.09" r=".822"/>
 <circle style="opacity:0.3;fill:none;stroke:#666666;stroke-width:0.32975" cx="5.06" cy="11.13" r="1.322"/>
 <circle style="opacity:0.3;fill:#666666" cx="8.03" cy="11.14" r=".792"/>
 <circle style="opacity:0.3;fill:none;stroke:#666666;stroke-width:0.32975" cx="10.94" cy="11.08" r="1.322"/>
 <ellipse style="fill:#666666" cx="5.09" cy="5.14" rx=".608" ry=".625"/>
 <ellipse style="fill:#666666" cx="5.03" cy="11.11" rx=".608" ry=".625"/>
 <ellipse style="fill:#666666" cx="10.93" cy="5.08" rx=".608" ry=".625"/>
 <ellipse style="fill:#666666" cx="10.93" cy="11.14" rx=".608" ry=".625"/>
</svg>
