<svg xmlns="http://www.w3.org/2000/svg" xmlns:xlink="http://www.w3.org/1999/xlink" width="16" height="16" version="1.1" viewBox="0 0 16 16">
 <rect style="fill:none" width="16" height="16" x=".02" y="0"/>
 <use style="fill:#666666" width="1250" height="1250" x="0" y="0" transform="matrix(0.99278,0.11999,-0.11999,0.99277,-151.96,-792.68)" xlink:href="#rect5405-3"/>
 <use style="fill:#666666" width="1250" height="1250" x="0" y="0" transform="matrix(0.99308,0.1174,-0.11741,0.99308,-151.07,-789.23)" xlink:href="#rect5405-3"/>
 <use style="fill:#666666" width="1250" height="1250" x="0" y="0" transform="matrix(0.97079,0.23993,-0.23995,0.97079,-51.05,-800.59)" xlink:href="#rect5405-3"/>
 <use style="fill:#666666" width="1250" height="1250" x="0" y="0" transform="matrix(0.98986,0.14205,-0.14206,0.98986,-140.14,-796.12)" xlink:href="#rect5405-3"/>
 <use style="fill:#666666" width="1250" height="1250" x="0" y="0" transform="matrix(1,0,0,0.99997,-243.19,-767.36107)" xlink:href="#rect5405-3"/>
 <use style="fill:#666666" width="1250" height="1250" x="0" y="0" transform="matrix(0.95201,0.30605,-0.30607,0.95201,-7.16,-803.16)" xlink:href="#rect5405-3"/>
 <use style="fill:#666666" width="1250" height="1250" x="0" y="0" transform="matrix(0.98933,0.14572,-0.14572,0.98933,-140.14,-787.57)" xlink:href="#rect5405-3"/>
 <use style="fill:#666666" width="1250" height="1250" x="0" y="0" transform="matrix(0.9647,0.26332,-0.26334,0.9647,-37.39,-807.98)" xlink:href="#rect5405-3"/>
 <use style="fill:#666666" width="1250" height="1250" x="0" y="0" transform="matrix(0.98661,0.16311,-0.16312,0.98661,-126.05,-796.01)" xlink:href="#rect5405-3"/>
 <use style="fill:#666666" width="1250" height="1250" x="0" y="0" transform="matrix(0.7087,0.70549,-0.70553,0.7087,365.77,-721.792)" xlink:href="#rect5405-3"/>
 <use style="fill:#666666" width="1250" height="1250" x="0" y="0" transform="matrix(0.74048,0.67206,-0.6721,0.74048,331.87,-731.582)" xlink:href="#rect5405-3"/>
 <use style="fill:#666666" width="1250" height="1250" x="0" y="0" transform="matrix(0.45063,0.89268,-0.89274,0.45063,579.18,-571.41)" xlink:href="#rect5405-3"/>
 <use style="fill:#666666" width="1250" height="1250" x="0" y="0" transform="matrix(0.75216,0.65896,-0.659,0.75216,324.68,-743.252)" xlink:href="#rect5405-3"/>
 <use style="fill:#666666" width="1250" height="1250" x="0" y="0" transform="matrix(0.42202,0.90656,-0.90662,0.42202,594.27,-549.95)" xlink:href="#rect5405-3"/>
 <use style="fill:#666666" width="1250" height="1250" x="0" y="0" transform="matrix(0.50134,0.86522,-0.86527,0.50134,545,-597.31)" xlink:href="#rect5405-3"/>
 <use style="fill:#666666" width="1250" height="1250" x="0" y="0" transform="matrix(0.03141,0.99948,-0.99954,0.03141,769.2,-273.33)" xlink:href="#rect5405-3"/>
 <use style="fill:#666666" width="1250" height="1250" x="0" y="0" transform="matrix(0.49417,0.86934,-0.86939,0.49417,552.97,-595.88)" xlink:href="#rect5405-3"/>
 <use style="fill:#666666" width="1250" height="1250" x="0" y="0" transform="matrix(0.78023,0.62547,-0.62551,0.78024,291.69,-750.182)" xlink:href="#rect5405-3"/>
 <use style="fill:#666666" width="1250" height="1250" x="0" y="0" transform="matrix(0.99577,0.09183,-0.09184,0.99577,-174.39,-775.6308)" xlink:href="#rect5405-3"/>
 <use style="fill:#666666" width="1250" height="1250" x="0" y="0" transform="matrix(0.99468,0.10298,-0.10298,0.99468,-162.58,-780.691)" xlink:href="#rect5405-3"/>
 <use style="fill:#666666" width="1250" height="1250" x="0" y="0" transform="matrix(1,0,0,0.99997,-255,-755.251)" xlink:href="#rect5405-3"/>
 <use style="fill:#666666" width="1250" height="1250" x="0" y="0" transform="matrix(0.99382,0.11098,-0.11098,0.99382,-165.07,-779.061)" xlink:href="#rect5405-3"/>
 <use style="fill:#666666" width="1250" height="1250" x="0" y="0" transform="matrix(0.97576,0.21881,-0.21883,0.97576,-74.49,-792.93)" xlink:href="#rect5405-3"/>
 <use style="fill:#666666" width="1250" height="1250" x="0" y="0" transform="matrix(1,0,0,0.99997,-243.19,-755.251)" xlink:href="#rect5405-3"/>
 <rect style="fill:#666666" width="1.258" height="3.036" x="1.88" y=".52"/>
</svg>
