<svg xmlns="http://www.w3.org/2000/svg" width="16" height="16" version="1.1" viewBox="0 0 16 16">
 <rect style="fill:none" width="16" height="16" x="0" y="0"/>
 <rect style="opacity:0.3;fill:#666666" width="3" height="3" x="1.5" y="1.5"/>
 <rect style="opacity:0.3;fill:#666666" width="3" height="3" x="6.5" y="1.5"/>
 <rect style="opacity:0.3;fill:#666666" width="3" height="3" x="11.5" y="1.5"/>
 <rect style="opacity:0.3;fill:#666666" width="3" height="3" x="1.5" y="6.5"/>
 <rect style="opacity:0.3;fill:#666666" width="3" height="3" x="6.5" y="6.5"/>
 <rect style="opacity:0.3;fill:#666666" width="3" height="3" x="11.5" y="6.5"/>
 <rect style="opacity:0.3;fill:#666666" width="3" height="3" x="1.5" y="11.5"/>
 <rect style="opacity:0.3;fill:#666666" width="3" height="3" x="6.5" y="11.5"/>
 <rect style="opacity:0.3;fill:#666666" width="3" height="3" x="11.5" y="11.5"/>
 <rect style="fill:none;stroke:#666666" width="3" height="3" x="1.5" y="1.5"/>
 <rect style="fill:none;stroke:#666666" width="3" height="3" x="6.5" y="1.5"/>
 <rect style="fill:none;stroke:#666666" width="3" height="3" x="11.5" y="1.5"/>
 <rect style="fill:none;stroke:#666666" width="3" height="3" x="1.5" y="6.5"/>
 <rect style="fill:none;stroke:#666666" width="3" height="3" x="6.5" y="6.5"/>
 <rect style="fill:none;stroke:#666666" width="3" height="3" x="11.5" y="6.5"/>
 <rect style="fill:none;stroke:#666666" width="3" height="3" x="1.5" y="11.5"/>
 <rect style="fill:none;stroke:#666666" width="3" height="3" x="6.5" y="11.5"/>
 <rect style="fill:none;stroke:#666666" width="3" height="3" x="11.5" y="11.5"/>
</svg>
