<svg xmlns="http://www.w3.org/2000/svg" width="16" height="16" version="1.1" viewBox="0 0 16 16">
 <rect style="fill:none" width="16" height="16" x="0" y="0"/>
 <path style="fill:#666666" d="M 5,5 V 9 C 5.13,9.02 5.36,9 5.5,9 7.43,9 9,7.43 9,5.5 9,5.33 8.99,5.16 8.97,5 Z m 5.97,0 C 10.98,5.16 11,5.33 11,5.5 11,8.54 8.54,11 5.5,11 5.34,11 5.19,10.98 5.03,10.97 V 15 h 10 V 5 H 11 Z"/>
 <path style="opacity:0.3;fill:#666666" d="M 5.5,0 C 2.46,0 0,2.46 0,5.5 0,8.37 2.2,10.72 5,10.97 V 5 h 5.97 C 10.72,2.2 8.37,0 5.5,0 Z"/>
</svg>
