<svg xmlns="http://www.w3.org/2000/svg" width="16" height="16" version="1.1" viewBox="0 0 16 16">
 <rect style="fill:none" width="16" height="16" x="0" y="0"/>
 <path style="fill:#666666" d="M 13.43,1.95 C 7.85,2.98 2.85,6.68 2.02,13.39 a 0.50389,0.50389 0 1 0 1,0.12 C 3.8,7.24 8.34,3.93 13.62,2.95 a 0.50894499,0.50894499 0 1 0 -0.19,-1 z"/>
 <path style="fill:#666666" d="m 9.05,9.05 0.05,6.07 3.91,-3.16 z"/>
 <rect style="fill:#666666" width=".949" height="6" x="14.06" y="9"/>
 <circle style="fill:#666666" cx="13.56" cy="2.5" r="1.5"/>
 <circle style="fill:#666666" cx="2.56" cy="13.5" r="1.5"/>
 <path style="fill:#666666;fill-rule:evenodd" d="M 2.98,4.21 C 1.74,6.08 1.7,8.42 3.22,9.83 4.7,10.63 6.18,10.47 8,8.84 4.75,9.27 3.01,7.74 2.98,4.21 Z"/>
 <path style="fill:#666666;fill-rule:evenodd" d="M 8.92,1.11 C 7.41,2.03 6.62,3.62 7.26,5.03 8.06,6.02 9.18,6.35 11.03,5.77 8.55,5.1 7.79,3.54 8.92,1.11 Z"/>
</svg>
