<svg xmlns="http://www.w3.org/2000/svg" width="16" height="16" version="1.1" viewBox="0 0 16 16">
 <rect style="opacity:0.3;fill:none" width="16" height="16" x="0" y="0"/>
 <path style="fill:#666666" d="M 10.97,5 C 10.98,5.16 11,5.33 11,5.5 11,6.83 10.53,8.05 9.75,9 9.66,9.11 9.57,9.21 9.47,9.31 9.44,9.34 9.4,9.35 9.37,9.37 9.27,9.47 9.2,9.6 9.09,9.69 9.07,9.71 9.03,9.73 9,9.75 8.89,9.84 8.77,9.92 8.66,10 c -0.02,0.01 -0.05,0.02 -0.07,0.03 -0.15,0.1 -0.3,0.23 -0.47,0.31 -0.75,0.4 -1.62,0.6 -2.53,0.6 -0.21,0 -0.38,-0.1 -0.59,-0.13 V 10.97 15 H 15 V 5 Z"/>
 <path style="fill:#666666" d="M 5.5,0 C 2.46,0 0,2.46 0,5.5 0,8.38 2.21,10.73 5.03,10.97 V 5 h 5.94 C 10.72,2.2 8.37,0 5.5,0 Z"/>
 <path style="opacity:0.3;fill:#666666;fill-rule:evenodd" d="m 5.03,5 v 5.97 C 5.2,10.99 5.36,11 5.53,11 8.57,11 11.03,8.54 11.03,5.5 11.03,5.33 11.01,5.17 11,5 Z"/>
</svg>
