<svg xmlns="http://www.w3.org/2000/svg" width="16" height="16" version="1.1" viewBox="0 0 16 16">
 <rect style="fill:none" width="16" height="16" x="0" y="0"/>
 <path style="opacity:0.3;fill:#666666" d="M 5.5,0 C 2.46,0 0,2.46 0,5.5 0,8.54 2.46,11 5.5,11 8.54,11 11,8.54 11,5.5 11,2.46 8.54,0 5.5,0 Z m 0,2 C 7.43,2 9,3.57 9,5.5 9,7.44 7.43,9 5.5,9 3.57,9 2,7.44 2,5.5 2,3.57 3.57,2 5.5,2 Z"/>
 <path style="fill:#666666" d="M 11.97,5 C 11.98,5.17 12,5.33 12,5.5 12,6.02 12.08,5.52 11.97,6 h 3 v 9 h -9 V 12 C 5.49,12.12 6.02,12 5.5,12 5.33,12 5.17,11.98 5,11.97 V 16 h 2 9 V 14 7 5 h -2 z"/>
 <path style="fill:#666666" d="m 4.97,5 v 2 1 h 1 V 6 h 2 V 5 h -1 z"/>
</svg>
