<svg xmlns="http://www.w3.org/2000/svg" width="16" height="16" version="1.1" viewBox="0 0 16 16">
 <rect style="fill:none" width="16" height="16" x="0" y="0"/>
 <path style="fill:#666666" d="m 0,4.6 c 0,0 2,-0.49 4,1.4 2,1.89 6.05,1.95 8,0 2,-2 4,-1.4 4,-1.4 V 3.01 c 0,0 -2,-0.79 -4,1.1 C 10,6 6,6 4,4.11 2,2.22 0,3.01 0,3.01 Z"/>
 <path style="fill:#666666" d="m 0,11.41 c 0,0 2,0.48 4,-1.41 2,-1.89 6,-1.89 8,0 2,1.89 4,1.41 4,1.41 V 13 c 0,0 -2,0.79 -4,-1.11 C 10,10 6,10 4,11.89 2,13.79 0,13 0,13 Z"/>
</svg>
