<svg xmlns="http://www.w3.org/2000/svg" width="16" height="16" version="1.1" viewBox="0 0 16 16">
 <rect style="fill:none" width="16" height="16" x="0" y="0"/>
 <path style="fill:#666666" d="M 5.4,0.16 C 4.15,-0.05 2.77,0.51 1.33,2.13 A 0.81973,1.0001 0 1 0 2.43,3.6 C 3.65,2.23 4.47,2.01 5.2,2.13 c 0.72,0.12 1.49,0.73 2.35,1.5 0.86,0.77 1.78,1.67 2.97,2.09 1.2,0.42 2.64,0.22 4.13,-1.03 A 0.82971189,1.0123023 0 0 0 13.7,3.03 c -1.18,1 -1.94,1.06 -2.72,0.78 C 10.21,3.54 9.38,2.79 8.5,2 7.62,1.21 6.65,0.37 5.4,0.16 Z"/>
 <path style="fill:#666666" d="m 1.78,13 a 0.8214,1.0012 0 1 0 0.08,2 h 12.31 a 0.82051,1.0001 0 1 0 0,-2 H 1.86 a 0.82051,1.0001 0 0 0 -0.08,0 z"/>
 <path style="fill:#666666" d="m 5,8 h 5 1 l -3,3 z"/>
</svg>
