<svg xmlns="http://www.w3.org/2000/svg" width="16" height="16" version="1.1" viewBox="0 0 16 16">
 <rect style="opacity:0.3;fill:none" width="16" height="16" x="0" y="0"/>
 <path style="fill:#666666;fill-rule:evenodd" d="m 5,5 v 5.97 C 5.16,10.98 5.33,11 5.5,11 8.54,11 11,8.54 11,5.5 11,5.33 10.98,5.16 10.97,5 Z"/>
 <path style="opacity:0.3;fill:#666666" d="M 5.5,0 C 2.46,0 0,2.46 0,5.5 c 0,2.87 2.2,5.22 5,5.47 v -0.16 c 0.21,0.03 0.38,0.13 0.59,0.13 0.91,0 1.78,-0.2 2.53,-0.6 0.17,-0.08 0.32,-0.2 0.47,-0.31 C 8.61,10.02 8.64,10.01 8.66,10 8.77,9.92 8.89,9.84 9,9.75 9.03,9.73 9.07,9.71 9.09,9.69 9.2,9.6 9.27,9.47 9.37,9.37 9.4,9.35 9.44,9.34 9.47,9.31 9.57,9.21 9.66,9.11 9.75,9 10.53,8.05 11,6.83 11,5.5 11,2.46 8.54,0 5.5,0 Z"/>
 <rect style="opacity:0.3;fill:#666666" width="10" height="10" x="5" y="5"/>
</svg>
