<svg xmlns="http://www.w3.org/2000/svg" width="16" height="16" version="1.1" viewBox="0 0 16 16">
 <rect style="fill:none" width="16" height="16" x="0" y="0"/>
 <path style="fill:#666666" d="M 1,1 V 2 H 2 V 3 H 3 V 2 1 H 2 Z M 3,3 V 4 H 4 V 3 Z M 4,3 H 5 V 2 H 4 Z M 5,2 h 1 1 1 1 1 V 1 H 9 8 7 6 5 Z m 5,0 v 1 h 1 1 1 V 2 h 1 V 1 H 13 12 11 V 2 Z M 3,4 H 2 V 5 6 H 3 V 5 Z M 2,6 H 1 V 7 8 H 2 V 7 Z M 2,8 V 9 H 3 V 8 Z M 2,9 H 1 v 1 1 h 1 v -1 z m 0,2 v 1 h 1 v -1 z m 1,1 v 1 h 1 v -1 z m 1,1 v 1 h 1 v -1 z m 1,1 v 1 h 1 v 1 H 7 V 15 14 H 6 Z M 12,4 v 1 h 1 V 4 Z m 1,1 v 1 1 1 1 h 1 V 8 7 6 5 Z m 1,4 v 1 1 h 1 V 10 9 Z m 0,2 h -1 v 1 h 1 z m -1,1 h -1 v 1 h 1 z m -1,1 h -1 v 1 h 1 z m -1,1 H 10 9 v 1 1 h 1 v -1 h 1 z M 5,5 V 6 H 6 V 5 Z M 5,6 H 4 V 7 H 5 Z M 5,7 V 8 H 6 V 7 Z M 9,5 v 1 h 1 1 V 5 h -1 z m 2,1 v 1 h 1 V 6 Z m 0,1 H 10 9 v 1 h 1 1 z M 9,7 V 6 H 8 v 1 z"/>
 <path style="opacity:0.5;fill:#666666" d="m 6,9 v 1 H 7 V 9 Z m 1,1 v 1 h 1 v -1 z m 1,1 v 1 h 1 v -1 z m 1,0 h 1 V 10 H 9 Z M 6,10 H 5 v 1 H 6 Z M 5,11 H 4 v 1 h 1 z"/>
</svg>
