<svg xmlns="http://www.w3.org/2000/svg" width="16" height="16.012" version="1.1" viewBox="0 0 16 16.01">
 <rect style="fill:none" width="16" height="16" x="0" y="0" rx="0" ry="1"/>
 <path style="fill:#666666" d="m 2,16.01 2,-3 h 10 l -2,3 z"/>
 <path style="fill:#666666" d="m 7,7.01 h 2 v 2 h 2 L 8,12 5,9.01 h 2 z"/>
 <rect style="fill:#666666" width="1" height="1" x="0" y="-8" ry="0" transform="scale(1,-1)"/>
 <rect style="fill:#666666" width="1" height="1" x="2" y="-8" ry="0" transform="scale(1,-1)"/>
 <rect style="fill:#666666" width="1" height="1" x="4" y="-8" ry="0" transform="scale(1,-1)"/>
 <path style="fill:#666666" d="m 2,6.01 c 0,0 0,0 2,-3 h 9 l -2,3 z"/>
 <rect style="fill:#666666" width="1" height="1" x="12" y="-8" ry="0" transform="scale(1,-1)"/>
 <rect style="fill:#666666" width="1" height="1" x="14" y="-8" ry="0" transform="scale(1,-1)"/>
 <rect style="fill:#666666" width="1" height="1" x="0" y="-2" ry="0" transform="scale(1,-1)"/>
 <rect style="fill:#666666" width="1" height="1" x="2" y="-2" ry="0" transform="scale(1,-1)"/>
 <rect style="fill:#666666" width="1" height="1" x="0" y="-6" ry="0" transform="scale(1,-1)"/>
 <rect style="fill:#666666" width="1" height="1" x="0" y="-4" ry="0" transform="scale(1,-1)"/>
 <rect style="fill:#666666" width="1" height="1" x="4" y="-2" ry="0" transform="scale(1,-1)"/>
 <rect style="fill:#666666" width="1" height="1" x="6" y="-2" ry="0" transform="scale(1,-1)"/>
 <rect style="fill:#666666" width="1" height="1" x="8" y="-2" ry="0" transform="scale(1,-1)"/>
 <rect style="fill:#666666" width="1" height="1" x="10" y="-2" ry="0" transform="scale(1,-1)"/>
 <rect style="fill:#666666" width="1" height="1" x="12" y="-2" ry="0" transform="scale(1,-1)"/>
 <rect style="fill:#666666" width="1" height="1" x="14" y="-2" ry="0" transform="scale(1,-1)"/>
 <rect style="fill:#666666" width="1" height="1" x="14" y="-4" ry="0" transform="scale(1,-1)"/>
 <rect style="fill:#666666" width="1" height="1" x="14" y="-6" ry="0" transform="scale(1,-1)"/>
</svg>
