<svg xmlns="http://www.w3.org/2000/svg" width="16" height="16" version="1.1" viewBox="0 0 16 16">
 <rect style="fill:none" width="16" height="16" x="0" y="0"/>
 <path style="fill:#666666" d="M 2,4 4,1 h 10 l -2,3 z"/>
 <path style="fill:#666666" d="M 7,10 H 9 V 8 h 2 L 8,5.01 5,8 h 2 z"/>
 <rect style="fill:#666666" width="1" height="1" x="0" y="9" ry="0"/>
 <rect style="fill:#666666" width="1" height="1" x="2" y="9" ry="0"/>
 <rect style="fill:#666666" width="1" height="1" x="4" y="9" ry="0"/>
 <path style="fill:#666666" d="m 2,14 c 0,0 0,0 2,-3 h 9 l -2,3 z"/>
 <rect style="fill:#666666" width="1" height="1" x="12" y="9" ry="0"/>
 <rect style="fill:#666666" width="1" height="1" x="14" y="9" ry="0"/>
 <rect style="fill:#666666" width="1" height="1" x="0" y="15" ry="0"/>
 <rect style="fill:#666666" width="1" height="1" x="2" y="15" ry="0"/>
 <rect style="fill:#666666" width="1" height="1" x="0" y="11" ry="0"/>
 <rect style="fill:#666666" width="1" height="1" x="0" y="13" ry="0"/>
 <rect style="fill:#666666" width="1" height="1" x="4" y="15" ry="0"/>
 <rect style="fill:#666666" width="1" height="1" x="6" y="15" ry="0"/>
 <rect style="fill:#666666" width="1" height="1" x="8" y="15" ry="0"/>
 <rect style="fill:#666666" width="1" height="1" x="10" y="15" ry="0"/>
 <rect style="fill:#666666" width="1" height="1" x="12" y="15" ry="0"/>
 <rect style="fill:#666666" width="1" height="1" x="14" y="15" ry="0"/>
 <rect style="fill:#666666" width="1" height="1" x="14" y="13" ry="0"/>
 <rect style="fill:#666666" width="1" height="1" x="14" y="11" ry="0"/>
</svg>
