<svg xmlns="http://www.w3.org/2000/svg" width="16" height="16" version="1.1" viewBox="0 0 16 16">
 <rect style="fill:none" width="16" height="16" x="0" y="0"/>
 <path style="fill:#666666" d="M 6,2 C 5.45,2 5,2.45 5,3 V 4 H 2 C 1.448,4 1,4.45 1,5 v 8 c 0,0.55 0.448,1 1,1 h 12 c 0.552,0 1,-0.45 1,-1 V 5 C 15,4.45 14.552,4 14,4 H 11 V 3 C 11,2.45 10.55,2 10,2 Z m 2,3 c 2.209,0 4,1.79 4,4 0,2.21 -1.791,4 -4,4 C 5.791,13 4,11.21 4,9 4,6.79 5.791,5 8,5 Z M 8,7 C 6.895,7 6,7.9 6,9 c 0,1.1 0.895,2 2,2 1.105,0 2,-0.9 2,-2 C 10,7.9 9.105,7 8,7 Z"/>
</svg>
