<svg xmlns="http://www.w3.org/2000/svg" width="15.997" height="16" version="1.1" viewBox="0 0 16 16">
 <rect style="fill:none" width="15.976" height="16" x="-16" y="0" transform="scale(-1,1)"/>
 <path style="fill:#666666" d="M 0,0 V 16 H 15.094 A 0.71824,0.71824 0 0 1 14.781,15.81 L 12.188,13.37 C 11.556,13.8 10.809,14.03 10,14.03 7.801,14.03 6,12.21 6,10 6,7.79 7.801,5.97 10,5.97 c 2.199,0 4,1.82 4,4.03 0,0.87 -0.279,1.68 -0.75,2.34 l 2.531,2.44 a 0.71824,0.71824 0 0 1 0.188,0.34 V 0 Z M 2.031,1 H 14 V 3 H 2.031 Z M 10,7.44 c -1.414,0 -2.531,1.14 -2.531,2.56 0,1.42 1.117,2.56 2.531,2.56 1.414,0 2.531,-1.14 2.531,-2.56 0,-1.42 -1.117,-2.56 -2.531,-2.56 z m 5.969,8.09 A 0.71824,0.71824 0 0 1 15.438,16 h 0.531 z"/>
</svg>
