<svg xmlns="http://www.w3.org/2000/svg" width="16" height="16" version="1.1" viewBox="0 0 16 16">
 <rect style="opacity:0;fill-rule:evenodd" width="16" height="16" x="0" y="0"/>
 <path style="fill:#666666" d="M 14.23,2.91 C 12.08,3.24 9.59,4.49 7.58,6.34 5.57,8.18 4,10.66 4,13.38 a 0.575,0.6183 0 1 0 1.15,0 c 0,-2.21 1.29,-4.39 3.14,-6.08 1.86,-1.7 4.23,-2.91 6.09,-3.19 a 0.57251,0.61562 0 1 0 -0.15,-1.2 z"/>
 <path style="fill:#666666" d="M 4.48,2.19 A 0.54999,0.76843 0 0 0 4,3 v 9.22 a 0.55,0.76844 0 1 0 1.1,0 V 3 A 0.54999,0.76843 0 0 0 4.48,2.19 Z"/>
 <rect style="fill:#666666" width="4" height="4" x="3" y="10"/>
 <circle style="fill:#666666" cx="4.52" cy="2.5" r="1.563"/>
</svg>
