<svg xmlns="http://www.w3.org/2000/svg" width="16" height="16" version="1.1" viewBox="0 0 16 16">
 <rect style="fill:none" width="16" height="16" x="0" y="0"/>
 <rect style="fill:#666666" width="4" height="3.992" x="12" y="0"/>
 <rect style="fill:#666666" width="4" height="4" x="0" y="12"/>
 <path style="fill:#666666" d="M 10.34,2.08 C 7.52,2.43 5.4,3.87 4.03,5.67 2.21,8.08 1.64,11.12 2.22,13.45 l 0.06,0.35 0.38,0.06 C 9.35,14.98 14.96,9.29 13.84,2.55 L 13.78,2.17 13.41,2.11 C 12.31,1.97 11.29,1.96 10.34,2.08 Z m 0.13,1.06 C 11.2,3.05 11.99,3.09 12.84,3.17 13.52,8.91 8.93,13.51 3.25,12.83 2.9,10.9 3.34,8.32 4.87,6.3 6.09,4.69 7.92,3.45 10.47,3.14 Z"/>
</svg>
