<svg xmlns="http://www.w3.org/2000/svg" width="16" height="16" version="1.1" viewBox="0 0 16 16">
 <rect style="fill:none" width="16" height="16" x="0" y="0"/>
 <rect style="fill:#666666" width="1" height="1" x="3" y="2"/>
 <rect style="fill:#666666" width="1" height="1" x="3" y="4"/>
 <rect style="fill:#666666" width="1" height="1" x="3" y="6"/>
 <rect style="fill:#666666" width="1" height="1" x="3" y="8"/>
 <rect style="fill:#666666" width="1" height="1" x="3" y="10"/>
 <rect style="fill:#666666" width="1" height="1" x="3" y="12"/>
 <rect style="fill:#666666" width="1" height="1" x="3" y="14"/>
 <rect style="fill:#666666" width="1" height="1" x="5" y="14"/>
 <rect style="fill:#666666" width="1" height="1" x="7" y="14"/>
 <rect style="fill:#666666" width="1" height="1" x="9" y="14"/>
 <rect style="fill:#666666" width="1" height="1" x="11" y="14"/>
 <rect style="fill:#666666" width="1" height="1" x="11" y="12"/>
 <rect style="fill:#666666" width="1" height="1" x="11" y="10"/>
 <rect style="fill:#666666" width="1" height="1" x="11" y="8"/>
 <rect style="fill:#666666" width="1" height="1" x="11" y="6"/>
 <rect style="fill:#666666" width="1" height="1" x="11" y="4"/>
 <rect style="fill:#666666" width="1" height="1" x="11" y="2"/>
 <rect style="fill:#666666" width="1" height="1" x="9" y="2"/>
 <rect style="fill:#666666" width="1" height="1" x="7" y="2"/>
 <rect style="fill:#666666" width="1" height="1" x="5" y="2"/>
</svg>
