<svg xmlns="http://www.w3.org/2000/svg" width="16.022" height="16.006" version="1.1" viewBox="0 0 16.02 16.01">
 <rect style="fill:none" width="16" height="16" x=".02" y="0"/>
 <path style="fill:#666666" d="m 15.33,16 a 0.51404,0.51211 0 0 1 -0.4,-0.59 C 15.16,13.81 14.87,11.69 13.8,10 13.17,9 12.27,8.16 11.02,7.63 V 6.5 c 1.66,0.6 2.86,1.68 3.66,2.94 1.22,1.94 1.51,4.26 1.25,6.09 A 0.51404,0.51211 0 0 1 15.33,16 Z M 0.61,15.88 A 0.52408,0.52211 0 0 1 0.11,15.44 C -0.18,13.61 0.06,11.29 1.24,9.38 2.03,8.09 3.28,7.01 5.02,6.44 V 7.5 C 3.67,8 2.75,8.88 2.11,9.91 1.1,11.55 0.88,13.65 1.14,15.25 a 0.52408,0.52211 0 0 1 -0.53,0.63 z"/>
 <circle style="fill:#666666" cx="8.02" cy="6" r="2"/>
</svg>
