<svg xmlns="http://www.w3.org/2000/svg" width="16" height="16" version="1.1" viewBox="0 0 16 16">
 <rect style="fill:none" width="16" height="16" x="0" y="0"/>
 <path style="fill:#666666" d="m 8.55,13.49 c 3.6,0 5.53,-1.36 6.49,-2.79 C 16,9.27 16,7.78 16,7.78 a 0.49652,0.51886 0 1 0 -0.99,0 c 0,0 0,1.14 -0.78,2.31 -0.68,1.01 -2.17,1.92 -4.72,2.17 1.42,-2.18 2.07,-4.09 1.8,-5.68 C 11,4.74 9.77,3.39 8.34,2.43 5.47,0.53 1.66,0.03 1.66,0.03 A 0.49652,0.51886 0 1 0 1.54,1.04 c 0,0 3.64,0.54 6.24,2.27 1.29,0.86 2.29,1.97 2.54,3.44 0.25,1.46 -0.21,3.37 -2.14,5.9 a 0.49652,0.51886 0 0 0 0.37,0.84 z"/>
 <rect style="fill:#666666;fill-rule:evenodd" width="4.133" height="4.176" x="1.47" y="-16.94" transform="rotate(135)"/>
</svg>
