<svg xmlns="http://www.w3.org/2000/svg" width="16.063" height="16.031" version="1.1" viewBox="0 0 16.06 16.03">
 <rect style="fill:none" width="16" height="16" x="0" y=".02"/>
 <rect style="fill:none" width="16" height="16" x="0" y=".02"/>
 <rect style="fill:#666666" width="3" height="3" x="2" y=".02" rx="7" ry="0"/>
 <rect style="fill:#666666" width="3" height="3" x="2" y="13.02" rx="7" ry="0"/>
 <path style="fill:#666666" d="m 2,5.02 -2,2 2,2 -2,2 h 2 l 2,-2 -2,-2 2,-2 z"/>
 <path style="fill:#666666" d="m 6,0 v 3 h 1.53 c 3.12,0 5.53,2.31 5.53,5.03 0,2.73 -2.41,5 -5.53,5 C 7.41,13.03 7.3,13.01 7.19,13 H 7.16 7.13 5.97 v 3 h 1.06 0.1 c 0.14,0.01 0.26,0.03 0.4,0.03 4.63,0 8.53,-3.53 8.53,-8 C 16.06,3.57 12.16,0 7.53,0 Z"/>
</svg>
