<svg xmlns="http://www.w3.org/2000/svg" width="16" height="16" version="1.1" viewBox="0 0 16 16">
 <rect style="fill:none" width="16" height="15.938" x="0" y=".07"/>
 <path style="fill:#666666" d="m 15.91,0 -1.94,0.09 v 3.96 h 2 c 0,-0.88 -0.06,-3.16 -0.06,-4.04 z"/>
 <rect style="fill:#666666" width="2" height="3.984" x="-15.97" y="-16" transform="scale(-1)"/>
 <rect style="fill:#666666" width="1.992" height="3" x="-15.94" y="7" transform="rotate(-90)"/>
 <rect style="fill:#666666" width="4" height="1.992" x="-15.97" y="-16" transform="scale(-1)"/>
 <rect style="fill:#666666" width="1.992" height="3" x="-2" y="7" transform="rotate(-90)"/>
 <rect style="fill:#666666" width="4" height="1.992" x="12" y="0"/>
 <rect style="fill:#666666" width="1.992" height="7" x="6.98" y="-9" transform="rotate(90)"/>
 <path style="fill:#666666" d="m 9,4.99 v 5.97 l 4,-2.99 z"/>
 <rect style="fill:#666666" width="2" height="3.984" x="14" y="5.98"/>
 <rect style="fill:#666666" width="2" height="7.969" x="2" y="3.99"/>
 <path style="fill:#666666" d="M 6,11.96 H 0 l 3,3.98 z"/>
 <path style="fill:#666666" d="M 6,3.99 H 0 L 3,0 Z"/>
</svg>
