<svg xmlns="http://www.w3.org/2000/svg" width="16" height="16" version="1.1" viewBox="0 0 16 16">
 <rect style="fill:none" width="15.938" height="15.938" x=".06" y=".07"/>
 <path style="fill:#666666" d="m 15.9,0 -1.93,0.09 v 3.96 h 2 C 15.97,3.17 15.9,0.89 15.9,0.01 Z"/>
 <rect style="fill:#666666" width="1.992" height="3.984" x="-15.97" y="-16" transform="scale(-1)"/>
 <rect style="fill:#666666" width="1.992" height="3.984" x="-15.94" y="6.04" transform="rotate(-90)"/>
 <rect style="fill:#666666" width="3.984" height="1.992" x="-15.97" y="-16" transform="scale(-1)"/>
 <rect style="fill:#666666" width="1.992" height="3.984" x="-2" y="6.04" transform="rotate(-90)"/>
 <rect style="fill:#666666" width="3.984" height="1.992" x="-16" y="-2" transform="scale(-1)"/>
 <rect style="fill:#666666" width="1.992" height="9.961" x="7.03" y="-12.95" transform="scale(1,-1)"/>
 <path style="fill:#666666" d="M 0.15,0 2.08,0.09 V 4.05 H 0.09 c 0,-0.88 0.06,-3.16 0.06,-4.04 z"/>
 <rect style="fill:#666666" width="3.984" height="1.992" x=".06" y="-2" transform="scale(1,-1)"/>
 <path style="fill:#666666" d="m 0,14.01 0.08,1.93 h 3.96 v -1.99 c -0.88,0 -3.16,0.06 -4.04,0.06 z"/>
 <rect style="fill:#666666" width="3.984" height="1.992" x="11.93" y="-2.05" transform="rotate(90)"/>
 <rect style="fill:#666666" width="9.961" height="1.992" x="3.05" y="6.98"/>
 <rect style="fill:#666666" width="1.992" height="3.984" x=".06" y="5.98"/>
 <rect style="fill:#666666" width="1.992" height="3.984" x="14.01" y="5.98"/>
</svg>
