<svg xmlns="http://www.w3.org/2000/svg" width="16.022" height="16.006" version="1.1" viewBox="0 0 16.02 16.01">
 <rect style="fill:none" width="16" height="16" x=".02" y=".01"/>
 <path style="opacity:0.3;fill:#666666" d="m 15.33,16.01 a 0.51404,0.51211 0 0 1 -0.4,-0.6 c 0.23,-1.59 -0.06,-3.72 -1.13,-5.4 -0.63,-1 -1.53,-1.85 -2.78,-2.38 V 6.51 c 1.66,0.59 2.86,1.68 3.66,2.93 1.22,1.94 1.51,4.26 1.25,6.1 a 0.51404,0.51211 0 0 1 -0.6,0.47 z M 0.61,15.88 A 0.52408,0.52211 0 0 1 0.11,15.44 C -0.18,13.62 0.06,11.29 1.24,9.38 2.03,8.09 3.28,7.01 5.02,6.44 V 7.51 C 3.67,8.01 2.75,8.88 2.11,9.91 1.1,11.56 0.88,13.65 1.14,15.26 a 0.52408,0.52211 0 0 1 -0.53,0.62 z"/>
 <rect style="fill:#666666" width="4" height="5" x="6.02" y="-8.01" transform="scale(1,-1)"/>
 <rect style="fill:#666666" width="2" height="1" x="11.02" y="-5.01" transform="scale(1,-1)"/>
 <rect style="fill:#666666" width="2" height="1" x="3.02" y="-5.01" transform="scale(1,-1)"/>
 <ellipse style="fill:#666666" cx="14.02" cy="-4.46" rx="1.5" ry="1.516" transform="scale(1,-1)"/>
 <ellipse style="fill:#666666" cx="2.02" cy="-4.49" rx="1.5" ry="1.516" transform="scale(1,-1)"/>
</svg>
