<svg xmlns="http://www.w3.org/2000/svg" width="16" height="16" version="1.1" viewBox="0 0 16 16">
 <rect style="fill:none" width="16" height="16" x="0" y="0"/>
 <rect style="fill:#666666" width="1" height="11" x="8" y="5"/>
 <rect style="fill:#666666" width="11" height="1" x="3" y="10"/>
 <path style="fill:#666666" d="M 1,0 V 5 C 1.98,5 3.12,5.02 4,5 H 6 L 4.19,3.19 V 3.16 C 4.56,2.43 5.44,1.88 6.56,1.88 c 1.5,0 2.56,1 2.56,2.06 -0.08,0.54 0.39,1.1 0.94,1.1 0.55,0 1.03,-0.56 0.94,-1.1 C 11,1.68 8.94,0 6.56,0 5.02,0 3.61,0.7 2.81,1.81 Z"/>
 <rect style="fill:#666666" width="2" height="2" x="10" y="7"/>
 <rect style="fill:#666666" width="2" height="2" x="10" y="12"/>
 <rect style="fill:#666666" width="2" height="2" x="5" y="12"/>
 <rect style="fill:#666666" width="2" height="2" x="5" y="7"/>
</svg>
