<svg xmlns="http://www.w3.org/2000/svg" width="16" height="16" version="1.1" viewBox="0 0 16 16">
 <rect style="fill:none" width="16" height="16" x="0" y="0"/>
 <path style="fill:#666666" d="m 14.91,0.5 a 0.50005,0.50005 0 0 0 -0.25,0.16 l -14,14 a 0.50005,0.50005 0 1 0 0.68,0.68 l 14,-14 A 0.50005,0.50005 0 0 0 14.91,0.5 Z"/>
 <path style="fill:#666666" d="M 15.27,6.96 A 0.50005,0.50005 0 0 0 15.23,6.98 L 0.71,8.08 A 0.50005,0.50005 0 1 0 0.77,9.05 L 15.29,7.95 A 0.50005,0.50005 0 0 0 15.27,6.96 Z"/>
 <circle style="fill:#666666;fill-rule:evenodd" cx="7.99" cy="8" r="3"/>
</svg>
