<svg xmlns="http://www.w3.org/2000/svg" width="16" height="16" version="1.1" viewBox="0 0 16 16">
 <rect style="fill:none" width="16" height="16" x="0" y="0"/>
 <path style="fill:#666666" d="M 6.5,1 C 3.46,1 1,3.49 1,6.53 1,9.58 3.46,12 6.5,12 7.58,12 8.59,11.7 9.44,11.16 l 2.77,2.59 c 0.38,0.37 0.97,0.35 1.34,-0.04 l 0.19,-0.18 c 0.37,-0.39 0.38,-1 0,-1.38 L 11.03,9.63 c 0.62,-0.89 1,-1.93 1,-3.1 C 12.03,3.49 9.54,1 6.5,1 Z m 0.03,2.06 c 1.94,0 3.5,1.56 3.5,3.47 C 10.03,8.45 8.47,10 6.53,10 4.59,10 3,8.45 3,6.53 3,4.62 4.59,3.06 6.53,3.06 Z"/>
</svg>
