<svg xmlns="http://www.w3.org/2000/svg" width="16" height="16" version="1.1" viewBox="0 0 16 16">
 <rect style="fill:none" width="16" height="16" x="0" y="0"/>
 <path style="fill:#666666" d="M 3,16 C 3,9 3,12.88 3,9 3,5.12 5,3 10,3 h 6 V 2 H 9 C 4,2 2,5.12 2,9 v 7 z"/>
 <path style="fill:#666666" d="M 7,16 C 7,9 7,16.88 7,13 7,7 7,7 12,7 h 4 V 6 H 11 C 5,6 6,8 6,13 v 3 z"/>
 <rect style="fill:#666666" width="3" height="3" x="1" y="10"/>
 <rect style="fill:#666666" width="3" height="3" x="5" y="10"/>
 <rect style="fill:#666666" width="3" height="3" x="11" y="1"/>
 <rect style="fill:#666666" width="3" height="3" x="11" y="5"/>
</svg>
