<svg xmlns="http://www.w3.org/2000/svg" width="16" height="16" version="1.1" viewBox="0 0 16 16">
 <rect style="opacity:0.3;fill:none" width="16" height="16" x="0" y="0"/>
 <rect style="fill:#666666" width="1" height="1" x="12" y="6"/>
 <rect style="fill:#666666" width="1" height="1" x="10" y="6"/>
 <rect style="fill:#666666" width="1" height="1" x="8" y="6"/>
 <rect style="fill:#666666" width="1" height="1" x="6" y="6"/>
 <rect style="fill:#666666" width="1" height="1" x="6" y="8"/>
 <rect style="fill:#666666" width="1" height="1" x="6" y="10"/>
 <rect style="fill:#666666" width="1" height="1" x="6" y="12"/>
 <rect style="fill:#666666" width="1" height="1" x="6" y="14"/>
 <path style="fill:#666666" d="M 2,15 V 11 6 C 2,3.7 3.8,2 6,2 h 8 c 0,4.3 0,-0.9 0,3 H 7 C 5.9,4.9 5,5.8 5,7 v 5 3 z"/>
 <path style="fill:#666666" d="m 8,8 h 6 V 9.7 11 h -3 v 4 H 8 Z"/>
</svg>
