<svg xmlns="http://www.w3.org/2000/svg" width="16" height="16" version="1.1" viewBox="0 0 16 16">
 <path style="fill:#666666" d="M 8.03,0 C 5.91,0.02 3.77,0.36 1.62,0.97 2.55,3.4 1.69,7.35 2.22,10.5 2.74,13.6 5.64,14.67 8.03,16 10.89,14.68 13.47,13.1 13.81,10.5 14.23,7.34 13.34,4.25 14.37,0.97 12.28,0.28 10.16,-0.02 8.03,0 Z m 0,2.63 C 8.86,3.29 9.58,4.11 10,5.47 9.08,6.15 8.48,7.38 8.31,8.63 H 8.94 C 9,8.36 9.06,8.05 9.19,7.75 10.38,4.96 13.82,7.52 11.97,8.94 11.91,7.67 11.01,7.23 10.22,8.41 10.17,8.48 10.13,8.56 10.09,8.63 h 0.53 a 0.39277,0.4063 0 0 1 0,0.81 H 9.84 c 0.02,0.57 0.46,0.94 0.91,0.94 -0.5,1.33 -1.87,0.7 -1.91,-0.94 H 8.28 c 0.03,0.94 0.33,1.83 0.97,2.4 -0.3,0.59 -0.51,1.26 -1.22,1.5 -0.55,-0.2 -1,-0.77 -1.22,-1.5 0.65,-0.59 0.93,-1.47 0.94,-2.4 H 7.16 c -0.04,1.64 -1.41,2.27 -1.91,0.94 0.45,0 0.89,-0.37 0.91,-0.94 H 5.37 a 0.39277,0.4063 0 1 1 0,-0.81 H 5.91 C 5.87,8.56 5.83,8.48 5.78,8.41 4.99,7.23 4.09,7.67 4.03,8.94 2.18,7.52 5.62,4.96 6.81,7.75 6.94,8.05 7,8.36 7.06,8.63 H 7.69 C 7.5,7.41 6.88,6.2 6.03,5.47 6.38,4.37 7.01,3.38 8.03,2.63 Z"/>
 <rect style="fill:none" width="16" height="16" x="0" y="0"/>
</svg>
