<svg xmlns="http://www.w3.org/2000/svg" width="16" height="16" version="1.1" viewBox="0 0 16 16">
 <rect style="opacity:0.3;fill:none" width="16" height="16" x="0" y="0"/>
 <path style="fill:#666666" d="M 2,2 V 4 L 3,3 H 4 V 6 L 3,7 H 6 L 5,6 V 3 H 6 L 7,4 V 2 Z"/>
 <path style="fill:#666666" d="M 0,0 V 9 H 9 V 0 Z M 1,1 H 8 V 8 H 1 Z"/>
 <path style="fill:#666666" d="m 9,9 v 2 l 1,-1 h 1 v 3 l -1,1 h 3 l -1,-1 v -3 h 1 l 1,1 V 9 Z"/>
 <rect style="fill:#666666" width="1" height="1" x="11" y="7"/>
 <rect style="fill:#666666" width="1" height="1" x="13" y="7"/>
 <rect style="fill:#666666" width="1" height="1" x="15" y="7"/>
 <rect style="fill:#666666" width="1" height="1" x="15" y="9"/>
 <rect style="fill:#666666" width="1" height="1" x="15" y="11"/>
 <rect style="fill:#666666" width="1" height="1" x="15" y="13"/>
 <rect style="fill:#666666" width="1" height="1" x="15" y="15"/>
 <rect style="fill:#666666" width="1" height="1" x="13" y="15"/>
 <rect style="fill:#666666" width="1" height="1" x="11" y="15"/>
 <rect style="fill:#666666" width="1" height="1" x="9" y="15"/>
 <rect style="fill:#666666" width="1" height="1" x="7" y="15"/>
 <rect style="fill:#666666" width="1" height="1" x="7" y="13"/>
 <rect style="fill:#666666" width="1" height="1" x="7" y="11"/>
</svg>
