<svg xmlns="http://www.w3.org/2000/svg" width="16" height="16" version="1.1" viewBox="0 0 16 16">
 <rect style="opacity:0.3;fill:none" width="16" height="16" x="0" y="0"/>
 <path style="fill:#666666" d="M 2.5,4.01 0,11 h 1.5 c 0.75,-2 0,0 0.74,-2 L 4.8,9.02 5.51,11 h 1.5 L 4.51,4.01 Z m 1,1.5 L 4.52,8 H 2.51 Z"/>
 <path style="fill:#666666" d="M 10.5,4.01 8,11 h 1.5 c 0.75,-2 0,0 0.74,-2 L 12.8,9.02 13.51,11 h 1.5 l -2.5,-6.99 z m 1,1.5 1.02,2.49 h -2.01 z"/>
 <rect style="fill:#666666" width="1" height="11" x="7" y="2"/>
 <rect style="fill:#666666" width="15" height="1" x="0" y="12"/>
</svg>
