<svg xmlns="http://www.w3.org/2000/svg" width="16" height="16" version="1.1" viewBox="0 0 16 16">
 <rect style="opacity:0.3;fill:none" width="16" height="16" x="0" y="0"/>
 <path style="fill:#666666" d="M 3,6 C 2.45,6 2,6.45 2,7 v 4 H 3 V 8 C 3,7.45 3.45,7 4,7 4.55,7 5,7.45 5,8 v 3 H 6 V 7 C 6,6.45 5.55,6 5,6 Z"/>
 <path style="fill:#666666" d="M 10,2 9,3 v 6.5 c 0,0.77 0.57,1.38 1.31,1.47 0.06,0.02 0.12,0.03 0.19,0.03 0.16,0 0.39,0 0.5,0 V 10 H 10.5 C 10.22,10 10,9.78 10,9.5 V 9 5 4 C 10,3.85 9.96,2.14 10,2 Z"/>
 <rect style="fill:#666666" width="3" height="1" x="8" y="4" rx="0" ry=".5"/>
 <rect style="fill:#666666" width="1" height="5" x="0" y="6" ry=".5"/>
 <rect style="fill:#666666" width="1" height="1" x="0" y="4" ry="0"/>
 <path style="fill:#666666" d="m 13,2 c -1,1 -1,1 -1,1 v 8 h 1 V 9 5 4 C 13,3.85 12.96,2.14 13,2 Z"/>
 <path style="fill:#666666" d="m 13,6 c -0.55,0 -1,0.45 -1,1 v 4 h 1 V 8 c 0,-0.55 0.45,-1 1,-1 0.55,0 1,0.45 1,1 v 3 h 1 V 7 C 16,6.45 15.55,6 15,6 Z"/>
</svg>
