<svg xmlns="http://www.w3.org/2000/svg" width="16" height="16" version="1.1" viewBox="0 0 16 16">
 <rect style="opacity:0.3;fill:none" width="15.991" height="16" x="0" y="0"/>
 <path style="fill:#666666" d="M 2.5,0.01 0,7 H 1.5 C 2.25,5 1.5,7 2.24,5 L 4.8,5.02 5.51,7 H 7 L 4.51,0.01 Z m 1,1.5 L 4.52,4 H 2.51 Z"/>
 <path style="fill:#666666" d="M 11.49,7.01 8.99,14 h 1.5 c 0.75,-2 0,0 0.74,-2 L 13.79,12.02 14.5,14 H 16 L 13.5,7.01 Z m 1,1.5 1.02,2.49 H 11.5 Z"/>
 <rect style="fill:#666666" width="6.996" height="1" x="0" y="8"/>
 <rect style="fill:#666666" width="7.996" height="1" x="7.99" y="15"/>
 <rect style="fill:#666666" width=".999" height="8" x="6.99" y="8"/>
</svg>
