<svg xmlns="http://www.w3.org/2000/svg" width="16" height="16" version="1.1" viewBox="0 0 16 16">
 <rect style="opacity:0.3;fill:none" width="16" height="16" x="0" y="0"/>
 <path style="fill:#666666" d="M 2.5,4.01 0,11 h 1.5 c 0.75,-2 0,0 0.74,-2 L 4.8,9.02 5.51,11 h 1.5 L 4.51,4.01 Z m 1,1.5 L 4.52,8 H 2.51 Z"/>
 <path style="fill:#666666" d="m 13.36,5.9 -5,5.59 1.41,0.55 c 1.46,-1.59 0,0 1.46,-1.59 l 2.39,0.96 -0.08,2.1 1.41,0.55 0.3,-7.43 z m 0.38,1.76 v 2.7 L 11.86,9.62 Z"/>
 <rect style="fill:#666666" width="1" height="11" x="7" y="2"/>
 <rect style="fill:#666666" width="8" height="1" x="0" y="12"/>
 <rect style="fill:#666666" width="8.466" height="1.038" x="11.3" y="8.46" transform="matrix(0.93279813,0.36039928,-0.3785795,0.92556878,0,0)"/>
</svg>
