<svg xmlns="http://www.w3.org/2000/svg" width="16" height="16" version="1.1" viewBox="0 0 16 16">
 <rect style="fill:none" width="16" height="16" x="0" y="0"/>
 <path style="fill:#666666" d="M 2,2 V 5 L 3,4 h 2 v 6 L 4,11 H 8 L 7,10 V 4 h 2 l 1,1 V 2 Z"/>
 <rect style="fill:#666666" width="1" height="1" x="0" y="0"/>
 <rect style="fill:#666666" width="1" height="1" x="2" y="0"/>
 <rect style="fill:#666666" width="1" height="1" x="4" y="0"/>
 <rect style="fill:#666666" width="1" height="1" x="6" y="0"/>
 <rect style="fill:#666666" width="1" height="1" x="8" y="0"/>
 <rect style="fill:#666666" width="1" height="1" x="10" y="0"/>
 <rect style="fill:#666666" width="1" height="1" x="0" y="4"/>
 <rect style="fill:#666666" width="1" height="1" x="0" y="6"/>
 <rect style="fill:#666666" width="1" height="1" x="0" y="8"/>
 <rect style="fill:#666666" width="1" height="1" x="0" y="10"/>
 <rect style="fill:#666666" width="1" height="1" x="0" y="12"/>
 <rect style="fill:#666666" width="1" height="1" x="0" y="14"/>
 <rect style="fill:#666666" width="1" height="1" x="0" y="2"/>
 <rect style="fill:#666666" width="1" height="1" x="14" y="0"/>
 <rect style="fill:#666666" width="1" height="1" x="12" y="0"/>
 <rect style="fill:#666666" width="1" height="1" x="2" y="14"/>
 <rect style="fill:#666666" width="1" height="1" x="4" y="14"/>
 <rect style="fill:#666666" width="1" height="1" x="6" y="14"/>
 <rect style="fill:#666666" width="1" height="1" x="8" y="14"/>
 <rect style="fill:#666666" width="1" height="1" x="14" y="4"/>
 <rect style="fill:#666666" width="1" height="1" x="14" y="6"/>
 <rect style="fill:#666666" width="1" height="1" x="14" y="8"/>
 <rect style="fill:#666666" width="1" height="1" x="14" y="2"/>
 <path style="fill:#666666" d="m 10,11 h 2 l 4,5 h -2 z"/>
 <path style="fill:#666666" d="m 16,11 h -2 l -4,5 h 2 z"/>
</svg>
