<svg xmlns="http://www.w3.org/2000/svg" width="16" height="16" version="1.1" viewBox="0 0 16 16">
 <rect style="opacity:0.3;fill:none" width="16" height="16" x="0" y="0"/>
 <path style="fill:#666666" d="m 9.06,1.05 c 0,5.02 0,2.56 0.03,5.46 v 0.43 h 0.47 2.28 C 13.52,7 13.45,2.89 11.81,3.01 c -0.01,0 -0.02,0 -0.03,0 H 10.06 V 1.05 Z M 10,3.9 h 1.81 0.03 0.03 c 0.37,-0.04 0.44,2.17 0,2.15 H 11.84 10 c -0.01,-0.47 0,-2 0,-2.15 z"/>
 <path style="fill:#666666" d="m 4.06,1.95 v 0.87 h 1.75 c 0.13,0.02 0.2,0.07 0.25,0.13 0.05,0.06 0.12,0.19 0.12,0.37 0.01,0.02 0,0.02 0,0.03 V 4.04 H 4.34 4.31 C 2.7,3.92 2.62,7 4.28,6.94 H 6.59 7.03 V 6.5 L 7.06,3.35 C 7.06,2.98 6.96,2.64 6.75,2.39 6.54,2.14 6.22,1.98 5.9,1.95 H 5.87 Z M 4.25,4.91 H 4.28 4.31 6.15 L 6.12,6.06 H 4.28 4.25 c -0.47,0.02 -0.4,-1.19 0,-1.15 z"/>
 <path style="fill:#666666" d="M 8,9 C 3.76,9 0.3,12.09 0.03,16 h 1 C 1.31,12.65 4.32,10 8,10 c 3.68,0 6.69,2.65 6.97,6 h 1 C 15.7,12.09 12.24,9 8,9 Z"/>
</svg>
