<svg xmlns="http://www.w3.org/2000/svg" width="16" height="16.049" version="1.1" viewBox="0 0 16 16.05">
 <rect style="opacity:0.3;fill:none" width="16" height="16" x="0" y="0"/>
 <path style="fill:#666666" d="m 9.06,0.05 c 0,5.02 0,2.56 0.03,5.46 v 0.43 h 0.47 2.28 c 1.68,0.07 1.61,-4.05 -0.03,-3.93 -0.01,0 -0.02,0 -0.03,0 H 10.06 V 0.05 Z M 10,2.9 h 1.81 0.03 0.04 c 0.36,-0.03 0.43,2.17 0,2.15 H 11.84 10 c -0.01,-0.47 0,-2 0,-2.15 z"/>
 <path style="fill:#666666" d="m 4.06,0.95 v 0.88 h 1.75 c 0.13,0.01 0.2,0.06 0.25,0.12 0.05,0.06 0.12,0.19 0.13,0.38 0,0.01 0,0.01 0,0.03 V 3.04 H 4.34 4.31 C 2.7,2.93 2.63,6 4.28,5.94 H 6.59 7.03 V 5.5 L 7.06,2.36 C 7.06,1.99 6.96,1.64 6.75,1.39 6.54,1.14 6.22,0.99 5.91,0.95 H 5.87 Z M 4.25,3.91 H 4.28 4.31 6.16 L 6.12,5.07 H 4.28 4.25 c -0.47,0.02 -0.4,-1.2 0,-1.16 z"/>
 <path style="fill:#666666" d="M 8,7 C 3.76,7 0.3,10.09 0.03,14 h 1 C 1.31,10.65 4.32,8 8,8 c 3.68,0 6.69,2.65 6.97,6 h 1 C 15.7,10.09 12.24,7 8,7 Z"/>
 <path style="fill:#666666" d="M 5,11.02 H 6.71 L 11,16 H 9.29 Z"/>
 <path style="fill:#666666" d="M 11,11.02 H 9.27 l -4.32,5.03 h 1.73 z"/>
</svg>
