<svg xmlns="http://www.w3.org/2000/svg" width="16" height="16" version="1.1" viewBox="0 0 16 16">
 <path style="fill:none" d="M 0,0 H 16 V 16 H 0 Z"/>
 <path style="fill:#666666;fill-rule:evenodd" d="M 12,5 V 3.8 c 0,-1.1 -2,-1.1 -2,0 V 5 Z"/>
 <path style="fill:#666666;fill-rule:evenodd" d="M 15,10 14,9 H 8 l -1,1 v 4 c 0,0 2,2 8,2 z"/>
 <path style="fill:#666666;fill-rule:evenodd" d="M 14,8 13,6 H 9 L 8,8 Z"/>
 <circle style="fill:#666666" cx="7.9" cy="4.7" r=".269"/>
 <circle style="fill:#666666" cx="7" cy="6" r=".392"/>
 <ellipse style="fill:#666666" cx="6.93" cy="3.1" rx=".414" ry=".392"/>
 <circle style="fill:#666666" cx="5.46" cy="6.6" r=".588"/>
 <circle style="fill:#666666" cx="5.39" cy="2.5" r=".588"/>
 <circle style="fill:#666666" cx="4.55" cy="4.9" r=".588"/>
 <ellipse style="fill:#666666" cx="2.91" cy="8" rx=".993" ry=".99"/>
 <ellipse style="fill:#666666" cx="3.14" cy="2" rx="1" ry=".988"/>
 <ellipse style="fill:#666666" cx="1.99" cy="4.9" rx="1" ry="1.048"/>
 <circle style="fill:#666666" cx="6.54" cy="4.8" r=".5"/>
</svg>
