<svg xmlns="http://www.w3.org/2000/svg" width="16" height="16" version="1.1" viewBox="0 0 16 16">
 <rect style="opacity:0.3;fill:none" width="16" height="16" x="0" y="0"/>
 <path style="fill:#666666" d="m 2,1.01 v 1 H 2.5 13 V 8.5 9 h 1 V 8.5 1.51 1.01 h -0.5 -11 z"/>
 <path style="fill:#666666" d="M 2,8 V 9 H 2.5 9 V 9.5 10 h 1 V 9.5 8.5 8 h -0.5 -7 z"/>
 <path style="fill:#666666" d="m 5,12 v 2.02 H 7 V 12 Z"/>
 <path style="fill:#666666" d="m 9,14 v -2 h 3 v -2 l 2.99,3 -2.99,3 v -2 z"/>
 <path style="fill:#666666" d="m 2,12.02 v 2.02 h 2 v -2.02 z"/>
 <rect style="fill:#666666" width="1" height="1" x="2" y="3.01"/>
 <rect style="fill:#666666" width="1" height="1" x="3" y="4.01"/>
 <rect style="fill:#666666" width="1" height="1" x="4" y="5.01"/>
 <rect style="fill:#666666" width="1" height="1" x="3" y="6.01"/>
 <rect style="fill:#666666" width="1" height="1" x="2" y="3.01"/>
 <rect style="fill:#666666" width="1" height="1" x="3" y="4.01"/>
 <rect style="fill:#666666" width="1" height="1" x="4" y="5.01"/>
 <rect style="fill:#666666" width="1" height="1" x="3" y="6.01"/>
 <rect style="fill:#666666" width="1" height="1" x="5" y="3.01"/>
 <rect style="fill:#666666" width="1" height="1" x="6" y="4.01"/>
 <rect style="fill:#666666" width="1" height="1" x="7" y="5.01"/>
 <rect style="fill:#666666" width="1" height="1" x="6" y="6.01"/>
 <rect style="fill:#666666" width="1" height="1" x="5" y="3.01"/>
 <rect style="fill:#666666" width="1" height="1" x="6" y="4.01"/>
 <rect style="fill:#666666" width="1" height="1" x="7" y="5.01"/>
 <rect style="fill:#666666" width="1" height="1" x="6" y="6.01"/>
 <rect style="fill:#666666" width="1" height="1" x="8" y="3.01"/>
 <rect style="fill:#666666" width="1" height="1" x="9" y="4.01"/>
 <rect style="fill:#666666" width="1" height="1" x="10" y="5.01"/>
 <rect style="fill:#666666" width="1" height="1" x="9" y="6.01"/>
 <rect style="fill:#666666" width="1" height="1" x="8" y="3.01"/>
 <rect style="fill:#666666" width="1" height="1" x="9" y="4.01"/>
 <rect style="fill:#666666" width="1" height="1" x="10" y="5.01"/>
 <rect style="fill:#666666" width="1" height="1" x="9" y="6.01"/>
</svg>
