<svg xmlns="http://www.w3.org/2000/svg" width="16" height="16" version="1.1" viewBox="0 0 16 16">
 <rect style="opacity:0.3;fill:none" width="16" height="16" x="0" y="0"/>
 <path style="fill:#666666" d="M 3,5 C 2.74,5.03 2.53,5.28 2.55,5.53 2.57,5.78 2.83,5.99 3.1,5.96 L 7.49,5.99 C 8.66,6 8.92,6.04 9.35,6.43 9.78,6.83 10,7.46 10,8.49 10,8.75 10.24,8.98 10.5,8.98 10.77,8.98 11,8.75 11,8.49 11,7.33 10.73,6.38 10.04,5.74 9.34,5.11 8.8,5.05 7.49,5.04 L 3.1,5 C 3.06,5 3.03,5 3,5 Z"/>
 <path style="fill:#666666" d="m 5,12 v 2.02 H 7 V 12 Z"/>
 <path style="fill:#666666" d="m 9,14 v -2 h 3 v -2 l 2.99,3 -2.99,3 v -2 z"/>
 <path style="fill:#666666" d="m 2,12.02 v 2.02 h 2 v -2.02 z"/>
 <path style="fill:#666666" d="m 2.81,1.01 a 1.0045024,1.0045024 0 1 0 0.19,2 h 5.5 c 1.56,0 2.65,0.42 3.37,1.09 C 12.59,4.77 13,5.73 13,7.01 a 1.0001,1.0001 0 1 0 2,0 C 15,5.28 14.4,3.71 13.25,2.63 12.09,1.55 10.44,1.01 8.5,1.01 H 3 a 1.0001,1.0001 0 0 0 -0.19,0 z"/>
</svg>
