<svg xmlns="http://www.w3.org/2000/svg" width="16" height="16" version="1.1" viewBox="0 0 16 16">
 <rect style="fill:none" width="16" height="15.987" x="0" y=".01" rx=".47" ry="0"/>
 <path style="fill:#666666" d="M 0,0.01 V 5 C 0.98,5 2.12,5.02 3,5 H 5 L 3.19,3.19 V 3.16 C 3.56,2.43 4.44,1.88 5.56,1.88 c 1.5,0 2.56,1 2.56,2.06 -0.08,0.54 0.39,1.1 0.94,1.1 0.55,0 1.03,-0.56 0.94,-1.1 C 10,1.69 7.94,0.01 5.56,0.01 4.02,0.01 2.61,0.7 1.81,1.82 Z"/>
 <path style="fill:#666666" d="m 9.97,15.21 a 0.9501,0.94932 0 0 0 1.09,0.78 C 13.32,15.99 15,13.93 15,11.56 15,10.02 14.3,8.61 13.19,7.81 L 15,6 h -5 v 1.75 0.09 a 0.9501,0.94932 0 0 0 0,0.47 V 9 11 l 1.81,-1.81 c 0.01,0 0.03,-0.01 0.03,0 0.73,0.37 1.28,1.25 1.28,2.37 0,1.49 -1,2.56 -2.06,2.56 a 0.9501,0.94932 0 0 0 -1.09,1.09 z"/>
 <rect style="fill:#666666" width="7" height="6.994" x="1" y="7" rx=".47" ry="0"/>
</svg>
