<svg xmlns="http://www.w3.org/2000/svg" width="16" height="16" version="1.1" viewBox="0 0 16 16">
 <rect style="fill:none" width="16" height="16" x="0" y="0"/>
 <path style="fill:#666666" d="M 7.5,0 C 3.358,0 0,3.34 0,7.44 c 0,4.1 3.358,7.41 7.5,7.41 1.47,0 2.84,-0.43 4,-1.16 l 1.97,1.94 c 0.52,0.51 1.33,0.49 1.84,-0.03 l 0.25,-0.25 c 0.51,-0.52 0.52,-1.37 0,-1.88 l -1.9,-1.84 C 14.5,10.43 15,9.01 15,7.44 15,3.34 11.64,0 7.5,0 Z M 10,4 H 11.5 12 V 4.5 11 H 11 V 5 H 10 Z M 3,4 H 6 V 8 H 4 v 2 h 2 v 1 H 4.5 3 V 7 H 5 V 5 H 3 Z M 8,7 H 9 V 8 H 8 Z m 0,3 h 1 v 1 H 8 Z"/>
</svg>
