<svg xmlns="http://www.w3.org/2000/svg" width="16" height="16" version="1.1" viewBox="0 0 16 16">
 <rect style="fill:none" width="16" height="16" x="0" y="0"/>
 <path style="fill:#666666" d="M 7.5,0 C 3.358,0 0,3.34 0,7.44 c 0,4.1 3.358,7.41 7.5,7.41 1.473,0 2.841,-0.43 4,-1.16 l 1.969,1.94 c 0.518,0.51 1.333,0.49 1.844,-0.03 l 0.25,-0.25 c 0.51,-0.52 0.517,-1.37 0,-1.88 L 13.656,11.63 C 14.496,10.43 15,9.01 15,7.44 15,3.34 11.642,0 7.5,0 Z M 4,3 10,7 V 4 h 1 c 0,2.34 0,0 0,6 H 10 V 7 l -6,4 z"/>
</svg>
